<?xml version="1.0" standalone="no"?>
<!DOCTYPE svg PUBLIC "-//W3C//DTD SVG 1.1//EN" "http://www.w3.org/Graphics/SVG/1.1/DTD/svg11.dtd" >
<svg xmlns="http://www.w3.org/2000/svg" width="100%" height="100%">
<metadata>
Created by FontXChange 20110222 at Mon Feb 20 19:12:22 2012
 By Michael Pellegrini
Copyright 2005-2006 Nike, Inc.
</metadata>
<defs>
<font id="VictoryNeueLight" horiz-adv-x="410" >
  <font-face 
    font-family="Victory Neue Light"
    font-weight="400"
    font-stretch="normal"
    units-per-em="2048"
    panose-1="0 0 3 0 0 0 0 0 0 0"
    ascent="1638"
    descent="-410"
    x-height="1067"
    cap-height="1495"
    bbox="-397 -479 2669 1905"
    underline-thickness="102"
    underline-position="-154"
    unicode-range="U+0020-FB02"
  />
<missing-glyph horiz-adv-x="1024" 
d="M129 1569h768v-1569h-768v1569zM768 129v1313h-512v-1313h512z" />
    <glyph glyph-name=".notdef" horiz-adv-x="1024" 
d="M129 1569h768v-1569h-768v1569zM768 129v1313h-512v-1313h512z" />
    <glyph glyph-name="space" unicode=" " horiz-adv-x="532" 
 />
    <glyph glyph-name="exclam" unicode="!" horiz-adv-x="627" 
d="M246 391v1104h135v-1104h-135zM238 0v166h151v-166h-151z" />
    <glyph glyph-name="quotedbl" unicode="&#x22;" horiz-adv-x="1065" 
d="M659 1126v369h105v-369h-105zM301 1126v369h105v-369h-105z" />
    <glyph glyph-name="numbersign" unicode="#" horiz-adv-x="1004" 
d="M784 940l-51 -377h213v-88h-225l-64 -475h-100l64 475h-314l-63 -475h-101l64 475h-213v88h225l51 377h-211v88h224l61 467h100l-61 -467h313l62 467h100l-61 -467h215v-88h-228zM371 940l-52 -377h314l51 377h-313z" />
    <glyph glyph-name="dollar" unicode="$" horiz-adv-x="1128" 
d="M1059 414c0 -126 -41 -227.665 -123 -304.998c-76 -72 -175.667 -115 -299 -129v-150h-111v145c-78.667 3.33301 -153.5 16.333 -224.5 39s-138.833 55.667 -203.5 99v163c126 -112.667 268.667 -172 428 -178v637c-68 23.333 -125.333 46.166 -172 68.499
s-84 43.833 -112 64.5c-87.333 65.333 -131 153.666 -131 264.999c0 116 41.667 208.667 125 278c38 32 81 56.667 129 74s101.667 28.333 161 33v155h111v-155c66.667 -5.33301 129.167 -17.333 187.5 -36s112.5 -45 162.5 -79v-150
c-52 43.3379 -107.167 77.1709 -165.5 101.499c-58.333 24.3438 -119.833 39.1768 -184.5 44.5v-570c68 -23.3359 125.833 -46.6689 173.5 -69.999c47.667 -23.333 86.167 -46.333 115.5 -69c88.667 -69.333 133 -161.333 133 -276zM526 1399
c-38 -3.33301 -73.167 -11.5 -105.5 -24.5s-62.5 -30.167 -90.5 -51.5c-61.333 -46.667 -92 -106 -92 -178c0 -69.333 28.667 -127.333 86 -174c20.667 -17.333 47.667 -34.5 81 -51.5c33.334 -17 73.667 -34.167 121 -51.5v531zM926 401.002
c0 75.333 -28.667 137.667 -86 187c-21.333 19.333 -49 37.833 -83 55.5s-74 35.167 -120 52.5v-592c83.333 14.667 151 45.667 203 93c57.333 55.333 86 123.333 86 204z" />
    <glyph glyph-name="percent" unicode="%" horiz-adv-x="1796" 
d="M1634 338c0 -100 -18.334 -180.666 -55.001 -241.999c-47.333 -80.667 -120.333 -121 -219 -121s-171.667 40.333 -219 121c-17.333 31.333 -30.666 67 -39.999 107s-14 85 -14 135c0 49.333 4.66699 94 14 134c9.35059 40 22.6836 76 40 108
c47.333 80 120.333 120 219 120s171.667 -40 219 -120c36.667 -63.334 55 -144.001 55 -242.001zM1536 338.001c0 184 -58.667 276 -176 276s-176 -92 -176 -276c0 -183.333 58.667 -275 176 -275s176 91.667 176 275zM529.999 -24.999h-104l834 1545h104zM716.999 1155
c0 -50 -4.66699 -95.002 -14 -135.002s-23 -75.667 -41 -107c-24 -40 -54 -69.667 -90 -89s-79.333 -29 -130 -29c-99.333 0 -172.333 39.333 -219 118c-35.333 62.667 -53 143.334 -53 242.001c0 96.667 17.667 177.334 53 242.001c47.333 82 120.333 123 219 123
c50.667 0 94 -10.167 130 -30.5s66 -50.5 90 -90.5c18 -32 31.667 -68.167 41 -108.5s14 -85.5 14 -135.5zM617.999 1155c0 184.667 -58.667 277 -176 277c-116 0 -174 -92.333 -174 -277c0 -182.667 58 -274 174 -274c117.333 0 176 91.333 176 274z" />
    <glyph glyph-name="ampersand" unicode="&#x26;" horiz-adv-x="1366" 
d="M1192 2l-178 212.998c-66 -82 -131.667 -141.333 -197 -178c-74.667 -41.333 -162 -62 -262 -62c-128.667 0 -236 33 -322 99c-95.333 70.667 -143 169 -143 295c0 115.333 38.333 216.333 115 303c28.667 30.668 65 61.835 109 93.5c44 31.668 96.333 63.835 157 96.5
c-30.667 36 -56.334 67.833 -77 95.5c-20.667 27.667 -36.667 51.167 -48 70.5c-19.333 34 -34 67.333 -44 100s-15 65.667 -15 99c0 92.667 33.333 165 100 217c32 24.667 67.333 43.167 106 55.5s82 18.5 130 18.5c44 0 83.833 -5.66699 119.5 -17
s68.167 -27.666 97.5 -48.999c62.667 -48.667 94 -115.667 94 -201c0 -89.333 -28.667 -169.666 -86 -240.999c-43.333 -54.667 -110.333 -110 -201 -166l361 -432c22.667 34 47.667 74.167 75 120.5c27.3379 46.333 57.6709 99.5 91 159.5h139
c-42 -74.667 -82 -143.167 -120 -205.5s-74 -119.5 -108 -171.5l263 -313h-156zM809 1239c0 26.667 -4.83203 50.667 -14.499 72s-23.167 39.333 -40.5 54s-38 26 -62 34s-50.667 12 -80 12c-28.667 0 -55.334 -4.5 -80.001 -13.5s-46.167 -21.5 -64.5 -37.5
s-32.833 -35.167 -43.5 -57.5s-16 -46.833 -16 -73.5c0 -64 58 -165 174 -303c54.667 34.667 101 72 139 112c58.667 63.333 88 130.333 88 201zM541.001 777.998c-50.667 -30.667 -94.168 -59.666 -130.501 -86.999c-36.333 -27.3359 -65.166 -53.6689 -86.499 -79
c-67.333 -70 -101 -151.667 -101 -245c0 -90.667 35.667 -162.334 107 -215.001c32 -24 67.333 -41.667 106 -53s81.667 -17 129 -17c126.667 0 249.667 75.667 369 227z" />
    <glyph glyph-name="quotesingle" unicode="'" horiz-adv-x="557" 
d="M227 1126v369h103v-369h-103z" />
    <glyph glyph-name="parenleft" unicode="(" horiz-adv-x="633" 
d="M375 1137c-66 -170 -99.001 -352.334 -99.001 -547.001c0 -191.333 33 -373 99 -545c28.667 -76 65.5 -154.167 110.5 -234.5s98.833 -163.166 161.5 -248.499h-143c-242 321.333 -363 664 -363 1028c0 363.333 121 706 363 1028h145
c-125.333 -170 -216.666 -330.333 -273.999 -481z" />
    <glyph glyph-name="parenright" unicode=")" horiz-adv-x="633" 
d="M492 590c0 -364 -121.001 -706.666 -363.001 -1028h-143c62.667 85.333 116.5 168.166 161.5 248.499s81.833 158.5 110.5 234.5c33.333 86.667 58 175.167 74 265.5s24 183.5 24 279.5c0 97.333 -8 191.5 -24 282.5c-16 91.001 -40.667 179.168 -74 264.5
c-57.333 150.667 -148.666 311 -273.999 481h145c242 -322 363 -664.667 363 -1028z" />
    <glyph glyph-name="asterisk" unicode="*" horiz-adv-x="713" 
d="M418 1133l170 -218l-86 -53l-146 223l-147 -223l-84 53l168 218l-246 77l25 99l243 -97l-10 283h103l-11 -283l242 97l27 -99z" />
    <glyph glyph-name="plus" unicode="+" horiz-adv-x="1167" 
d="M637 528v-465h-107v465h-444v107h444v465h107v-465h444v-107h-444z" />
    <glyph glyph-name="comma" unicode="," horiz-adv-x="444" 
d="M154 -272h-123l141 438h152z" />
    <glyph glyph-name="hyphen" unicode="-" horiz-adv-x="606" 
d="M51 528v107h504v-107h-504z" />
    <glyph glyph-name="hyphen" unicode="&#x2010;" horiz-adv-x="606" 
d="M51 528v107h504v-107h-504z" />
    <glyph glyph-name="period" unicode="." horiz-adv-x="444" 
d="M141 0v166h152v-166h-152z" />
    <glyph glyph-name="slash" unicode="/" horiz-adv-x="870" 
d="M127 -25h-123l709 1545h123z" />
    <glyph glyph-name="zero" unicode="0" horiz-adv-x="1241" 
d="M1169 745c0 -108 -9.16699 -205.331 -27.5 -291.998s-46.5 -163.334 -84.5 -230c-93.334 -165.333 -239.667 -248 -439 -248c-198 0 -343.333 83.333 -436 250c-73.333 131.333 -110 304.666 -110 519.999c0 108.667 9.16699 206 27.5 292s45.833 162.333 82.5 229
c94 168 239.333 252 436 252c198 0 344.333 -83.333 439 -250c38 -66.6689 66.167 -143.336 84.5 -230c18.333 -86.667 27.5 -184.334 27.5 -293.001zM1032 745.002c0 434.667 -137.001 652 -411.001 652c-155.333 0 -266.666 -73.667 -333.999 -221
c-50.667 -108 -76 -251.667 -76 -431c0 -431.333 136.667 -647 410 -647c274 0 411 215.667 411 647z" />
    <glyph glyph-name="one" unicode="1" horiz-adv-x="563" 
d="M252 0v1368l-154 -98v129l158 96h123v-1495h-127z" />
    <glyph glyph-name="two" unicode="2" horiz-adv-x="1061" 
d="M977 1118c0 -94.667 -38.999 -184.002 -116.999 -268.002c-19.333 -21.333 -48.333 -48 -87 -80s-87.334 -69.667 -146.001 -113c-58.667 -43.334 -109 -83.167 -151 -119.499c-42 -36.333 -76.333 -69.5 -103 -99.5c-82.667 -96.667 -133.334 -203.667 -152.001 -321
h746v-115h-883c1.33301 93.333 14.333 179.333 39 258s62.334 150.334 113.001 215.001c64 84.667 187.333 194 370 328c74.667 54 127.334 98.333 158 133c53.333 59.333 80 120 80 182c0 86 -31.333 154.333 -94 205c-61.334 50.667 -136.667 76 -226 76
c-86.667 0 -161.667 -13 -225 -39c-30.667 -13.333 -62.5 -30.833 -95.5 -52.5s-67.5 -48.5 -103.5 -80.5v145c121.333 96 263.333 144 426 144c124 0 228.667 -35.667 314 -107c91.333 -75.333 137 -172.333 137 -291z" />
    <glyph glyph-name="three" unicode="3" horiz-adv-x="1120" 
d="M1008 428c0 -150.667 -56.667 -267.331 -170 -349.998c-96 -68.667 -214.333 -103 -355 -103c-83.333 0 -161 12.333 -233 37s-138.333 61 -199 109v145c34.667 -31.333 68.334 -57.833 101.001 -79.5s66.167 -39.334 100.5 -53.001
c34.334 -13.667 70.167 -23.667 107.5 -30s78.333 -9.5 123 -9.5c114.667 0 207.667 27.333 279 82c76.667 60.667 115 143.334 115 248.001s-38.333 187.334 -115 248c-71.333 54.667 -164.333 82 -279 82h-172v120h172c46 0 88 5.66699 126 17s72.667 27.666 104 48.999
c69.333 47.333 104 113 104 197s-34 150 -102 198c-62.667 45.333 -140 68 -232 68c-139.333 0 -261.333 -40.333 -366 -121v137c102 66 224 99 366 99c118.667 0 219.667 -27.333 303 -82c108 -67.333 162 -168.333 162 -303c0 -102 -33.333 -185.333 -100 -250
c-16.667 -15.333 -33.834 -29 -51.501 -41s-36.167 -21.667 -55.5 -29c42.667 -14 80.5 -33.167 113.5 -57.5s60.833 -53 83.5 -86s40 -69.833 52 -110.5s18 -84.334 18 -131.001z" />
    <glyph glyph-name="four" unicode="4" horiz-adv-x="1229" 
d="M958 311v-311h-131v311h-786v115l793 1069h124v-1065h230v-119h-230zM827 1282l-637 -852h637v852z" />
    <glyph glyph-name="five" unicode="5" horiz-adv-x="1214" 
d="M1112 467c0 -163.333 -60.667 -288.999 -182 -376.999c-106 -76.667 -237.667 -115 -395 -115c-164.667 0 -309 49.333 -433 148v147c35.333 -31.333 69.333 -58 102 -80s66 -40 100 -54s69.833 -24.167 107.5 -30.5s78.834 -9.5 123.501 -9.5
c128.667 0 234.334 32.333 317 97c87.333 66.667 131 158 131 274c0 126.667 -43.667 221.667 -131 285c-79.333 56 -185 84 -317 84c-99.333 0 -200 -31.667 -302 -95l-83 50l98 704h719v-117h-615l-67 -471c38 17.333 77.5 30.166 118.5 38.499s84.833 12.5 131.5 12.5
c173.333 0 309.666 -38.667 408.999 -116c112 -83.333 168 -208.333 168 -375z" />
    <glyph glyph-name="six" unicode="6" horiz-adv-x="1235" 
d="M1133 455c0 -141.333 -48.667 -256.667 -146 -346c-96.667 -89.333 -216 -134 -358 -134c-297.333 0 -469.333 172.333 -516 517c-5.33301 36 -9.16602 74.333 -11.499 115s-3.5 84.667 -3.5 132c0 72.667 3.5 137.5 10.5 194.5s17.167 107.5 30.5 151.5
c39.333 125.333 108.333 229.333 207 312c100 82 214 123 342 123c125.333 0 234.666 -30 327.999 -90v-134c-85.334 71.333 -198.667 107 -340 107c-93.333 0 -179.333 -34.333 -258 -103c-70 -60.667 -121.333 -139 -154 -235c-12 -36 -21.167 -79 -27.5 -129
s-9.5 -107.333 -9.5 -172v-49c92 139.333 233.333 209 424 209c135.333 0 249.333 -44.333 342 -133c93.333 -90 140 -202 140 -336zM1006 450.999c0 100.667 -37.001 186.001 -111.001 256.001c-74.667 69.333 -162 104 -262 104
c-101.333 0 -188.666 -34.667 -261.999 -104c-74 -70 -111 -155.333 -111 -256c0 -105.333 35.667 -191.333 107 -258c36 -34 76.167 -59.333 120.5 -76s92.833 -25 145.5 -25c100 0 187.333 34.333 262 103c74 69.333 111 154.666 111 255.999z" />
    <glyph glyph-name="seven" unicode="7" horiz-adv-x="1030" 
d="M285 0h-148l639 1378h-715v117h857v-115z" />
    <glyph glyph-name="eight" unicode="8" horiz-adv-x="1245" 
d="M1147 408c0 -146 -56.668 -257.998 -170.001 -335.998c-94 -66 -211.333 -99 -352 -99c-71.333 0 -136.166 8.16699 -194.499 24.5s-111.833 41.166 -160.5 74.499c-114.667 78.667 -172 190.667 -172 336c0 185.333 83.333 310.666 250 375.999
c-142 64.667 -213 175.334 -213 332c0 140.667 56.667 247.334 170 320.001c89.333 56 196 84 320 84s230.333 -28.667 319 -86c112 -71.333 168 -177.333 168 -318c0 -158 -71 -269.333 -213 -334c165.333 -64.667 248 -189.334 248 -374.001zM986.999 1118
c0 91.333 -37.667 164.333 -113 219c-67.333 49.333 -150.333 74 -249 74c-100.667 0 -184.667 -24.667 -252 -74c-75.333 -54.667 -113 -127.667 -113 -219c0 -92.667 37.667 -164.334 113 -215.001c66.667 -44.667 150.667 -67 252 -67s184.333 22.333 249 67
c75.333 50.667 113 122.334 113 215.001zM1022 412.002c0 100 -38.999 178.334 -116.999 235.001c-71.334 53.333 -164.667 80 -280 80c-116 0 -210.333 -26.667 -283 -80c-79.333 -56.667 -119 -135 -119 -235c0 -102.667 39.667 -183.334 119 -242.001
c73.333 -58.667 167.666 -88 282.999 -88c112.667 0 206.667 29.333 282 88c76.667 59.333 115 140 115 242z" />
    <glyph glyph-name="nine" unicode="9" horiz-adv-x="1235" 
d="M1135 756c0 -72.667 -3.49902 -137.501 -10.499 -194.501s-17.167 -107.5 -30.5 -151.5c-39.333 -125.333 -107.666 -228.666 -204.999 -309.999c-100 -83.333 -214.667 -125 -344 -125c-125.333 0 -234.666 30.333 -327.999 91v133
c85.333 -71.333 198.666 -107 339.999 -107c93.333 0 179.333 34.333 258 103c70 60.667 121.333 139 154 235c12 36 21.167 79 27.5 129s9.5 107.333 9.5 172v23.5c0 9.66699 -0.666992 18.167 -2 25.5c-46.667 -70 -104.834 -122.333 -174.501 -157
s-152.167 -52 -247.5 -52c-136.667 0 -251.334 44.667 -344.001 134c-92 87.333 -138 199 -138 335c0 141.335 49.333 257.668 148 349c93.333 87.333 212 131 356 131c297.333 0 469.333 -172 516 -516c10 -72 15 -154.667 15 -248zM973.001 1044
c0 104 -36.333 190.333 -109 259c-70.667 66.667 -158.667 100 -264 100c-100.667 0 -188 -35 -262 -105c-74 -66.6689 -111 -151.336 -111 -254c0 -100.667 37 -186 111 -256c74.667 -69.333 162 -104 262 -104s187.333 34.667 262 104c74 70 111 155.333 111 256z" />
    <glyph glyph-name="colon" unicode=":" horiz-adv-x="444" 
d="M141 901v166h154v-166h-154zM141 0v166h154v-166h-154z" />
    <glyph glyph-name="semicolon" unicode=";" horiz-adv-x="444" 
d="M141 901v166h154v-166h-154zM154 -272h-123l141 438h152z" />
    <glyph glyph-name="less" unicode="&#x3c;" horiz-adv-x="1198" 
d="M100 463v110l1002 439v-109l-885 -385l885 -385v-108z" />
    <glyph glyph-name="equal" unicode="=" horiz-adv-x="1198" 
d="M96 666v106h1006v-106h-1006zM96 264v107h1006v-107h-1006z" />
    <glyph glyph-name="greater" unicode="&#x3e;" horiz-adv-x="1198" 
d="M100 25v108l881 385l-881 385v109l1002 -439v-110z" />
    <glyph glyph-name="question" unicode="?" horiz-adv-x="1038" 
d="M895 1118c0 -123.334 -47.667 -223.666 -143 -300.999l-142 -115c-53.334 -43.333 -88.667 -82 -105.999 -116c-22.667 -42.667 -35 -107.667 -37 -195h-127c1.33301 52 5.83301 97.833 13.5 137.5s18.167 74.5 31.5 104.5c13.334 28 31.167 54.833 53.5 80.5
s49.5 51.5 81.5 77.5l139 110c72.667 57.333 109 129.666 109 216.999c0 85.333 -30 155 -90 209c-55.333 49.333 -124.333 74 -207 74c-40.667 0 -78 -3.16699 -112 -9.5s-66.5 -16.5 -97.5 -30.5s-61.5 -32.167 -91.5 -54.5s-61.333 -49.5 -94 -81.5v149
c113.333 97.333 245.666 146 396.999 146c116 0 213.667 -35.667 293 -107c86 -76 129 -174.333 129 -295zM328 0.000976562v166h151v-166h-151z" />
    <glyph glyph-name="at" unicode="@" horiz-adv-x="1638" 
d="M1630 934c0 -76.667 -12.668 -149.334 -38.001 -218.001s-61 -131.334 -107 -188.001c-92 -112 -191.667 -168 -299 -168c-108.667 0 -168 38.333 -178 115c-80 -86 -191.333 -129 -334 -129c-104.667 0 -185.334 31.333 -242.001 94c-54.667 59.333 -82 137.333 -82 234
c0 33.333 4 69.333 12 108c27.334 130.667 82.667 234.667 166 312c44 42 93.5 73.333 148.5 94s114.833 31 179.5 31c126.667 0 215.334 -48 266.001 -144l27 129h104l-118 -563c-14.667 -62 -21 -103 -19 -123c2 -38 22.667 -57 62 -57c78 0 153 47 225 141
c36 47.333 64.167 97.833 84.5 151.5s30.5 107.5 30.5 161.5c0 89.333 -13.833 168.333 -41.5 237c-27.6719 68.667 -72.8389 129 -135.5 181c-116.667 97.333 -269.334 146 -458 146c-206 0 -380.333 -67.667 -523 -203c-70.667 -66.6689 -125.167 -143.836 -163.5 -231.5
c-38.333 -87.667 -57.5 -181.167 -57.5 -280.5c0 -100.667 15.333 -190.667 46 -270s80.334 -152.666 149.001 -219.999c136.667 -130.667 308.667 -196 516 -196c179.333 0 356 69 530 207l-24 -144c-79.333 -55.333 -161.5 -96.833 -246.5 -124.5
s-174.167 -41.5 -267.5 -41.5c-240 0 -438 75.333 -594 226c-78 74.667 -134.333 158.334 -169 251.001s-52 197.334 -52 314c0 112 22.833 217.667 68.5 317c45.667 99.335 110.167 187.668 193.5 265c168.667 155.333 368.667 233 600 233c208 0 382.667 -56.667 524 -170
c76 -61.333 131.167 -131.333 165.5 -210s51.5 -167.667 51.5 -267zM1061 782c8 39.333 12.001 74.998 12.001 106.998c0 154 -78.333 231 -235 231c-97.333 0 -180 -32 -248 -96c-59.334 -58.667 -100.334 -139.334 -123 -242.001
c-3.33301 -15.3359 -5.83301 -30.6689 -7.5 -45.999c-1.66699 -15.3359 -2.5 -30.6689 -2.5 -46c0 -36 4.66699 -68.667 14 -98c9.33398 -29.335 23.667 -54.668 42.999 -75.999c21.333 -23.333 46.833 -41.166 76.5 -53.499s64.167 -18.5 103.5 -18.5
c97.333 0 179.333 32.333 246 97c30 30 54.833 65.167 74.5 105.5s35.167 85.5 46.5 135.5z" />
    <glyph glyph-name="A" unicode="A" horiz-adv-x="1434" 
d="M1249 0l-164 420h-735l-166 -420h-143l612 1495h127l613 -1495h-144zM719 1360l-326 -834h651z" />
    <glyph glyph-name="B" unicode="B" horiz-adv-x="1284" 
d="M1198 393c0 -133.333 -48.333 -234.333 -145 -303c-87.334 -60 -200.667 -90 -340 -90h-557v1495h522c140.667 0 252.667 -27.333 336 -82c96.667 -65.333 145 -164.333 145 -297c0 -39.333 -5.5 -77.5 -16.5 -114.5s-26.667 -71 -47 -102s-45 -58.167 -74 -81.5
s-61.5 -41.333 -97.5 -54c86.667 -28 154 -74.167 202 -138.5s72 -141.833 72 -232.5zM1030 1104c0 191.333 -129.667 287 -389 287h-358v-578h391c237.333 0 356 97 356 291zM1067 397c-0.000976562 208 -134.334 312 -403 312h-381v-605h411c248.667 0 373 97.667 373 293
z" />
    <glyph glyph-name="C" unicode="C" horiz-adv-x="1352" 
d="M1032 12c-76 -24.667 -160 -36.999 -252 -36.999c-217.333 0 -386.666 73.333 -507.999 220c-116 137.333 -174 321.666 -174 552.999c0 229.333 58 413.333 174 552c122.667 145.333 292 218 508 218c93.333 0 177.666 -12.333 252.999 -37s143.333 -61 204 -109v-147
c-128.667 116 -281 174 -457 174c-182 0 -321.333 -62.333 -418 -187c-90 -114 -135 -268.667 -135 -464c0 -196 45 -351 135 -465c98.667 -124.667 238 -187 418 -187c174.667 0 327 57.333 457 172v-147c-60.667 -48 -129 -84.333 -205 -109z" />
    <glyph glyph-name="D" unicode="D" horiz-adv-x="1446" 
d="M1348 748c0 -120.667 -17.332 -227.5 -51.999 -320.5s-87 -174.167 -157 -243.5c-124.667 -122.667 -293.334 -184 -506.001 -184h-477v1495h475c222 0 398 -69 528 -207c126 -136 189 -316 189 -540zM1219 748c0 188.667 -50 339.332 -150 451.999
c-104 117.333 -250 176 -438 176h-348v-1259h348c188 0 334 59.333 438 178c50 56.667 87.5 122.334 112.5 197.001s37.5 160 37.5 256z" />
    <glyph glyph-name="E" unicode="E" horiz-adv-x="1255" 
d="M156 0v1495h997v-119h-868v-561h786v-121h-786v-577h868v-117h-997z" />
    <glyph glyph-name="F" unicode="F" horiz-adv-x="1231" 
d="M283 1376v-561h778v-121h-778v-694h-129v1495h989v-119h-860z" />
    <glyph glyph-name="G" unicode="G" horiz-adv-x="1499" 
d="M1130.5 12c-83.668 -24.667 -176.5 -37 -278.499 -37c-233.333 0 -417.666 69.667 -552.999 209c-66.667 71.333 -116.834 153.5 -150.501 246.5s-50.5 198.833 -50.5 317.5c0 246.667 74.667 440.334 224 581.001c134 126 310.667 189 530 189
c98 0 186.833 -12.333 266.5 -37s151.834 -61 216.501 -109v-147c-134.668 116 -294.335 174 -479.001 174c-100 0 -188.167 -14.667 -264.5 -44c-76.334 -29.333 -142.501 -73.333 -198.501 -132c-110.667 -118 -166 -276.333 -166 -475
c0 -100.667 14.167 -191.334 42.5 -272.001s69.5 -149.167 123.5 -205.5s120 -99.5 198 -129.5s166.333 -45 265 -45c136.667 0 261.667 28.667 375 86v484h-483v120h608v-665c-66.6689 -48 -141.836 -84.333 -225.5 -109z" />
    <glyph glyph-name="H" unicode="H" horiz-adv-x="1468" 
d="M1184 0v707h-901v-707h-127v1495h127v-670h901v670h129v-1495h-129z" />
    <glyph glyph-name="I" unicode="I" horiz-adv-x="438" 
d="M156 0v1495h127v-1495h-127z" />
    <glyph glyph-name="J" unicode="J" horiz-adv-x="991" 
d="M717 119c-82 -90 -193.335 -135.001 -334.002 -135.001c-119.333 0 -226.666 30 -321.999 90v139c100 -69.333 206 -104 318 -104c102.667 0 183.334 33.333 242.001 100c54 62 81 145.333 81 250v1036h134v-1036c0 -141.333 -39.667 -254.666 -119 -339.999z" />
    <glyph glyph-name="K" unicode="K" horiz-adv-x="1317" 
d="M678 864l555 -864h-141l-502 764l-307 -342v-422h-127v1495h127v-893l804 893h156z" />
    <glyph glyph-name="L" unicode="L" horiz-adv-x="1118" 
d="M156 0v1495h127v-1376h786v-119h-913z" />
    <glyph glyph-name="M" unicode="M" horiz-adv-x="1745" 
d="M1462 0v1274l-524 -1274h-133l-524 1274v-1274h-125v1495h163l553 -1350l553 1350h164v-1495h-127z" />
    <glyph glyph-name="N" unicode="N" horiz-adv-x="1430" 
d="M1141 0l-858 1298v-1298h-127v1495h135l856 -1298v1298h127v-1495h-133z" />
    <glyph glyph-name="O" unicode="O" horiz-adv-x="1589" 
d="M1491 748c0 -228 -58.668 -411.67 -176.001 -551.003c-124.667 -148 -298.667 -222 -522 -222c-112.667 0 -212 18.333 -298 55s-160.333 92.334 -223 167.001c-116 139.333 -174 323 -174 551c0 228.667 58 411.334 174 548.001
c124.667 149.333 298.334 224 521.001 224c223.333 0 397.333 -74 522 -222c117.333 -139.333 176 -322.666 176 -549.999zM1362 747.997c0 198.667 -46.334 355.001 -139.001 469.001c-101.333 122.667 -244.666 184 -429.999 184c-184 0 -326 -62.333 -426 -187
c-93.333 -116.667 -140 -272 -140 -466c0 -196.667 46.667 -352.334 140 -467.001c100 -124.667 242 -187 426 -187c186.667 0 330 60.667 430 182c92.667 114 139 271.333 139 472z" />
    <glyph glyph-name="P" unicode="P" horiz-adv-x="1249" 
d="M1184 1053c0 -119.333 -38.999 -217 -116.999 -293c-94.667 -92.667 -226.334 -139 -395.001 -139h-398v-621h-127v1495h523c173.333 0 308.333 -48.333 405 -145c72.667 -74.667 109 -173.667 109 -297zM1057 1053c0 49.333 -8.99902 94.333 -26.999 135
s-43.5 75.5 -76.5 104.5s-72.667 51.5 -119 67.5s-97.833 24 -154.5 24h-406v-653h406c57.333 0 109.166 7.5 155.499 22.5s86 36.333 119 64c33 27.668 58.333 61.335 76 101c17.667 39.667 26.5 84.5 26.5 134.5z" />
    <glyph glyph-name="Q" unicode="Q" horiz-adv-x="1604" 
d="M1370 0l-123.001 130.996c-120.667 -104 -272 -156 -454 -156c-112.667 0 -212 18.333 -298 55s-160.333 92.334 -223 167.001c-116 139.333 -174 323 -174 551c0 228.667 58 411.334 174 548.001c124.667 149.333 298.334 224 521.001 224
c223.333 0 397.333 -74 522 -222c117.333 -139.333 176 -322.666 176 -549.999c0 -219.333 -54.667 -397.666 -164 -534.999l203 -213h-160zM1362 747.996c0 198.667 -46.334 355.001 -139.001 469.001c-101.333 122.667 -244.666 184 -429.999 184
c-184 0 -326 -62.333 -426 -187c-93.333 -116.667 -140 -272 -140 -466c0 -196.667 46.667 -352.334 140 -467.001c100 -124.667 242 -187 426 -187c153.333 0 278 41 374 123l-213 225h152l137 -143c79.333 108 119 257.667 119 449z" />
    <glyph glyph-name="R" unicode="R" horiz-adv-x="1327" 
d="M1141 0l-419.998 620.999h-436v-621h-129v1495h522c151.333 0 272.666 -35.333 363.999 -106c100 -79.333 150 -191.333 150 -336c0 -51.335 -7.83301 -99.168 -23.5 -143.499c-15.6758 -44.333 -37.8428 -84.333 -66.501 -120
c-28.667 -35.667 -63.5 -66.167 -104.5 -91.5s-86.833 -44.333 -137.5 -57l434 -641h-153zM1065 1053c0 106.667 -37 190 -111 250c-34 28 -73.167 48.5 -117.5 61.5s-93.833 19.5 -148.5 19.5h-403v-653h403c108 0 196 26 264 78c75.333 56.667 113 138 113 244z" />
    <glyph glyph-name="S" unicode="S" horiz-adv-x="1124" 
d="M1042 414c0 -138.667 -48.9971 -248.001 -146.997 -328.001c-92 -74 -209.333 -111 -352 -111c-85.333 0 -166.333 11.333 -243 34s-149.334 57.334 -218.001 104.001v163c132 -118.667 283.667 -178 455 -178c101.333 0 186.666 25.333 255.999 76
c77.333 55.333 116 131 116 227c0 82.667 -36 151 -108 205c-42.667 32.667 -116.334 67.667 -221.001 105c-84.667 30 -154 56.167 -208 78.5s-92.667 41.166 -116 56.499c-108 68.667 -162 164.334 -162 287c0 124.667 47.333 221.334 142 290.001
c84 64.667 191 97 321 97c159.333 0 297.333 -39 414 -117v-150c-118.667 98.667 -260.667 148 -426 148c-80 0 -151.667 -22.667 -215 -68c-72.667 -49.333 -109 -112 -109 -188c0 -83.333 41.667 -150.333 125 -201c41.334 -26 118.667 -58.667 232 -98
c153.333 -50.667 258.333 -97.667 315 -141c99.333 -71.333 149 -168.333 149 -291z" />
    <glyph glyph-name="T" unicode="T" horiz-adv-x="1247" 
d="M688 1376v-1376h-129v1376h-514v119h1157v-119h-514z" />
    <glyph glyph-name="U" unicode="U" horiz-adv-x="1409" 
d="M1239 379c-16 -62.667 -39.999 -118.836 -71.999 -168.503s-71 -91.5 -117 -125.5s-97.833 -60 -155.5 -78s-120.167 -27 -187.5 -27s-130 9 -188 27s-110 44 -156 78s-85.333 75.833 -118 125.5s-57 105.834 -73 168.501c-7.33301 26.667 -12.5 62.334 -15.5 107.001
s-4.5 99 -4.5 163v848h131v-868c0 -60 1.33301 -109.333 4 -148s6.66699 -66.667 12 -84c14 -47.333 34 -89.666 60 -126.999s56.5 -68.833 91.5 -94.5s74.167 -45.334 117.5 -59.001s89.666 -20.5 138.999 -20.5c48.668 0 94.335 6.83301 137 20.5
c42.667 13.667 81.5 33.334 116.5 59.001s65.5 57.167 91.5 94.5c26 37.334 46 79.667 60 127c5.33301 17.333 9.33301 45.333 12 84s4 88 4 148v868h129v-848c0 -132.667 -6 -222.667 -18 -270z" />
    <glyph glyph-name="V" unicode="V" horiz-adv-x="1389" 
d="M754 0h-119l-590 1495h139l510 -1319l510 1319h139z" />
    <glyph glyph-name="W" unicode="W" horiz-adv-x="2034" 
d="M1522 0h-105l-399 1321l-400 -1321h-102l-459 1495h142l372 -1253l379 1253h135l381 -1259l371 1259h139z" />
    <glyph glyph-name="X" unicode="X" horiz-adv-x="1298" 
d="M1087 0l-436 655l-436 -655h-170l522 760l-499 735h163l420 -631l420 631h160l-498 -735l520 -760h-166z" />
    <glyph glyph-name="Y" unicode="Y" horiz-adv-x="1264" 
d="M700 598v-598h-137v598l-530 897h157l443 -768l442 768h156z" />
    <glyph glyph-name="Z" unicode="Z" horiz-adv-x="1176" 
d="M80 0v113l860 1263h-862v119h1009v-117l-860 -1261h871v-117h-1018z" />
    <glyph glyph-name="bracketleft" unicode="[" horiz-adv-x="659" 
d="M238 -377v1933h342v-92h-220v-1749h220v-92h-342z" />
    <glyph glyph-name="backslash" unicode="\" horiz-adv-x="813" 
d="M686 -25l-641 1545h111l641 -1545h-111z" />
    <glyph glyph-name="bracketright" unicode="]" horiz-adv-x="659" 
d="M80 -377v92h219v1749h-219v92h342v-1933h-342z" />
    <glyph glyph-name="asciicircum" unicode="^" horiz-adv-x="1085" 
d="M897 635l-354 786l-355 -786h-104l405 868h107l405 -868h-104z" />
    <glyph glyph-name="underscore" unicode="_" horiz-adv-x="1024" 
d="M0 -260v106h1024v-106h-1024z" />
    <glyph glyph-name="grave" unicode="`" horiz-adv-x="334" 
d="M-84 1462h197l157 -239h-110z" />
    <glyph glyph-name="a" unicode="a" horiz-adv-x="1155" 
d="M895 0l-0.000976562 129c-144 -102.667 -296.333 -154 -457 -154c-237.333 0 -356 108 -356 324c0 114.667 44.333 204.667 133 270c40 30 87 53.833 141 71.5s116.333 30.167 187 37.5c23.333 3.33301 64.5 5.5 123.5 6.5s135.167 1.5 228.5 1.5v57
c0 81.333 -37 142.333 -111 183c-30 16 -63 28.167 -99 36.5s-76 12.5 -120 12.5c-131.333 0 -265.666 -50.667 -402.999 -152v133c116 92 253 138 411 138c128.667 0 232.667 -27.333 312 -82c90 -64 135 -157 135 -279v-733h-125zM894.999 571h-126.999
c-380.667 0 -571 -90.667 -571 -272c0 -140.667 78.333 -211 235 -211c66.667 0 138.667 14.167 216 42.5s159.666 71.5 246.999 129.5v311z" />
    <glyph glyph-name="b" unicode="b" horiz-adv-x="1262" 
d="M1163 535c0 -172 -42.332 -307.333 -126.999 -406c-88.667 -102.667 -216.334 -154 -383.001 -154c-174 0 -303 67.667 -387 203v-178h-123v1495h123v-606c84 135.333 213 203 387 203c166 0 293.667 -50.667 383 -152c84.667 -96.667 127 -231.667 127 -405zM1038 535
c-0.000976562 293.334 -128.335 440 -385.001 440c-117.333 0 -210.666 -42.333 -279.999 -127c-70 -84 -105 -188.333 -105 -313c0 -123.333 34.333 -227.333 103 -312c70.667 -87.333 164.667 -131 282 -131c256.667 0 385 147.667 385 443z" />
    <glyph glyph-name="c" unicode="c" horiz-adv-x="1049" 
d="M625 -25c-166 0 -296.667 52 -392 156c-90 100 -135 233.667 -135 401c0 83.333 11.667 158.333 35 225c23.333 66.668 58.333 126.335 105 179.001c94 104 223 156 387 156c130.667 0 246 -31.667 346 -95v-133c-104.667 74 -219.334 111 -344.001 111
c-65.333 0 -123.333 -10.667 -174 -32s-93.167 -51.333 -127.5 -90s-60.333 -85.334 -78 -140.001s-26.5 -115 -26.5 -181c0 -132 33.667 -237.667 101 -317c36 -42 79.333 -73.333 130 -94s108.334 -31 173.001 -31c60.667 0 119.834 9.83301 177.5 29.5
c57.667 19.667 113.834 49.5 168.5 89.5v-131c-102 -68.667 -217.333 -103 -346 -103z" />
    <glyph glyph-name="d" unicode="d" horiz-adv-x="1262" 
d="M98 535c0 86.667 10.834 164.334 32.501 233c21.667 68.667 54 127 97 175s96.333 84.833 160 110.5s137.167 38.5 220.5 38.5c174 0 303 -67.667 387 -203v606h123v-1495h-123v178c-84 -135.333 -213 -203 -387 -203c-166.667 0 -294.334 51.333 -383.001 154
c-84.667 98.667 -127 234 -127 406zM223.001 535c0 -295.333 128.335 -443.001 385.002 -443.001c117.333 0 211.666 43.667 282.999 131c34 42 59.5 88.833 76.5 140.5s25.5 108.834 25.5 171.501c0 124 -34.667 228.333 -104 313
c-70.667 84.667 -164.334 127 -281.001 127c-256.667 0 -385 -146.667 -385 -440z" />
    <glyph glyph-name="e" unicode="e" horiz-adv-x="1176" 
d="M1077 602c0 -18 -1.99902 -54.667 -5.99902 -110h-850c4 -61.333 15.833 -116.833 35.5 -166.5s46.667 -92 81 -127c34.334 -35 75.667 -61.833 124 -80.5s102.833 -28 163.5 -28c149.333 0 282.333 47 399 141v-133c-116.667 -82 -249.667 -123 -399 -123
c-166 0 -296.667 52 -392 156c-90 100 -135 233.667 -135 401c0 178 52 318 156 420c95.333 93.333 208.666 140 339.999 140c146.667 0 264 -45.333 352 -136c87.333 -87.333 131 -205.333 131 -354zM936.001 757c-16.667 46 -40.499 85.5 -71.499 118.5
s-69 58.5 -114 76.5s-95.833 27 -152.5 27c-104.667 0 -191.334 -36.333 -260.001 -109c-66.667 -72 -105 -160.667 -115 -266h738c0 56 -8.33301 107 -25 153z" />
    <glyph glyph-name="f" unicode="f" horiz-adv-x="678" 
d="M336 963l0.000976562 -963h-123v963h-188v104h188v154c0 54 7.66699 103 23 147s37.666 81.833 66.999 113.5s65 56.167 107 73.5s89.667 26 143 26c33.333 0 66.666 -6.66699 99.999 -20v-123c-34.667 16 -68 24 -100 24c-72 0 -127.333 -24.333 -166 -73
c-17.333 -21.333 -30.166 -46.833 -38.499 -76.5s-12.5 -63.167 -12.5 -100.5v-145h317v-104h-317z" />
    <glyph glyph-name="g" unicode="g" horiz-adv-x="1262" 
d="M971 -322c-98 -87.333 -224.999 -130.999 -380.999 -130.999c-142.667 0 -276 31.667 -400 95v127c127.333 -74 260.666 -111 399.999 -111c94 0 174.333 20.333 241 61c72 45.333 120.667 111 146 197c12 42.667 18 123.334 18 242.001
c-42 -60.667 -94.833 -106.334 -158.5 -137.001s-139.167 -46 -226.5 -46c-160.667 0 -287.667 53.333 -381 160c-87.333 100 -131 232.333 -131 397c0 165.333 43.667 298 131 398c93.333 108 220.333 162 381 162c168 0 296.333 -65 385 -195v170h123v-952
c0 -202.667 -49 -348.334 -147 -437.001zM995.001 532.001c0 132 -30.666 236.668 -91.999 314.001c-66.667 86 -164.334 129 -293.001 129c-128 0 -226.333 -42.333 -295 -127c-62.667 -79.334 -94 -184.667 -94 -316c0 -130.667 31.333 -235.667 94 -315
c68.667 -84.667 167 -127 295 -127c128.667 0 226.334 43 293 129c61.333 77.333 92 181.666 92 312.999z" />
    <glyph glyph-name="h" unicode="h" horiz-adv-x="1180" 
d="M913 0l-0.00195312 598.001c0 60.668 -5.16699 113.835 -15.5 159.5c-10.3369 45.668 -26.1699 83.835 -47.5 114.5c-49.333 72.667 -132 109 -248 109c-70.667 0 -131.334 -15.667 -182.001 -47s-91 -79 -121 -143c-11.333 -23.333 -19.666 -49 -24.999 -77
s-8 -59 -8 -93v-621h-123v1495h123v-557c18 24 39.833 45.667 65.5 65s53.334 35.666 83.001 48.999c29.667 13.3496 60.5 23.6826 92.5 31c32 7.33301 63.667 11 95 11c289.334 0 434.001 -151 434.001 -453v-641h-123z" />
    <glyph glyph-name="i" unicode="i" horiz-adv-x="426" 
d="M143 1294v201h140v-201h-140zM152 0v1067h122v-1067h-122z" />
    <glyph glyph-name="j" unicode="j" 
d="M133 1294v201h139v-201h-139zM245.5 -225c-12.333 -40.667 -30.334 -76.5 -54.001 -107.5s-52.667 -56.5 -87 -76.5s-73.166 -33.333 -116.499 -40c-9.33301 -1.33301 -19.166 -2.33301 -29.499 -3s-21.833 -1 -34.5 -1c-25.333 0 -49.833 2 -73.5 6
s-46.834 9.66699 -69.501 17v119c42 -15.333 89.667 -23 143 -23c9.33301 0 18 0.333008 26 1s15.667 1.66699 23 3c112 20.667 168 102.667 168 246v1151h123v-1159c0 -48 -6.16699 -92.333 -18.5 -133z" />
    <glyph glyph-name="k" unicode="k" horiz-adv-x="1075" 
d="M874 0l-401 528l-209 -213v-315h-121v1495h121v-1018l576 590h155l-436 -451l463 -616h-148z" />
    <glyph glyph-name="l" unicode="l" horiz-adv-x="401" 
d="M139 0v1495h123v-1495h-123z" />
    <glyph glyph-name="m" unicode="m" horiz-adv-x="1825" 
d="M1559 0v598.001c0 142 -30.333 245 -91 309c-47.333 51.333 -113.333 76 -198 74c-80.6689 -2 -148.336 -33.333 -203 -94c-61.333 -68.667 -92 -162.334 -92 -281.001v-606h-123v598c0 140 -28.667 241.667 -86 305c-48 54 -115.667 80 -203 78
c-80.667 -2 -148.334 -30.667 -203.001 -86c-62.667 -63.334 -94 -154.667 -94 -274v-621h-123v1067h123v-129c76 104 175.667 156 299 156c92 0 167.667 -18.333 227 -55s104 -91.667 134 -165c32 69.333 81 124 147 164c31.333 18.667 63.333 32.667 96 42s67 14 103 14
c212.667 0 342.334 -96.333 389.001 -289c7.33301 -28 12.5 -60.833 15.5 -98.5s4.5 -81.5 4.5 -131.5v-575h-122z" />
    <glyph glyph-name="n" unicode="n" horiz-adv-x="1180" 
d="M913 0l-0.00390625 598.002c0 60.668 -5.16699 113.835 -15.5 159.5c-10.3369 45.668 -26.1699 83.835 -47.5 114.5c-49.333 72.667 -132 109 -248 109c-33.333 0 -65.833 -4.66699 -97.5 -14s-61.167 -22.833 -88.5 -40.5s-51.666 -38.834 -72.999 -63.501
s-38 -52.334 -50 -83.001c-9.33301 -21.3359 -16.166 -45.1689 -20.499 -71.499c-4.33301 -26.333 -6.5 -55.5 -6.5 -87.5v-621h-123v1067h123v-129c18 24 39.833 45.667 65.5 65s53.334 35.666 83.001 48.999c29.667 13.3496 60.5 23.6826 92.5 31
c32 7.33301 63.667 11 95 11c289.334 0 434.001 -151 434.001 -453v-641h-123z" />
    <glyph glyph-name="o" unicode="o" horiz-adv-x="1251" 
d="M1153 532c0 -166 -46.332 -300.334 -138.999 -403.001s-222.334 -154 -389.001 -154c-166 0 -296.667 52 -392 156c-90 100 -135 233.667 -135 401c0 166.667 46.667 301.334 140 404.001c94 104 223 156 387 156c83.333 0 157.333 -13.333 222 -40
c64.667 -26.6689 121 -66.002 169 -118c46 -50 80.333 -108.667 103 -176c22.667 -67.334 34 -142.667 34 -226zM1030 531.999c0 134.667 -33.333 240.667 -100 318c-71.333 83.333 -173 125 -305 125c-64.667 0 -122.334 -10.333 -173.001 -31s-94 -52 -130 -94
c-67.333 -79.333 -101 -185.333 -101 -318c0 -132 33.667 -237.667 101 -317c36 -42 79.333 -73.333 130 -94s108.334 -31 173.001 -31c132 0 233.667 41.667 305 125c66.667 75.333 100 181 100 317z" />
    <glyph glyph-name="p" unicode="p" horiz-adv-x="1262" 
d="M1163 532c0 -173.333 -42.333 -308.333 -127 -405c-44 -50 -98 -87.833 -162 -113.5s-137.667 -38.5 -221 -38.5c-174 0 -303 67.667 -387 203v-606h-123v1495h123v-178c84 135.333 213 203 387 203c166.667 0 294.334 -51.333 383 -154
c84.667 -98.667 127 -234 127 -406zM1038 532c-0.000976562 295.334 -128.334 443 -385 443c-117.333 0 -210.666 -43 -279.999 -129c-70 -84 -105 -188.667 -105 -314c0 -124.667 35 -229 105 -313c69.333 -84.667 162.666 -127 279.999 -127
c256.667 0 385 146.667 385 440z" />
    <glyph glyph-name="q" unicode="q" horiz-adv-x="1262" 
d="M98 532c0 86 10.833 163.668 32.5 233.001s54 128.166 97 176.499s96.333 85.5 160 111.5s137.167 39 220.5 39c174 0 303 -67.667 387 -203v178h123v-1495h-123v606c-84 -135.333 -213 -203 -387 -203c-166 0 -293.667 50.667 -383 152
c-84.667 96.667 -127 231.667 -127 405zM223 532.001c0 -293.333 128.332 -440 384.999 -440c116.667 0 210.334 42.333 281.001 127c69.333 84.667 104 189 104 313c0 124.667 -34.667 229.334 -104 314c-70 86 -163.667 129 -281 129c-256.667 0 -385 -147.667 -385 -443z
" />
    <glyph glyph-name="r" unicode="r" horiz-adv-x="670" 
d="M586.5 952c-7 0 -14.834 0.666992 -23.501 2c-83.333 4 -151.666 -18.333 -204.999 -67c-61.333 -60 -92 -148.667 -92 -266v-621h-123v1067h123v-149c17.333 26.667 37.333 50.667 60 72s47 39.5 73 54.5s53.167 26.667 81.5 35s56.5 12.5 84.5 12.5h18.5
c7 0 15.167 -0.666992 24.5 -2v-140c-7.33301 1.33301 -14.5 2 -21.5 2z" />
    <glyph glyph-name="s" unicode="s" horiz-adv-x="965" 
d="M879 299c0 -109.333 -42.3311 -192.667 -126.998 -250c-74.667 -49.333 -169.667 -74 -285 -74c-138.667 0 -267 34.333 -385 103v147c113.333 -90 239.666 -135 378.999 -135c68.667 0 132.667 15.667 192 47c70 39.333 105 90.666 105 153.999
c0 58.667 -33.667 106.334 -101 143.001c-34.667 19.333 -93.334 41.333 -176.001 66c-130.667 37.333 -216 67.333 -256 90c-88.667 51.333 -133 123 -133 215c0 96 42.333 169.667 127 221c36 21.3408 75.5 37.6738 118.5 48.999c43 11.333 89.5 17 139.5 17
c130.667 0 245.334 -28.667 344 -86v-136c-95.333 75.333 -213.333 113 -354 113c-30 0 -58.5 -3.16699 -85.5 -9.5c-27 -6.34082 -53.167 -16.1738 -78.5 -29.5c-62.667 -32.667 -94 -75.667 -94 -129c0 -59.333 37.667 -106.333 113 -141
c13.333 -6 35.333 -14.167 66 -24.5c30.667 -10.3359 70.667 -22.1689 120 -35.5c60 -16 110.833 -32.167 152.5 -48.5c41.667 -16.335 74.167 -32.168 97.5 -47.499c80.667 -51.333 121 -124.333 121 -219z" />
    <glyph glyph-name="t" unicode="t" horiz-adv-x="766" 
d="M592 -25c-12.667 0 -24.168 0.500977 -34.501 1.50098c-10.3379 1 -20.1709 2.16699 -29.5 3.5c-43.333 6.66699 -82.166 20 -116.499 40s-63.333 45.5 -87 76.5s-41.667 67.167 -54 108.5s-18.5 86.333 -18.5 135v623h-211v104h211v313h123v-313h334v-104h-334v-617
c0 -144.667 56 -227.334 168 -248.001c7.33301 -1.33301 15 -2.33301 23 -3s16.667 -1 26 -1c38 0 77 5.66699 117 17v-121c-36.667 -10 -75.667 -15 -117 -15z" />
    <glyph glyph-name="u" unicode="u" horiz-adv-x="1180" 
d="M913 0v130.999c-18 -24 -39.5 -45.667 -64.5 -65s-52 -35.666 -81 -48.999s-59.333 -23.666 -91 -30.999s-62.5 -11 -92.5 -11c-283.333 0 -430.333 143.667 -441 431v661h123v-596c0 -124.667 22.667 -218.334 68 -281.001c52 -70 136 -104 252 -102
c83.333 2 156.333 30.667 219 86c72 66 108 157.667 108 275v618h123v-1067h-123z" />
    <glyph glyph-name="v" unicode="v" horiz-adv-x="1143" 
d="M641 0h-139l-461 1067h143l387 -924l387 924h144z" />
    <glyph glyph-name="w" unicode="w" horiz-adv-x="1638" 
d="M1233 0h-111l-303 934l-303 -934h-110l-365 1067h135l285 -889l278 889h160l281 -891l282 891h135z" />
    <glyph glyph-name="x" unicode="x" horiz-adv-x="1085" 
d="M893 0l-354 451l-359 -451h-143l430 541l-414 526h158l336 -428l340 428h145l-414 -518l431 -549h-156z" />
    <glyph glyph-name="y" unicode="y" horiz-adv-x="1124" 
d="M522 -188c-19.333 -46.667 -39.167 -85.8311 -59.5 -117.498s-40.833 -56.834 -61.5 -75.501c-30 -26.666 -63.833 -45.333 -101.5 -56s-84.167 -16 -139.5 -16v119c77.333 -4 133.333 12.333 168 49c13.333 13.333 25.833 29.166 37.5 47.499s22.167 38.833 31.5 61.5
l80 186l-452 1057h145l383 -907l389 907h133z" />
    <glyph glyph-name="z" unicode="z" horiz-adv-x="936" 
d="M94 0v106l621 859h-621v102h748v-102l-615 -859h615v-106h-748z" />
    <glyph glyph-name="braceleft" unicode="{" horiz-adv-x="659" 
d="M481 -377c-45.333 0 -85.667 20.666 -121 61.999c-19.333 22.667 -34 48.834 -44 78.501s-15 63.5 -15 101.5v385c0 36 -3.16699 69.667 -9.5 101s-16.166 61 -29.499 89c-32 65.333 -75 103 -129 113v74c28 5.33301 52.667 17.333 74 36s39.666 44 54.999 76
c13.334 28 23.167 57.833 29.5 89.5s9.5 65.5 9.5 101.5v385c0 38 5 71.833 15 101.5s24.667 55.834 44 78.501c34.667 40.667 75 61 121 61h107v-67h-39c-83.333 0 -125 -79.333 -125 -238v-358c0 -154 -56 -252.333 -168 -295c112 -42.667 168 -146.334 168 -311.001v-359
c0 -158 41.667 -237 125 -237h39v-68h-107z" />
    <glyph glyph-name="bar" unicode="|" horiz-adv-x="391" 
d="M152 -479v1999h90v-1999h-90z" />
    <glyph glyph-name="braceright" unicode="}" horiz-adv-x="659" 
d="M397 440c-26 -54.667 -39 -118 -39 -190v-385c0 -74.667 -19.667 -134.667 -59 -180c-35.333 -41.333 -75.666 -62 -120.999 -62h-106v68h39c83.333 0 125 79 125 237v359c0 156.667 55.667 256.334 167 299c-111.333 50.667 -167 153 -167 307v358
c0 158.667 -41.667 238 -125 238h-39v67h106c46 0 86.333 -20.333 121 -61c39.333 -45.333 59 -105.333 59 -180v-385c0 -71.333 13 -135 39 -191c15.334 -32 33.667 -57.333 54.999 -76c21.333 -18.667 46 -30.667 74 -36v-74c-54 -10 -97 -47.667 -129 -113z" />
    <glyph glyph-name="asciitilde" unicode="~" horiz-adv-x="1147" 
d="M854 426c-26.667 -12 -61.9971 -17.999 -105.997 -17.999c-40.667 0 -99.667 22.333 -177 67c-87.333 50.667 -145.333 76 -174 76c-43.333 0 -79.333 -7.66699 -108 -23c-9.33301 -5.33301 -21.166 -13.833 -35.499 -25.5c-14.334 -11.667 -31.167 -26.167 -50.5 -43.5
v88c18.667 15.333 35 27.666 49 36.999s26.333 16 37 20c27.334 12.667 62.667 19 106 19c40 0 98.667 -22.667 176 -68c87.333 -50.667 145.333 -76 174 -76c43.333 0 79.666 7.66699 108.999 23c9.33301 5.33691 21.166 13.8369 35.499 25.5
c14.333 11.667 31.166 26.167 50.499 43.5v-88c-36.667 -30 -65.334 -49 -86.001 -57z" />
    <glyph glyph-name="uni00A0" unicode="&#xa0;" horiz-adv-x="532" 
 />
    <glyph glyph-name="exclamdown" unicode="&#xa1;" horiz-adv-x="627" 
d="M238 924v166h151v-166h-151zM246 -406v1104h135v-1104h-135z" />
    <glyph glyph-name="cent" unicode="&#xa2;" horiz-adv-x="1049" 
d="M625 -25c-17.333 0 -32.833 0.498047 -46.5 1.49805s-26.167 2.16699 -37.5 3.5l-49 -199h-89l54 215c-118 32.667 -209 99.667 -273 201c-57.333 92.667 -86 204.334 -86 335.001c0 166.667 46.667 301.334 140 404.001c94 104 223 156 387 156
c18.667 0 36.5 -0.5 53.5 -1.5s33.833 -2.83301 50.5 -5.5l49 197h88l-53 -213c26.668 -7.33301 53.335 -17 80 -29c26.667 -12 52.667 -26.333 78 -43v-133c-30 21.333 -60.667 39.333 -92 54s-63 26.667 -95 36l-215 -862c6.66699 -1.33301 14.5 -2 23.5 -2h32.5
c60.667 0 119.834 9.83301 177.5 29.5c57.667 19.667 113.834 49.5 168.5 89.5v-131c-102 -68.667 -217.333 -103 -346 -103zM663.5 973.998c-12.333 0.666992 -24.499 0.999023 -36.499 0.999023c-64.667 0 -122.334 -10.333 -173.001 -31s-94 -52 -130 -94
c-68.667 -78.667 -103 -184.667 -103 -318c0 -225.333 88 -365.666 264 -420.999l215 860c-12 1.33301 -24.167 2.33301 -36.5 3z" />
    <glyph glyph-name="sterling" unicode="&#xa3;" horiz-adv-x="1239" 
d="M113 0v119h116l56 547h-172v98h180l29 280c7.33301 72.667 22.5 137 45.5 193s53.5 105 91.5 147c84 90.667 196 136 336 136c118.667 0 225.667 -30 321 -90v-140c-100 70 -205.667 105 -317 105c-95.333 0 -172 -29.333 -230 -88c-32.667 -34 -58.5 -72.667 -77.5 -116
s-31.167 -92.333 -36.5 -147l-29 -280h440v-98h-448l-56 -547h754v-119h-1003z" />
    <glyph glyph-name="Euro" unicode="&#x20ac;" horiz-adv-x="1520" 
d="M1199.5 12c-76.333 -24.667 -160.167 -37.002 -251.5 -37.002c-188 0 -341.667 56 -461 168c-112.667 106 -182 251 -208 435h-205l35 75h161c-1.33301 17.333 -2.33301 33.833 -3 49.5c-0.666992 15.6699 -1 30.8369 -1 45.501v44c0 13.333 0.666992 25 2 35h-194l35 78
h167c26.667 186 96.334 333.667 209.001 443c60 56.667 128.333 99.167 205 127.5s162.667 42.5 258 42.5c93.334 0 177.667 -12.333 252.999 -37c75.333 -24.667 143.333 -61 204 -109v-147c-128.667 116 -281 174 -457 174c-154.667 0 -279 -45.667 -373 -137
c-44 -43.333 -80 -94.5 -108 -153.5s-47.667 -126.833 -59 -203.5h852l-31 -78h-832c-1.33301 -9.33301 -2 -20.5 -2 -33.5v-45.5v-21c0 -11.3389 0.333008 -23.1719 1 -35.5c0.666992 -12.334 1.66699 -25.167 3 -38.5h752l-33 -75h-708
c24 -149.333 80 -265.666 168 -348.999c94.667 -88.667 218 -133 370 -133c174.667 0 327 57.333 457 172v-147c-60.667 -48 -129.167 -84.333 -205.5 -109z" />
    <glyph glyph-name="yen" unicode="&#xa5;" horiz-adv-x="1264" 
d="M803 772h272v-106h-334l-41 -68v-166h375v-106h-375v-326h-137v326h-373v106h373v166l-41 68h-332v106h271l-428 723h157l443 -768l442 768h156z" />
    <glyph glyph-name="Scaron" unicode="&#x160;" horiz-adv-x="1124" 
d="M1042 414c0 -138.667 -48.9971 -248.001 -146.997 -328.001c-92 -74 -209.333 -111 -352 -111c-85.333 0 -166.333 11.333 -243 34s-149.334 57.334 -218.001 104.001v163c132 -118.667 283.667 -178 455 -178c101.333 0 186.666 25.333 255.999 76
c77.333 55.333 116 131 116 227c0 82.667 -36 151 -108 205c-42.667 32.667 -116.334 67.667 -221.001 105c-84.667 30 -154 56.167 -208 78.5s-92.667 41.166 -116 56.499c-108 68.667 -162 164.334 -162 287c0 124.667 47.333 221.334 142 290.001
c84 64.667 191 97 321 97c159.333 0 297.333 -39 414 -117v-150c-118.667 98.667 -260.667 148 -426 148c-80 0 -151.667 -22.667 -215 -68c-72.667 -49.333 -109 -112 -109 -188c0 -83.333 41.667 -150.333 125 -201c41.334 -26 118.667 -58.667 232 -98
c153.333 -50.667 258.333 -97.667 315 -141c99.333 -71.333 149 -168.333 149 -291zM659.003 1602h-209l-153 219h123l135 -164l135 164h123z" />
    <glyph glyph-name="section" unicode="&#xa7;" horiz-adv-x="899" 
d="M864 131c0 -113.333 -38.6689 -202.669 -116.002 -268.002c-71.333 -61.333 -165.666 -92 -282.999 -92c-68 0 -132.667 9.5 -194 28.5s-120.333 47.5 -177 85.5v168c114 -104.667 235.667 -157 365 -157c74.667 0 137.334 18.333 188 55
c57.333 42.667 86 99.334 86 170.001c0 76.667 -47.667 139.334 -143 188.001l-240 92c-164 66 -246 164.333 -246 294.999c0 120.667 49.333 206.667 148 258c-98.667 60.667 -148 142.667 -148 246c0 100 37 180 111 240c68.667 53.333 155.334 80 260.001 80
c126.667 0 238 -33 334 -99v-155c-104.667 88.667 -219.334 133 -344.001 133c-57.333 0 -110 -16.333 -158 -49c-52 -38 -78 -84.667 -78 -140c0 -67.333 43.667 -123.333 131 -168c1.33301 -1.33301 19.833 -8.66602 55.5 -21.999s89.834 -34 162.501 -62
c46 -17.333 85.833 -35.5 119.5 -54.5s61.167 -38.833 82.5 -59.5c56 -52.667 84 -122.334 84 -209.001c0 -123.333 -41 -212.666 -123 -267.999c82 -60 123 -138.667 123 -236zM732.998 624.997c0 74.667 -41.668 135.332 -125.001 181.998
c-15.333 8.66797 -89 37.335 -221 86c-20.667 -6.66699 -40.667 -16.167 -60 -28.5c-19.333 -12.3369 -36.166 -26.6699 -50.499 -43c-14.333 -16.3359 -25.833 -34.1689 -34.5 -53.499c-8.66699 -19.3359 -13 -39.6689 -13 -60.999c0 -72.667 49.333 -133.667 148 -183
c40 -15.333 80.167 -30.333 120.5 -45s80.5 -29.667 120.5 -45c76.667 39.333 115 103 115 191z" />
    <glyph glyph-name="scaron" unicode="&#x161;" horiz-adv-x="965" 
d="M879 299c0 -109.333 -42.3311 -192.667 -126.998 -250c-74.667 -49.333 -169.667 -74 -285 -74c-138.667 0 -267 34.333 -385 103v147c113.333 -90 239.666 -135 378.999 -135c68.667 0 132.667 15.667 192 47c70 39.333 105 90.666 105 153.999
c0 58.667 -33.667 106.334 -101 143.001c-34.667 19.333 -93.334 41.333 -176.001 66c-130.667 37.333 -216 67.333 -256 90c-88.667 51.333 -133 123 -133 215c0 96 42.333 169.667 127 221c36 21.3408 75.5 37.6738 118.5 48.999c43 11.333 89.5 17 139.5 17
c130.667 0 245.334 -28.667 344 -86v-136c-95.333 75.333 -213.333 113 -354 113c-30 0 -58.5 -3.16699 -85.5 -9.5c-27 -6.34082 -53.167 -16.1738 -78.5 -29.5c-62.667 -32.667 -94 -75.667 -94 -129c0 -59.333 37.667 -106.333 113 -141
c13.333 -6 35.333 -14.167 66 -24.5c30.667 -10.3359 70.667 -22.1689 120 -35.5c60 -16 110.833 -32.167 152.5 -48.5c41.667 -16.335 74.167 -32.168 97.5 -47.499c80.667 -51.333 121 -124.333 121 -219zM596.002 1204h-209l-153 219h123l135 -164l135 164h123z" />
    <glyph glyph-name="copyright" unicode="&#xa9;" horiz-adv-x="1626" 
d="M1583 748c0 -213.333 -75.668 -395.667 -227.001 -547c-150.667 -150.667 -331.667 -226 -543 -226c-210.667 0 -392.334 75.333 -545.001 226c-150 152 -225 334.333 -225 547s75 394 225 544c150.667 150.667 332.334 226 545.001 226s394.334 -75.333 545.001 -226
c150 -150 225 -331.333 225 -544zM1479 747.999c0 184 -65.002 341 -195.002 471c-129.333 129.333 -286.333 194 -471 194s-341.667 -64.667 -471 -194c-130 -130 -195 -287 -195 -471c0 -93.333 16.333 -179 49 -257s81.334 -150.333 146.001 -217
c129.333 -129.333 286.333 -194 471 -194s341.667 64.667 471 194c64.667 66.667 113.334 139 146.001 217s49 163.667 49 257zM808.997 273.999c-133.333 0 -236.333 45.333 -309 136c-71.333 83.333 -107 196 -107 338c0 140 35.667 251.667 107 335
c74.667 90.667 177.667 136 309 136c111.333 0 205 -31 281 -93v-120c-43.333 40 -88.5 69.667 -135.5 89s-95.5 29 -145.5 29c-51.334 0 -96.667 -9 -136 -27c-39.335 -18 -72.168 -43.333 -98.5 -76c-26.333 -32.667 -46.333 -72.167 -60 -118.5
s-20.5 -97.833 -20.5 -154.5c0 -112 25.667 -202.333 77 -271c56 -70.667 135.333 -106 238 -106c98.667 0 192.334 39.333 281 118v-120c-77.333 -63.333 -171 -95 -281 -95z" />
    <glyph glyph-name="ordfeminine" unicode="&#xaa;" horiz-adv-x="858" 
d="M649 858l-0.000976562 72c-96.667 -57.333 -199 -86 -307 -86c-166.667 0 -250 65.333 -250 196c0 135.335 107.333 212.668 322 232c36.667 2.66699 115 4 235 4v27c0 47.333 -26.667 82 -80 104c-39.333 16.667 -85.666 25 -138.999 25
c-88.667 0 -183.667 -31.667 -285 -95v95c84.667 56 181.667 84 291 84c84.667 0 154.334 -15.333 209 -46c68.667 -38 103 -96 103 -174v-438h-99zM648.999 1194h-80c-256.667 0 -385 -51.333 -385 -154c0 -77.333 51.333 -116 154 -116c90 0 193.667 32.667 311 98v172z
" />
    <glyph glyph-name="guillemotleft" unicode="&#xab;" horiz-adv-x="1001" 
d="M776 184l-219 394l219 393h115l-219 -393l219 -394h-115zM330 184l-219 394l219 393h114l-219 -393l219 -394h-114z" />
    <glyph glyph-name="logicalnot" unicode="&#xac;" horiz-adv-x="1198" 
d="M999 262v404h-903v106h1008v-510h-105z" />
    <glyph glyph-name="minus" unicode="&#xad;" horiz-adv-x="1364" 
d="M96 442v107h1037v-107h-1037z" />
    <glyph glyph-name="minus" unicode="&#x2212;" horiz-adv-x="1364" 
d="M96 442v107h1037v-107h-1037z" />
    <glyph glyph-name="registered" unicode="&#xae;" horiz-adv-x="1626" 
d="M1583 748c0 -213.333 -75.668 -395.667 -227.001 -547c-150.667 -150.667 -331.667 -226 -543 -226c-210.667 0 -392.334 75.333 -545.001 226c-150 152 -225 334.333 -225 547s75 394 225 544c150.667 150.667 332.334 226 545.001 226s394.334 -75.333 545.001 -226
c150 -150 225 -331.333 225 -544zM1479 747.999c0 184 -65.002 341 -195.002 471c-129.333 129.333 -286.333 194 -471 194s-341.667 -64.667 -471 -194c-130 -130 -195 -287 -195 -471c0 -93.333 16.333 -179 49 -257s81.334 -150.333 146.001 -217
c129.333 -129.333 286.333 -194 471 -194s341.667 64.667 471 194c64.667 66.667 113.334 139 146.001 217s49 163.667 49 257zM1049 318.999l-201 344.999h-246v-345h-94v848h340c41.333 0 79 -5.83301 113 -17.5c34.002 -11.667 63.1689 -28.5 87.5 -50.5
c24.333 -22 43.333 -48.667 57 -80c13.667 -31.335 20.5 -66.668 20.5 -105.999c0 -118 -62 -198.333 -186 -241l207 -353h-98zM1032 910.998c0 52.667 -16.5 94.5 -49.5 125.5s-78.5 46.5 -136.5 46.5h-244v-344h203c151.333 0 227 57.333 227 172z" />
    <glyph glyph-name="macron" unicode="&#xaf;" 
d="M-74 1274v78h557v-78h-557z" />
    <glyph glyph-name="macron" unicode="&#x2c9;" 
d="M-74 1274v78h557v-78h-557z" />
    <glyph glyph-name="degree" unicode="&#xb0;" horiz-adv-x="819" 
d="M713 1227c0 -80 -30 -149 -90 -207c-30 -28.667 -62.5 -50.167 -97.5 -64.5s-73.5 -21.5 -115.5 -21.5c-84 0 -155.667 28.667 -215 86c-59.333 56.667 -89 125.667 -89 207c0 80.667 29.667 149.667 89 207s131 86 215 86c42 0 80.5 -7.16699 115.5 -21.5
s67.5 -35.833 97.5 -64.5c60 -58.667 90 -127.667 90 -207zM637 1227c0 58.667 -22.667 109.667 -68 153c-46 44 -99 66 -159 66c-60.667 0 -114 -22 -160 -66c-45.333 -43.333 -68 -94.333 -68 -153c0 -60.667 22.667 -112.667 68 -156c44 -42 97.333 -63 160 -63
c62 0 115 21 159 63c45.333 43.333 68 95.333 68 156z" />
    <glyph glyph-name="plusminus" unicode="&#xb1;" horiz-adv-x="1167" 
d="M637 666v-349h-105v349h-446v106h446v328h105v-328h450v-106h-450zM86 66v106h1001v-106h-1001z" />
    <glyph glyph-name="twosuperior" unicode="&#xb2;" horiz-adv-x="1051" 
d="M799 1268c0 -58.667 -22.667 -112.667 -68 -162c-11.333 -12.667 -28.5 -28.167 -51.5 -46.5s-52.167 -39.833 -87.5 -64.5c-66.667 -48 -116 -89 -148 -123c-23.333 -25.333 -42.166 -52.333 -56.499 -81s-24.833 -59 -31.5 -91h439v-86h-543
c0 167.333 76.333 308 229 422l135 99c56 47.3379 84 91.6709 84 133c0 23.333 -4.66699 44.333 -14 63s-22 34.667 -38 48c-16 13.3545 -34.833 23.6875 -56.5 30.999c-21.667 7.33301 -44.834 11 -69.501 11c-88 0 -174.667 -37.333 -260 -112v110
c78 60 164.667 90 260 90c77.333 0 141 -21 191 -63c57.333 -47.333 86 -106.666 86 -177.999z" />
    <glyph glyph-name="threesuperior" unicode="&#xb3;" horiz-adv-x="1094" 
d="M842 872c0 -91.333 -35.6689 -161.332 -107.002 -209.999c-59.333 -41.333 -131.666 -62 -216.999 -62c-100 0 -188.667 30 -266 90v117c88.667 -76.667 177.334 -115 266.001 -115c32 0 61.667 4 89 12s50.666 19.5 69.999 34.5s34.5 33.333 45.5 55
s16.5 46.5 16.5 74.5s-5.5 53.167 -16.5 75.5s-26.167 41.166 -45.5 56.499c-19.3359 15.333 -42.6689 27 -70 35c-27.333 8 -57 12 -89 12h-112v94h112c26 0 50.5 3 73.5 9s42.833 14.833 59.5 26.5c16.6689 11.667 29.8359 26 39.5 43c9.66699 17 14.5 36.5 14.5 58.5
s-4.83301 41.667 -14.5 59s-22.834 31.833 -39.501 43.5s-36.5 20.667 -59.5 27s-47.5 9.5 -73.5 9.5c-39.333 0 -77.666 -6.66699 -114.999 -20s-74.666 -34 -111.999 -62v113c64.667 40.667 140.334 61 227.001 61c71.333 0 133.666 -16.333 186.999 -49
c66.667 -40.667 100 -102 100 -184c0 -42 -8.66699 -78 -26 -108s-43 -54.667 -77 -74c93.333 -39.333 140 -113.333 140 -222z" />
    <glyph glyph-name="Zcaron" unicode="&#x17d;" horiz-adv-x="1176" 
d="M80 0v113l860 1263h-862v119h1009v-117l-860 -1261h871v-117h-1018zM688 1602h-209l-153 219h123l135 -164l135 164h123z" />
    <glyph glyph-name="mu" unicode="&#xb5;" horiz-adv-x="1180" 
d="M913 0v130.999c-18 -24 -39.333 -45.667 -64 -65s-51.167 -35.666 -79.5 -48.999c-28.335 -13.333 -57.668 -23.666 -88 -30.999c-30.335 -7.33301 -60.168 -11 -89.5 -11c-29.333 0 -59.333 3.66699 -90 11s-60.5 17.666 -89.5 30.999s-56.167 29.666 -81.5 48.999
s-47 41 -65 65v-584h-123v1522h123v-620c0 -119.333 35.667 -211.666 107 -276.999c60 -56 131.667 -84 215 -84c82.667 0 155.667 28 219 84c36 34 62.667 74 80 120s26 98.333 26 157v620h123v-1069h-123z" />
    <glyph glyph-name="mu" unicode="&#x3bc;" horiz-adv-x="1180" 
d="M913 0v130.999c-18 -24 -39.333 -45.667 -64 -65s-51.167 -35.666 -79.5 -48.999c-28.335 -13.333 -57.668 -23.666 -88 -30.999c-30.335 -7.33301 -60.168 -11 -89.5 -11c-29.333 0 -59.333 3.66699 -90 11s-60.5 17.666 -89.5 30.999s-56.167 29.666 -81.5 48.999
s-47 41 -65 65v-584h-123v1522h123v-620c0 -119.333 35.667 -211.666 107 -276.999c60 -56 131.667 -84 215 -84c82.667 0 155.667 28 219 84c36 34 62.667 74 80 120s26 98.333 26 157v620h123v-1069h-123z" />
    <glyph glyph-name="paragraph" unicode="&#xb6;" horiz-adv-x="1192" 
d="M897 -428v1851h-311v-1851h-97v1214c-139.333 0 -249 33 -329 99c-80.667 65.333 -121 148 -121 248c0 240 153 360 459 360h495v-1921h-96z" />
    <glyph glyph-name="periodcentered" unicode="&#xb7;" horiz-adv-x="444" 
d="M141 463v166h152v-166h-152z" />
    <glyph glyph-name="periodcentered" unicode="&#x2219;" horiz-adv-x="444" 
d="M141 463v166h152v-166h-152z" />
    <glyph glyph-name="zcaron" unicode="&#x17e;" horiz-adv-x="936" 
d="M94 0v106l621 859h-621v102h748v-102l-615 -859h615v-106h-748zM571 1195h-209l-153 219h123l135 -164l135 164h123z" />
    <glyph glyph-name="onesuperior" unicode="&#xb9;" horiz-adv-x="700" 
d="M342 612v772l-90 -55v105l102 61h95v-883h-107z" />
    <glyph glyph-name="ordmasculine" unicode="&#xba;" horiz-adv-x="858" 
d="M786 1178c0 -53.333 -8.49902 -100.835 -25.499 -142.502s-41.167 -77 -72.5 -106s-69 -51.167 -113 -66.5s-93 -23 -147 -23s-102.833 7.66699 -146.5 23s-81 37.5 -112 66.5s-55 64.333 -72 106s-25.5 89.167 -25.5 142.5c0 52.667 8.5 100.167 25.5 142.5
c17 42.3389 41.167 78.1719 72.5 107.5c31.333 29.333 68.833 52 112.5 68s92.167 24 145.5 24s102 -7.83301 146 -23.5s81.667 -38.167 113 -67.5s55.666 -65.166 72.999 -107.499s26 -90.166 26 -143.499zM684.001 1178c0 80.667 -22.333 143.166 -67 187.499
s-107.667 66.5 -189 66.5c-39.333 0 -74.833 -5.83301 -106.5 -17.5s-58.5 -28.5 -80.5 -50.5s-39 -48.667 -51 -80s-18 -66.666 -18 -105.999s6 -74.666 18 -105.999s29 -57.833 51 -79.5s48.833 -38.167 80.5 -49.5s67.167 -17 106.5 -17c81.333 0 144.333 21.667 189 65
c44.667 43.335 67 105.668 67 186.999z" />
    <glyph glyph-name="guillemotright" unicode="&#xbb;" horiz-adv-x="1001" 
d="M672 184h-115l217 394l-217 393h115l219 -393zM225 184h-114l219 394l-219 393h114l219 -393z" />
    <glyph glyph-name="OE" unicode="&#x152;" horiz-adv-x="2015" 
d="M793 -25c-112.667 0 -212.001 18.3311 -298.001 54.998s-160.333 92.334 -223 167.001c-116 139.333 -174 323 -174 551c0 228.667 58 411.334 174 548.001c124.667 149.333 298.334 224 521.001 224h1120v-119h-766v-586h684v-121h-684v-602h766v-117h-1120zM1018 1401
h-225c-188 0 -331.667 -63.667 -431 -191c-90 -116 -135 -270 -135 -462c0 -192.667 45 -347 135 -463c99.333 -127.333 243 -191 431 -191h225v1307z" />
    <glyph glyph-name="oe" unicode="&#x153;" horiz-adv-x="2107" 
d="M2009 602c0 -8 -2 -44.668 -6 -110.001h-850c3.33301 -61.333 14.833 -116.833 34.5 -166.5s46.667 -92 81 -127c34.3379 -35 75.6709 -61.833 123.999 -80.5c48.333 -18.667 102.833 -28 163.5 -28c150 0 283.333 47 400 141v-133c-116.667 -82 -250 -123 -400 -123
c-76.667 0 -146 11.167 -208 33.5s-116 56.5 -162 102.5c-39.333 39.333 -70.666 87.666 -93.999 144.999c-22.667 -54.667 -53.667 -101.667 -93 -141c-47.333 -46 -102 -80.833 -164 -104.5s-132 -35.5 -210 -35.5c-165.333 0 -295 52 -389 156
c-92 98.667 -138 232.334 -138 401.001c0 166.667 46.667 301.334 140 404.001c94 104 223 156 387 156c154.667 0 280 -48 376 -144c38 -37.335 68.333 -85.668 91 -145c11.333 30 25 57.5 41 82.5s33.667 47.167 53 66.5c95.335 93.333 208.668 140 340 140
c146.667 0 264 -45.333 352 -136c87.333 -87.333 131 -205.333 131 -354zM1867.5 756.999c-16.333 46 -40.001 85.501 -71.001 118.501s-69 58.5 -114 76.5s-95.833 27 -152.5 27c-107.333 0 -194.666 -37 -261.999 -111c-32 -34 -57.5 -72.833 -76.5 -116.5
s-31.167 -92.834 -36.5 -147.501h737c0 56 -8.16699 107 -24.5 153zM1030 532c0 136 -33.334 242.669 -100.001 320.002c-72 82 -173.667 123 -305 123c-64.667 0 -122.167 -10.667 -172.5 -32s-92.666 -51.333 -126.999 -90s-60.333 -85.334 -78 -140.001
s-26.5 -115 -26.5 -181c0 -148.667 41 -261.667 123 -339c36 -34 77.167 -59.667 123.5 -77s98.833 -26 157.5 -26c131.333 0 233 41 305 123c66.667 77.333 100 183.666 100 318.999z" />
    <glyph glyph-name="Ydieresis" unicode="&#x178;" horiz-adv-x="1264" 
d="M700 598v-598h-137v598l-530 897h157l443 -768l442 768h156zM752 1614v165h152v-165h-152zM355 1614v165h151v-165h-151z" />
    <glyph glyph-name="questiondown" unicode="&#xbf;" horiz-adv-x="932" 
d="M510 924v166h152v-166h-152zM516 -430c-116 0 -213.667 35.335 -293 106.002c-86 76 -129 174.333 -129 295c0 124.667 48 225 144 301l141 115c52.667 42.667 88 81.667 106 117c22.667 42.667 35 107.334 37 194h127c-1.33301 -51.333 -5.83301 -96.833 -13.5 -136.5
s-18.167 -73.834 -31.5 -102.501c-13.3359 -28 -31.1689 -55.333 -53.5 -82c-22.333 -26.667 -49.5 -52.667 -81.5 -78l-139 -111c-72.667 -57.333 -109 -129.666 -109 -216.999c0 -84.667 30 -154.334 90 -209.001c55.333 -48.667 124.333 -73 207 -73
c82 0 153 13.667 213 41c28 13.333 57.167 31.166 87.5 53.499s61.833 49.5 94.5 81.5v-150c-112.667 -96.667 -245 -145 -397 -145z" />
    <glyph glyph-name="Agrave" unicode="&#xc0;" horiz-adv-x="1434" 
d="M1249 0l-164 420h-735l-166 -420h-143l612 1495h127l613 -1495h-144zM719 1360l-326 -834h651zM432 1841h197l157 -239h-110z" />
    <glyph glyph-name="Aacute" unicode="&#xc1;" horiz-adv-x="1434" 
d="M1249 0l-164 420h-735l-166 -420h-143l612 1495h127l613 -1495h-144zM719 1360l-326 -834h651zM758 1601h-111l158 240h196z" />
    <glyph glyph-name="Acircumflex" unicode="&#xc2;" horiz-adv-x="1434" 
d="M1249 0l-164 420h-735l-166 -420h-143l612 1495h127l613 -1495h-144zM719 1360l-326 -834h651zM850 1602l-135 164l-135 -164h-119l153 219h201l154 -219h-119z" />
    <glyph glyph-name="Atilde" unicode="&#xc3;" horiz-adv-x="1434" 
d="M1249 0l-164 420h-735l-166 -420h-143l612 1495h127l613 -1495h-144zM719 1360l-326 -834h651zM862 1606c-19.333 0 -41.999 3.66602 -67.999 10.999c-26 7.3584 -55 18.6914 -87 34c-64.667 31.333 -110 47 -136 47c-48 0 -95.667 -30.667 -143 -92v121
c38 46 85.667 69 143 69c40 0 92 -15.667 156 -47c32 -15.333 59.167 -26.666 81.5 -33.999s40.166 -11 53.499 -11c42.667 0 87.667 26.667 135 80v-119c-34 -39.333 -79 -59 -135 -59z" />
    <glyph glyph-name="Adieresis" unicode="&#xc4;" horiz-adv-x="1434" 
d="M1249 0l-164 420h-735l-166 -420h-143l612 1495h127l613 -1495h-144zM719 1360l-326 -834h651zM838 1614v165h152v-165h-152zM441 1614v165h151v-165h-151z" />
    <glyph glyph-name="Aring" unicode="&#xc5;" horiz-adv-x="1434" 
d="M1249 0l-164 420h-735l-166 -420h-143l612 1495h127l613 -1495h-144zM719 1360l-326 -834h651zM881 1745c0 -22 -4.16699 -42.667 -12.5 -62s-19.833 -36.166 -34.5 -50.499s-31.667 -25.666 -51 -33.999s-40 -12.5 -62 -12.5s-42.667 4.16699 -62 12.5
c-19.333 8.35742 -36.333 19.6904 -51 33.999c-14.667 14.3457 -26.167 31.1787 -34.5 50.499c-8.33301 19.333 -12.5 40 -12.5 62s4.16699 42.667 12.5 62s19.833 36.333 34.5 51s31.667 26.167 51 34.5s40 12.5 62 12.5s42.667 -4.16699 62 -12.5s36.333 -19.833 51 -34.5
s26.167 -31.667 34.5 -51s12.5 -40 12.5 -62zM825 1745c0 14.667 -2.66602 28.332 -7.99902 40.999s-12.833 23.834 -22.5 33.501s-20.834 17.167 -33.501 22.5s-26 8 -40 8c-14.667 0 -28.334 -2.66699 -41.001 -8s-23.667 -12.833 -33 -22.5
c-9.33301 -9.69434 -16.833 -20.8613 -22.5 -33.5c-5.66699 -12.6807 -8.5 -26.3477 -8.5 -41.001c0 -14 2.83301 -27.333 8.5 -40c5.66699 -12.6797 13.167 -23.8467 22.5 -33.5c9.33301 -9.66699 20.333 -17.167 33 -22.5c12.6719 -5.33301 26.3389 -8 41 -8
c14 0 27.333 2.66699 40 8c12.6729 5.33301 23.8398 12.833 33.501 22.5c9.66699 9.66699 17.167 20.834 22.5 33.501s8 26 8 40z" />
    <glyph glyph-name="AE" unicode="&#xc6;" horiz-adv-x="1933" 
d="M956 0v420h-534l-238 -420h-143l862 1495h928v-119h-746v-561h664v-121h-664v-577h746v-117h-875zM956 1364l-475 -838h475v838z" />
    <glyph glyph-name="Ccedilla" unicode="&#xc7;" horiz-adv-x="1352" 
d="M1032 12c-76 -24.667 -160 -36.999 -252 -36.999c-217.333 0 -386.666 73.333 -507.999 220c-116 137.333 -174 321.666 -174 552.999c0 229.333 58 413.333 174 552c122.667 145.333 292 218 508 218c93.333 0 177.666 -12.333 252.999 -37s143.333 -61 204 -109v-147
c-128.667 116 -281 174 -457 174c-182 0 -321.333 -62.333 -418 -187c-90 -114 -135 -268.667 -135 -464c0 -196 45 -351 135 -465c98.667 -124.667 238 -187 418 -187c174.667 0 327 57.333 457 172v-147c-60.667 -48 -129 -84.333 -205 -109zM690 -329.999h-191l228 240
h116z" />
    <glyph glyph-name="Egrave" unicode="&#xc8;" horiz-adv-x="1255" 
d="M156 0v1495h997v-119h-868v-561h786v-121h-786v-577h868v-117h-997zM412 1841h197l157 -239h-110z" />
    <glyph glyph-name="Eacute" unicode="&#xc9;" horiz-adv-x="1255" 
d="M156 0v1495h997v-119h-868v-561h786v-121h-786v-577h868v-117h-997zM676 1601h-111l158 240h196z" />
    <glyph glyph-name="Ecircumflex" unicode="&#xca;" horiz-adv-x="1255" 
d="M156 0v1495h997v-119h-868v-561h786v-121h-786v-577h868v-117h-997zM786 1602l-135 164l-135 -164h-119l153 219h201l154 -219h-119z" />
    <glyph glyph-name="Edieresis" unicode="&#xcb;" horiz-adv-x="1255" 
d="M156 0v1495h997v-119h-868v-561h786v-121h-786v-577h868v-117h-997zM772 1614v165h152v-165h-152zM375 1614v165h151v-165h-151z" />
    <glyph glyph-name="Igrave" unicode="&#xcc;" horiz-adv-x="438" 
d="M156 0v1495h127v-1495h-127zM-59 1841h197l157 -239h-110z" />
    <glyph glyph-name="Iacute" unicode="&#xcd;" horiz-adv-x="438" 
d="M156 0v1495h127v-1495h-127zM266 1601h-111l158 240h196z" />
    <glyph glyph-name="Icircumflex" unicode="&#xce;" horiz-adv-x="438" 
d="M156 0v1495h127v-1495h-127zM354 1602l-135 164l-135 -164h-119l153 219h201l154 -219h-119z" />
    <glyph glyph-name="Idieresis" unicode="&#xcf;" horiz-adv-x="438" 
d="M156 0v1495h127v-1495h-127zM337 1614v165h152v-165h-152zM-60 1614v165h151v-165h-151z" />
    <glyph glyph-name="Eth" unicode="&#xd0;" horiz-adv-x="1446" 
d="M1348 748c0 -114 -15.833 -215.832 -47.5 -305.499c-31.6689 -89.667 -78.8359 -168.834 -141.5 -237.501c-124.667 -136.667 -300 -205 -526 -205h-477v692h-105v107h105v696h475c222.667 0 398.667 -69.667 528 -209c126 -134 189 -313.333 189 -538zM1219 748.001
c0 188.667 -50 339.332 -150 451.999c-104 117.333 -250 176 -438 176h-348v-577h272v-107h-272v-575h348c188 0 334 59.333 438 178c50 56.667 87.5 122.334 112.5 197.001s37.5 160 37.5 256z" />
    <glyph glyph-name="Ntilde" unicode="&#xd1;" horiz-adv-x="1430" 
d="M1141 0l-858 1298v-1298h-127v1495h135l856 -1298v1298h127v-1495h-133zM882 1626c-19.333 0 -41.999 3.66699 -67.999 11c-26 7.3584 -55 18.6914 -87 33.999c-64.667 31.333 -110 47 -136 47c-48 0 -95.667 -30.667 -143 -92v121c38 46 85.667 69 143 69
c40 0 92 -15.667 156 -47c32 -15.333 59.167 -26.666 81.5 -33.999s40.166 -11 53.499 -11c42.667 0 87.667 26.667 135 80v-119c-34 -39.333 -79 -59 -135 -59z" />
    <glyph glyph-name="Ograve" unicode="&#xd2;" horiz-adv-x="1589" 
d="M1491 748c0 -228 -58.668 -411.67 -176.001 -551.003c-124.667 -148 -298.667 -222 -522 -222c-112.667 0 -212 18.333 -298 55s-160.333 92.334 -223 167.001c-116 139.333 -174 323 -174 551c0 228.667 58 411.334 174 548.001
c124.667 149.333 298.334 224 521.001 224c223.333 0 397.333 -74 522 -222c117.333 -139.333 176 -322.666 176 -549.999zM1362 747.997c0 198.667 -46.334 355.001 -139.001 469.001c-101.333 122.667 -244.666 184 -429.999 184c-184 0 -326 -62.333 -426 -187
c-93.333 -116.667 -140 -272 -140 -466c0 -196.667 46.667 -352.334 140 -467.001c100 -124.667 242 -187 426 -187c186.667 0 330 60.667 430 182c92.667 114 139 271.333 139 472zM505.998 1841h197l157 -239h-110z" />
    <glyph glyph-name="Oacute" unicode="&#xd3;" horiz-adv-x="1589" 
d="M1491 748c0 -228 -58.668 -411.67 -176.001 -551.003c-124.667 -148 -298.667 -222 -522 -222c-112.667 0 -212 18.333 -298 55s-160.333 92.334 -223 167.001c-116 139.333 -174 323 -174 551c0 228.667 58 411.334 174 548.001
c124.667 149.333 298.334 224 521.001 224c223.333 0 397.333 -74 522 -222c117.333 -139.333 176 -322.666 176 -549.999zM1362 747.997c0 198.667 -46.334 355.001 -139.001 469.001c-101.333 122.667 -244.666 184 -429.999 184c-184 0 -326 -62.333 -426 -187
c-93.333 -116.667 -140 -272 -140 -466c0 -196.667 46.667 -352.334 140 -467.001c100 -124.667 242 -187 426 -187c186.667 0 330 60.667 430 182c92.667 114 139 271.333 139 472zM839.998 1601h-111l158 240h196z" />
    <glyph glyph-name="Ocircumflex" unicode="&#xd4;" horiz-adv-x="1589" 
d="M1491 748c0 -228 -58.668 -411.67 -176.001 -551.003c-124.667 -148 -298.667 -222 -522 -222c-112.667 0 -212 18.333 -298 55s-160.333 92.334 -223 167.001c-116 139.333 -174 323 -174 551c0 228.667 58 411.334 174 548.001
c124.667 149.333 298.334 224 521.001 224c223.333 0 397.333 -74 522 -222c117.333 -139.333 176 -322.666 176 -549.999zM1362 747.997c0 198.667 -46.334 355.001 -139.001 469.001c-101.333 122.667 -244.666 184 -429.999 184c-184 0 -326 -62.333 -426 -187
c-93.333 -116.667 -140 -272 -140 -466c0 -196.667 46.667 -352.334 140 -467.001c100 -124.667 242 -187 426 -187c186.667 0 330 60.667 430 182c92.667 114 139 271.333 139 472zM923.998 1602l-135 164l-135 -164h-119l153 219h201l154 -219h-119z" />
    <glyph glyph-name="Otilde" unicode="&#xd5;" horiz-adv-x="1589" 
d="M1491 748c0 -228 -58.668 -411.67 -176.001 -551.003c-124.667 -148 -298.667 -222 -522 -222c-112.667 0 -212 18.333 -298 55s-160.333 92.334 -223 167.001c-116 139.333 -174 323 -174 551c0 228.667 58 411.334 174 548.001
c124.667 149.333 298.334 224 521.001 224c223.333 0 397.333 -74 522 -222c117.333 -139.333 176 -322.666 176 -549.999zM1362 747.997c0 198.667 -46.334 355.001 -139.001 469.001c-101.333 122.667 -244.666 184 -429.999 184c-184 0 -326 -62.333 -426 -187
c-93.333 -116.667 -140 -272 -140 -466c0 -196.667 46.667 -352.334 140 -467.001c100 -124.667 242 -187 426 -187c186.667 0 330 60.667 430 182c92.667 114 139 271.333 139 472zM943.998 1606c-19.333 0 -41.999 3.66602 -67.999 10.999c-26 7.3584 -55 18.6914 -87 34
c-64.667 31.333 -110 47 -136 47c-48 0 -95.667 -30.667 -143 -92v121c38 46 85.667 69 143 69c40 0 92 -15.667 156 -47c32 -15.333 59.167 -26.666 81.5 -33.999s40.166 -11 53.499 -11c42.6689 0 87.6689 26.667 135 80v-119c-34 -39.333 -79 -59 -135 -59z" />
    <glyph glyph-name="Odieresis" unicode="&#xd6;" horiz-adv-x="1589" 
d="M1491 748c0 -228 -58.668 -411.67 -176.001 -551.003c-124.667 -148 -298.667 -222 -522 -222c-112.667 0 -212 18.333 -298 55s-160.333 92.334 -223 167.001c-116 139.333 -174 323 -174 551c0 228.667 58 411.334 174 548.001
c124.667 149.333 298.334 224 521.001 224c223.333 0 397.333 -74 522 -222c117.333 -139.333 176 -322.666 176 -549.999zM1362 747.997c0 198.667 -46.334 355.001 -139.001 469.001c-101.333 122.667 -244.666 184 -429.999 184c-184 0 -326 -62.333 -426 -187
c-93.333 -116.667 -140 -272 -140 -466c0 -196.667 46.667 -352.334 140 -467.001c100 -124.667 242 -187 426 -187c186.667 0 330 60.667 430 182c92.667 114 139 271.333 139 472zM912.998 1614v165h152v-165h-152zM515.998 1614v165h151v-165h-151z" />
    <glyph glyph-name="multiply" unicode="&#xd7;" horiz-adv-x="1176" 
d="M659 582l334 -334l-75 -76l-334 334l-334 -334l-76 76l334 334l-334 333l76 76l334 -334l334 334l75 -76z" />
    <glyph glyph-name="Oslash" unicode="&#xd8;" horiz-adv-x="1589" 
d="M1491 748c0 -228 -58.6709 -411.668 -176.004 -551.001c-124.667 -148 -298.667 -222 -522 -222c-187.333 0 -341.666 54 -462.999 162l-117 -137h-111l170 199c-116 137.333 -174 320.333 -174 549s58 411.334 174 548.001c124.667 149.333 298.334 224 521.001 224
c95.333 0 181.833 -13.833 259.5 -41.5s146.834 -68.5 207.501 -122.5l118 139h107l-168 -199c58.667 -68.667 102.334 -148.667 131.001 -240s43 -194 43 -308zM792.996 1401c-184 0 -326 -62.333 -426 -187c-93.333 -116.667 -140 -272 -140 -466
c0 -94 10.667 -178.167 32 -252.5s53 -140.5 95 -198.5l826 967c-96 91.333 -225 137 -387 137zM1362 747.999c0 187.333 -42.334 338 -127.001 452l-825 -967c96.667 -92.667 224.334 -139 383.001 -139c186.667 0 330 60.667 430 182c92.667 114 139 271.333 139 472z" />
    <glyph glyph-name="Ugrave" unicode="&#xd9;" horiz-adv-x="1409" 
d="M1239 379c-16 -62.667 -39.999 -118.836 -71.999 -168.503s-71 -91.5 -117 -125.5s-97.833 -60 -155.5 -78s-120.167 -27 -187.5 -27s-130 9 -188 27s-110 44 -156 78s-85.333 75.833 -118 125.5s-57 105.834 -73 168.501c-7.33301 26.667 -12.5 62.334 -15.5 107.001
s-4.5 99 -4.5 163v848h131v-868c0 -60 1.33301 -109.333 4 -148s6.66699 -66.667 12 -84c14 -47.333 34 -89.666 60 -126.999s56.5 -68.833 91.5 -94.5s74.167 -45.334 117.5 -59.001s89.666 -20.5 138.999 -20.5c48.668 0 94.335 6.83301 137 20.5
c42.667 13.667 81.5 33.334 116.5 59.001s65.5 57.167 91.5 94.5c26 37.334 46 79.667 60 127c5.33301 17.333 9.33301 45.333 12 84s4 88 4 148v868h129v-848c0 -132.667 -6 -222.667 -18 -270zM453.001 1841h197l157 -239h-110z" />
    <glyph glyph-name="Uacute" unicode="&#xda;" horiz-adv-x="1409" 
d="M1239 379c-16 -62.667 -39.999 -118.836 -71.999 -168.503s-71 -91.5 -117 -125.5s-97.833 -60 -155.5 -78s-120.167 -27 -187.5 -27s-130 9 -188 27s-110 44 -156 78s-85.333 75.833 -118 125.5s-57 105.834 -73 168.501c-7.33301 26.667 -12.5 62.334 -15.5 107.001
s-4.5 99 -4.5 163v848h131v-868c0 -60 1.33301 -109.333 4 -148s6.66699 -66.667 12 -84c14 -47.333 34 -89.666 60 -126.999s56.5 -68.833 91.5 -94.5s74.167 -45.334 117.5 -59.001s89.666 -20.5 138.999 -20.5c48.668 0 94.335 6.83301 137 20.5
c42.667 13.667 81.5 33.334 116.5 59.001s65.5 57.167 91.5 94.5c26 37.334 46 79.667 60 127c5.33301 17.333 9.33301 45.333 12 84s4 88 4 148v868h129v-848c0 -132.667 -6 -222.667 -18 -270zM717.001 1601h-111l158 240h196z" />
    <glyph glyph-name="Ucircumflex" unicode="&#xdb;" horiz-adv-x="1409" 
d="M1239 379c-16 -62.667 -39.999 -118.836 -71.999 -168.503s-71 -91.5 -117 -125.5s-97.833 -60 -155.5 -78s-120.167 -27 -187.5 -27s-130 9 -188 27s-110 44 -156 78s-85.333 75.833 -118 125.5s-57 105.834 -73 168.501c-7.33301 26.667 -12.5 62.334 -15.5 107.001
s-4.5 99 -4.5 163v848h131v-868c0 -60 1.33301 -109.333 4 -148s6.66699 -66.667 12 -84c14 -47.333 34 -89.666 60 -126.999s56.5 -68.833 91.5 -94.5s74.167 -45.334 117.5 -59.001s89.666 -20.5 138.999 -20.5c48.668 0 94.335 6.83301 137 20.5
c42.667 13.667 81.5 33.334 116.5 59.001s65.5 57.167 91.5 94.5c26 37.334 46 79.667 60 127c5.33301 17.333 9.33301 45.333 12 84s4 88 4 148v868h129v-848c0 -132.667 -6 -222.667 -18 -270zM844.001 1602l-135 164l-135 -164h-119l153 219h201l154 -219h-119z" />
    <glyph glyph-name="Udieresis" unicode="&#xdc;" horiz-adv-x="1409" 
d="M1239 379c-16 -62.667 -39.999 -118.836 -71.999 -168.503s-71 -91.5 -117 -125.5s-97.833 -60 -155.5 -78s-120.167 -27 -187.5 -27s-130 9 -188 27s-110 44 -156 78s-85.333 75.833 -118 125.5s-57 105.834 -73 168.501c-7.33301 26.667 -12.5 62.334 -15.5 107.001
s-4.5 99 -4.5 163v848h131v-868c0 -60 1.33301 -109.333 4 -148s6.66699 -66.667 12 -84c14 -47.333 34 -89.666 60 -126.999s56.5 -68.833 91.5 -94.5s74.167 -45.334 117.5 -59.001s89.666 -20.5 138.999 -20.5c48.668 0 94.335 6.83301 137 20.5
c42.667 13.667 81.5 33.334 116.5 59.001s65.5 57.167 91.5 94.5c26 37.334 46 79.667 60 127c5.33301 17.333 9.33301 45.333 12 84s4 88 4 148v868h129v-848c0 -132.667 -6 -222.667 -18 -270zM827.001 1614v165h152v-165h-152zM430.001 1614v165h151v-165h-151z" />
    <glyph glyph-name="Yacute" unicode="&#xdd;" horiz-adv-x="1264" 
d="M700 598v-598h-137v598l-530 897h157l443 -768l442 768h156zM656 1601h-111l158 240h196z" />
    <glyph glyph-name="Thorn" unicode="&#xde;" horiz-adv-x="1176" 
d="M1079 750c0 -152 -49.667 -273.667 -149 -365c-100 -91.333 -227 -137 -381 -137h-281v-248h-125v1495h125v-244h281c154 0 281 -45.667 381 -137c99.333 -91.334 149 -212.667 149 -364zM954 750c0 62 -10.5 117 -31.5 165s-51 88.5 -90 121.5s-86.167 58 -141.5 75
s-117 25.5 -185 25.5h-238v-775h238c68 0 129.667 8.66699 185 26s102.5 42.5 141.5 75.5s69 73.5 90 121.5s31.5 103 31.5 165z" />
    <glyph glyph-name="germandbls" unicode="&#xdf;" horiz-adv-x="1165" 
d="M1090 473c0 -140.667 -40.332 -255.333 -120.999 -344c-80 -86 -188 -129 -324 -129h-156v109h164c85.333 0 157 29.333 215 88c66 65.333 99 150 99 254s-36.333 187.667 -109 251c-71.333 63.333 -161.333 95 -270 95h-33v108h37c32 0 61.5 6.16699 88.5 18.5
s50.167 29.666 69.5 51.999s34.333 49 45 80s16 64.833 16 101.5c0 38.667 -6 73.167 -18 103.5s-28.833 56 -50.5 77s-47.667 37.167 -78 48.5c-30.335 11.333 -64.168 17 -101.5 17c-164 0 -246 -103.667 -246 -311v-1092h-127v909h-143v109h143v121
c0 110.667 32.333 201.334 97 272.001c69.334 74 164.667 111 286 111c56.667 0 107.667 -10.167 153 -30.5s86 -50.5 122 -90.5c60 -71.333 90 -147 90 -227c0 -62.667 -14.333 -121.667 -43 -177c-32.667 -60.667 -76.334 -100 -131.001 -118
c92 -13.333 169.667 -62 233 -146c62 -80 93 -166.667 93 -260z" />
    <glyph glyph-name="agrave" unicode="&#xe0;" horiz-adv-x="1155" 
d="M895 0l-0.000976562 129c-144 -102.667 -296.333 -154 -457 -154c-237.333 0 -356 108 -356 324c0 114.667 44.333 204.667 133 270c40 30 87 53.833 141 71.5s116.333 30.167 187 37.5c23.333 3.33301 64.5 5.5 123.5 6.5s135.167 1.5 228.5 1.5v57
c0 81.333 -37 142.333 -111 183c-30 16 -63 28.167 -99 36.5s-76 12.5 -120 12.5c-131.333 0 -265.666 -50.667 -402.999 -152v133c116 92 253 138 411 138c128.667 0 232.667 -27.333 312 -82c90 -64 135 -157 135 -279v-733h-125zM894.999 571h-126.999
c-380.667 0 -571 -90.667 -571 -272c0 -140.667 78.333 -211 235 -211c66.667 0 138.667 14.167 216 42.5s159.666 71.5 246.999 129.5v311zM283 1424h197l157 -239h-110z" />
    <glyph glyph-name="aacute" unicode="&#xe1;" horiz-adv-x="1155" 
d="M895 0l-0.000976562 129c-144 -102.667 -296.333 -154 -457 -154c-237.333 0 -356 108 -356 324c0 114.667 44.333 204.667 133 270c40 30 87 53.833 141 71.5s116.333 30.167 187 37.5c23.333 3.33301 64.5 5.5 123.5 6.5s135.167 1.5 228.5 1.5v57
c0 81.333 -37 142.333 -111 183c-30 16 -63 28.167 -99 36.5s-76 12.5 -120 12.5c-131.333 0 -265.666 -50.667 -402.999 -152v133c116 92 253 138 411 138c128.667 0 232.667 -27.333 312 -82c90 -64 135 -157 135 -279v-733h-125zM894.999 571h-126.999
c-380.667 0 -571 -90.667 -571 -272c0 -140.667 78.333 -211 235 -211c66.667 0 138.667 14.167 216 42.5s159.666 71.5 246.999 129.5v311zM604 1185h-111l158 240h196z" />
    <glyph glyph-name="acircumflex" unicode="&#xe2;" horiz-adv-x="1155" 
d="M895 0l-0.000976562 129c-144 -102.667 -296.333 -154 -457 -154c-237.333 0 -356 108 -356 324c0 114.667 44.333 204.667 133 270c40 30 87 53.833 141 71.5s116.333 30.167 187 37.5c23.333 3.33301 64.5 5.5 123.5 6.5s135.167 1.5 228.5 1.5v57
c0 81.333 -37 142.333 -111 183c-30 16 -63 28.167 -99 36.5s-76 12.5 -120 12.5c-131.333 0 -265.666 -50.667 -402.999 -152v133c116 92 253 138 411 138c128.667 0 232.667 -27.333 312 -82c90 -64 135 -157 135 -279v-733h-125zM894.999 571h-126.999
c-380.667 0 -571 -90.667 -571 -272c0 -140.667 78.333 -211 235 -211c66.667 0 138.667 14.167 216 42.5s159.666 71.5 246.999 129.5v311zM694 1185l-135 164l-135 -164h-119l153 219h201l154 -219h-119z" />
    <glyph glyph-name="atilde" unicode="&#xe3;" horiz-adv-x="1155" 
d="M895 0l-0.000976562 129c-144 -102.667 -296.333 -154 -457 -154c-237.333 0 -356 108 -356 324c0 114.667 44.333 204.667 133 270c40 30 87 53.833 141 71.5s116.333 30.167 187 37.5c23.333 3.33301 64.5 5.5 123.5 6.5s135.167 1.5 228.5 1.5v57
c0 81.333 -37 142.333 -111 183c-30 16 -63 28.167 -99 36.5s-76 12.5 -120 12.5c-131.333 0 -265.666 -50.667 -402.999 -152v133c116 92 253 138 411 138c128.667 0 232.667 -27.333 312 -82c90 -64 135 -157 135 -279v-733h-125zM894.999 571h-126.999
c-380.667 0 -571 -90.667 -571 -272c0 -140.667 78.333 -211 235 -211c66.667 0 138.667 14.167 216 42.5s159.666 71.5 246.999 129.5v311zM710 1227c-19.333 0 -41.999 3.66602 -67.999 10.999c-26 7.35254 -55 18.6855 -87 34c-64.667 31.333 -110 47 -136 47
c-48 0 -95.667 -30.667 -143 -92v121c38 46 85.667 69 143 69c40 0 92 -15.667 156 -47c32 -15.333 59.167 -26.666 81.5 -33.999s40.166 -11 53.499 -11c42.667 0 87.667 26.667 135 80v-119c-34 -39.333 -79 -59 -135 -59z" />
    <glyph glyph-name="adieresis" unicode="&#xe4;" horiz-adv-x="1155" 
d="M895 0l-0.000976562 129c-144 -102.667 -296.333 -154 -457 -154c-237.333 0 -356 108 -356 324c0 114.667 44.333 204.667 133 270c40 30 87 53.833 141 71.5s116.333 30.167 187 37.5c23.333 3.33301 64.5 5.5 123.5 6.5s135.167 1.5 228.5 1.5v57
c0 81.333 -37 142.333 -111 183c-30 16 -63 28.167 -99 36.5s-76 12.5 -120 12.5c-131.333 0 -265.666 -50.667 -402.999 -152v133c116 92 253 138 411 138c128.667 0 232.667 -27.333 312 -82c90 -64 135 -157 135 -279v-733h-125zM894.999 571h-126.999
c-380.667 0 -571 -90.667 -571 -272c0 -140.667 78.333 -211 235 -211c66.667 0 138.667 14.167 216 42.5s159.666 71.5 246.999 129.5v311zM682 1202v165h152v-165h-152zM285 1202v165h151v-165h-151z" />
    <glyph glyph-name="aring" unicode="&#xe5;" horiz-adv-x="1155" 
d="M895 0l-0.000976562 129c-144 -102.667 -296.333 -154 -457 -154c-237.333 0 -356 108 -356 324c0 114.667 44.333 204.667 133 270c40 30 87 53.833 141 71.5s116.333 30.167 187 37.5c23.333 3.33301 64.5 5.5 123.5 6.5s135.167 1.5 228.5 1.5v57
c0 81.333 -37 142.333 -111 183c-30 16 -63 28.167 -99 36.5s-76 12.5 -120 12.5c-131.333 0 -265.666 -50.667 -402.999 -152v133c116 92 253 138 411 138c128.667 0 232.667 -27.333 312 -82c90 -64 135 -157 135 -279v-733h-125zM894.999 571h-126.999
c-380.667 0 -571 -90.667 -571 -272c0 -140.667 78.333 -211 235 -211c66.667 0 138.667 14.167 216 42.5s159.666 71.5 246.999 129.5v311zM719 1337c0 -22 -4.16699 -42.668 -12.5 -62.001s-19.833 -36.166 -34.5 -50.499s-31.667 -25.666 -51 -33.999
s-40 -12.5 -62 -12.5s-42.667 4.16699 -62 12.5c-19.333 8.35156 -36.333 19.6846 -51 33.999c-14.667 14.3428 -26.167 31.1758 -34.5 50.5c-8.33301 19.333 -12.5 40 -12.5 62s4.16699 42.667 12.5 62s19.833 36.333 34.5 51s31.667 26.167 51 34.5s40 12.5 62 12.5
s42.667 -4.16699 62 -12.5s36.333 -19.833 51 -34.5s26.167 -31.667 34.5 -51s12.5 -40 12.5 -62zM663 1337c0 14.667 -2.66602 28.3311 -7.99902 40.998s-12.833 23.834 -22.5 33.501s-20.834 17.167 -33.501 22.5s-26 8 -40 8c-14.667 0 -28.334 -2.66699 -41.001 -8
s-23.667 -12.833 -33 -22.5c-9.33301 -9.6875 -16.833 -20.8545 -22.5 -33.5c-5.66699 -12.6768 -8.5 -26.3438 -8.5 -41c0 -14 2.83301 -27.333 8.5 -40s13.167 -23.834 22.5 -33.5c9.33301 -9.66699 20.333 -17.167 33 -22.5c12.6689 -5.33301 26.3359 -8 41.001 -8
c14 0 27.333 2.66699 40 8c12.6689 5.33301 23.8359 12.833 33.5 22.5c9.66699 9.66699 17.167 20.834 22.5 33.501s8 26 8 40z" />
    <glyph glyph-name="ae" unicode="&#xe6;" horiz-adv-x="1974" 
d="M1876 602c0 -19.3359 -0.332031 -35.6709 -0.999023 -49.002c-0.666992 -13.3369 -1.66699 -23.6699 -3 -30.999h-852v-30c0 -121.333 36.667 -219.666 110 -294.999c74 -74 171.667 -111 293 -111c150 0 283.333 47 400 141v-129c-116.667 -82 -250 -123 -400 -123
c-228 0 -383 91 -465 273c-88.667 -183.333 -254.334 -275 -497.001 -275c-252.667 0 -379 106.667 -379 320c0 144.667 64 242.334 192 293c40 15.333 91.5 27 154.5 35s137.833 12 224.5 12h242v110c0 81.333 -37 142.333 -111 183c-30 16 -63 28.167 -99 36.5
s-76 12.5 -120 12.5c-131.333 0 -265.666 -50.667 -402.999 -152v133c116 92 250.333 138 403 138c228.667 0 371.334 -76 428 -228c19.333 35.333 43.166 67 71.499 95s60 51.667 95 71c35 19.3418 72.333 34.1748 112 44.5c39.667 10.333 80.167 15.5 121.5 15.5
c146.667 0 264 -45.333 352 -136c87.333 -87.333 131 -205.333 131 -354zM1728 776.998c-18 42.667 -42.6689 79 -74.002 109s-68.666 53 -111.999 69s-91.666 24 -144.999 24c-50 0 -95.833 -8.5 -137.5 -25.5s-78.5 -40.833 -110.5 -71.5s-58.5 -67.167 -79.5 -109.5
s-35.5 -88.833 -43.5 -139.5h733c-2.66699 53.333 -13 101.333 -31 144zM894.999 521.998l-266 -0.000976562c-60.667 0 -114 -2.66699 -160 -8s-85 -13.666 -117 -24.999c-103.333 -34 -155 -99.333 -155 -196c0 -138 88 -207 264 -207c130 0 233.667 34 311 102
c82 72 123 173.333 123 304v30z" />
    <glyph glyph-name="ccedilla" unicode="&#xe7;" horiz-adv-x="1049" 
d="M625 -25c-166 0 -296.667 52 -392 156c-90 100 -135 233.667 -135 401c0 83.333 11.667 158.333 35 225c23.333 66.668 58.333 126.335 105 179.001c94 104 223 156 387 156c130.667 0 246 -31.667 346 -95v-133c-104.667 74 -219.334 111 -344.001 111
c-65.333 0 -123.333 -10.667 -174 -32s-93.167 -51.333 -127.5 -90s-60.333 -85.334 -78 -140.001s-26.5 -115 -26.5 -181c0 -132 33.667 -237.667 101 -317c36 -42 79.333 -73.333 130 -94s108.334 -31 173.001 -31c60.667 0 119.834 9.83301 177.5 29.5
c57.667 19.667 113.834 49.5 168.5 89.5v-131c-102 -68.667 -217.333 -103 -346 -103zM535 -330h-191l228 240h116z" />
    <glyph glyph-name="egrave" unicode="&#xe8;" horiz-adv-x="1176" 
d="M1077 602c0 -18 -1.99902 -54.667 -5.99902 -110h-850c4 -61.333 15.833 -116.833 35.5 -166.5s46.667 -92 81 -127c34.334 -35 75.667 -61.833 124 -80.5s102.833 -28 163.5 -28c149.333 0 282.333 47 399 141v-133c-116.667 -82 -249.667 -123 -399 -123
c-166 0 -296.667 52 -392 156c-90 100 -135 233.667 -135 401c0 178 52 318 156 420c95.333 93.333 208.666 140 339.999 140c146.667 0 264 -45.333 352 -136c87.333 -87.333 131 -205.333 131 -354zM936.001 757c-16.667 46 -40.499 85.5 -71.499 118.5
s-69 58.5 -114 76.5s-95.833 27 -152.5 27c-104.667 0 -191.334 -36.333 -260.001 -109c-66.667 -72 -105 -160.667 -115 -266h738c0 56 -8.33301 107 -25 153zM319.002 1424h197l157 -239h-110z" />
    <glyph glyph-name="eacute" unicode="&#xe9;" horiz-adv-x="1176" 
d="M1077 602c0 -18 -1.99902 -54.667 -5.99902 -110h-850c4 -61.333 15.833 -116.833 35.5 -166.5s46.667 -92 81 -127c34.334 -35 75.667 -61.833 124 -80.5s102.833 -28 163.5 -28c149.333 0 282.333 47 399 141v-133c-116.667 -82 -249.667 -123 -399 -123
c-166 0 -296.667 52 -392 156c-90 100 -135 233.667 -135 401c0 178 52 318 156 420c95.333 93.333 208.666 140 339.999 140c146.667 0 264 -45.333 352 -136c87.333 -87.333 131 -205.333 131 -354zM936.001 757c-16.667 46 -40.499 85.5 -71.499 118.5
s-69 58.5 -114 76.5s-95.833 27 -152.5 27c-104.667 0 -191.334 -36.333 -260.001 -109c-66.667 -72 -105 -160.667 -115 -266h738c0 56 -8.33301 107 -25 153zM639.002 1185h-111l158 240h196z" />
    <glyph glyph-name="ecircumflex" unicode="&#xea;" horiz-adv-x="1176" 
d="M1077 602c0 -18 -1.99902 -54.667 -5.99902 -110h-850c4 -61.333 15.833 -116.833 35.5 -166.5s46.667 -92 81 -127c34.334 -35 75.667 -61.833 124 -80.5s102.833 -28 163.5 -28c149.333 0 282.333 47 399 141v-133c-116.667 -82 -249.667 -123 -399 -123
c-166 0 -296.667 52 -392 156c-90 100 -135 233.667 -135 401c0 178 52 318 156 420c95.333 93.333 208.666 140 339.999 140c146.667 0 264 -45.333 352 -136c87.333 -87.333 131 -205.333 131 -354zM936.001 757c-16.667 46 -40.499 85.5 -71.499 118.5
s-69 58.5 -114 76.5s-95.833 27 -152.5 27c-104.667 0 -191.334 -36.333 -260.001 -109c-66.667 -72 -105 -160.667 -115 -266h738c0 56 -8.33301 107 -25 153zM741.002 1185l-135 164l-135 -164h-119l153 219h201l154 -219h-119z" />
    <glyph glyph-name="edieresis" unicode="&#xeb;" horiz-adv-x="1176" 
d="M1077 602c0 -18 -1.99902 -54.667 -5.99902 -110h-850c4 -61.333 15.833 -116.833 35.5 -166.5s46.667 -92 81 -127c34.334 -35 75.667 -61.833 124 -80.5s102.833 -28 163.5 -28c149.333 0 282.333 47 399 141v-133c-116.667 -82 -249.667 -123 -399 -123
c-166 0 -296.667 52 -392 156c-90 100 -135 233.667 -135 401c0 178 52 318 156 420c95.333 93.333 208.666 140 339.999 140c146.667 0 264 -45.333 352 -136c87.333 -87.333 131 -205.333 131 -354zM936.001 757c-16.667 46 -40.499 85.5 -71.499 118.5
s-69 58.5 -114 76.5s-95.833 27 -152.5 27c-104.667 0 -191.334 -36.333 -260.001 -109c-66.667 -72 -105 -160.667 -115 -266h738c0 56 -8.33301 107 -25 153zM723.002 1202v165h152v-165h-152zM326.002 1202v165h151v-165h-151z" />
    <glyph glyph-name="igrave" unicode="&#xec;" 
d="M143 0v1067h123v-1067h-123zM-85 1424h197l157 -239h-110z" />
    <glyph glyph-name="iacute" unicode="&#xed;" 
d="M143 0v1067h123v-1067h-123zM271 1185h-111l158 240h196z" />
    <glyph glyph-name="icircumflex" unicode="&#xee;" 
d="M143 0v1067h123v-1067h-123zM342 1185l-135 164l-135 -164h-119l153 219h201l154 -219h-119z" />
    <glyph glyph-name="idieresis" unicode="&#xef;" 
d="M143 0v1067h123v-1067h-123zM329 1202v165h152v-165h-152zM-68 1202v165h151v-165h-151z" />
    <glyph glyph-name="eth" unicode="&#xf0;" horiz-adv-x="1401" 
d="M1214 578c0 -196.667 -51.667 -347.666 -155 -452.999c-98.667 -98.667 -229.667 -148 -393 -148c-160.667 0 -294 51.333 -400 154c-99.333 97.333 -149 219.666 -149 366.999c0 144 51.667 266.667 155 368c104.667 102.667 236 154 394 154c34.667 0 70 -4 106 -12
s70.833 -19.5 104.5 -34.5c33.668 -15 65.335 -33 95 -54c29.667 -21 55.5 -44.833 77.5 -71.5l4 2c-36.667 113.333 -79.667 203.333 -129 270c-25.333 35.3379 -55.333 69.6709 -90 103c-34.667 33.333 -75 66 -121 98l-264 -113l-60 43l260 111
c-50 23.3438 -96 43.1768 -138 59.499c-42 16.333 -80 28.5 -114 36.5l95 70c49.333 -12.667 97 -28.667 143 -48s91 -41.666 135 -66.999l264 113l58 -45l-256 -107c252 -200.667 378 -466 378 -796zM1075 498.001c0 114.667 -40.334 210.668 -121.001 288.001
c-79.333 79.333 -175.333 119 -288 119c-113.333 0 -209.666 -39.667 -288.999 -119c-80.667 -77.333 -121 -173.333 -121 -288c0 -108.667 40.333 -204.334 121 -287.001c82.667 -80.667 179 -121 289 -121s205.333 40.333 286 121c82 82 123 177.667 123 287z" />
    <glyph glyph-name="ntilde" unicode="&#xf1;" horiz-adv-x="1180" 
d="M913 0l-0.00390625 598.002c0 60.668 -5.16699 113.835 -15.5 159.5c-10.3369 45.668 -26.1699 83.835 -47.5 114.5c-49.333 72.667 -132 109 -248 109c-33.333 0 -65.833 -4.66699 -97.5 -14s-61.167 -22.833 -88.5 -40.5s-51.666 -38.834 -72.999 -63.501
s-38 -52.334 -50 -83.001c-9.33301 -21.3359 -16.166 -45.1689 -20.499 -71.499c-4.33301 -26.333 -6.5 -55.5 -6.5 -87.5v-621h-123v1067h123v-129c18 24 39.833 45.667 65.5 65s53.334 35.666 83.001 48.999c29.667 13.3496 60.5 23.6826 92.5 31
c32 7.33301 63.667 11 95 11c289.334 0 434.001 -151 434.001 -453v-641h-123zM732.996 1227c-19.333 0 -41.999 3.66602 -67.999 10.999c-26 7.35254 -55 18.6855 -87 34c-64.667 31.333 -110 47 -136 47c-48 0 -95.667 -30.667 -143 -92v121c38 46 85.667 69 143 69
c40 0 92 -15.667 156 -47c32 -15.333 59.167 -26.666 81.5 -33.999s40.166 -11 53.499 -11c42.667 0 87.667 26.667 135 80v-119c-34 -39.333 -79 -59 -135 -59z" />
    <glyph glyph-name="ograve" unicode="&#xf2;" horiz-adv-x="1251" 
d="M1153 532c0 -166 -46.332 -300.334 -138.999 -403.001s-222.334 -154 -389.001 -154c-166 0 -296.667 52 -392 156c-90 100 -135 233.667 -135 401c0 166.667 46.667 301.334 140 404.001c94 104 223 156 387 156c83.333 0 157.333 -13.333 222 -40
c64.667 -26.6689 121 -66.002 169 -118c46 -50 80.333 -108.667 103 -176c22.667 -67.334 34 -142.667 34 -226zM1030 531.999c0 134.667 -33.333 240.667 -100 318c-71.333 83.333 -173 125 -305 125c-64.667 0 -122.334 -10.333 -173.001 -31s-94 -52 -130 -94
c-67.333 -79.333 -101 -185.333 -101 -318c0 -132 33.667 -237.667 101 -317c36 -42 79.333 -73.333 130 -94s108.334 -31 173.001 -31c132 0 233.667 41.667 305 125c66.667 75.333 100 181 100 317zM340.001 1424h197l157 -239h-110z" />
    <glyph glyph-name="oacute" unicode="&#xf3;" horiz-adv-x="1251" 
d="M1153 532c0 -166 -46.332 -300.334 -138.999 -403.001s-222.334 -154 -389.001 -154c-166 0 -296.667 52 -392 156c-90 100 -135 233.667 -135 401c0 166.667 46.667 301.334 140 404.001c94 104 223 156 387 156c83.333 0 157.333 -13.333 222 -40
c64.667 -26.6689 121 -66.002 169 -118c46 -50 80.333 -108.667 103 -176c22.667 -67.334 34 -142.667 34 -226zM1030 531.999c0 134.667 -33.333 240.667 -100 318c-71.333 83.333 -173 125 -305 125c-64.667 0 -122.334 -10.333 -173.001 -31s-94 -52 -130 -94
c-67.333 -79.333 -101 -185.333 -101 -318c0 -132 33.667 -237.667 101 -317c36 -42 79.333 -73.333 130 -94s108.334 -31 173.001 -31c132 0 233.667 41.667 305 125c66.667 75.333 100 181 100 317zM701.001 1185h-111l158 240h196z" />
    <glyph glyph-name="ocircumflex" unicode="&#xf4;" horiz-adv-x="1251" 
d="M1153 532c0 -166 -46.332 -300.334 -138.999 -403.001s-222.334 -154 -389.001 -154c-166 0 -296.667 52 -392 156c-90 100 -135 233.667 -135 401c0 166.667 46.667 301.334 140 404.001c94 104 223 156 387 156c83.333 0 157.333 -13.333 222 -40
c64.667 -26.6689 121 -66.002 169 -118c46 -50 80.333 -108.667 103 -176c22.667 -67.334 34 -142.667 34 -226zM1030 531.999c0 134.667 -33.333 240.667 -100 318c-71.333 83.333 -173 125 -305 125c-64.667 0 -122.334 -10.333 -173.001 -31s-94 -52 -130 -94
c-67.333 -79.333 -101 -185.333 -101 -318c0 -132 33.667 -237.667 101 -317c36 -42 79.333 -73.333 130 -94s108.334 -31 173.001 -31c132 0 233.667 41.667 305 125c66.667 75.333 100 181 100 317zM752.001 1185l-135 164l-135 -164h-119l153 219h201l154 -219h-119z" />
    <glyph glyph-name="otilde" unicode="&#xf5;" horiz-adv-x="1251" 
d="M1153 532c0 -166 -46.332 -300.334 -138.999 -403.001s-222.334 -154 -389.001 -154c-166 0 -296.667 52 -392 156c-90 100 -135 233.667 -135 401c0 166.667 46.667 301.334 140 404.001c94 104 223 156 387 156c83.333 0 157.333 -13.333 222 -40
c64.667 -26.6689 121 -66.002 169 -118c46 -50 80.333 -108.667 103 -176c22.667 -67.334 34 -142.667 34 -226zM1030 531.999c0 134.667 -33.333 240.667 -100 318c-71.333 83.333 -173 125 -305 125c-64.667 0 -122.334 -10.333 -173.001 -31s-94 -52 -130 -94
c-67.333 -79.333 -101 -185.333 -101 -318c0 -132 33.667 -237.667 101 -317c36 -42 79.333 -73.333 130 -94s108.334 -31 173.001 -31c132 0 233.667 41.667 305 125c66.667 75.333 100 181 100 317zM766.001 1227c-19.333 0 -41.999 3.66602 -67.999 10.999
c-26 7.35254 -55 18.6855 -87 34c-64.667 31.333 -110 47 -136 47c-48 0 -95.667 -30.667 -143 -92v121c38 46 85.667 69 143 69c40 0 92 -15.667 156 -47c32 -15.333 59.167 -26.666 81.5 -33.999s40.166 -11 53.499 -11c42.667 0 87.667 26.667 135 80v-119
c-34 -39.333 -79 -59 -135 -59z" />
    <glyph glyph-name="odieresis" unicode="&#xf6;" horiz-adv-x="1251" 
d="M1153 532c0 -166 -46.332 -300.334 -138.999 -403.001s-222.334 -154 -389.001 -154c-166 0 -296.667 52 -392 156c-90 100 -135 233.667 -135 401c0 166.667 46.667 301.334 140 404.001c94 104 223 156 387 156c83.333 0 157.333 -13.333 222 -40
c64.667 -26.6689 121 -66.002 169 -118c46 -50 80.333 -108.667 103 -176c22.667 -67.334 34 -142.667 34 -226zM1030 531.999c0 134.667 -33.333 240.667 -100 318c-71.333 83.333 -173 125 -305 125c-64.667 0 -122.334 -10.333 -173.001 -31s-94 -52 -130 -94
c-67.333 -79.333 -101 -185.333 -101 -318c0 -132 33.667 -237.667 101 -317c36 -42 79.333 -73.333 130 -94s108.334 -31 173.001 -31c132 0 233.667 41.667 305 125c66.667 75.333 100 181 100 317zM735.001 1202v165h152v-165h-152zM338.001 1202v165h151v-165h-151z" />
    <glyph glyph-name="divide" unicode="&#xf7;" horiz-adv-x="1167" 
d="M508 934v166h151v-166h-151zM86 528v107h995v-107h-995zM508 63v166h151v-166h-151z" />
    <glyph glyph-name="oslash" unicode="&#xf8;" horiz-adv-x="1251" 
d="M1153 532c0 -168 -45.667 -301.667 -137 -401c-96 -104 -226.333 -156 -391 -156c-140.667 0 -257 38.333 -349 115l-81 -90h-101l129 143c-83.333 98 -125 227.667 -125 389c0 166.667 46.667 301.334 140 404.001c94 104 223 156 387 156c140 0 256 -39 348 -117l82 92
h98l-129 -143c86 -100.667 129 -231.334 129 -392.001zM625 975c-64.667 0 -122.169 -10.666 -172.502 -31.999s-92.666 -51.333 -126.999 -90s-60.333 -85.334 -78 -140.001s-26.5 -115 -26.5 -181c0 -61.333 7 -116.5 21 -165.5s35 -92.5 63 -130.5l588 651
c-69.333 58.667 -158.666 88 -267.999 88zM1030 532.001c0 124.667 -28.667 225.335 -86 302.001l-588 -654c71.333 -60 161 -90 269 -90c131.333 0 233 41 305 123c66.667 77.333 100 183.666 100 318.999z" />
    <glyph glyph-name="ugrave" unicode="&#xf9;" horiz-adv-x="1180" 
d="M913 0v130.999c-18 -24 -39.5 -45.667 -64.5 -65s-52 -35.666 -81 -48.999s-59.333 -23.666 -91 -30.999s-62.5 -11 -92.5 -11c-283.333 0 -430.333 143.667 -441 431v661h123v-596c0 -124.667 22.667 -218.334 68 -281.001c52 -70 136 -104 252 -102
c83.333 2 156.333 30.667 219 86c72 66 108 157.667 108 275v618h123v-1067h-123zM319 1424h197l157 -239h-110z" />
    <glyph glyph-name="uacute" unicode="&#xfa;" horiz-adv-x="1180" 
d="M913 0v130.999c-18 -24 -39.5 -45.667 -64.5 -65s-52 -35.666 -81 -48.999s-59.333 -23.666 -91 -30.999s-62.5 -11 -92.5 -11c-283.333 0 -430.333 143.667 -441 431v661h123v-596c0 -124.667 22.667 -218.334 68 -281.001c52 -70 136 -104 252 -102
c83.333 2 156.333 30.667 219 86c72 66 108 157.667 108 275v618h123v-1067h-123zM574 1185h-111l158 240h196z" />
    <glyph glyph-name="ucircumflex" unicode="&#xfb;" horiz-adv-x="1180" 
d="M913 0v130.999c-18 -24 -39.5 -45.667 -64.5 -65s-52 -35.666 -81 -48.999s-59.333 -23.666 -91 -30.999s-62.5 -11 -92.5 -11c-283.333 0 -430.333 143.667 -441 431v661h123v-596c0 -124.667 22.667 -218.334 68 -281.001c52 -70 136 -104 252 -102
c83.333 2 156.333 30.667 219 86c72 66 108 157.667 108 275v618h123v-1067h-123zM715 1185l-135 164l-135 -164h-119l153 219h201l154 -219h-119z" />
    <glyph glyph-name="udieresis" unicode="&#xfc;" horiz-adv-x="1180" 
d="M913 0v130.999c-18 -24 -39.5 -45.667 -64.5 -65s-52 -35.666 -81 -48.999s-59.333 -23.666 -91 -30.999s-62.5 -11 -92.5 -11c-283.333 0 -430.333 143.667 -441 431v661h123v-596c0 -124.667 22.667 -218.334 68 -281.001c52 -70 136 -104 252 -102
c83.333 2 156.333 30.667 219 86c72 66 108 157.667 108 275v618h123v-1067h-123zM713 1202v165h152v-165h-152zM316 1202v165h151v-165h-151z" />
    <glyph glyph-name="yacute" unicode="&#xfd;" horiz-adv-x="1124" 
d="M522 -188c-19.333 -46.667 -39.167 -85.8311 -59.5 -117.498s-40.833 -56.834 -61.5 -75.501c-30 -26.666 -63.833 -45.333 -101.5 -56s-84.167 -16 -139.5 -16v119c77.333 -4 133.333 12.333 168 49c13.333 13.333 25.833 29.166 37.5 47.499s22.167 38.833 31.5 61.5
l80 186l-452 1057h145l383 -907l389 907h133zM614.999 1183h-111l158 240h196z" />
    <glyph glyph-name="thorn" unicode="&#xfe;" horiz-adv-x="1262" 
d="M1163 532c0 -178.667 -49.667 -317.667 -149 -417c-46 -46 -99.167 -80.833 -159.5 -104.5c-60.334 -23.667 -128.167 -35.5 -203.5 -35.5c-168.667 0 -297 63.667 -385 191v-594h-123v1923h123v-598c88.667 130 217 195 385 195c151.333 0 273 -48 365 -144
c98 -100 147 -238.667 147 -416zM1040 532c0 134 -31.332 239.333 -93.999 316c-67.334 84.667 -165.667 127 -295 127c-64.667 0 -121.167 -10.667 -169.5 -32s-89.5 -53 -123.5 -95c-30.667 -39.333 -53.667 -85 -69 -137s-23 -111.667 -23 -179
c0 -150.667 38.333 -263.667 115 -339c68.667 -68.667 158.667 -103 270 -103c129.333 0 227.666 42.333 294.999 127c32 39.333 55.667 85 71 137s23 111.333 23 178z" />
    <glyph glyph-name="ydieresis" unicode="&#xff;" horiz-adv-x="1124" 
d="M530 -188c-19.333 -46.667 -39.167 -85.8311 -59.5 -117.498s-40.833 -56.834 -61.5 -75.501c-30 -26.666 -63.833 -45.333 -101.5 -56s-84.167 -16 -139.5 -16v119c77.333 -4 133.333 12.333 168 49c13.333 13.333 25.833 29.166 37.5 47.499s22.167 38.833 31.5 61.5
l80 186l-452 1057h145l383 -907l389 907h133zM701.999 1202v165h152v-165h-152zM304.999 1202v165h151v-165h-151z" />
    <glyph glyph-name=".null" horiz-adv-x="0" 
 />
    <glyph glyph-name="nonmarkingreturn" horiz-adv-x="532" 
 />
    <glyph glyph-name="currency" unicode="&#xa4;" horiz-adv-x="1520" 
d="M1233 1092c20 -28.667 37.5029 -56.165 52.5029 -82.498c15 -26.3369 27.333 -53.1699 37 -80.5c9.66699 -27.333 17 -56.5 22 -87.5s7.5 -65.833 7.5 -104.5c0 -36.667 -2.33301 -69.834 -7 -99.501c-4.6875 -29.667 -11.8545 -57.667 -21.501 -84
c-9.68652 -26.334 -21.8535 -52.334 -36.5 -78c-14.667 -25.667 -32 -52.5 -52 -80.5l143 -145l-92 -92l-145 145c-58 -37.333 -115.833 -65 -173.5 -83s-112.5 -27 -164.5 -27c-56.667 0 -114.834 9.66699 -174.501 29s-118.834 49 -177.501 89l-156 -155l-92 90l153 155
c-20 28.667 -37.5 56.167 -52.5 82.5s-27.5 53.166 -37.5 80.499s-17.5 56.5 -22.5 87.5s-7.5 65.833 -7.5 104.5c0 36.668 2.33301 69.835 7 99.5c4.66699 29.667 11.834 57.667 21.5 84c9.66699 26.333 21.667 52 36 77s30.833 51.5 49.5 79.5l-155 155l94 92l153 -157
c58 40 116 69.833 174 89.5s114 29.5 168 29.5c56.667 0 115.5 -10.167 176.5 -30.5s120.5 -50.5 178.5 -90.5l155 155l95 -92zM1096 446.002c42 40 73.666 85.999 94.999 137.999s32 105.667 32 161c0 54.667 -10.667 108.167 -32 160.5s-53 99.5 -95 141.5
c-42 40.667 -89.167 71.5 -141.5 92.5s-105.5 31.5 -159.5 31.5c-56 0 -110 -10.5 -162 -31.5s-98.333 -51.833 -139 -92.5c-42 -42 -73 -89.167 -93 -141.5s-30 -105.833 -30 -160.5c0 -55.334 10 -108.667 30 -160s51 -97.666 93 -138.999
c40.668 -42 86.835 -73.167 138.501 -93.5c51.667 -20.333 105.834 -30.5 162.5 -30.5c54 0 107.167 10.167 159.5 30.5s99.5 51.5 141.5 93.5z" />
    <glyph glyph-name="brokenbar" unicode="&#xa6;" horiz-adv-x="455" 
d="M152 666v716h110v-716h-110zM152 -358v716h110v-716h-110z" />
    <glyph glyph-name="dieresis" unicode="&#xa8;" horiz-adv-x="549" 
d="M387 1430v165h152v-165h-152zM-10 1430v165h151v-165h-151z" />
    <glyph glyph-name="uni00AD" horiz-adv-x="606" 
d="M51 528v107h504v-107h-504z" />
    <glyph glyph-name="acute" unicode="&#xb4;" horiz-adv-x="334" 
d="M203 1413h-111l158 240h196z" />
    <glyph glyph-name="cedilla" unicode="&#xb8;" 
d="M158 -330h-191l228 240h116z" />
    <glyph glyph-name="onequarter" unicode="&#xbc;" horiz-adv-x="1823" 
d="M342 612v772l-90 -55v105l102 61h95v-883h-107zM393 -25h-123l945 1545h122zM1434 180v-179h-100v179h-465v81l473 623h92v-612h137v-92h-137zM1334 712l-338 -440h338v440z" />
    <glyph glyph-name="onehalf" unicode="&#xbd;" horiz-adv-x="1911" 
d="M342 612v772l-90 -55v105l102 61h95v-883h-107zM393 -25h-123l945 1545h122zM1657 655c0 -58.667 -22.667 -112.665 -68 -161.998c-11.333 -12.667 -28.5 -28.167 -51.5 -46.5s-52.167 -39.833 -87.5 -64.5c-66.667 -48 -116 -89 -148 -123
c-23.333 -25.333 -42.166 -52.333 -56.499 -81s-24.833 -59 -31.5 -91h439v-86h-543c0 167.333 76.333 308 229 422l135 99c56 47.333 84 91.666 84 132.999c0 23.333 -4.66699 44.333 -14 63s-22 34.667 -38 48s-34.833 23.666 -56.5 30.999
c-21.6777 7.33301 -44.8447 11 -69.501 11c-88 0 -174.667 -37.333 -260 -112v110c78 60 164.667 90 260 90c77.333 0 141 -21 191 -63c57.333 -47.334 86 -106.667 86 -178z" />
    <glyph glyph-name="threequarters" unicode="&#xbe;" horiz-adv-x="2142" 
d="M842 872c0 -91.333 -35.6689 -161.332 -107.002 -209.999c-59.333 -41.333 -131.666 -62 -216.999 -62c-100 0 -188.667 30 -266 90v117c88.667 -76.667 177.334 -115 266.001 -115c32 0 61.667 4 89 12s50.666 19.5 69.999 34.5s34.5 33.333 45.5 55
s16.5 46.5 16.5 74.5s-5.5 53.167 -16.5 75.5s-26.167 41.166 -45.5 56.499c-19.3359 15.333 -42.6689 27 -70 35c-27.333 8 -57 12 -89 12h-112v94h112c26 0 50.5 3 73.5 9s42.833 14.833 59.5 26.5c16.6689 11.667 29.8359 26 39.5 43c9.66699 17 14.5 36.5 14.5 58.5
s-4.83301 41.667 -14.5 59s-22.834 31.833 -39.501 43.5s-36.5 20.667 -59.5 27s-47.5 9.5 -73.5 9.5c-39.333 0 -77.666 -6.66699 -114.999 -20s-74.666 -34 -111.999 -62v113c64.667 40.667 140.334 61 227.001 61c71.333 0 133.666 -16.333 186.999 -49
c66.667 -40.667 100 -102 100 -184c0 -42 -8.66699 -78 -26 -108s-43 -54.667 -77 -74c93.333 -39.333 140 -113.333 140 -222zM711.998 -24.999h-123l945 1545h122zM1753 180.001v-179h-100v179h-465v81l473 623h92v-612h137v-92h-137zM1653 712.001l-338 -440h338v440z
" />
    <glyph glyph-name="dotlessi" unicode="&#x131;" 
d="M143 0v1067h123v-1067h-123z" />
    <glyph glyph-name="Lslash" unicode="&#x141;" horiz-adv-x="1118" 
d="M156 0v621l-142 -138v113l142 137v762h127v-639l241 236v-115l-241 -234v-624h786v-119h-913z" />
    <glyph glyph-name="lslash" unicode="&#x142;" horiz-adv-x="401" 
d="M262 817v-817h-123v707l-131 -119v92l131 117v698h123v-588l135 123v-92z" />
    <glyph glyph-name="florin" unicode="&#x192;" horiz-adv-x="764" 
d="M852 1438c-30.667 16 -63.334 24 -98.001 24c-9.33301 0 -18 -0.333008 -26 -1s-15.667 -1.66699 -23 -3c-115.333 -20 -183 -102 -203 -246l-45 -319h233l-14 -105h-234l-120 -856c-6.66699 -47.333 -19 -91.333 -37 -132s-41 -76.5 -69 -107.5s-60.5 -56.5 -97.5 -76.5
s-77.833 -33.333 -122.5 -40c-9.33301 -1.33301 -19.333 -2.33301 -30 -3s-22.667 -1 -36 -1c-16 0 -32.167 1.5 -48.5 4.5s-32.166 8.16699 -47.499 15.5l16 123c30.667 -16 63 -24 97 -24c9.33301 0 18.333 0.333008 27 1s16.667 1.66699 24 3c114 20 181.667 102 203 246
l118 847h-215l15 105h215l47 328c6.66699 47.333 19 91.333 37 132s41 76.5 69 107.5s60.5 56.5 97.5 76.5s77.833 33.333 122.5 40c9.33301 1.33301 19 2.33301 29 3s21.333 1 34 1c36.668 0 69.335 -6.66699 98 -20z" />
    <glyph glyph-name="circumflex" unicode="&#x2c6;" 
d="M340 1225l-135 164l-135 -164h-119l153 219h201l154 -219h-119z" />
    <glyph glyph-name="caron" unicode="&#x2c7;" 
d="M309 1223h-209l-153 219h123l135 -164l135 164h123z" />
    <glyph glyph-name="breve" unicode="&#x2d8;" 
d="M453 1342.5c-16.667 -26.333 -37.498 -48.667 -62.498 -67s-53.5 -32.333 -85.5 -42s-65.333 -14.5 -100 -14.5c-70 0 -130.667 17.667 -182 53c-56 39.3359 -89 92.6689 -99 160h62c8 -20.6777 19.5 -39.3447 34.5 -56.001c15 -16.6768 32.167 -30.8438 51.5 -42.5
c19.333 -11.667 40.5 -20.5 63.5 -26.5s46.833 -9 71.5 -9c113.333 0 185.666 44.667 216.999 134h61c-4.66895 -33.333 -15.3359 -63.166 -32.001 -89.499z" />
    <glyph glyph-name="dotaccent" unicode="&#x2d9;" 
d="M127 1237v166h152v-166h-152z" />
    <glyph glyph-name="ring" unicode="&#x2da;" 
d="M365 1337c0 -22 -4.16699 -42.668 -12.5 -62.001s-19.833 -36.166 -34.5 -50.499s-31.667 -25.666 -51 -33.999s-40 -12.5 -62 -12.5s-42.667 4.16699 -62 12.5c-19.333 8.35156 -36.333 19.6846 -51 33.999c-14.667 14.3428 -26.167 31.1758 -34.5 50.5
c-8.33301 19.333 -12.5 40 -12.5 62s4.16699 42.667 12.5 62s19.833 36.333 34.5 51s31.667 26.167 51 34.5s40 12.5 62 12.5s42.667 -4.16699 62 -12.5s36.333 -19.833 51 -34.5s26.167 -31.667 34.5 -51s12.5 -40 12.5 -62zM309 1337c0 14.667 -2.66699 28.3311 -8 40.998
s-12.833 23.834 -22.5 33.501s-20.834 17.167 -33.5 22.5c-12.667 5.33301 -26 8 -40 8c-14.667 0 -28.334 -2.66699 -41.001 -8s-23.667 -12.833 -33 -22.5c-9.33301 -9.6875 -16.833 -20.8545 -22.5 -33.5c-5.66699 -12.6768 -8.5 -26.3438 -8.5 -41
c0 -14 2.83301 -27.333 8.5 -40s13.167 -23.834 22.5 -33.5c9.33301 -9.66699 20.333 -17.167 33 -22.5s26.334 -8 41 -8c14 0 27.333 2.66699 40 8s23.834 12.833 33.501 22.5s17.167 20.834 22.5 33.501s8 26 8 40z" />
    <glyph glyph-name="ogonek" unicode="&#x2db;" 
d="M240.5 -363.5c-19.667 -5 -39.167 -7.49902 -58.5 -7.49902c-86 0 -129 38.333 -129 115c0 42 10.333 82.333 31 121c8 13.333 32.667 48 74 104h100c-54.667 -83.333 -82 -142 -82 -176c0 -23.333 9 -41.333 27 -54c18 -12.665 44 -16.332 78 -11.001
c3.33301 1.33301 6.5 2 9.5 2s6.5 0.666992 10.5 2v-74c-20.667 -9.33301 -40.834 -16.5 -60.5 -21.5z" />
    <glyph glyph-name="tilde" unicode="&#x2dc;" 
d="M350 1227c-19.333 0 -42 3.66602 -68 10.999c-26 7.35254 -55 18.6855 -87 34c-64.667 31.333 -110 47 -136 47c-48 0 -95.667 -30.667 -143 -92v121c38 46 85.667 69 143 69c40 0 92 -15.667 156 -47c32 -15.333 59.167 -26.666 81.5 -33.999
c22.334 -7.33301 40.167 -11 53.5 -11c42.667 0 87.667 26.667 135 80v-119c-34 -39.333 -79 -59 -135 -59z" />
    <glyph glyph-name="hungarumlaut" unicode="&#x2dd;" 
d="M350 1223h-121l140 209h151zM31 1223h-121l139 209h152z" />
    <glyph glyph-name="uni03A9" unicode="&#x2126;" horiz-adv-x="1565" 
d="M1487 178l-0.000976562 -178h-600v178c118.667 64 210.834 151.333 276.501 262s98.5 233.667 98.5 369c0 160 -44.167 288.333 -132.5 385s-204.166 145 -347.499 145c-144.667 0 -261 -48.333 -349 -145s-132 -225 -132 -385c0 -135.333 33.167 -258.333 99.5 -369
c66.334 -110.667 158.834 -198 277.5 -262v-178h-600v178h319c-104.667 92.667 -181.334 188.5 -230.001 287.5s-73 210.167 -73 333.5c0 211.333 63.833 382.833 191.5 514.5s293.167 197.5 496.5 197.5c202 0 367.167 -65.5 495.5 -196.5s192.5 -299.5 192.5 -505.5
c0 -130 -23.833 -244.167 -71.5 -342.5c-47.6689 -98.333 -124.836 -194.5 -231.5 -288.5h320z" />
    <glyph glyph-name="pi" unicode="&#x3c0;" horiz-adv-x="1206" 
d="M1159 913l-181.998 -0.000976562l-105 -487c-10.667 -49.333 -18.334 -89.333 -23.001 -120s-7 -53.334 -7 -68.001c0 -38.667 7.83301 -66.167 23.5 -82.5s41.834 -24.5 78.5 -24.5c11.333 0 24.833 0.666992 40.5 2s35.5 4 59.5 8l-30 -141
c-20.667 -5.33301 -39.834 -9.33301 -57.501 -12s-35.5 -4 -53.5 -4c-79.333 0 -139 17 -179 51s-60 84.333 -60 151c0 30 3.33301 69.333 10 118s21.667 126.334 45 233.001l80 376h-326l-194 -913h-181l195 913h-41c-35.333 0 -63.333 -10.5 -84 -31.5
s-33.667 -54.833 -39 -101.5h-160c19.333 110.668 52.5 186.835 99.5 228.501c47 41.667 125.833 62.5 236.5 62.5h889z" />
    <glyph glyph-name="endash" unicode="&#x2013;" horiz-adv-x="1024" 
d="M0 528v107h1024v-107h-1024z" />
    <glyph glyph-name="emdash" unicode="&#x2014;" horiz-adv-x="2048" 
d="M0 528v107h2048v-107h-2048z" />
    <glyph glyph-name="quoteleft" unicode="&#x2018;" horiz-adv-x="514" 
d="M258 1081h-152l170 439h123z" />
    <glyph glyph-name="quoteright" unicode="&#x2019;" horiz-adv-x="528" 
d="M229 1081h-123l141 439h152z" />
    <glyph glyph-name="quotesinglbase" unicode="&#x201a;" horiz-adv-x="537" 
d="M199 -279h-123l141 439h152z" />
    <glyph glyph-name="quotedblleft" unicode="&#x201c;" horiz-adv-x="983" 
d="M694 1081h-151l170 439h123zM274 1081h-151l170 439h123z" />
    <glyph glyph-name="quotedblright" unicode="&#x201d;" horiz-adv-x="983" 
d="M666 1081h-123l141 439h152zM246 1081h-123l141 439h152z" />
    <glyph glyph-name="quotedblbase" unicode="&#x201e;" horiz-adv-x="967" 
d="M641 -279h-123l141 439h152zM223 -279h-123l142 439h151z" />
    <glyph glyph-name="dagger" unicode="&#x2020;" horiz-adv-x="1065" 
d="M580 938v-1182h-127v1182h-361v111h361v444h127v-444h362v-111h-362z" />
    <glyph glyph-name="daggerdbl" unicode="&#x2021;" horiz-adv-x="1167" 
d="M637 236v-465h-107v465h-444v106h444v606h-444v107h444v465h107v-465h444v-107h-444v-606h444v-106h-444z" />
    <glyph glyph-name="bullet" unicode="&#x2022;" horiz-adv-x="860" 
d="M676 784c0 -68 -24.668 -126.667 -74.001 -176c-47.333 -47.333 -105.333 -71 -174 -71c-68 0 -126.667 23.667 -176 71c-48 50 -72 108.667 -72 176c0 68.667 24 127.667 72 177c48.667 48.667 107.334 73 176.001 73c69.333 0 127.333 -24.333 174 -73
c49.333 -48 74 -107 74 -177z" />
    <glyph glyph-name="ellipsis" unicode="&#x2026;" horiz-adv-x="1907" 
d="M1604 0v166h151v-166h-151zM872 0v166h152v-166h-152zM141 0v166h152v-166h-152z" />
    <glyph glyph-name="perthousand" unicode="&#x2030;" horiz-adv-x="2542" 
d="M2372 338c0 -98.667 -18.667 -179.334 -56 -242.001c-23.333 -40 -53 -70.167 -89 -90.5s-79.333 -30.5 -130 -30.5c-98.667 0 -171.667 40.333 -219 121c-35.333 62.667 -53 143.334 -53 242.001c0 96.667 17.667 177.334 53 242.001c47.333 80 120.333 120 219 120
c50.667 0 94 -10 130 -30s65.667 -50 89 -90c37.333 -64.667 56 -145.334 56 -242.001zM2273 338c0 184 -58.667 276 -176 276s-176 -92 -176 -276c0 -183.333 58.667 -275 176 -275s176 91.667 176 275zM1634 338c0 -100 -18.334 -180.666 -55.001 -241.999
c-47.333 -80.667 -120.333 -121 -219 -121s-171.667 40.333 -219 121c-17.333 31.333 -30.666 67 -39.999 107s-14 85 -14 135c0 49.333 4.66699 94 14 134c9.35059 40 22.6836 76 40 108c47.333 80 120.333 120 219 120s171.667 -40 219 -120
c36.667 -63.334 55 -144.001 55 -242.001zM1536 338.001c0 184 -58.667 276 -176 276s-176 -92 -176 -276c0 -183.333 58.667 -275 176 -275s176 91.667 176 275zM529.999 -24.999h-104l834 1545h104zM716.999 1155c0 -50 -4.66699 -95.002 -14 -135.002
s-23 -75.667 -41 -107c-24 -40 -54 -69.667 -90 -89s-79.333 -29 -130 -29c-99.333 0 -172.333 39.333 -219 118c-35.333 62.667 -53 143.334 -53 242.001c0 96.667 17.667 177.334 53 242.001c47.333 82 120.333 123 219 123c50.667 0 94 -10.167 130 -30.5
s66 -50.5 90 -90.5c18 -32 31.667 -68.167 41 -108.5s14 -85.5 14 -135.5zM617.999 1155c0 184.667 -58.667 277 -176 277c-116 0 -174 -92.333 -174 -277c0 -182.667 58 -274 174 -274c117.333 0 176 91.333 176 274z" />
    <glyph glyph-name="guilsinglleft" unicode="&#x2039;" horiz-adv-x="547" 
d="M326 184l-220 394l220 393h114l-219 -393l219 -394h-114z" />
    <glyph glyph-name="guilsinglright" unicode="&#x203a;" horiz-adv-x="547" 
d="M221 184h-115l220 394l-220 393h115l219 -393z" />
    <glyph glyph-name="fraction" unicode="&#x2044;" horiz-adv-x="180" 
d="M-283 -25h-114l860 1545h115z" />
    <glyph glyph-name="foursuperior" unicode="&#x2074;" horiz-adv-x="1094" 
d="M766 791v-179h-100v179h-465v81l473 623h92v-612h137v-92h-137zM666 1323l-338 -440h338v440z" />
    <glyph glyph-name="trademark" unicode="&#x2122;" horiz-adv-x="1905" 
d="M1593 713v700l-309 -700h-65l-310 700v-700h-92v843h117l315 -716l322 716h117v-843h-95zM436 1479v-766h-92v766h-270v77h633v-77h-271z" />
    <glyph glyph-name="partialdiff" unicode="&#x2202;" horiz-adv-x="1059" 
d="M756 621c9.33301 58.667 16.666 114.834 21.999 168.5c5.33301 53.668 8 105.835 8 156.501c0 86 -12.167 150.833 -36.5 194.5s-60.5 65.5 -108.5 65.5c-36.667 0 -79 -19.333 -127 -58s-84 -58 -108 -58c-23.333 0 -43.166 7.5 -59.499 22.5s-24.5 32.5 -24.5 52.5
c0 41.333 24.167 78.333 72.5 111s105.833 49 172.5 49c120.667 0 216.5 -51.5 287.5 -154.5s106.5 -242.5 106.5 -418.5c0 -222.667 -48.167 -407.834 -144.5 -555.501s-215.5 -221.5 -357.5 -221.5c-101.333 0 -185.833 35.833 -253.5 107.5s-101.5 162.167 -101.5 271.5
c0 132.667 37 241.667 111 327s164.667 128 272 128c67.333 0 122.833 -15 166.5 -45c43.668 -30 77.835 -77.667 102.5 -143zM707 494c0 77.333 -14.333 136.833 -43 178.5s-69.667 62.5 -123 62.5c-72.667 0 -132.5 -43 -179.5 -129s-70.5 -198 -70.5 -336
c0 -77.333 14.333 -136.5 43 -177.5s69.667 -61.5 123 -61.5c72 0 131.667 43.333 179 130s71 197.667 71 333z" />
    <glyph glyph-name="Delta" unicode="&#x2206;" horiz-adv-x="1370" 
d="M684 1262l-418 -1084h836zM573 1473h224l579 -1473h-1382z" />
    <glyph glyph-name="product" unicode="&#x220f;" horiz-adv-x="1550" 
d="M156 1473h1237v-1866h-240v1661h-758v-1661h-239v1866z" />
    <glyph glyph-name="summation" unicode="&#x2211;" horiz-adv-x="1380" 
d="M55 1473h1258v-193h-959l672 -717l-694 -764h1007v-192h-1314v149l725 801l-695 739v177z" />
    <glyph glyph-name="radical" unicode="&#x221a;" horiz-adv-x="1305" 
d="M1116 1661h189v-96h-115l-594 -1606h-66l-319 883l-125 -45l-25 80l283 98l256 -709z" />
    <glyph glyph-name="infinity" unicode="&#x221e;" horiz-adv-x="1522" 
d="M1409 694c0 -45.335 -8.32812 -87.167 -24.9951 -125.499c-16.6768 -38.333 -38.8438 -71.333 -66.5 -99c-27.667 -27.667 -59.667 -49.334 -96 -65c-36.333 -15.667 -74.166 -23.5 -113.499 -23.5c-27.333 0 -55.5 4 -84.5 12s-58.333 21.167 -88 39.5
s-58.834 42.333 -87.501 72s-56.667 66.167 -84 109.5c-28 -43.333 -57 -79.833 -87 -109.5s-59.833 -53.667 -89.5 -72s-58.834 -31.5 -87.501 -39.5s-56 -12 -82 -12c-40.667 0 -79.5 7.66699 -116.5 23s-69.833 36.833 -98.5 64.5s-51.5 60.834 -68.5 99.501
c-17 38.668 -25.5 81.335 -25.5 128c0 46 8.66699 88.333 26 127s40.166 72 68.499 100s61.166 49.833 98.499 65.5s76 23.5 116 23.5c25.334 0 52.167 -4.16699 80.499 -12.5c28.333 -8.33301 57.166 -21.833 86.499 -40.5s58.666 -42.667 87.999 -72
s57.666 -65 84.999 -107c27.333 43.333 55.5 79.666 84.5 108.999s58.5 53.166 88.5 71.499s59.667 31.5 89 39.5s58 12 86 12c40 0 78.333 -7.83301 115 -23.5s68.834 -37.5 96.501 -65.5s49.834 -61.5 66.501 -100.5s25 -81.833 25 -128.5zM1303 700.001
c0 33.333 -6.16699 62.834 -18.5 88.501s-28.5 47.167 -48.5 64.5s-43 30.333 -69 39s-52.667 13 -80 13c-26 0 -52.333 -6 -79 -18s-52 -27.667 -76 -47c-24 -19.3369 -46.167 -41.6699 -66.5 -67c-20.3369 -25.333 -37.1699 -51 -50.5 -77
c21.333 -38 43.666 -70.333 66.999 -97s46.833 -48.334 70.5 -65.001s47.167 -28.667 70.5 -36c23.335 -7.33301 45.668 -11 66.999 -11c28 0 54.833 3.66699 80.5 11s48.334 19.5 68.001 36.5s35.334 39 47.001 66s17.5 60.167 17.5 99.5zM707.005 694.002
c-21.333 38.668 -43.835 71.3359 -67.502 98.001c-23.667 26.667 -47.5 48.334 -71.5 65c-24 16.668 -47.667 28.835 -71 36.5c-23.333 7.66699 -45.666 11.5 -66.999 11.5c-33.333 0 -63.166 -5.33301 -89.499 -16s-48.666 -25.334 -66.999 -44.001s-32.333 -41 -42 -67
s-14.5 -54 -14.5 -84c0 -30.667 4.66699 -58.667 14 -84c9.33301 -25.334 23.166 -47.167 41.499 -65.5s40.833 -32.5 67.5 -42.5s57.334 -15 92.001 -15c27.334 0 54.167 6 80.499 18c26.333 12 51.5 27.833 75.5 47.5c24 19.6689 46.167 41.8359 66.5 66.5
c20.333 24.667 37.833 49.667 52.5 75z" />
    <glyph glyph-name="integral" unicode="&#x222b;" horiz-adv-x="1067" 
d="M311 -262c71.333 0 111 229.332 119 687.999c1.33398 72.667 2.66699 128 4 166c8 342.667 43.833 588 107.5 736s162.5 222 296.5 222c53.333 0 96.666 -14 129.999 -42s50 -63.667 50 -107c0 -35.333 -10.667 -63.666 -32 -84.999s-50.333 -32 -87 -32
c-28.667 0 -52.167 6.5 -70.5 19.5s-31.833 31.167 -40.5 54.5c-4 9.33301 -7.33301 26 -10 50s-9.33398 36 -20.001 36c-71.335 0 -111.668 -206.333 -121 -619c-2.66699 -128 -5.33398 -229 -8.00098 -303c-11.333 -319.333 -48.333 -548 -111 -686
s-159.667 -207 -291 -207c-53.333 0 -96.666 13.667 -129.999 41s-50 63 -50 107c0 36.667 11.333 65.667 34 87s54.334 32 95.001 32c22 0 40.833 -4.83301 56.5 -14.5s28.834 -24.167 39.501 -43.5c7.33594 -10.667 12.6689 -30 16 -58c3.33301 -28 11 -42 23 -42z" />
    <glyph glyph-name="approxequal" unicode="&#x2248;" horiz-adv-x="1716" 
d="M1499 623l-0.00488281 -179c-69.333 -51.333 -134.166 -88.666 -194.499 -111.999s-122.5 -35 -186.5 -35c-73.333 0 -158.666 19.667 -255.999 59c-6.66699 2.66699 -12 4.66699 -16 6c-4 2 -11.667 5 -23 9c-102 40.667 -184.667 61 -248 61
c-58.667 0 -116.667 -12.667 -174 -38s-118.666 -66 -183.999 -122v179c70 51.333 135 88.666 195 111.999s122 35 186 35c74 0 159.333 -19.667 256 -59c8 -2.66699 13.333 -5 16 -7c4.67383 -1.33301 12.3408 -4 23.001 -8c102.667 -40.667 185.334 -61 248.001 -61
c57.333 0 114.333 12.667 171 38s119 66 187 122zM1499 1012l-0.00390625 -177.999c-69.333 -52 -134.166 -89.667 -194.499 -113s-122.5 -35 -186.5 -35c-73.333 0 -158.666 19.667 -255.999 59c-6.66699 3.33301 -12 5.66602 -16 6.99902s-11.667 4 -23 8
c-102 40.667 -184.667 61 -248 61c-58.667 0 -116.667 -12.667 -174 -38c-57.333 -25.334 -118.666 -65.667 -183.999 -121v178c70 52 135 89.5 195 112.5s122 34.5 186 34.5c74 0 159.333 -19.667 256 -59c6.66699 -2.66699 12 -4.66699 16 -6
c4.67285 -1.33301 12.3398 -4.33301 23 -9c102.667 -40.667 185.334 -61 248.001 -61c57.333 0 114.333 12.667 171 38s119 66 187 122z" />
    <glyph glyph-name="notequal" unicode="&#x2260;" horiz-adv-x="1716" 
d="M217 930h772l256 315l125 -102l-174 -213h303v-168h-440l-195 -240h635v-170h-774l-258 -313l-125 102l174 211h-299v170h438l195 240h-633v168z" />
    <glyph glyph-name="lessequal" unicode="&#x2264;" horiz-adv-x="1716" 
d="M1499 1016l-960 -277l960 -274v-178l-1282 368v170l1282 367v-176zM217 170h1282v-170h-1282v170z" />
    <glyph glyph-name="greaterequal" unicode="&#x2265;" horiz-adv-x="1716" 
d="M217 1016v176l1282 -367v-170l-1282 -368v178l961 274zM1499 170v-170h-1282v170h1282z" />
    <glyph glyph-name="lozenge" unicode="&#x25ca;" horiz-adv-x="1012" 
d="M506 1409l-385 -817l385 -825l385 825zM506 1653l500 -1061l-500 -1069l-500 1069z" />
    <glyph glyph-name="fi" unicode="&#xfb01;" horiz-adv-x="1087" 
d="M805 1294v201h139v-201h-139zM813 0l0.00195312 963h-477v-963h-123v963h-188v104h188v154c0 47.333 6.16699 91.333 18.5 132s30.333 76.5 54 107.5s52.667 56.5 87 76.5c34.334 20 73.167 33.333 116.5 40c9.33398 1.33301 19.167 2.33301 29.499 3
c10.333 0.666992 21.833 1 34.5 1c33.333 0 66.666 -6.66699 99.999 -20v-123c-34.667 16 -68 24 -100 24c-9.33301 0 -18 -0.333008 -26 -1s-15.667 -1.66699 -23 -3c-112 -20 -168 -102 -168 -246v-145h600v-1067h-123z" />
    <glyph glyph-name="fl" unicode="&#xfb02;" horiz-adv-x="1063" 
d="M801 0l0.000976562 1421c-63.333 28.667 -143.333 43 -240 43c-11.333 0 -21.833 -0.333008 -31.5 -1s-18.167 -1.66699 -25.5 -3c-112 -20 -168 -102.667 -168 -248v-145h256v-104h-256v-963h-123v963h-188v104h188v154c0 47.333 6.16699 91.333 18.5 132
s30.333 76.5 54 107.5s52.667 56.5 87 76.5c34.334 20 73.167 33.333 116.5 40c9.33398 1.33301 19.167 2.33301 29.499 3c10.333 0.666992 21.833 1 34.5 1c140 0 263.667 -28.667 371 -86v-1495h-123z" />
    <glyph glyph-name="filledbox" unicode="&#x25a0;" horiz-adv-x="860" 
d="M205 557v451h450v-451h-450z" />
    <glyph glyph-name="uniF8FF" horiz-adv-x="2974" 
d="M909 135c-0.666992 0 -7.66602 -3.16992 -20.999 -9.50293s-31 -14.166 -53 -23.499s-47.667 -19.333 -77 -30c-29.335 -10.667 -60.668 -20.667 -94 -30c-33.333 -9.33301 -68 -17 -104 -23s-71.667 -9 -107 -9c-50.667 0 -95.167 6.83301 -133.5 20.5
s-70.166 32.5 -95.499 56.5s-44.5 52.667 -57.5 86s-19.5 69.333 -19.5 108c0 40.667 7.33301 83 22 127s33.667 87.833 57 131.5s49.166 85.834 77.499 126.5c28.334 40.667 56.167 78 83.5 112s52.833 63.333 76.5 88s41.834 42.667 54.501 54
c-34 -66.667 -58.167 -124.167 -72.5 -172.5s-21.5 -90.5 -21.5 -126.5c0 -41.333 7.5 -76.5 22.5 -105.5s35 -52.5 60 -70.5s53.333 -31.167 85 -39.5s64.5 -12.5 98.5 -12.5c14 0 28.667 0.833008 44 2.5s30.666 3.83398 45.999 6.50098s30 5.66699 44 9
s26.667 6.33301 38 9c24.667 6.66699 104.667 28.334 240 65.001c58 16.001 130.667 35.834 218 59.5c87.333 23.6689 194 52.8359 320 87.5c126 34.667 273.667 75 443 121s364.666 99.333 585.999 160z" />
    <glyph glyph-name="fracbar" horiz-adv-x="1108" 
d="M143 -25h-123l945 1545h122z" />
    </font>
</defs>
</svg>
