<?xml version="1.0" standalone="no"?>
<!DOCTYPE svg PUBLIC "-//W3C//DTD SVG 1.1//EN" "http://www.w3.org/Graphics/SVG/1.1/DTD/svg11.dtd" >
<svg xmlns="http://www.w3.org/2000/svg" width="100%" height="100%">
<metadata>
Created by FontXChange 20110222 at Mon Feb 20 19:13:37 2012
 By Michael Pellegrini
Copyright 2005-2006 Nike, Inc.
</metadata>
<defs>
<font id="VictoryNeue-Oblique" horiz-adv-x="1270" >
  <font-face 
    font-family="Victory Neue"
    font-weight="400"
    font-style="oblique"
    font-stretch="normal"
    units-per-em="2048"
    panose-1="0 0 4 0 0 0 0 0 0 0"
    ascent="1638"
    descent="-410"
    x-height="1067"
    cap-height="1495"
    bbox="-582 -479 2669 1952"
    underline-thickness="41"
    underline-position="-253"
    slope="-11"
    unicode-range="U+0020-FB02"
  />
<missing-glyph horiz-adv-x="1024" 
d="M129 1638h768v-1638h-768v1638zM768 129v1382h-512v-1382h512z" />
    <glyph glyph-name=".notdef" horiz-adv-x="1024" 
d="M129 1638h768v-1638h-768v1638zM768 129v1382h-512v-1382h512z" />
    <glyph glyph-name="space" unicode=" " horiz-adv-x="532" 
 />
    <glyph glyph-name="exclam" unicode="!" horiz-adv-x="702" 
d="M434 412h-215l211 1083h213zM360 0h-229l45 223h227z" />
    <glyph glyph-name="quotedbl" unicode="&#x22;" horiz-adv-x="1155" 
d="M963 1092h-183l78 403h182zM594 1092h-184l77 403h185z" />
    <glyph glyph-name="numbersign" unicode="#" horiz-adv-x="1071" 
d="M1151 901h-233l-99 -299h209l-29 -147h-229l-154 -455h-167l153 455h-246l-153 -455h-168l153 455h-208l28 147h230l98 299h-205l29 146h227l150 448h168l-150 -448h246l149 448h168l-149 -448h211zM504 901l-98 -299h245l99 299h-246z" />
    <glyph glyph-name="dollar" unicode="$" horiz-adv-x="1212" 
d="M1186 1167c-150.667 104 -304.33 156 -460.997 156c-113.333 0 -199.333 -29.333 -258 -88c-35.333 -35.333 -53 -79.666 -53 -132.999c0 -48 23.667 -89.667 71 -125c13.334 -9.33301 31.334 -20 54 -32c22.667 -12 50 -24.667 82 -38
c36 -15.3398 71.833 -30.1729 107.5 -44.499c35.667 -14.333 71.5 -28.833 107.5 -43.5c41.333 -19.333 78.166 -39.5 110.499 -60.5s60.166 -43.167 83.499 -66.5c34 -32.667 59.167 -68.834 75.5 -108.501s24.5 -82.5 24.5 -128.5c0 -141.333 -51 -254 -153 -338
c-45.333 -38 -97.5 -68.5 -156.5 -91.5s-125.5 -38.167 -199.5 -45.5l-29 -150h-197l29 150c-177.333 18 -318 73 -422 165l43 222c142.667 -124.667 302.334 -187 479.001 -187c50 0 95.667 5.16699 137 15.5s79 25.166 113 44.499c41.333 23.333 72.166 52 92.499 86
s30.5 74 30.5 120c0 81.333 -69 151.666 -207 210.999c-28 11.333 -62.667 25.833 -104 43.5s-89.333 38.167 -144 61.5c-169.333 80 -254 188.333 -254 325c0 138.667 55.333 247.334 166 326.001c48.667 33.3389 103.167 58.6719 163.5 76
c60.333 17.3447 128.166 27.6777 203.499 31l31 153h196l-33 -168c117.333 -22 222 -65 314 -129z" />
    <glyph glyph-name="percent" unicode="%" horiz-adv-x="1931" 
d="M1726 352c-16 -99.333 -50 -182.667 -102 -250c-34 -44 -74.167 -76.833 -120.5 -98.5s-98.833 -32.5 -157.5 -32.5c-176.667 0 -265 95 -265 285c0 16.667 0.666992 33.167 2 49.5c1.36621 16.334 3.69922 33.167 6.99902 50.5c16 100.667 49.333 183.334 100 248.001
c34 45.333 74.167 79.166 120.5 101.499s98.833 33.5 157.5 33.5c178 0 267 -96 267 -288c0 -16.667 -0.666992 -33.167 -2 -49.5s-3.66602 -32.833 -6.99902 -49.5zM1538 353.999c8 41.334 12 75.667 12 103c0 80.667 -33.333 121 -100 121
c-87.333 0 -145.333 -74.667 -174 -224c-8 -40.667 -12 -74.667 -12 -102c0 -80.667 33.333 -121 100 -121c87.333 0 145.333 74.333 174 223zM520 -25.001h-211l1176 1545h211zM924 1133c-16.667 -99.333 -51.665 -182.667 -104.998 -250
c-34.667 -44 -75.334 -76.833 -122.001 -98.5s-99.334 -32.5 -158.001 -32.5c-173.333 0 -260 93.333 -260 280c0 17.333 0.5 34.833 1.5 52.5s3.16699 35.167 6.5 52.5c16 100 49.333 182.333 100 247c68 90.667 161 136 279 136c177.333 0 266 -96.333 266 -289
c0 -16.667 -0.5 -33.167 -1.5 -49.5s-3.16699 -32.5 -6.5 -48.5zM735.002 1135c4 20.667 7.16699 39.5 9.5 56.5s3.5 32.167 3.5 45.5c0 80.667 -33.667 121 -101 121c-87.333 0 -145.333 -74.333 -174 -223c-8 -40.667 -12 -75 -12 -103c0 -80.667 33.333 -121 100 -121
c88 0 146 74.667 174 224z" />
    <glyph glyph-name="ampersand" unicode="&#x26;" horiz-adv-x="1491" 
d="M1135 322l221 -322.001h-244l-121 180c-150.667 -136.667 -312.334 -205 -485.001 -205c-128.667 0 -234 31 -316 93c-90 67.333 -135 160 -135 278c0 127.333 51.333 238 154 332c34 30.667 76 62.167 126 94.5s109 65.5 177 99.5c-36 54.667 -62.667 106 -80 154
s-26 93 -26 135c0 116.667 39.333 206.334 118 269.001c73.333 58.667 168.333 88 285 88c42 0 81.667 -5.66699 119 -17s72 -27.666 104 -48.999c71.333 -50.6689 107 -116.336 107 -197c0 -95.333 -34.333 -181.333 -103 -258c-51.333 -59.333 -131 -120 -239 -182
l227 -336c28.667 33.333 59.834 71.333 93.501 114s70.167 90 109.5 142h227c-128 -180.667 -234.333 -318.334 -319 -413.001zM934 1229c0 18.667 -3.99902 35.001 -11.999 49.001s-18.833 25.833 -32.5 35.5s-29.167 17 -46.5 22c-17.335 5 -35.668 7.5 -55 7.5
c-22.667 0 -44.834 -4.33301 -66.501 -13s-40.667 -20.667 -57 -36s-29.5 -33 -39.5 -53s-15 -41.667 -15 -65c0 -50.668 28.667 -122.335 86 -215.001c158.667 86.667 238 176 238 268zM616.001 721c-115.333 -62.667 -196.333 -115.332 -243 -157.999
c-70 -62.667 -105 -130.334 -105 -203c0 -68.667 27.333 -120.334 82 -155.001c23.333 -15.334 49.833 -26.667 79.5 -34s62.5 -11 98.5 -11c106 0 223.667 58.667 353 176z" />
    <glyph glyph-name="quotesingle" unicode="'" horiz-adv-x="637" 
d="M518 1092h-182l78 403h184z" />
    <glyph glyph-name="parenleft" unicode="(" horiz-adv-x="766" 
d="M732 1314.5c-75.333 -95 -137 -185.168 -185 -270.501c-127.333 -225.333 -191 -458 -191 -698c0 -244 78.667 -505.333 236 -784h-248c-143.333 241.333 -215 502 -215 782c0 438.667 200.667 863.334 602 1274h268c-102.667 -107.333 -191.667 -208.5 -267 -303.5z" />
    <glyph glyph-name="parenright" unicode=")" horiz-adv-x="766" 
d="M666 825c0 -434.667 -201.001 -855.668 -603.001 -1263h-266c103.333 108 192.333 209.5 267 304.5s136 185.167 184 270.5c64.667 114.667 112.834 229.667 144.501 345s47.5 233.333 47.5 354c0 240 -79.667 500.667 -239 782h248
c144.667 -243.333 217 -507.666 217 -792.999z" />
    <glyph glyph-name="asterisk" unicode="*" horiz-adv-x="723" 
d="M578 1122l110 -190l-135 -80l-88 190l-166 -190l-111 80l189 196l-199 66l62 135l194 -84l41 250h150l-58 -244l228 84l10 -145z" />
    <glyph glyph-name="plus" unicode="+" horiz-adv-x="1167" 
d="M1073 494h-399l-84 -431h-197l84 431h-399l35 176h399l82 430h197l-82 -430h399z" />
    <glyph glyph-name="comma" unicode="," horiz-adv-x="569" 
d="M66 -272h-191l287 495h227z" />
    <glyph glyph-name="hyphen" unicode="-" horiz-adv-x="915" 
d="M838 494h-775l35 176h774z" />
    <glyph glyph-name="hyphen" unicode="&#x2010;" horiz-adv-x="915" 
d="M838 494h-775l35 176h774z" />
    <glyph glyph-name="period" unicode="." horiz-adv-x="520" 
d="M266 0h-227l45 223h227z" />
    <glyph glyph-name="slash" unicode="/" horiz-adv-x="967" 
d="M121 -25h-215l1007 1545h215z" />
    <glyph glyph-name="zero" unicode="0" horiz-adv-x="1335" 
d="M1307 741c-38.667 -222.667 -111.001 -399.333 -217.001 -530c-126.667 -157.333 -294 -236 -502 -236c-172.667 0 -301.667 56.667 -387 170c-70 97.333 -105 227.333 -105 390c0 34 1.5 68.833 4.5 104.5s7.83301 72.5 14.5 110.5
c18.667 110 45.834 209.167 81.501 297.5s80.834 165.833 135.501 232.5c129.333 158.667 296.666 238 501.999 238c173.333 0 302.333 -56.667 387 -170c69.333 -97.333 104 -228 104 -392c0 -67.333 -6 -139 -18 -215zM1075 741.001
c16.667 82.667 25.001 158.667 25.001 228c0 232 -93 348 -279 348c-241.333 0 -399 -189 -473 -567c-16 -84 -24 -160.667 -24 -230c0 -228 92 -342 276 -342c245.333 0 403.666 187.667 474.999 563z" />
    <glyph glyph-name="one" unicode="1" horiz-adv-x="684" 
d="M397 0h-221l242 1249l-281 -151l43 229l324 168h184z" />
    <glyph glyph-name="two" unicode="2" horiz-adv-x="1155" 
d="M1186 1159c0 -131.333 -64.999 -251.333 -194.999 -360c-6.66699 -6.66699 -139 -97 -397 -271c-165.333 -110 -274 -219.667 -326 -329h729l-39 -199h-976c21.333 110 57.333 210.833 108 302.5s115.667 175.167 195 250.5c36.667 35.333 87 75.833 151 121.5
s142 97.167 234 154.5c96.667 62.667 158.667 105 186 127c72.667 60.667 109 121.667 109 183c0 62 -26 109.667 -78 143c-43.335 27.333 -98.668 41 -166 41c-144 0 -311.333 -57.333 -502 -172l47 229c77.333 46.667 156 81.667 236 105s162.667 35 248 35
c119.333 0 219.666 -30 300.999 -90c90 -66 135 -156.333 135 -271z" />
    <glyph glyph-name="three" unicode="3" horiz-adv-x="1200" 
d="M1149 1159c0 -40.6709 -5.49805 -79.3369 -16.498 -115.999c-11 -36.667 -26.667 -70.5 -47 -101.5s-45.166 -59 -74.499 -84c-29.335 -25 -62.668 -45.833 -99.999 -62.5c110.667 -68 166 -168.333 166 -301c0 -166.667 -65.333 -297.334 -196 -392.001
c-118 -84.667 -263.667 -127 -437 -127c-176.667 0 -327.334 45.333 -452.001 136l41 208c118 -96.667 255.667 -145 413 -145c106 0 198.333 26.667 277 80c87.333 58.667 131 139.334 131 242.001c0 73.333 -33.333 129.333 -100 168c-28 15.333 -58.833 27 -92.5 35
s-70.5 12 -110.5 12h-209l39 192h207c41.333 0 80.166 5.16699 116.499 15.5s71.166 25.166 104.499 44.499c76.667 47.333 115 109.333 115 186c0 58.667 -28.667 103.667 -86 135c-46.667 24.667 -102.667 37 -168 37c-72.667 0 -144.667 -9.66699 -216 -29
s-143.333 -48 -216 -86l43 221c132.667 60.667 269.667 91 411 91c129.333 0 234.666 -27.333 315.999 -82c94 -64 141 -156.333 141 -277z" />
    <glyph glyph-name="four" unicode="4" horiz-adv-x="1323" 
d="M1237 293h-229l-58 -293h-213l58 293h-799l31 166l987 1036h227l-194 -1006h229zM307 489h527l137 707z" />
    <glyph glyph-name="five" unicode="5" horiz-adv-x="1305" 
d="M1208 1296l-624 0.000976562l-121 -352c36 13.333 72.667 23.166 110 29.499s75 9.5 113 9.5c75.333 0 142.666 -8 201.999 -24s112.333 -40 159 -72c102 -74 153 -182 153 -324c0 -156.667 -50.333 -286.334 -151 -389.001c-76 -76 -160.667 -129.333 -254 -160
c-40 -13.333 -85 -23.5 -135 -30.5s-104.667 -10.5 -164 -10.5c-100 0 -189.333 12.833 -268 38.5s-148 63.5 -208 113.5l43 219c136.667 -113.333 291.667 -170 465 -170c146.667 0 266.334 46.333 359 139c61.333 62.667 92 137.334 92 224.001
c0 89.333 -37 155.333 -111 198c-59.333 35.333 -138.333 53 -237 53c-109.333 0 -220.666 -30 -333.999 -90l-107 64l238 733h819z" />
    <glyph glyph-name="six" unicode="6" horiz-adv-x="1319" 
d="M1227 1243c-79.333 52 -177.667 78 -295 78c-116 0 -222.667 -39 -320 -117c-56.667 -44 -105 -98.5 -145 -163.5s-72.667 -140.167 -98 -225.5c101.333 95.333 230.333 143 387 143c134.667 0 243.667 -40.667 327 -122c84.667 -80.667 127 -183.334 127 -308.001
c0 -15.334 -0.5 -30.334 -1.5 -45c-1 -14.667 -3.16699 -29.667 -6.5 -45c-12.667 -74 -36.167 -139.667 -70.5 -197s-77.333 -105.666 -129 -144.999s-110.5 -69.333 -176.5 -90s-137.333 -31 -214 -31c-332.667 0 -499 179.667 -499 539c0 81.333 8 161.666 24 240.999
s40 157.333 72 234c70 168 165 295.667 285 383c68.667 50.667 140.834 88.334 216.5 113.001c75.667 24.667 156.167 37 241.5 37c120 0 225.333 -24.667 316 -74zM990.999 518c0 74 -27.998 133.333 -83.998 178c-55.334 45.333 -120.667 68 -196 68
c-102.667 0 -189.334 -31.333 -260.001 -94c-78 -68 -117 -150.667 -117 -248c0 -75.333 29.333 -136 88 -182c56 -44 121.333 -66 195.999 -66c102 0 189.667 32 263 96s110 146.667 110 248z" />
    <glyph glyph-name="seven" unicode="7" horiz-adv-x="1124" 
d="M1161 1298l-868 -1298h-250l881 1296h-734l39 199h971z" />
    <glyph glyph-name="eight" unicode="8" horiz-adv-x="1343" 
d="M1313 1155c0 -90.668 -21.668 -168.5 -65.001 -233.499c-43.333 -65 -109.666 -113.5 -198.999 -145.5c121.333 -68 182 -167.667 182 -299c0 -22 -2 -45 -6 -69c-12.6709 -75.333 -38.3379 -141.333 -77 -198c-38.667 -56.667 -91 -104 -157 -142
c-54 -32 -114 -55.833 -180 -71.5s-137.667 -23.5 -215 -23.5c-144.667 0 -265.667 31 -363 93c-110 71.333 -165 171 -165 299c0 25.333 2 51 6 77c28 171.333 135 289 321 353c-102 57.333 -153 145.333 -153 264c0 9.34961 0.333008 18.1826 1 26.499
c0.666992 8.35059 1.66699 17.1836 3 26.5c20 137.336 91 241.669 213 313c102.667 63.333 226.667 95 372 95c136.001 0 248.668 -31.667 338 -95c96 -64 144 -154 144 -270zM1096 1098c1.33301 6 2.33301 12 3 18s1 12.333 1 19c0 63.3359 -30.667 113.669 -92 151
c-27.333 15.333 -56.833 27 -88.5 35s-66.5 12 -104.5 12c-82.667 0 -156.334 -18.333 -221.001 -55c-38 -21.333 -67.833 -47.166 -89.5 -77.499s-36.167 -64.5 -43.5 -102.5c-1.33301 -6.66797 -2.33301 -12.835 -3 -18.501c-0.666992 -5.66699 -1 -11.167 -1 -16.5
c0 -63.335 32 -112.668 96 -147.999c53.333 -30 118.333 -45 195 -45c40.667 0 79 4.66699 115 14s70 22.666 102 39.999c72.667 40.667 116.334 98.667 131.001 174zM1001 430.001c3.33301 15.333 5 29.001 5 41.001c0 73.333 -35.667 129.333 -107 168
c-58.667 32.667 -129 49 -211 49c-94 0 -176.667 -20.333 -248 -61c-82.667 -47.333 -131 -113 -145 -197c-1.33301 -7.33301 -2.33301 -14.5 -3 -21.5s-1 -14.167 -1 -21.5c0 -70.667 33.333 -127.334 100 -170.001c58.667 -38 131.667 -57 219 -57
c95.333 0 177.333 21 246 63c80.667 49.333 129 118.333 145 207z" />
    <glyph glyph-name="nine" unicode="9" horiz-adv-x="1319" 
d="M1286 989c0 -116.667 -17.667 -232 -53 -346c-61.333 -197.333 -156.333 -356.333 -285 -477c-135.334 -127.333 -302.667 -191 -502 -191c-119.333 0 -224.333 24.667 -315 74l39 205c39.333 -25.334 83.5 -44.667 132.5 -58s103.833 -20 164.5 -20
c114.667 0 221 39 319 117c56.667 44 105.167 98.167 145.5 162.5s73.166 139.166 98.499 224.499c-103.333 -95.333 -233 -143 -389 -143c-133.333 0 -242.666 40 -327.999 120c-83.333 81.333 -125 185.333 -125 312c0 15.333 0.666992 30.333 2 45
s3.66602 29.667 6.99902 45c24 146.667 91.333 261.334 202 344.001c104 79.333 232.333 119 385 119c82.668 0 155.335 -12.167 218.001 -36.5c62.667 -24.333 115 -59.333 157 -105s73.667 -101.5 95 -167.5s32 -140.667 32 -224zM1063 1075
c0 74.667 -29.333 135.333 -88 182c-54 44 -119 66 -195 66c-100.667 0 -188.667 -32 -264 -96c-37.333 -32 -65 -68.833 -83 -110.5s-27 -87.5 -27 -137.5c0 -72.667 27.667 -132.667 83 -180c56.667 -45.333 122.334 -68 197 -68c50 0 96.667 8.16699 140 24.5
s84 40.833 122 73.5c76.667 66.667 115 148.667 115 246z" />
    <glyph glyph-name="colon" unicode=":" horiz-adv-x="524" 
d="M434 834h-235l45 233h233zM270 0h-233l45 233h233z" />
    <glyph glyph-name="semicolon" unicode=";" horiz-adv-x="571" 
d="M498 834h-234l45 233h234zM68 -272h-193l289 505h227z" />
    <glyph glyph-name="less" unicode="&#x3c;" horiz-adv-x="1182" 
d="M1159 848l-823 -330l694 -330l-37 -184l-915 438l28 152l1088 438z" />
    <glyph glyph-name="equal" unicode="=" horiz-adv-x="1182" 
d="M1118 647h-1005l30 166h1006zM1040 244h-1005l31 166h1005z" />
    <glyph glyph-name="greater" unicode="&#x3e;" horiz-adv-x="1182" 
d="M1075 442l-1087 -438l35 184l819 330l-690 330l36 184l916 -438z" />
    <glyph glyph-name="question" unicode="?" horiz-adv-x="1118" 
d="M1090 1157c0 -148.667 -89.668 -279.001 -269.001 -391.001c-23.3359 -15.3359 -43.6689 -28.6689 -60.999 -39.999c-17.334 -11.3389 -31.667 -20.6719 -43 -28c-40 -27.333 -73 -54 -99 -80c-21.333 -21.333 -39.833 -49.333 -55.5 -84s-29.167 -76 -40.5 -124h-207
c35.333 153.333 92 268.666 170 345.999c19.333 19.333 47 41.333 83 66s80 53 132 85c119.333 72 179 151.333 179 238c0 60 -22.667 107.667 -68 143c-41.333 31.333 -93.333 47 -156 47c-145.333 0 -298.666 -64.667 -459.999 -194l43 237
c68 48.667 138 84.834 210 108.501s146.667 35.5 224 35.5c113.333 0 209.666 -31.667 288.999 -95c86 -66.667 129 -156.667 129 -270zM454.999 -0.000976562h-228l43 223h228z" />
    <glyph glyph-name="at" unicode="@" horiz-adv-x="1638" 
d="M1718 1057c0 -166.667 -51.665 -320.999 -154.998 -462.999c-112.668 -157.334 -249.335 -236.001 -410 -236.001c-101.333 0 -152 39 -152 117c-50 -46 -104 -80.333 -162 -103s-119.333 -34 -184 -34c-44.667 0 -84.834 6.16699 -120.501 18.5s-66 30.333 -91 54
s-44.333 52.667 -58 87s-20.5 73.166 -20.5 116.499c0 158 61.333 299.333 184 424s262.667 187 420 187c112.667 0 191.667 -46.667 237 -140l43 113h140c-172.667 -417.333 -259 -640 -259 -668c0 -28.667 20.667 -43 62 -43c98 0 188 70.333 270 211
c74 125.333 111 238.666 111 339.999c0 139.334 -54 244.667 -162 315.999c-91.333 62.667 -209.333 94 -354 94c-221.333 0 -419.333 -81.333 -594 -244c-177.333 -165.333 -266 -359 -266 -581c0 -157.333 56 -283.666 168 -378.999c106 -90 239 -135 399 -135
c96.667 0 193.334 15.833 290 47.5c96.667 31.667 194 79.834 292 144.501l-70 -188c-79.333 -46.667 -162.833 -81.334 -250.5 -104.001s-181.167 -34 -280.5 -34c-196.667 0 -359.667 56 -489 168c-136.667 116.667 -205 272.334 -205 467.001
c0 263.334 104.667 492.001 314 686.001c101.333 96 210.5 167.5 327.5 214.5s241.833 70.5 374.5 70.5c89.3359 0 171.169 -10.333 245.5 -31c74.3359 -20.667 141.169 -52 200.499 -94c136.667 -95.333 205 -228.333 205 -399zM1120 944.001
c0 100 -58.667 149.999 -176 149.999c-112 0 -213.667 -48.667 -305 -146c-88.667 -96.667 -133 -201.667 -133 -315c0 -108 58.667 -162 176 -162c116 0 217.667 50 305 150c88.667 100.667 133 208.334 133 323.001z" />
    <glyph glyph-name="A" unicode="A" horiz-adv-x="1559" 
d="M1174 0l-76 360h-686l-215 -360h-254l927 1495h189l354 -1495h-239zM924 1227l-406 -686h543z" />
    <glyph glyph-name="B" unicode="B" horiz-adv-x="1376" 
d="M1362 1128c0 -44.6709 -6.16797 -86.8359 -18.501 -126.499c-12.333 -39.667 -30 -76 -53 -109s-51.167 -61.833 -84.5 -86.5s-70.666 -44 -111.999 -58c113.333 -62.667 170 -160.334 170 -293.001c0 -202 -97.667 -339.333 -293 -412
c-79.333 -28.667 -195.333 -43 -348 -43h-574l291 1495h553c130.667 0 237.667 -27.333 321 -82c98.667 -64.667 148 -159.667 148 -285zM1141 1110c0 136.667 -95.667 205 -287 205h-330l-92 -465h346c242 0 363 86.667 363 260zM1047 453.002c0 144.667 -102 217 -306 217
h-344l-96 -490h367c252.667 0 379 91 379 273z" />
    <glyph glyph-name="C" unicode="C" horiz-adv-x="1434" 
d="M1434 1137c-66 60.667 -136.668 106.166 -212.001 136.499s-155.666 45.5 -240.999 45.5c-166 0 -304 -54 -414 -162c-103.333 -101.333 -171.666 -237.666 -204.999 -408.999c-5.33301 -28 -9.33301 -54.833 -12 -80.5s-4 -50.834 -4 -75.501
c0 -128 33.333 -227.667 100 -299c74 -78 180.667 -117 320 -117c165.333 0 338 60 518 180l-49 -252c-144.667 -86 -304.334 -129 -479.001 -129c-200 0 -356.333 59 -469 177c-54.667 56.667 -95.334 121.667 -122.001 195c-26.667 73.334 -40 155.667 -40 247
c0 28 1.33301 55.833 4 83.5s6.66699 56.5 12 86.5c40.667 226 135 407 283 543c77.333 70.667 162.833 123.834 256.5 159.501s197.167 53.5 310.5 53.5c102 0 193.333 -13.333 274 -40s151.334 -66 212.001 -118z" />
    <glyph glyph-name="D" unicode="D" horiz-adv-x="1530" 
d="M1468 737c-17.333 -115.334 -47.668 -217.168 -91.001 -305.501s-99.666 -164.5 -168.999 -228.5c-145.333 -135.333 -340.333 -203 -585 -203h-572l287 1495h487c205.333 0 366 -54 482 -162s174 -256 174 -444c0 -23.3369 -1 -47.6699 -3 -73
c-2 -25.3359 -5.33301 -51.6689 -10 -78.999zM1243 755.999c8 45.333 12 88.3311 12 128.998c0 64 -9.66699 121.333 -29 172s-47.833 93.834 -85.5 129.501s-84.5 62.834 -140.5 81.501s-121 28 -195 28h-285l-213 -1099h314c350 0 557.333 186.333 622 559z" />
    <glyph glyph-name="E" unicode="E" horiz-adv-x="1327" 
d="M1372 1294h-852l-86 -438h770l-39 -203h-768l-88 -454h850l-37 -199h-1069l287 1495h1069z" />
    <glyph glyph-name="F" unicode="F" horiz-adv-x="1300" 
d="M1362 1296h-840l-86 -442h758l-39 -199h-758l-125 -655h-219l287 1495h1059z" />
    <glyph glyph-name="G" unicode="G" horiz-adv-x="1593" 
d="M1540 1145c-140 116 -308.001 174.002 -504.001 174.002c-197.333 0 -360.333 -70.333 -489 -211c-64.667 -70.668 -113.334 -148.001 -146 -232c-32.667 -84 -49 -176 -49 -276c0 -67.334 10.167 -127.334 30.5 -180c20.333 -52.667 49.5 -97 87.5 -133
s84.333 -63.5 139 -82.5s116 -28.5 184 -28.5c68.667 0 135.167 6.66699 199.5 20s127.5 32.666 189.5 57.999l71 373h-467l39 200h680l-135 -696c-174 -104 -373.333 -156 -598 -156c-193.333 0 -349 57.333 -467 172c-117.333 115.333 -176 269.666 -176 462.999
c0 128.667 22 246.834 66 354.5c44 107.667 110.667 205.167 200 292.5c178.667 175.333 396.667 263 654 263c106 0 203.333 -13.333 292 -40s169.334 -66 242.001 -118z" />
    <glyph glyph-name="H" unicode="H" horiz-adv-x="1563" 
d="M1305 0h-218l127 666h-817l-127 -666h-215l287 1495h215l-121 -631h817l121 631h217z" />
    <glyph glyph-name="I" unicode="I" horiz-adv-x="532" 
d="M270 0h-217l287 1495h217z" />
    <glyph glyph-name="J" unicode="J" horiz-adv-x="1083" 
d="M915 467c-14 -74 -37.3311 -140.834 -69.998 -200.501s-73.334 -110.5 -122.001 -152.5s-104.5 -74.167 -167.5 -96.5s-132.167 -33.5 -207.5 -33.5c-126 0 -251 34.667 -375 104l39 215c125.333 -78 236.666 -117 333.999 -117c45.333 0 87.333 7 126 21s73 34 103 60
s55.167 57.333 75.5 94s34.833 77.334 43.5 122.001l193 1012h225z" />
    <glyph glyph-name="K" unicode="K" horiz-adv-x="1438" 
d="M842 850l420 -850h-240l-352 698l-320 -290l-78 -408h-219l287 1495h219l-147 -764l858 764h293z" />
    <glyph glyph-name="L" unicode="L" horiz-adv-x="1212" 
d="M1061 0h-1010l287 1495h221l-250 -1296h789z" />
    <glyph glyph-name="M" unicode="M" horiz-adv-x="1839" 
d="M1581 0h-213l213 1092l-666 -1092h-182l-258 1092l-213 -1092h-209l287 1495h229l295 -1206l746 1206h258z" />
    <glyph glyph-name="N" unicode="N" horiz-adv-x="1524" 
d="M1268 0h-199l-577 1161l-224 -1161h-215l287 1495h205l575 -1155l221 1155h213z" />
    <glyph glyph-name="O" unicode="O" horiz-adv-x="1665" 
d="M1606 733c-56 -283.333 -183.002 -491.333 -381.002 -624c-133.333 -89.333 -289.666 -134 -468.999 -134c-190 0 -343.667 56 -461 168c-116 112 -174 263 -174 453c0 28.667 1.33301 57.334 4 86c2.66699 28.667 6.66699 58 12 88
c42.667 228.667 136.334 409.667 281.001 543c150 138 338.333 207 565 207c97.3359 0 184.169 -13.833 260.5 -41.5c76.333 -27.667 143.833 -69.167 202.5 -124.5c117.333 -109.333 176 -259 176 -449c0 -28 -1.33301 -56.167 -4 -84.5s-6.66699 -57.5 -12 -87.5z
M1384 748c5.37598 25.333 9.20996 50.333 11.501 75c2.33301 24.667 3.5 48.667 3.5 72c0 68 -9.66699 128.5 -29 181.5s-47.5 97.5 -84.5 133.5s-82.333 63.5 -136 82.5s-115.167 28.5 -184.5 28.5c-166 0 -303.333 -55.333 -412 -166c-48 -50 -88.333 -108.667 -121 -176
s-56.667 -144.333 -72 -231c-5.33301 -26 -9 -51.667 -11 -77c-2 -25.3359 -3 -49.6689 -3 -73c0 -67.334 9.66699 -127.334 29 -180c19.333 -52.667 47.333 -97 84 -133s81.5 -63.5 134.5 -82.5s113.167 -28.5 180.5 -28.5c171.333 0 310 54 416 162
c49.3379 50 90.1709 109.167 122.499 177.5c32.3389 68.333 56.1719 146.5 71.5 234.5z" />
    <glyph glyph-name="P" unicode="P" horiz-adv-x="1343" 
d="M1380 1106c0 -72.668 -12 -139.001 -36 -199c-24 -60 -61 -114 -111 -162c-112.667 -106 -269.667 -159 -471 -159h-383l-111 -586h-221l287 1495h536c92 0 169.333 -10.333 232 -31c91.333 -30 160.5 -74.5 207.5 -133.5s70.5 -133.833 70.5 -224.5zM1159 1087
c-0.68457 35.3379 -7.84961 66.6719 -21.499 94.001c-13.667 27.3428 -33 50.1758 -58 68.5c-25 18.3428 -54.833 32.1758 -89.5 41.499c-34.667 9.33301 -73.334 14 -116.001 14h-354l-104 -531h340c137.333 0 242.333 32.667 315 98c30 28 52.5 59.833 67.5 95.5
s21.833 75.5 20.5 119.5z" />
    <glyph glyph-name="Q" unicode="Q" horiz-adv-x="1673" 
d="M1606 731c-38.667 -206 -119.999 -374.001 -243.999 -504.001l180 -227h-248l-82 104c-132.667 -86 -286 -129 -460 -129c-199.333 0 -355 58.333 -467 175c-109.333 110.667 -164 257.334 -164 440.001c0 28 1.33301 56.5 4 85.5s6.66699 58.5 12 88.5
c43.333 230.667 137.666 412.334 282.999 545.001c150.667 140.667 339.667 211 567 211c198 0 354.333 -58 469 -174c110.667 -112.667 166 -259.667 166 -441c0 -28.667 -1.33301 -57.334 -4 -86.001s-6.66699 -58 -12 -88zM1384 747.999
c5.33301 28 9.50098 54.833 12.501 80.5s4.5 51.167 4.5 76.5c0 130 -35.667 230.333 -107 301c-75.333 76.667 -183 115 -323 115c-164 0 -300.667 -54.667 -410 -164c-50 -50 -91.833 -108.833 -125.5 -176.5s-58.834 -145.167 -75.5 -232.5
c-5.33301 -28 -9.33301 -54.833 -12 -80.5s-4 -50.167 -4 -73.5c0 -130.667 35 -231.667 105 -303c73.333 -78 179.666 -117 318.999 -117c122 0 228.333 28.667 319 86l-190 242h246l88 -111c76 94 127 213 153 357z" />
    <glyph glyph-name="R" unicode="R" horiz-adv-x="1442" 
d="M1384 1106c0 -60.667 -8.66699 -117.333 -26 -170s-44 -101 -80 -145c-72.667 -90 -167.667 -150.333 -285 -181l312 -610h-250l-285 586h-385l-113 -586h-221l287 1495h539c44 0 85.167 -2.5 123.5 -7.5s73.5 -12.833 105.5 -23.5c91.333 -30 160.5 -74.5 207.5 -133.5
s70.5 -133.833 70.5 -224.5zM1163 1087c0 74 -30 130 -90 168c-51.333 33.333 -116 50 -194 50h-355l-104 -531h332c274 0 411 104.333 411 313z" />
    <glyph glyph-name="S" unicode="S" horiz-adv-x="1212" 
d="M1186 1167c-150.667 104 -304.333 156 -461 156c-110.667 0 -196.667 -30.667 -258 -92c-35.333 -35.333 -53 -78.333 -53 -129c0 -48 23.667 -89.667 71 -125c13.334 -9.33301 31.334 -20 54 -32c22.667 -12 50 -24.667 82 -38
c36 -15.3398 71.833 -30.1729 107.5 -44.499c35.667 -14.333 71.5 -28.833 107.5 -43.5c41.333 -19.333 78.166 -39.5 110.499 -60.5s60.166 -43.167 83.499 -66.5c34 -32.667 59.167 -68.834 75.5 -108.501s24.5 -82.5 24.5 -128.5c0 -159.333 -64 -281.666 -192 -366.999
c-110 -75.333 -249.333 -113 -418 -113c-110 0 -207.833 14.167 -293.5 42.5s-160.5 70.833 -224.5 127.5l43 222c142.667 -124.667 302.334 -187 479.001 -187c48.668 0 93.335 5.16699 134.001 15.5c40.667 10.333 78.667 25.833 114 46.5
c83.333 46.667 125 114.667 125 204c0 81.333 -69 151.666 -207 210.999c-28 11.333 -62.667 25.833 -104 43.5s-89.333 38.167 -144 61.5c-169.333 80 -254 188.333 -254 325c0 73.333 15 137.833 45 193.5s75.333 102.5 136 140.5c102 66 231 99 387 99
c90.667 0 175.167 -11.833 253.5 -35.5c78.333 -23.6719 151.5 -59.8389 219.5 -108.5z" />
    <glyph glyph-name="T" unicode="T" horiz-adv-x="1319" 
d="M1419 1296h-504l-247 -1296h-224l250 1296h-504l39 199h1227z" />
    <glyph glyph-name="U" unicode="U" horiz-adv-x="1501" 
d="M1374 653c-20.667 -108 -48.166 -201.832 -82.499 -281.499s-75.833 -146.834 -124.5 -201.501c-114 -126.667 -275 -190 -483 -190c-178.667 0 -314.667 47 -408 141c-81.333 86.667 -122 204.667 -122 354c0 57.333 6 117.333 18 180l164 842h225l-168 -862
c-5.33301 -30 -9.33301 -58.333 -12 -85s-4 -51.667 -4 -75c0 -199.333 102.333 -299 306.999 -299c141.333 0 250 45 326 135c60.667 72 105.667 180.667 135 326l168 860h225z" />
    <glyph glyph-name="V" unicode="V" horiz-adv-x="1528" 
d="M752 0h-185l-327 1495h231l240 -1192l694 1192h250z" />
    <glyph glyph-name="W" unicode="W" horiz-adv-x="2163" 
d="M1520 0h-172l-146 1157l-586 -1157h-170l-202 1495h223l137 -1094l553 1094h205l135 -1096l561 1096h232z" />
    <glyph glyph-name="X" unicode="X" horiz-adv-x="1481" 
d="M920 748l399 -748h-258l-303 578l-520 -578h-306l715 776l-383 719h254l291 -551l500 551h293z" />
    <glyph glyph-name="Y" unicode="Y" horiz-adv-x="1434" 
d="M850 618l-119 -618h-231l116 618l-391 877h250l285 -664l526 664h285z" />
    <glyph glyph-name="Z" unicode="Z" 
d="M1335 1327l-1016 -1130h807l-36 -197h-1113l31 164l1018 1132h-801l37 199h1104z" />
    <glyph glyph-name="bracketleft" unicode="[" horiz-adv-x="750" 
d="M831 1384h-219l-307 -1589h219l-35 -172h-432l377 1933h432z" />
    <glyph glyph-name="backslash" unicode="\" horiz-adv-x="942" 
d="M602 -25l-381 1545h205l379 -1545h-203z" />
    <glyph glyph-name="bracketright" unicode="]" horiz-adv-x="750" 
d="M332 -377h-432l34 172h220l307 1589h-219l34 172h433z" />
    <glyph glyph-name="asciicircum" unicode="^" horiz-adv-x="1227" 
d="M965 635l-195 663l-455 -663h-211l617 868h164l278 -868h-198z" />
    <glyph glyph-name="underscore" unicode="_" horiz-adv-x="1114" 
d="M950 -287h-1114l35 170h1114z" />
    <glyph glyph-name="grave" unicode="`" horiz-adv-x="334" 
d="M-57 1450h260l231 -264h-166z" />
    <glyph glyph-name="a" unicode="a" horiz-adv-x="1221" 
d="M1124 727c1.33301 1.33301 -9.66699 -58.667 -33 -180s-58 -303.666 -104 -546.999h-209l17 94c-132 -79.333 -267.333 -119 -406 -119c-99.333 0 -181.333 22.667 -246 68c-70.667 50.667 -106 124.334 -106 221.001c0 54.667 8.5 104 25.5 148s42.5 84 76.5 120
c27.333 28 59.666 51.833 96.999 71.5s80.333 36.167 129 49.5c105.333 27.333 235 41 389 41h155c3.33301 17.333 6 32.166 8 44.499s3 22.166 3 29.499c0 34.667 -13.667 64.667 -41 90c-44 40 -114.333 60 -211 60c-149.333 0 -297.666 -40.333 -444.999 -121l41 200
c62.667 32 128.667 56.167 198 72.5s143.333 24.5 222 24.5c162.667 0 283.667 -37.667 363 -113c55.333 -51.333 83 -116.333 83 -195c0 -21.333 -2 -41 -6 -59zM723 530c-210.667 0 -352 -36 -424 -108c-36.667 -38.667 -55 -82.334 -55 -131c0 -90 54 -135 162 -135
c112 0 254.667 46.333 428 139l45 235h-156z" />
    <glyph glyph-name="b" unicode="b" horiz-adv-x="1352" 
d="M1255 526c-13.333 -84.667 -37.667 -160.165 -73 -226.498s-82 -124.5 -140 -174.5c-56.667 -50 -120.5 -87.5 -191.5 -112.5s-149.167 -37.5 -234.5 -37.5c-156 0 -266.333 58.333 -331 175l-29 -150h-215l289 1495h213l-105 -547c99.333 96 222.333 144 369 144
c72 0 136.333 -11 193 -33s104.667 -52.833 144 -92.5s69.5 -87.334 90.5 -143.001s31.5 -117.167 31.5 -184.5c0 -18.667 -1 -37.334 -3 -56.001s-4.66699 -37.667 -8 -57zM1036 535.002c3.33301 15.333 5.49902 30.6699 6.49902 46.0029s1.5 30.666 1.5 45.999
c0 81.333 -21.667 146.666 -65 195.999c-48 52 -117 78 -207 78c-228.667 0 -366 -120 -412 -360c-3.33301 -17.333 -5.83301 -34.333 -7.5 -51c-1.66699 -16.668 -2.5 -33.335 -2.5 -50.001c0 -41.333 5.66699 -79 17 -113s28.5 -63 51.5 -87s51.5 -42.667 85.5 -56
s73.667 -20 119 -20c110.667 0 203.334 34.667 278.001 104c70 66 115 155 135 267z" />
    <glyph glyph-name="c" unicode="c" horiz-adv-x="1137" 
d="M1104 778c-122 80.667 -241.667 121.001 -359 121.001c-60.667 0 -116.167 -9.66699 -166.5 -29s-94.166 -46.5 -131.499 -81.5s-67.5 -77.333 -90.5 -127s-37.5 -104.834 -43.5 -165.501c-1.33301 -8.66895 -2 -16.8359 -2 -24.501v-22.5c0 -91.333 26 -161 78 -209
s125.667 -72 221 -72c76 0 145 10.333 207 31c23.333 8 51 19.667 83 35s68.667 34.333 110 57l-43 -223c-114.667 -62 -245.334 -93 -392.001 -93c-74 0 -140.833 10.333 -200.5 31s-110.667 50.334 -153 89.001s-74.833 86 -97.5 142s-34 119 -34 189
c0 190 63 349 189 477c127.333 127.333 286.333 191 477 191c147.333 0 276.333 -39 387 -117z" />
    <glyph glyph-name="d" unicode="d" horiz-adv-x="1329" 
d="M1081 0h-214.999l25 119c-98 -96 -221 -144 -369 -144c-144 0 -256.667 41.667 -338 125c-82 84 -123 194 -123 330c0 17.333 1 35.333 3 54s4.66699 37.667 8 57c13.333 84.667 37.666 160.167 72.999 226.5s82 124.5 140 174.5c114 100 256.667 150 428 150
c156 0 266.333 -58 331 -174l111 577h217zM969.001 526c3.33301 17.333 5.83496 34.333 7.50195 51c1.66699 16.6689 2.5 33.3359 2.5 50c0 42 -5.66699 79.333 -17 112c-11.3369 32.668 -27.6699 61.335 -49 86c-46.667 52 -115.334 78 -206.001 78
c-56 0 -107.167 -8.83301 -153.5 -26.5s-87 -42.667 -122 -75s-64.333 -71.333 -88 -117s-40.5 -96.5 -50.5 -152.5c-3.33301 -16 -5.5 -31.667 -6.5 -47s-1.5 -30.333 -1.5 -45c0 -84.667 21 -150 63 -196c46.667 -53.333 115.667 -80 207 -80
c57.333 0 109.166 8.16699 155.499 24.5s87 40 122 71s64 69 87 114s39.5 95.833 49.5 152.5z" />
    <glyph glyph-name="e" unicode="e" horiz-adv-x="1255" 
d="M1161 623c-2 -19.333 -5.66699 -42.333 -11 -69s-12.666 -56.334 -21.999 -89.001h-821c-1.33301 -11.333 -2.33301 -22.166 -3 -32.499s-1 -20.166 -1 -29.499c0 -66.667 20.667 -121.667 62 -165c52 -54.667 132.333 -82 241 -82c138 0 285 41 441 123l-41 -203
c-69.333 -34 -138.833 -59.667 -208.5 -77s-140.834 -26 -213.501 -26c-151.333 0 -271 37 -359 111c-91.333 77.333 -137 186.666 -137 327.999c0 12 0.333008 24.5 1 37.5s1.66699 26.167 3 39.5c18.667 173.333 85 317 199 431c116 114.667 259.333 172 430 172
c162.667 0 284 -48.667 364 -146c53.333 -62 80 -143.333 80 -244c0 -12 -0.333008 -24.667 -1 -38s-1.66699 -27 -3 -41zM963 692c0 62.667 -18.666 112.668 -55.999 150.001c-44.667 44.667 -111.334 67 -200.001 67c-42 0 -82.333 -6.5 -121 -19.5
s-75 -33.167 -109 -60.5c-66.667 -50.667 -111.667 -117.334 -135 -200.001h614c4.66699 20.667 7 41.667 7 63z" />
    <glyph glyph-name="f" unicode="f" horiz-adv-x="772" 
d="M909 1360c-21.3369 7.33301 -43.1719 12.833 -65.502 16.5c-22.333 3.66699 -44.833 5.5 -67.5 5.5c-119.333 0 -192.333 -65.333 -219 -196l-25 -119h320l-33 -174h-319l-172 -893h-215l170 893h-189l35 174h188l25 129c10.667 59.334 28.834 112.667 54.501 160
c25.667 47.3389 57.334 87.6719 95.001 121c37.667 33.333 81 59 130 77s102.5 27 160.5 27c59.333 0 114 -10.333 164 -31z" />
    <glyph glyph-name="g" unicode="g" horiz-adv-x="1352" 
d="M1130 117c-16 -86.667 -41.334 -163.5 -76.001 -230.5s-78 -125.5 -130 -175.5c-58.667 -54 -125.5 -94.833 -200.5 -122.5s-159.167 -41.5 -252.5 -41.5c-81.333 0 -159.666 9.16699 -234.999 27.5s-148.666 45.5 -219.999 81.5l41 205
c71.333 -42 141.5 -73.333 210.5 -94s136.833 -31 203.5 -31c237.333 0 385.333 127.667 444 383c-98 -96 -220.667 -144 -368 -144c-144 0 -256.667 41.667 -338 125c-82 84 -123 194 -123 330c0 17.333 0.833008 35.333 2.5 54s4.16699 37.667 7.5 57
c13.333 84.667 37.666 160.167 72.999 226.5s81.333 124.5 138 174.5c115.333 100 258 150 428 150c155.333 0 266 -58 332 -174l29 149h215zM992.999 526c3.33301 17.333 6 34.3311 8 50.998c2 16.6689 3 33.3359 3 50c0 42 -5.66699 79.333 -17 112
c-11.3369 32.668 -27.6699 61.335 -49 86c-46.667 52 -115.667 78 -207 78c-111.334 0 -204.667 -34.667 -280 -104c-70 -66 -115.333 -155 -136 -267c-3.33301 -15.333 -5.5 -30.666 -6.5 -45.999s-1.5 -30.666 -1.5 -45.999c0 -40.667 5.66699 -77.834 17 -111.5
c11.333 -33.667 28.5 -62.5 51.5 -86.5s51.5 -42.667 85.5 -56s73.667 -20 119 -20c230 0 367.667 120 413 360z" />
    <glyph glyph-name="h" unicode="h" 
d="M1155 733c0 -34.667 -4.00098 -73.665 -12.001 -116.998l-119 -616h-217l115 590c8 43.333 12 81.666 12 114.999c0 130.667 -72.333 196 -217 196c-88.667 0 -165.334 -30.667 -230.001 -92c-30 -28.667 -54.167 -61.334 -72.5 -98.001s-32.166 -77 -41.499 -121
l-113 -590h-219l287 1495h219l-103 -537c82 89.333 187.333 134 316 134c120.668 0 215.335 -29.333 284.001 -88c74 -64 111 -154.333 111 -271z" />
    <glyph glyph-name="i" unicode="i" horiz-adv-x="520" 
d="M518 1255h-233l45 240h233zM268 0h-217l205 1067h217z" />
    <glyph glyph-name="j" unicode="j" horiz-adv-x="514" 
d="M514 1255h-233l47 240h233zM252 -63c-14 -70.667 -36.665 -133.002 -67.998 -187.002c-80 -135.333 -204.667 -203 -374 -203c-71.333 0 -140.333 11 -207 33l39 199c15.333 -5.33203 32.666 -9.66504 52 -12.999c19.333 -3.33105 40.666 -6.66406 64 -9.99902
c7.33301 -1.33301 14.166 -2 20.499 -2h20.5c133.333 0 212.666 63.667 237.999 191l215 1122h217z" />
    <glyph glyph-name="k" unicode="k" horiz-adv-x="1219" 
d="M686 623l375 -623h-240l-301 489l-205 -170l-61 -319h-215l287 1495h215l-170 -891l553 463h307z" />
    <glyph glyph-name="l" unicode="l" horiz-adv-x="496" 
d="M256 0h-219l287 1495h219z" />
    <glyph glyph-name="m" unicode="m" horiz-adv-x="1911" 
d="M1671 0h-217l113 590c12 63.333 18 109 18 137c0 54.667 -14.333 96.334 -43 125c-32.667 32.667 -83.667 49 -153 49c-42 0 -80 -7.5 -114 -22.5s-65 -37.5 -93 -67.5c-49.333 -53.334 -82.333 -123.667 -99 -211l-116 -600h-217l112 590c6 32 10.667 59.167 14 81.5
s5 40.833 5 55.5c0 53.333 -14.333 95 -43 125c-32.667 32.667 -84.667 49 -156 49c-168 0 -271.667 -103.667 -311 -311l-113 -590h-219l205 1067h219l-21 -100c42 42 87.5 73.333 136.5 94s101.167 31 156.5 31c162.667 0 265.667 -59.667 309 -179
c91.334 119.333 222.667 179 393.999 179c122.667 0 215.334 -31.667 278.001 -95c58.667 -58 88 -139.667 88 -245c0 -21.333 -1 -43.333 -3 -66s-5.66699 -46 -11 -70z" />
    <glyph glyph-name="n" unicode="n" 
d="M1022 0l-216.999 0.000976562l113 590c5.33301 23.333 9 44.833 11 64.5s3 37.167 3 52.5c0 62.667 -17.333 110.667 -52 144s-90.334 50 -167.001 50c-44.667 0 -86 -7.83301 -124 -23.5s-72 -37.167 -102 -64.5s-55 -60 -75 -98s-34.333 -79.667 -43 -125l-113 -590
h-217l205 1067h217l-21 -106c79.333 87.333 185.333 131 318 131c130.667 0 231 -35 301 -105c62.667 -60.667 94 -145.334 94 -254.001c0 -36.667 -4 -75.667 -12 -117z" />
    <glyph glyph-name="o" unicode="o" horiz-adv-x="1333" 
d="M1235 514c-16.6709 -85.333 -43.8359 -161.5 -81.498 -228.5c-37.667 -67 -84.5 -123.5 -140.5 -169.5s-120.667 -81 -194 -105c-73.334 -24 -153.667 -36 -241 -36c-76 0 -144.333 10.667 -205 32s-112.334 51.5 -155.001 90.5s-75.334 86.167 -98.001 141.5
s-34 117 -34 185c0 42 4 84.333 12 127c16.667 84.667 44 160.5 82 227.5s85 123.667 141 170s120.333 81.833 193 106.5s152 37 238 37c152.667 0 272.667 -41.667 360 -125c90 -84 135 -194 135 -330c0 -38.667 -4 -79.667 -12 -123zM1018 532
c3.33301 17.333 5.83398 34.666 7.50098 51.999s2.5 33.666 2.5 48.999c0 177.333 -98.333 266 -295 266c-56.667 0 -108.334 -8.5 -155.001 -25.5s-87.667 -41.167 -123 -72.5c-35.333 -31.335 -64.833 -69.668 -88.5 -115c-23.667 -45.334 -40.834 -96.667 -51.5 -154
c-3.33301 -17.333 -5.83301 -34.166 -7.5 -50.499s-2.5 -32.166 -2.5 -47.499c0 -178.667 97.667 -268 293 -268c232.667 0 372.667 122 420 366z" />
    <glyph glyph-name="p" unicode="p" horiz-adv-x="1352" 
d="M1260 526c-13.333 -84.667 -37.832 -160.165 -73.499 -226.498s-82.167 -124.5 -139.5 -174.5c-112.667 -100 -254.667 -150 -426 -150c-156.667 0 -267.334 58.333 -332.001 175l-113 -578h-215l289 1495h215l-23 -119c99.333 96 222.333 144 369 144
c72 0 136.333 -11 193 -33s104.667 -52.833 144 -92.5s69.5 -87.334 90.5 -143.001s31.5 -117.167 31.5 -184.5c0 -18.667 -0.833008 -37.334 -2.5 -56.001s-4.16699 -37.667 -7.5 -57zM1040 535.002c3.34961 15.333 5.68262 30.6689 7 46.002
c1.33301 15.333 2 30.666 2 45.999c0 82.667 -22 148 -66 196c-46.667 53.333 -115.667 80 -207 80c-228.667 0 -365.667 -120.667 -411 -362c-3.33301 -17.333 -6 -34.333 -8 -51c-2 -16.668 -3 -33.335 -3 -50.001c0 -41.333 5.66699 -79 17 -113s28.5 -63 51.5 -87
s51.5 -42.667 85.5 -56s73.667 -20 119 -20c110.667 0 203.334 34.667 278 104c70 66 115 155 135 267z" />
    <glyph glyph-name="q" unicode="q" horiz-adv-x="1352" 
d="M1022 -428h-215l106 547c-98 -96 -220.667 -144 -368 -144c-144 0 -256.667 41.667 -338 125c-82 84 -123 194 -123 330c0 17.333 0.833008 35.333 2.5 54s4.16699 37.667 7.5 57c13.333 84.667 37.833 160.167 73.5 226.5s82.167 124.5 139.5 174.5
c115.333 100 258 150 428 150c155.333 0 266 -58 332 -174l29 149h215zM991 526c3.33301 17.333 5.83301 34.333 7.5 51c1.66699 16.6689 2.5 33.3359 2.5 50c0 82.667 -21.667 148.667 -65 198c-46.667 52 -115.667 78 -207 78c-56 0 -107 -8.83301 -153 -26.5
s-86.667 -42.667 -122 -75s-64.833 -71.333 -88.5 -117s-40.5 -96.5 -50.5 -152.5c-3.33301 -16 -5.5 -31.667 -6.5 -47s-1.5 -30.333 -1.5 -45c0 -84 21.333 -149.333 64 -196c48 -52 117 -78 207 -78c230 0 367.667 120 413 360z" />
    <glyph glyph-name="r" unicode="r" horiz-adv-x="764" 
d="M768 868c-13.333 3.33301 -28.499 6.00293 -45.499 8.00293s-35.833 3.66699 -56.5 5c-67.334 2 -127.667 -18 -181 -60c-54.667 -44.667 -90 -109.334 -106 -194.001l-121 -627h-217l205 1067h217l-23 -119c16.667 19.333 35.667 37.666 57 54.999
s45.333 32.666 72 45.999c30 14 59.333 24.667 88 32s58 11 88 11c15.333 0 36.666 -2.33301 63.999 -7z" />
    <glyph glyph-name="s" unicode="s" horiz-adv-x="1053" 
d="M963 811c-112 71.333 -240.335 106.999 -385.002 106.999c-95.333 0 -163 -20 -203 -60c-22 -21.3369 -33 -46.6699 -33 -76c0 -38 35.667 -71.333 107 -100c0.666992 0 51.667 -15.667 153 -47c50 -15.333 93.833 -31.5 131.5 -48.5
c37.668 -17 68.835 -35.167 93.5 -54.5c70 -52.667 105 -122 105 -208c0 -116 -56 -205.667 -168 -269c-92.667 -53.333 -202 -80 -328 -80c-165.333 0 -314 39.667 -446 119l41 205c68.667 -46 135.334 -80.667 200.001 -104s128.334 -35 191.001 -35
c118 0 202 25.333 252 76c24.667 24.667 37 54.667 37 90c0 40.667 -31 75.334 -93 104.001c-9.33301 4 -26 10 -50 18s-55 17.667 -93 29c-136.667 41.333 -228.667 84.333 -276 129c-48 46 -72 99.333 -72 160c0 72.667 26 136 78 190c88 90.667 219 136 393 136
c162.667 0 296.334 -31.667 401 -95z" />
    <glyph glyph-name="t" unicode="t" horiz-adv-x="860" 
d="M872 893l-333 0.00195312l-103 -526c-14 -72.667 -3.66699 -125.334 31 -158.001c25.334 -23.333 59.334 -35 102 -35c32 0 61.833 1.66699 89.5 5c27.668 3.33301 53.835 8.66602 78.5 15.999l-39 -197c-34.667 -7.33301 -66 -13 -94 -17s-52.667 -6 -74 -6
c-46.667 0 -89.5 7.66699 -128.5 23s-72.5 37 -100.5 65s-49.667 61.5 -65 100.5s-23 82.167 -23 129.5c0 13.333 0.5 27 1.5 41s3.16699 28.333 6.5 43l98 516h-210l34 174h211l60 313h217l-60 -313h334z" />
    <glyph glyph-name="u" unicode="u" 
d="M1022 0h-217l20 106c-79.333 -87.333 -185 -131 -317 -131c-129.333 0 -229 35 -299 105c-62.667 62 -94 146.667 -94 254c0 39.333 4 78.333 12 117l117 616h219l-115 -590c-4 -21.333 -7 -41.5 -9 -60.5s-3 -36.167 -3 -51.5c0 -64.667 16.833 -114 50.5 -148
s89.167 -51 166.5 -51c44.667 0 86 7.83301 124 23.5s71.833 37.167 101.5 64.5c29.667 27.334 54.667 60.167 75 98.5s34.833 79.833 43.5 124.5l113 590h217z" />
    <glyph glyph-name="v" unicode="v" horiz-adv-x="1266" 
d="M631 0h-201l-287 1067h234l194 -786l498 786h258z" />
    <glyph glyph-name="w" unicode="w" horiz-adv-x="1772" 
d="M1227 0h-180l-115 776l-420 -776h-180l-189 1067h226l112 -735l381 735h228l108 -741l385 741h248z" />
    <glyph glyph-name="x" unicode="x" horiz-adv-x="1262" 
d="M776 535l361 -535h-260l-259 389l-403 -389h-287l578 551l-346 516h258l246 -369l383 369h288z" />
    <glyph glyph-name="y" unicode="y" horiz-adv-x="1210" 
d="M492 -180c-60.667 -94.667 -118.999 -161.667 -174.999 -201c-68.667 -46.667 -155.334 -70 -260.001 -70c-12 0 -24.167 0.5 -36.5 1.5s-24.5 2.16699 -36.5 3.5l36 192h74c78 0 144.333 43.667 199 131l100 160l-266 1030h227l189 -795l499 795h240z" />
    <glyph glyph-name="z" unicode="z" horiz-adv-x="1053" 
d="M1034 918l-715 -736h572l-35 -182h-864l28 154l721 735h-579l35 178h864z" />
    <glyph glyph-name="braceleft" unicode="{" horiz-adv-x="750" 
d="M848 1409l-83.999 -0.000976562c-53.333 0 -92.333 -62 -117 -186l-72 -371c-22 -118 -83.333 -205.333 -184 -262c15.333 -17.333 27 -31.5 35 -42.5s12.667 -18.167 14 -21.5c24.667 -40.667 37 -88.334 37 -143c0 -15.333 -0.833008 -30.666 -2.5 -45.999
s-4.16699 -31.333 -7.5 -48l-66 -332c-5.33301 -23.333 -9 -44.333 -11 -63s-3 -34.667 -3 -48c0 -50 19 -75 57 -75h84l-28 -148h-152c-24.667 0 -47.834 5.5 -69.5 16.5c-21.667 11 -40.5 26.167 -56.5 45.5s-28.667 42.666 -38 70c-9.33301 27.333 -14 57 -14 89
c0 11.333 0.5 23 1.5 35s3.16699 24.333 6.5 37l72 360c3.33301 13.333 5.5 26.333 6.5 39s1.5 25 1.5 37c0 104 -42.333 164 -127 180l27 138c115.333 20 187.666 105.333 216.999 256l71 368c15.334 80.667 51.667 145.667 109 195c50.667 44.667 107.334 67 170 67h152z
" />
    <glyph glyph-name="bar" unicode="|" horiz-adv-x="481" 
d="M137 -479h-180l389 1999h180z" />
    <glyph glyph-name="braceright" unicode="}" horiz-adv-x="750" 
d="M612 510c-115.333 -20.667 -187.665 -106.001 -216.998 -256.001l-71 -369c-14.667 -79.333 -49.667 -142.666 -105 -189.999c-54 -48 -111.333 -72 -172 -72h-151l28 148h84c54 0 92.333 62 115 186l70 362c11.333 60.667 32.666 113 63.999 157s72 80.667 122 110
c-54.667 64.667 -82 134.334 -82 209c0 15.333 0.833008 30.833 2.5 46.5s4.16699 32.167 7.5 49.5l64 332c8 47.3379 12 82.6709 12 105.999c0 53.333 -19 80 -57 80h-84l28 147h152c25.334 0 48.667 -5.5 69.999 -16.5c21.333 -11 39.833 -26.333 55.5 -46
s28 -43.167 37 -70.5s13.5 -57.333 13.5 -90c0 -22 -2 -45 -6 -69l-70 -361c-3.33301 -13.3398 -5.5 -26.1729 -6.5 -38.499c-1 -12.333 -1.5 -24.833 -1.5 -37.5c0 -102.667 42.333 -162.667 127 -180z" />
    <glyph glyph-name="asciitilde" unicode="~" horiz-adv-x="1260" 
d="M1034 444c-69.333 -43.333 -142.332 -65 -218.999 -65c-50.667 0 -121.667 16.333 -213 49s-161 49 -209 49c-58.667 0 -132.334 -32.667 -221.001 -98l37 199c76.667 50 147 75 211 75c23.333 0 52.333 -4.16699 87 -12.5c34.667 -8.33594 74 -21.1689 118 -38.5
c89.333 -32.667 158 -49 206 -49c72.667 0 152.667 30 240 90z" />
    <glyph glyph-name="uni00A0" unicode="&#xa0;" horiz-adv-x="532" 
 />
    <glyph glyph-name="exclamdown" unicode="&#xa1;" horiz-adv-x="702" 
d="M528 868h-227l45 224h227zM276 -403h-215l211 1083h213z" />
    <glyph glyph-name="cent" unicode="&#xa2;" horiz-adv-x="1137" 
d="M1104 778c-38 25.333 -73.666 46.3311 -106.999 62.998s-64 29.334 -92 38l-330 -709c9.33301 -1.33301 17 -2 23 -2h12c76 0 145 10.333 207 31c23.333 8 51 19.667 83 35s68.667 34.333 110 57l-43 -223c-114.667 -62 -245.334 -93 -392.001 -93
c-13.3359 0 -27.1689 0.5 -41.5 1.5c-14.335 1 -29.835 2.83301 -46.5 5.5l-92 -201h-157l108 235c-170.667 70 -256 206.667 -256 410c0 190 63 349 189 477c127.333 127.333 286.333 191 477 191c10 0 22.333 -0.5 37 -1.5s31.667 -2.83301 51 -5.5l90 195h158l-105 -225
c26.667 -9.33301 53 -20.666 79 -33.999c26 -13.3369 51.667 -28.6699 77 -45.999zM745.001 898.998c-60.667 0 -116.168 -9.66602 -166.501 -28.999s-94.166 -46.5 -131.499 -81.5s-67.5 -77.333 -90.5 -127s-37.5 -104.834 -43.5 -165.501
c-1.33301 -8.66699 -2 -17 -2 -25v-25c0 -114 41 -193.667 123 -239l322 692h-11z" />
    <glyph glyph-name="sterling" unicode="&#xa3;" horiz-adv-x="1239" 
d="M1288 1210c-116.667 74 -230.002 110.998 -340.002 110.998c-129.333 0 -229 -57.333 -299 -172c-15.335 -25.333 -33.168 -66.666 -53.5 -123.999c-20.334 -57.334 -44.167 -130.667 -71.499 -219.999h437l-33 -176h-455l-131 -434h750l-37 -195h-1094l37 195h121
c18.667 62.667 38.834 129.834 60.501 201.501s45.167 149.167 70.5 232.5h-166l33 176h184c36 119.333 70.833 219.666 104.5 300.999c33.667 81.3359 67.167 144.669 100.5 190c54 75.333 119.667 131.5 197 168.5s166 55.5 266 55.5c138 0 258 -35 360 -105z" />
    <glyph glyph-name="Euro" unicode="&#x20ac;" horiz-adv-x="1507" 
d="M1511 1137c-66 60.667 -136.498 106.167 -211.498 136.5s-155.167 45.5 -240.5 45.5c-132.667 0 -249.334 -36.333 -350.001 -109c-46.667 -34 -87.834 -74.667 -123.501 -122s-66.167 -101.333 -91.5 -162h790l-92 -125h-739c-12.667 -47.334 -21 -94.667 -25 -142h668
l-99 -124h-569c22.667 -239.333 161.334 -359 416.001 -359c165.333 0 338 60 518 180l-49 -252c-146 -86 -305.667 -129 -479 -129c-95.334 0 -180.167 13.333 -254.5 40s-139.833 66 -196.5 118c-106.667 99.333 -166 233.333 -178 402h-262l100 124h162
c2 24 4.5 47.833 7.5 71.5s7.16699 47.167 12.5 70.5h-229l100 125h164c62 181.335 161.667 324.668 299 430c72 54 150.167 94.833 234.5 122.5s176.166 41.5 275.499 41.5c102 0 193.167 -13.333 273.5 -40s150.833 -66 211.5 -118z" />
    <glyph glyph-name="yen" unicode="&#xa5;" horiz-adv-x="1468" 
d="M1044 813h238l-33 -166h-342l-22 -29l-35 -180h358l-32 -168h-359l-51 -270h-231l51 270h-361l33 168h360l33 180l-12 29h-340l31 166h235l-305 682h250l285 -664l526 664h285z" />
    <glyph glyph-name="Scaron" unicode="&#x160;" horiz-adv-x="1212" 
d="M1186 1167c-150.667 104 -304.333 156 -461 156c-110.667 0 -196.667 -30.667 -258 -92c-35.333 -35.333 -53 -78.333 -53 -129c0 -48 23.667 -89.667 71 -125c13.334 -9.33301 31.334 -20 54 -32c22.667 -12 50 -24.667 82 -38
c36 -15.3398 71.833 -30.1729 107.5 -44.499c35.667 -14.333 71.5 -28.833 107.5 -43.5c41.333 -19.333 78.166 -39.5 110.499 -60.5s60.166 -43.167 83.499 -66.5c34 -32.667 59.167 -68.834 75.5 -108.501s24.5 -82.5 24.5 -128.5c0 -159.333 -64 -281.666 -192 -366.999
c-110 -75.333 -249.333 -113 -418 -113c-110 0 -207.833 14.167 -293.5 42.5s-160.5 70.833 -224.5 127.5l43 222c142.667 -124.667 302.334 -187 479.001 -187c48.668 0 93.335 5.16699 134.001 15.5c40.667 10.333 78.667 25.833 114 46.5
c83.333 46.667 125 114.667 125 204c0 81.333 -69 151.666 -207 210.999c-28 11.333 -62.667 25.833 -104 43.5s-89.333 38.167 -144 61.5c-169.333 80 -254 188.333 -254 325c0 73.333 15 137.833 45 193.5s75.333 102.5 136 140.5c102 66 231 99 387 99
c90.667 0 175.167 -11.833 253.5 -35.5c78.333 -23.6719 151.5 -59.8389 219.5 -108.5zM920.001 1614h-213l-134 242h168l91 -134l143 134h174z" />
    <glyph glyph-name="section" unicode="&#xa7;" horiz-adv-x="899" 
d="M973 1206c-94.667 88.667 -212 132.998 -352 132.998c-56.667 0 -108.667 -15.667 -156 -47c-48 -30.6719 -74 -69.3389 -78 -116.001c-4 -55.333 42.333 -104.666 139 -147.999c80.667 -36 143.334 -64.333 188 -85c44.667 -20.667 71.667 -34 81 -40
c93.333 -64.667 135 -152.667 125 -264c-10.667 -110 -71 -198.667 -181 -266c33.333 -30 57 -63.833 71 -101.5s18.333 -80.5 13 -128.5c-12 -122.667 -67.333 -217.334 -166 -284.001c-44 -30 -93 -52.167 -147 -66.5s-114 -21.5 -180 -21.5
c-154.667 0 -283.667 40 -387 120l41 211c102 -98 222 -147 360 -147c35.334 0 69.167 4.83301 101.5 14.5c32.334 9.66699 61.167 23.334 86.5 41.001s46.166 39 62.499 64s25.833 52.833 28.5 83.5c6 61.333 -39.333 114.333 -136 159c-87.333 40 -153 70.167 -197 90.5
c-44 20.334 -67 31.167 -69 32.5c-92 62 -133 146.667 -123 254c10.667 110.668 74.334 197.335 191.001 260.001c-74.667 60.667 -106.667 137.334 -96 230.001c10 111.333 61.667 197.333 155 258c81.334 52 180.334 78 297 78c146 0 268.333 -37 367 -111zM727 636.998
c4 54.667 -25.999 101.665 -89.999 140.998c-5.33301 3.33301 -24.333 12.5 -57 27.5s-79.334 35.167 -140.001 60.5c-40 -17.333 -75.333 -41 -106 -71c-32 -36 -49 -69.667 -51 -101c-4 -54 31.333 -100.333 106 -139c36 -15.3369 71.5 -30.6699 106.5 -45.999
c35 -15.333 70.5 -30.666 106.5 -45.999c77.333 46.667 119 104.667 125 174z" />
    <glyph glyph-name="scaron" unicode="&#x161;" horiz-adv-x="1053" 
d="M963 811c-112 71.333 -240.335 106.999 -385.002 106.999c-95.333 0 -163 -20 -203 -60c-22 -21.3369 -33 -46.6699 -33 -76c0 -38 35.667 -71.333 107 -100c0.666992 0 51.667 -15.667 153 -47c50 -15.333 93.833 -31.5 131.5 -48.5
c37.668 -17 68.835 -35.167 93.5 -54.5c70 -52.667 105 -122 105 -208c0 -116 -56 -205.667 -168 -269c-92.667 -53.333 -202 -80 -328 -80c-165.333 0 -314 39.667 -446 119l41 205c68.667 -46 135.334 -80.667 200.001 -104s128.334 -35 191.001 -35
c118 0 202 25.333 252 76c24.667 24.667 37 54.667 37 90c0 40.667 -31 75.334 -93 104.001c-9.33301 4 -26 10 -50 18s-55 17.667 -93 29c-136.667 41.333 -228.667 84.333 -276 129c-48 46 -72 99.333 -72 160c0 72.667 26 136 78 190c88 90.667 219 136 393 136
c162.667 0 296.334 -31.667 401 -95zM784.998 1216h-213l-134 242h168l91 -134l143 134h174z" />
    <glyph glyph-name="copyright" unicode="&#xa9;" horiz-adv-x="1626" 
d="M1583 748c0 -213.333 -75.668 -395.667 -227.001 -547c-150.667 -150.667 -331.667 -226 -543 -226c-210.667 0 -392.334 75.333 -545.001 226c-150 152 -225 334.333 -225 547s75 394 225 544c150.667 150.667 332.334 226 545.001 226s394.334 -75.333 545.001 -226
c150 -150 225 -331.333 225 -544zM1444 747.999c0 173.333 -61.333 322 -184 446c-122.667 122.667 -271.667 184 -447 184s-324 -61.333 -446 -184c-123.333 -123.333 -185 -272 -185 -446s61.667 -323.667 185 -449c122 -122.667 270.667 -184 446 -184
s324.333 61.333 447 184c122.667 126 184 275.667 184 449zM808.999 267.999c-68 0 -128.333 11.3301 -181 33.9971s-98 57.334 -136 104.001c-71.333 87.333 -107 201.333 -107 342c0 139.333 36.333 252.333 109 339c38 46.667 83.333 81.334 136 104.001
s112.334 34 179 34c115.333 0 213 -33 293 -99v-170c-101.333 93.333 -199 140 -293 140c-46.667 0 -88 -8.16699 -124 -24.5s-66.333 -39.5 -91 -69.5s-43.167 -66.5 -55.5 -109.5s-18.5 -91.167 -18.5 -144.5s6.16699 -101.5 18.5 -144.5s30.833 -79.667 55.5 -110
s55 -53.666 91 -69.999s77.333 -24.5 124 -24.5c92 0 189.667 46.667 293 140v-170c-83.333 -67.333 -181 -101 -293 -101z" />
    <glyph glyph-name="ordfeminine" unicode="&#xaa;" horiz-adv-x="858" 
d="M815 852h-140.999l12 55c-94 -47.333 -179.333 -71 -256 -71c-64 0 -116.667 12 -158 36c-50 30.667 -75 76 -75 136c0 122.667 71 203 213 241c70.667 19.333 190.667 29 360 29c2.66699 16.667 4 31 4 43c0 40.667 -17.667 66.667 -53 78
c-16.667 5.33301 -51.667 8 -105 8c-92.667 0 -190 -30 -292 -90l26 127c91.333 50.667 183.666 76 276.999 76c87.333 0 152 -9.66699 194 -29c64.667 -28.6689 97 -81.3359 97 -158c0 -17.333 -2.33301 -36.333 -7 -57zM715.001 1036l33 138h-86
c-216 0 -324 -50 -324 -150c0 -48 34 -72 102 -72c70 0 161.667 28 275 84z" />
    <glyph glyph-name="guillemotleft" unicode="&#xab;" horiz-adv-x="1143" 
d="M813 569l164 -385h-213l-170 400l309 387h230zM322 569l163 -385h-213l-170 400l310 387h229z" />
    <glyph glyph-name="logicalnot" unicode="&#xac;" horiz-adv-x="1198" 
d="M1100 262h-199l68 350h-899l30 160h1098z" />
    <glyph glyph-name="minus" unicode="&#xad;" horiz-adv-x="1364" 
d="M1110 412h-1036l32 176h1037z" />
    <glyph glyph-name="minus" unicode="&#x2212;" horiz-adv-x="1364" 
d="M1110 412h-1036l32 176h1037z" />
    <glyph glyph-name="registered" unicode="&#xae;" horiz-adv-x="1626" 
d="M1583 748c0 -213.333 -75.668 -395.667 -227.001 -547c-150.667 -150.667 -331.667 -226 -543 -226c-210.667 0 -392.334 75.333 -545.001 226c-150 152 -225 334.333 -225 547s75 394 225 544c150.667 150.667 332.334 226 545.001 226s394.334 -75.333 545.001 -226
c150 -150 225 -331.333 225 -544zM1444 747.999c0 173.333 -61.333 322 -184 446c-122.667 122.667 -271.667 184 -447 184s-324 -61.333 -446 -184c-123.333 -123.333 -185 -272 -185 -446s61.667 -323.667 185 -449c122 -122.667 270.667 -184 446 -184
s324.333 61.333 447 184c122.667 126 184 275.667 184 449zM1024 310.999l-195 336h-211v-336h-129v865h351c42.667 0 81.667 -6.16699 117 -18.5s65.833 -30.166 91.5 -53.499s45.667 -51.333 60 -84s21.5 -69.667 21.5 -111c0 -116.667 -58 -198.334 -174 -245.001
l207 -353h-139zM1001 906.999c0 45.333 -14.667 81.667 -44 109s-69 41 -119 41h-220v-299h179c136 0 204 49.667 204 149z" />
    <glyph glyph-name="macron" unicode="&#xaf;" horiz-adv-x="410" 
d="M639 1274h-580l23 123h580z" />
    <glyph glyph-name="macron" unicode="&#x2c9;" horiz-adv-x="410" 
d="M639 1274h-580l23 123h580z" />
    <glyph glyph-name="degree" unicode="&#xb0;" horiz-adv-x="819" 
d="M846 1227c0 -81.333 -30 -151 -90 -209c-61.333 -56 -132.333 -84 -213 -84c-82 0 -153 28 -213 84c-60 57.333 -90 127 -90 209s30 151 90 207c59.333 57.333 130.333 86 213 86c81.333 0 152.333 -28.667 213 -86c60 -56.667 90 -125.667 90 -207zM709 1227
c0 22 -4.5 42.5 -13.5 61.5s-21.167 35.667 -36.5 50s-33 25.5 -53 33.5s-41 12 -63 12s-42.833 -4 -62.5 -12s-37 -19.167 -52 -33.5s-27 -31 -36 -50s-13.5 -39.5 -13.5 -61.5s4.5 -42.667 13.5 -62s21 -36 36 -50s32.333 -25.167 52 -33.5s40.5 -12.5 62.5 -12.5
s43 4.16699 63 12.5s37.667 19.5 53 33.5s27.5 30.667 36.5 50s13.5 40 13.5 62z" />
    <glyph glyph-name="plusminus" unicode="&#xb1;" horiz-adv-x="1167" 
d="M1104 627h-404l-59 -310h-195l60 310h-402l35 176h400l59 299h195l-58 -299h402zM981 -6h-999l34 176h998z" />
    <glyph glyph-name="twosuperior" unicode="&#xb2;" horiz-adv-x="1051" 
d="M975 1307c0 -78 -38.332 -149.666 -114.999 -214.999c-5.33691 -4.6748 -27.6699 -20.3418 -67 -47c-39.333 -26.667 -96 -65 -170 -115c-98 -67.334 -162.333 -131.667 -193 -193h432l-24 -125h-588c16.667 83.333 48.834 159.666 96.501 228.999s111.167 131 190.5 185
c21.333 13.333 43.166 27 65.499 41s44.166 27.667 65.499 41c28 18.667 52.167 35.667 72.5 51s37 30 50 44s22.667 27.833 29 41.5s9.5 27.5 9.5 41.5c0 65.333 -46.333 98 -139 98c-42 0 -88.333 -9.5 -139 -28.5s-105.334 -48.167 -164 -87.5l29 145
c100 64 201 96 303 96c67.333 0 125.333 -16.333 174 -49c54.667 -38.667 82 -89.667 82 -153z" />
    <glyph glyph-name="threesuperior" unicode="&#xb3;" horiz-adv-x="1083" 
d="M965 1266c-14.667 -79.333 -57.665 -137.998 -128.998 -175.998c62.667 -32.667 94 -85.334 94 -158.001c0 -17.333 -2 -35 -6 -53c-9.33691 -48.667 -27.1699 -90.834 -53.5 -126.501c-26.333 -35.667 -60.5 -65.834 -102.5 -90.501c-36 -22 -74 -38.167 -114 -48.5
s-82.667 -15.5 -128 -15.5c-100.667 0 -184.667 26 -252 78l31 149c72.667 -65.333 154.667 -98 246 -98c62 0 114.667 13.667 158 41c50 32.667 75 77.667 75 135c0 82 -58 123 -174 123h-129l25 125h127c24 0 46.667 2.83301 68 8.5s40.5 13.834 57.5 24.501
s31.167 23.167 42.5 37.5s18.666 29.833 21.999 46.5c7.33301 36 -2.33398 64 -29.001 84s-64.667 30 -114 30c-41.333 0 -83.833 -6.66699 -127.5 -20s-89.167 -34 -136.5 -62l28 142c83.333 44.667 170.333 67 261 67c64 0 121.333 -13.667 172 -41
c61.333 -34 92 -85 92 -153c0 -8.66699 -0.333008 -17 -1 -25s-1.66699 -16 -3 -24z" />
    <glyph glyph-name="Zcaron" unicode="&#x17d;" 
d="M1335 1327l-1016 -1130h807l-36 -197h-1113l31 164l1018 1132h-801l37 199h1104zM877 1614h-213l-134 242h168l91 -134l143 134h174z" />
    <glyph glyph-name="mu" unicode="&#xb5;" horiz-adv-x="1497" 
d="M1247 0l-212.999 -0.00195312l23 117c-84.667 -94.667 -199.334 -142 -344.001 -142c-132 0 -223.667 50 -275 150l-110 -580l-213 2l295 1522l213 -2l-117 -600c-4 -22.667 -6 -44.667 -6 -66c0 -35.333 6 -67.666 18 -96.999s29 -54.5 51 -75.5s48.667 -37.333 80 -49
s66.333 -17.5 105 -17.5c91.333 0 171 28.667 239 86c36 28.667 64.833 61.334 86.5 98.001s36.5 77 44.5 121l117 600h213z" />
    <glyph glyph-name="mu" unicode="&#x3bc;" horiz-adv-x="1497" 
d="M1247 0l-212.999 -0.00195312l23 117c-84.667 -94.667 -199.334 -142 -344.001 -142c-132 0 -223.667 50 -275 150l-110 -580l-213 2l295 1522l213 -2l-117 -600c-4 -22.667 -6 -44.667 -6 -66c0 -35.333 6 -67.666 18 -96.999s29 -54.5 51 -75.5s48.667 -37.333 80 -49
s66.333 -17.5 105 -17.5c91.333 0 171 28.667 239 86c36 28.667 64.833 61.334 86.5 98.001s36.5 77 44.5 121l117 600h213z" />
    <glyph glyph-name="paragraph" unicode="&#xb6;" horiz-adv-x="1192" 
d="M852 -428h-186l344 1771h-222l-344 -1771h-186l225 1163c-59.333 3.33301 -112.5 13.333 -159.5 30s-88.5 41 -124.5 73c-67.333 58.667 -101 133 -101 223c0 21.333 2 43 6 65c48 244.667 234.667 367 560 367h561z" />
    <glyph glyph-name="periodcentered" unicode="&#xb7;" horiz-adv-x="520" 
d="M350 434h-227l43 221h229z" />
    <glyph glyph-name="periodcentered" unicode="&#x2219;" horiz-adv-x="520" 
d="M350 434h-227l43 221h229z" />
    <glyph glyph-name="zcaron" unicode="&#x17e;" horiz-adv-x="1053" 
d="M1034 918l-715 -736h572l-35 -182h-864l28 154l721 735h-579l35 178h864zM772 1207h-213l-134 242h168l91 -134l143 134h174z" />
    <glyph glyph-name="onesuperior" unicode="&#xb9;" horiz-adv-x="745" 
d="M494 610h-146l141 729l-118 -63l26 143l150 76h119z" />
    <glyph glyph-name="ordmasculine" unicode="&#xba;" horiz-adv-x="879" 
d="M938 1165c-10 -54 -27 -101.336 -51 -142.003s-54.167 -74.667 -90.5 -102s-78.333 -48 -126 -62s-99.834 -21 -156.501 -21c-50 0 -95 6.16699 -135 18.5s-74.167 30.333 -102.5 54s-50.166 52.5 -65.499 86.5s-23 72.333 -23 115c0 11.333 0.5 23 1.5 35
s2.83301 23.667 5.5 35c8.66699 52.667 24.667 99.834 48 141.501s53 76.834 89 105.501s77.5 50.667 124.5 66s98.167 23 153.5 23c50 0 95.5 -6.83301 136.5 -20.5s76.167 -33 105.5 -58s52 -55.167 68 -90.5s24 -74.666 24 -117.999c0 -11.333 -0.5 -22.333 -1.5 -33
s-2.5 -21.667 -4.5 -33zM788 1176c2.66699 10 4.5 20.001 5.5 30.001s1.5 19.667 1.5 29c0 105.333 -63 158 -189 158c-147.334 0 -235.334 -72.333 -264 -217c-4 -20.6758 -6 -39.3428 -6 -56.001c0 -106 62 -159 186 -159c151.333 0.000976562 240 71.668 266 215z" />
    <glyph glyph-name="guillemotright" unicode="&#xbb;" horiz-adv-x="1143" 
d="M745 184h-229l320 400l-162 387h213l168 -400zM254 184h-229l321 400l-166 387h215l168 -400z" />
    <glyph glyph-name="OE" unicode="&#x152;" horiz-adv-x="2126" 
d="M2171 1309h-791.001l-88 -455h707l-37 -199h-709l-90 -467h789l-39 -198h-1157c-204 0 -361.667 56 -473 168c-108 105.333 -162 249.333 -162 432c0 58.667 6 119.334 18 182c22 116 57.167 219.667 105.5 311s108.833 168.333 181.5 231s156.834 110.5 252.501 143.5
s201.834 49.5 318.5 49.5h1211zM992.999 1309c-87.334 0 -166.167 -12.834 -236.5 -38.501s-133.5 -64.167 -189.5 -115.5c-52 -48 -95.333 -105.667 -130 -173c-34.667 -67.334 -60.334 -144.667 -77 -231.999c-5.33301 -28 -9.33301 -55.167 -12 -81.5
s-4 -51.833 -4 -76.5c0 -62.667 8.5 -118 25.5 -166s42.5 -89.667 76.5 -125c73.333 -75.333 184 -113 332 -113h162l217 1121h-164z" />
    <glyph glyph-name="oe" unicode="&#x153;" horiz-adv-x="2179" 
d="M2091 700c0 -68 -12.3369 -146.334 -37.0039 -235.001h-821c-1.33301 -10.668 -2.33301 -20.835 -3 -30.5c-0.666992 -9.66699 -1 -19.167 -1 -28.5c0 -84.667 30 -149 90 -193c26.667 -19.334 57.834 -33.667 93.501 -43s75.5 -14 119.5 -14
c138.667 0 285.334 41 440.001 123l-41 -203c-68.6699 -34 -137.837 -59.667 -207.5 -77c-69.667 -17.333 -141.167 -26 -214.5 -26c-207.333 0 -354.666 74.667 -441.999 224c-19.333 -21.333 -36.5 -39.5 -51.5 -54.5l-36.5 -36.5c-17.333 -16 -34.333 -30 -51 -42
s-33.667 -21.667 -51 -29c-44.667 -19.333 -91.5 -34.166 -140.5 -44.499s-101.833 -15.5 -158.5 -15.5c-145.333 0 -262.333 38.333 -351 115c-94 80 -141 191.333 -141 334c0 44 4 86.333 12 127c16.667 84.667 43.834 160.5 81.501 227.5s84.5 123.667 140.5 170
s120.333 81.833 193 106.5s152.334 37 239 37c141.333 0 254 -35 338 -105c6 -5.33301 16 -18.5 30 -39.5s32 -49.5 54 -85.5c12 15.333 28 33.333 48 54s44 43.667 72 69c98 71.333 215.667 107 353 107c128 0 232.333 -32.333 313 -97c87.333 -70.667 131 -169 131 -295z
M1888 691.999c0 144.667 -85.333 217 -256 217c-42 0 -82.333 -6.5 -121 -19.5c-38.6719 -13 -75.3389 -33.167 -110 -60.5c-68.667 -51.333 -113 -118 -133 -200h614c4 20 6 41 6 63zM1028 632.999c0 177.333 -98.332 266 -294.999 266
c-56.667 0 -108.334 -8.5 -155.001 -25.5s-87.667 -41.167 -123 -72.5c-35.333 -31.335 -64.833 -69.668 -88.5 -115c-23.667 -45.334 -40.834 -96.667 -51.5 -154c-3.33301 -17.333 -5.83301 -34.166 -7.5 -50.499s-2.5 -32.166 -2.5 -47.499
c0 -178.667 97.667 -268 293 -268c232.667 0 372.667 122 420 366c3.33301 17.333 5.83301 34.666 7.5 51.999s2.5 33.666 2.5 48.999z" />
    <glyph glyph-name="Ydieresis" unicode="&#x178;" horiz-adv-x="1434" 
d="M850 618l-119 -618h-231l116 618l-391 877h250l285 -664l526 664h285zM1210 1600h-206l38 201h209zM803 1600h-209l41 201h207z" />
    <glyph glyph-name="questiondown" unicode="&#xbf;" horiz-adv-x="1069" 
d="M829 868h-227l43 224h229zM862 -287c-134 -95.333 -278.666 -142.996 -433.999 -142.996c-112 0 -208.333 30.667 -289 92c-86 68 -129 156.667 -129 266s41.667 205.666 125 288.999c17.333 17.333 40.333 36.5 69 57.5s63 44.167 103 69.5s74.167 48.666 102.5 69.999
c28.333 21.334 50.833 39.667 67.5 54.999c12 12 22.833 23.667 32.5 35s18.5 24.666 26.5 39.999s15.333 33.833 22 55.5c6.66895 21.667 13.3359 48.5 20 80.5h206c-8 -38 -16 -70.5 -24 -97.5s-15.667 -49.167 -23 -66.5c-20 -51.333 -51.333 -98.333 -94 -141
c-36 -38 -92.667 -82.333 -170 -133c-43.333 -30 -79.333 -55.667 -108 -77s-50.667 -38.666 -66 -51.999c-52 -48 -78 -103.333 -78 -166c0 -30 5.83301 -57 17.5 -81s27.667 -44.333 48 -61s44 -29.334 71 -38.001s55.833 -13 86.5 -13
c73.333 0 148.166 16.333 224.499 49s155.833 82 238.5 148z" />
    <glyph glyph-name="Agrave" unicode="&#xc0;" horiz-adv-x="1559" 
d="M1174 0l-76 360h-686l-215 -360h-254l927 1495h189l354 -1495h-239zM924 1227l-406 -686h543zM555 1860h260l231 -264h-166z" />
    <glyph glyph-name="Aacute" unicode="&#xc1;" horiz-adv-x="1559" 
d="M1174 0l-76 360h-686l-215 -360h-254l927 1495h189l354 -1495h-239zM924 1227l-406 -686h543zM1034 1595h-165l231 265h260z" />
    <glyph glyph-name="Acircumflex" unicode="&#xc2;" horiz-adv-x="1559" 
d="M1174 0l-76 360h-686l-215 -360h-254l927 1495h189l354 -1495h-239zM924 1227l-406 -686h543zM1096 1593l-90 133l-142 -133h-174l228 242h211l133 -242h-166z" />
    <glyph glyph-name="Atilde" unicode="&#xc3;" horiz-adv-x="1559" 
d="M1174 0l-76 360h-686l-215 -360h-254l927 1495h189l354 -1495h-239zM924 1227l-406 -686h543zM1307 1657c-58.667 -38 -115.999 -57 -171.999 -57c-45.333 0 -97.333 15.667 -156 47c-57.333 31.333 -102.333 47 -135 47c-54.667 0 -117.334 -29.333 -188.001 -88l32 162
c62.667 43.333 120.667 65 174 65c44 0 95.333 -16.333 154 -49c59.3379 -31.333 105.671 -47 139 -47c48.667 0 109.667 27.333 183 82z" />
    <glyph glyph-name="Adieresis" unicode="&#xc4;" horiz-adv-x="1559" 
d="M1174 0l-76 360h-686l-215 -360h-254l927 1495h189l354 -1495h-239zM924 1227l-406 -686h543zM1294 1600h-206l38 201h209zM887 1600h-209l41 201h207z" />
    <glyph glyph-name="Aring" unicode="&#xc5;" horiz-adv-x="1559" 
d="M1174 0l-76 360h-686l-215 -360h-254l927 1495h189l354 -1495h-239zM924 1227l-406 -686h543zM971 1585c-22.667 0 -43.333 3.83301 -62 11.5s-34.834 18.5 -48.501 32.5s-24.334 30.333 -32.001 49s-11.5 39 -11.5 61c0 54 22 103 66 147s93.667 66 149 66
c22.667 0 43.334 -3.83301 62.001 -11.5s34.834 -18.5 48.501 -32.5s24.334 -30.333 32.001 -49s11.5 -39 11.5 -61c0 -55.333 -22 -105 -66 -149c-42.6689 -42.667 -92.3359 -64 -149.001 -64zM1092 1770c2 12 1.5 23.332 -1.5 33.999s-7.83301 20 -14.5 28
s-15 14.333 -25 19s-21 7 -33 7s-24 -2.33301 -36 -7s-22.833 -11 -32.5 -19s-18 -17.333 -25 -28s-11.5 -22 -13.5 -34c-4 -25.333 1.16699 -46.666 15.5 -63.999s33.833 -26 58.5 -26c12 0 24 2.33301 36 7s22.833 11 32.5 19s18 17.5 25 28.5s11.5 22.833 13.5 35.5z" />
    <glyph glyph-name="AE" unicode="&#xc6;" horiz-adv-x="2058" 
d="M2103 1303h-723l-88 -451h641l-37 -195h-641l-92 -467h723l-37 -190h-942l72 360h-496l-286 -360h-254l1194 1495h1003zM616 528h394l131 670z" />
    <glyph glyph-name="Ccedilla" unicode="&#xc7;" horiz-adv-x="1434" 
d="M1434 1137c-66 60.667 -136.668 106.166 -212.001 136.499s-155.666 45.5 -240.999 45.5c-166 0 -304 -54 -414 -162c-103.333 -101.333 -171.666 -237.666 -204.999 -408.999c-5.33301 -28 -9.33301 -54.833 -12 -80.5s-4 -50.834 -4 -75.501
c0 -128 33.333 -227.667 100 -299c74 -78 180.667 -117 320 -117c165.333 0 338 60 518 180l-49 -252c-144.667 -86 -304.334 -129 -479.001 -129c-200 0 -356.333 59 -469 177c-54.667 56.667 -95.334 121.667 -122.001 195c-26.667 73.334 -40 155.667 -40 247
c0 28 1.33301 55.833 4 83.5s6.66699 56.5 12 86.5c40.667 226 135 407 283 543c77.333 70.667 162.833 123.834 256.5 159.501s197.167 53.5 310.5 53.5c102 0 193.333 -13.333 274 -40s151.334 -66 212.001 -118zM567.999 -367.001h-252l319 265h164z" />
    <glyph glyph-name="Egrave" unicode="&#xc8;" horiz-adv-x="1327" 
d="M1372 1294h-852l-86 -438h770l-39 -203h-768l-88 -454h850l-37 -199h-1069l287 1495h1069zM523 1860h260l231 -264h-166z" />
    <glyph glyph-name="Eacute" unicode="&#xc9;" horiz-adv-x="1327" 
d="M1372 1294h-852l-86 -438h770l-39 -203h-768l-88 -454h850l-37 -199h-1069l287 1495h1069zM929 1595h-165l231 265h260z" />
    <glyph glyph-name="Ecircumflex" unicode="&#xca;" horiz-adv-x="1327" 
d="M1372 1294h-852l-86 -438h770l-39 -203h-768l-88 -454h850l-37 -199h-1069l287 1495h1069zM995 1595l-90 133l-142 -133h-174l228 242h211l133 -242h-166z" />
    <glyph glyph-name="Edieresis" unicode="&#xcb;" horiz-adv-x="1327" 
d="M1372 1294h-852l-86 -438h770l-39 -203h-768l-88 -454h850l-37 -199h-1069l287 1495h1069zM1206 1600h-206l38 201h209zM799 1600h-209l41 201h207z" />
    <glyph glyph-name="Igrave" unicode="&#xcc;" horiz-adv-x="532" 
d="M270 0h-217l287 1495h217zM58 1858h260l231 -264h-166z" />
    <glyph glyph-name="Iacute" unicode="&#xcd;" horiz-adv-x="532" 
d="M270 0h-217l287 1495h217zM551 1613h-165l231 265h260z" />
    <glyph glyph-name="Icircumflex" unicode="&#xce;" horiz-adv-x="532" 
d="M270 0h-217l287 1495h217zM588 1593l-90 133l-142 -133h-174l228 242h211l133 -242h-166z" />
    <glyph glyph-name="Idieresis" unicode="&#xcf;" horiz-adv-x="532" 
d="M270 0h-217l287 1495h217zM778 1597h-206l38 201h209zM371 1597h-209l41 201h207z" />
    <glyph glyph-name="Eth" unicode="&#xd0;" horiz-adv-x="1530" 
d="M1466 745c-41.333 -228.667 -131.999 -405.999 -271.999 -531.999c-79.333 -70.667 -168.833 -123.834 -268.5 -159.501s-210.834 -53.5 -333.501 -53.5h-541l127 653h-102l35 183h102l127 659h506c96.668 0 183.168 -11.833 259.5 -35.5
c76.333 -23.667 142.833 -59.5 199.5 -107.5c118.667 -101.333 178 -245.333 178 -432c0 -28 -1.5 -56.333 -4.5 -85s-7.16699 -58.667 -12.5 -90zM1243 748.001c5.33301 24.667 8.99902 48.668 10.999 72.001s3 45.666 3 66.999c0 86.001 -17.667 159.668 -53 221
c-71.333 125.333 -201.666 188 -390.999 188h-289l-90 -460h271l-35 -183h-271l-88 -456h310c347.334 0 554.667 183.667 622 551z" />
    <glyph glyph-name="Ntilde" unicode="&#xd1;" horiz-adv-x="1524" 
d="M1268 0h-199l-577 1161l-224 -1161h-215l287 1495h205l575 -1155l221 1155h213zM1313 1665c-58.667 -38 -115.999 -57 -171.999 -57c-45.333 0 -97.333 15.667 -156 47c-57.333 31.333 -102.333 47 -135 47c-54.667 0 -117.334 -29.333 -188.001 -88l32 162
c62.667 43.333 120.667 65 174 65c44 0 95.333 -16.333 154 -49c59.3379 -31.333 105.671 -47 139 -47c48.667 0 109.667 27.333 183 82z" />
    <glyph glyph-name="Ograve" unicode="&#xd2;" horiz-adv-x="1665" 
d="M1606 733c-56 -283.333 -183.002 -491.333 -381.002 -624c-133.333 -89.333 -289.666 -134 -468.999 -134c-190 0 -343.667 56 -461 168c-116 112 -174 263 -174 453c0 28.667 1.33301 57.334 4 86c2.66699 28.667 6.66699 58 12 88
c42.667 228.667 136.334 409.667 281.001 543c150 138 338.333 207 565 207c97.3359 0 184.169 -13.833 260.5 -41.5c76.333 -27.667 143.833 -69.167 202.5 -124.5c117.333 -109.333 176 -259 176 -449c0 -28 -1.33301 -56.167 -4 -84.5s-6.66699 -57.5 -12 -87.5z
M1384 748c5.37598 25.333 9.20996 50.333 11.501 75c2.33301 24.667 3.5 48.667 3.5 72c0 68 -9.66699 128.5 -29 181.5s-47.5 97.5 -84.5 133.5s-82.333 63.5 -136 82.5s-115.167 28.5 -184.5 28.5c-166 0 -303.333 -55.333 -412 -166c-48 -50 -88.333 -108.667 -121 -176
s-56.667 -144.333 -72 -231c-5.33301 -26 -9 -51.667 -11 -77c-2 -25.3359 -3 -49.6689 -3 -73c0 -67.334 9.66699 -127.334 29 -180c19.333 -52.667 47.333 -97 84 -133s81.5 -63.5 134.5 -82.5s113.167 -28.5 180.5 -28.5c171.333 0 310 54 416 162
c49.3379 50 90.1709 109.167 122.499 177.5c32.3389 68.333 56.1719 146.5 71.5 234.5zM669.999 1878h260l231 -264h-166z" />
    <glyph glyph-name="Oacute" unicode="&#xd3;" horiz-adv-x="1665" 
d="M1606 733c-56 -283.333 -183.002 -491.333 -381.002 -624c-133.333 -89.333 -289.666 -134 -468.999 -134c-190 0 -343.667 56 -461 168c-116 112 -174 263 -174 453c0 28.667 1.33301 57.334 4 86c2.66699 28.667 6.66699 58 12 88
c42.667 228.667 136.334 409.667 281.001 543c150 138 338.333 207 565 207c97.3359 0 184.169 -13.833 260.5 -41.5c76.333 -27.667 143.833 -69.167 202.5 -124.5c117.333 -109.333 176 -259 176 -449c0 -28 -1.33301 -56.167 -4 -84.5s-6.66699 -57.5 -12 -87.5z
M1384 748c5.37598 25.333 9.20996 50.333 11.501 75c2.33301 24.667 3.5 48.667 3.5 72c0 68 -9.66699 128.5 -29 181.5s-47.5 97.5 -84.5 133.5s-82.333 63.5 -136 82.5s-115.167 28.5 -184.5 28.5c-166 0 -303.333 -55.333 -412 -166c-48 -50 -88.333 -108.667 -121 -176
s-56.667 -144.333 -72 -231c-5.33301 -26 -9 -51.667 -11 -77c-2 -25.3359 -3 -49.6689 -3 -73c0 -67.334 9.66699 -127.334 29 -180c19.333 -52.667 47.333 -97 84 -133s81.5 -63.5 134.5 -82.5s113.167 -28.5 180.5 -28.5c171.333 0 310 54 416 162
c49.3379 50 90.1709 109.167 122.499 177.5c32.3389 68.333 56.1719 146.5 71.5 234.5zM1093 1595h-165l231 265h260z" />
    <glyph glyph-name="Ocircumflex" unicode="&#xd4;" horiz-adv-x="1665" 
d="M1606 733c-56 -283.333 -183.002 -491.333 -381.002 -624c-133.333 -89.333 -289.666 -134 -468.999 -134c-190 0 -343.667 56 -461 168c-116 112 -174 263 -174 453c0 28.667 1.33301 57.334 4 86c2.66699 28.667 6.66699 58 12 88
c42.667 228.667 136.334 409.667 281.001 543c150 138 338.333 207 565 207c97.3359 0 184.169 -13.833 260.5 -41.5c76.333 -27.667 143.833 -69.167 202.5 -124.5c117.333 -109.333 176 -259 176 -449c0 -28 -1.33301 -56.167 -4 -84.5s-6.66699 -57.5 -12 -87.5z
M1384 748c5.37598 25.333 9.20996 50.333 11.501 75c2.33301 24.667 3.5 48.667 3.5 72c0 68 -9.66699 128.5 -29 181.5s-47.5 97.5 -84.5 133.5s-82.333 63.5 -136 82.5s-115.167 28.5 -184.5 28.5c-166 0 -303.333 -55.333 -412 -166c-48 -50 -88.333 -108.667 -121 -176
s-56.667 -144.333 -72 -231c-5.33301 -26 -9 -51.667 -11 -77c-2 -25.3359 -3 -49.6689 -3 -73c0 -67.334 9.66699 -127.334 29 -180c19.333 -52.667 47.333 -97 84 -133s81.5 -63.5 134.5 -82.5s113.167 -28.5 180.5 -28.5c171.333 0 310 54 416 162
c49.3379 50 90.1709 109.167 122.499 177.5c32.3389 68.333 56.1719 146.5 71.5 234.5zM1147 1614l-90 133l-142 -133h-174l228 242h211l133 -242h-166z" />
    <glyph glyph-name="Otilde" unicode="&#xd5;" horiz-adv-x="1665" 
d="M1606 733c-56 -283.333 -183.002 -491.333 -381.002 -624c-133.333 -89.333 -289.666 -134 -468.999 -134c-190 0 -343.667 56 -461 168c-116 112 -174 263 -174 453c0 28.667 1.33301 57.334 4 86c2.66699 28.667 6.66699 58 12 88
c42.667 228.667 136.334 409.667 281.001 543c150 138 338.333 207 565 207c97.3359 0 184.169 -13.833 260.5 -41.5c76.333 -27.667 143.833 -69.167 202.5 -124.5c117.333 -109.333 176 -259 176 -449c0 -28 -1.33301 -56.167 -4 -84.5s-6.66699 -57.5 -12 -87.5z
M1384 748c5.37598 25.333 9.20996 50.333 11.501 75c2.33301 24.667 3.5 48.667 3.5 72c0 68 -9.66699 128.5 -29 181.5s-47.5 97.5 -84.5 133.5s-82.333 63.5 -136 82.5s-115.167 28.5 -184.5 28.5c-166 0 -303.333 -55.333 -412 -166c-48 -50 -88.333 -108.667 -121 -176
s-56.667 -144.333 -72 -231c-5.33301 -26 -9 -51.667 -11 -77c-2 -25.3359 -3 -49.6689 -3 -73c0 -67.334 9.66699 -127.334 29 -180c19.333 -52.667 47.333 -97 84 -133s81.5 -63.5 134.5 -82.5s113.167 -28.5 180.5 -28.5c171.333 0 310 54 416 162
c49.3379 50 90.1709 109.167 122.499 177.5c32.3389 68.333 56.1719 146.5 71.5 234.5zM1395 1667c-58.667 -38 -115.999 -57 -171.999 -57c-45.333 0 -97.333 15.667 -156 47c-57.333 31.333 -102.333 47 -135 47c-54.667 0 -117.334 -29.333 -188.001 -88l32 162
c62.667 43.333 120.667 65 174 65c44 0 95.333 -16.333 154 -49c59.3359 -31.333 105.669 -47 139 -47c48.667 0 109.667 27.333 183 82z" />
    <glyph glyph-name="Odieresis" unicode="&#xd6;" horiz-adv-x="1665" 
d="M1606 733c-56 -283.333 -183.002 -491.333 -381.002 -624c-133.333 -89.333 -289.666 -134 -468.999 -134c-190 0 -343.667 56 -461 168c-116 112 -174 263 -174 453c0 28.667 1.33301 57.334 4 86c2.66699 28.667 6.66699 58 12 88
c42.667 228.667 136.334 409.667 281.001 543c150 138 338.333 207 565 207c97.3359 0 184.169 -13.833 260.5 -41.5c76.333 -27.667 143.833 -69.167 202.5 -124.5c117.333 -109.333 176 -259 176 -449c0 -28 -1.33301 -56.167 -4 -84.5s-6.66699 -57.5 -12 -87.5z
M1384 748c5.37598 25.333 9.20996 50.333 11.501 75c2.33301 24.667 3.5 48.667 3.5 72c0 68 -9.66699 128.5 -29 181.5s-47.5 97.5 -84.5 133.5s-82.333 63.5 -136 82.5s-115.167 28.5 -184.5 28.5c-166 0 -303.333 -55.333 -412 -166c-48 -50 -88.333 -108.667 -121 -176
s-56.667 -144.333 -72 -231c-5.33301 -26 -9 -51.667 -11 -77c-2 -25.3359 -3 -49.6689 -3 -73c0 -67.334 9.66699 -127.334 29 -180c19.333 -52.667 47.333 -97 84 -133s81.5 -63.5 134.5 -82.5s113.167 -28.5 180.5 -28.5c171.333 0 310 54 416 162
c49.3379 50 90.1709 109.167 122.499 177.5c32.3389 68.333 56.1719 146.5 71.5 234.5zM1359 1612h-206l38 201h209zM951.999 1612h-209l41 201h207z" />
    <glyph glyph-name="multiply" unicode="&#xd7;" horiz-adv-x="1188" 
d="M698 580l265 -314l-129 -112l-267 311l-362 -315l-103 120l365 316l-266 311l131 113l264 -312l362 318l103 -121z" />
    <glyph glyph-name="Oslash" unicode="&#xd8;" horiz-adv-x="1665" 
d="M1532 1257c62.667 -97.333 94 -214.666 94 -351.999c0 -28 -1.33301 -56.5 -4 -85.5s-6.66699 -58.5 -12 -88.5c-21.333 -115.333 -56 -218.333 -104 -309s-108.333 -169.334 -181 -236.001c-153.333 -140.667 -343 -211 -569 -211c-91.334 0 -173.167 12.333 -245.5 37
s-136.833 61 -193.5 109l-129 -121h-225l254 236c-62.667 95.333 -94 212 -94 350c0 56.667 6 116 18 178c43.333 230 137.666 411.667 282.999 545c150.667 140.667 339.667 211 567 211c182.667 0 330.334 -50 443.001 -150l131 125h221zM973 1321
c-165.333 0 -302.001 -54.001 -410.001 -162.001c-50 -50 -91.833 -109.167 -125.5 -177.5c-33.667 -68.334 -58.834 -146.167 -75.5 -233.499c-5.33301 -27.335 -9 -53.668 -11 -79c-2 -25.3359 -3 -49.6689 -3 -73c0 -39.333 3.16699 -75.833 9.5 -109.5
c6.33398 -33.667 16.167 -65.5 29.5 -95.5l887 836c-71.333 62.667 -171.666 94 -300.999 94zM1386 747.999c5.33301 28 9.5 54.666 12.5 79.999s4.5 50.333 4.5 75c0 38 -3.16699 73.833 -9.5 107.5s-16.166 64.834 -29.499 93.501l-887 -836
c71.333 -62.667 169.666 -94 294.999 -94c167.333 0 305.333 53.333 414 160c99.333 97.334 166 235.334 200 414z" />
    <glyph glyph-name="Ugrave" unicode="&#xd9;" horiz-adv-x="1501" 
d="M1374 653c-20.667 -108 -48.166 -201.832 -82.499 -281.499s-75.833 -146.834 -124.5 -201.501c-114 -126.667 -275 -190 -483 -190c-178.667 0 -314.667 47 -408 141c-81.333 86.667 -122 204.667 -122 354c0 57.333 6 117.333 18 180l164 842h225l-168 -862
c-5.33301 -30 -9.33301 -58.333 -12 -85s-4 -51.667 -4 -75c0 -199.333 102.333 -299 306.999 -299c141.333 0 250 45 326 135c60.667 72 105.667 180.667 135 326l168 860h225zM557.001 1860h260l231 -264h-166z" />
    <glyph glyph-name="Uacute" unicode="&#xda;" horiz-adv-x="1501" 
d="M1374 653c-20.667 -108 -48.166 -201.832 -82.499 -281.499s-75.833 -146.834 -124.5 -201.501c-114 -126.667 -275 -190 -483 -190c-178.667 0 -314.667 47 -408 141c-81.333 86.667 -122 204.667 -122 354c0 57.333 6 117.333 18 180l164 842h225l-168 -862
c-5.33301 -30 -9.33301 -58.333 -12 -85s-4 -51.667 -4 -75c0 -199.333 102.333 -299 306.999 -299c141.333 0 250 45 326 135c60.667 72 105.667 180.667 135 326l168 860h225zM1013 1595h-165l231 265h260z" />
    <glyph glyph-name="Ucircumflex" unicode="&#xdb;" horiz-adv-x="1501" 
d="M1374 653c-20.667 -108 -48.166 -201.832 -82.499 -281.499s-75.833 -146.834 -124.5 -201.501c-114 -126.667 -275 -190 -483 -190c-178.667 0 -314.667 47 -408 141c-81.333 86.667 -122 204.667 -122 354c0 57.333 6 117.333 18 180l164 842h225l-168 -862
c-5.33301 -30 -9.33301 -58.333 -12 -85s-4 -51.667 -4 -75c0 -199.333 102.333 -299 306.999 -299c141.333 0 250 45 326 135c60.667 72 105.667 180.667 135 326l168 860h225zM1077 1595l-90 133l-142 -133h-174l228 242h211l133 -242h-166z" />
    <glyph glyph-name="Udieresis" unicode="&#xdc;" horiz-adv-x="1501" 
d="M1374 653c-20.667 -108 -48.166 -201.832 -82.499 -281.499s-75.833 -146.834 -124.5 -201.501c-114 -126.667 -275 -190 -483 -190c-178.667 0 -314.667 47 -408 141c-81.333 86.667 -122 204.667 -122 354c0 57.333 6 117.333 18 180l164 842h225l-168 -862
c-5.33301 -30 -9.33301 -58.333 -12 -85s-4 -51.667 -4 -75c0 -199.333 102.333 -299 306.999 -299c141.333 0 250 45 326 135c60.667 72 105.667 180.667 135 326l168 860h225zM1269 1600h-206l38 201h209zM862.001 1600h-209l41 201h207z" />
    <glyph glyph-name="Yacute" unicode="&#xdd;" horiz-adv-x="1434" 
d="M850 618l-119 -618h-231l116 618l-391 877h250l285 -664l526 664h285zM931 1613h-165l231 265h260z" />
    <glyph glyph-name="Thorn" unicode="&#xde;" horiz-adv-x="1176" 
d="M1163 750c-30 -156 -108.333 -280.999 -235 -374.999c-126 -94.667 -272.333 -142 -439 -142h-235l-47 -233h-215l291 1495h215l-43 -229h235c145.333 0 262 -37 350 -111c44 -37.333 77.333 -80.833 100 -130.5s34 -105.834 34 -168.501c0 -17.333 -1 -34.833 -3 -52.5
s-4.66699 -35.5 -8 -53.5zM948 750.001c3.33301 13.333 5.5 26.001 6.5 38.001s1.5 23.667 1.5 35c0 168 -116 252 -348 252h-192l-125 -651h192c63.333 0 121.333 7.16699 174 21.5c52.667 14.334 98.834 35.167 138.5 62.499c39.667 27.333 72.5 61.333 98.5 102
s44 87.334 54 140z" />
    <glyph glyph-name="germandbls" unicode="&#xdf;" horiz-adv-x="1165" 
d="M1106 1200c0 -34 -5.16504 -68.167 -15.498 -102.5s-24.5 -66.833 -42.5 -97.5s-39.333 -58.167 -64 -82.5s-51.667 -43.5 -81 -57.5c131.333 -55.333 197 -158.333 197 -309c0 -36 -4 -71.833 -12 -107.5s-19.667 -72.167 -35 -109.5
c-96.667 -222.667 -260 -334 -490 -334h-166l35 184h152c41.333 0 80.166 7.5 116.499 22.5s71.166 37.5 104.499 67.5c65.333 60.667 102 134.667 110 222c4 38.667 0.333008 74 -11 106c-11.3369 32 -28.6699 59.333 -52 82c-23.335 22.6689 -51.668 40.3359 -85 53
c-33.335 12.667 -70.668 19 -112 19h-92l35 178h72c55.333 0 104.333 22.333 147 67c42 44.667 66 98.667 72 162c10 109.333 -47.333 164 -172 164c-138 0 -223.333 -84.667 -256 -254l-207 -1073h-213l168 860h-143l34 184h144l14 74
c11.334 60.667 30.167 114.667 56.5 162s59.5 89 99.5 125c86 78 195 117 327 117c104.667 0 193 -33 265 -99c34 -30 59.167 -63.667 75.5 -101s24.5 -78 24.5 -122z" />
    <glyph glyph-name="agrave" unicode="&#xe0;" horiz-adv-x="1221" 
d="M1124 727c1.33301 1.33301 -9.66699 -58.667 -33 -180s-58 -303.666 -104 -546.999h-209l17 94c-132 -79.333 -267.333 -119 -406 -119c-99.333 0 -181.333 22.667 -246 68c-70.667 50.667 -106 124.334 -106 221.001c0 54.667 8.5 104 25.5 148s42.5 84 76.5 120
c27.333 28 59.666 51.833 96.999 71.5s80.333 36.167 129 49.5c105.333 27.333 235 41 389 41h155c3.33301 17.333 6 32.166 8 44.499s3 22.166 3 29.499c0 34.667 -13.667 64.667 -41 90c-44 40 -114.333 60 -211 60c-149.333 0 -297.666 -40.333 -444.999 -121l41 200
c62.667 32 128.667 56.167 198 72.5s143.333 24.5 222 24.5c162.667 0 283.667 -37.667 363 -113c55.333 -51.333 83 -116.333 83 -195c0 -21.333 -2 -41 -6 -59zM723 530c-210.667 0 -352 -36 -424 -108c-36.667 -38.667 -55 -82.334 -55 -131c0 -90 54 -135 162 -135
c112 0 254.667 46.333 428 139l45 235h-156zM293 1450h260l231 -264h-166z" />
    <glyph glyph-name="aacute" unicode="&#xe1;" horiz-adv-x="1221" 
d="M1124 727c1.33301 1.33301 -9.66699 -58.667 -33 -180s-58 -303.666 -104 -546.999h-209l17 94c-132 -79.333 -267.333 -119 -406 -119c-99.333 0 -181.333 22.667 -246 68c-70.667 50.667 -106 124.334 -106 221.001c0 54.667 8.5 104 25.5 148s42.5 84 76.5 120
c27.333 28 59.666 51.833 96.999 71.5s80.333 36.167 129 49.5c105.333 27.333 235 41 389 41h155c3.33301 17.333 6 32.166 8 44.499s3 22.166 3 29.499c0 34.667 -13.667 64.667 -41 90c-44 40 -114.333 60 -211 60c-149.333 0 -297.666 -40.333 -444.999 -121l41 200
c62.667 32 128.667 56.167 198 72.5s143.333 24.5 222 24.5c162.667 0 283.667 -37.667 363 -113c55.333 -51.333 83 -116.333 83 -195c0 -21.333 -2 -41 -6 -59zM723 530c-210.667 0 -352 -36 -424 -108c-36.667 -38.667 -55 -82.334 -55 -131c0 -90 54 -135 162 -135
c112 0 254.667 46.333 428 139l45 235h-156zM815 1184h-165l231 265h260z" />
    <glyph glyph-name="acircumflex" unicode="&#xe2;" horiz-adv-x="1221" 
d="M1124 727c1.33301 1.33301 -9.66699 -58.667 -33 -180s-58 -303.666 -104 -546.999h-209l17 94c-132 -79.333 -267.333 -119 -406 -119c-99.333 0 -181.333 22.667 -246 68c-70.667 50.667 -106 124.334 -106 221.001c0 54.667 8.5 104 25.5 148s42.5 84 76.5 120
c27.333 28 59.666 51.833 96.999 71.5s80.333 36.167 129 49.5c105.333 27.333 235 41 389 41h155c3.33301 17.333 6 32.166 8 44.499s3 22.166 3 29.499c0 34.667 -13.667 64.667 -41 90c-44 40 -114.333 60 -211 60c-149.333 0 -297.666 -40.333 -444.999 -121l41 200
c62.667 32 128.667 56.167 198 72.5s143.333 24.5 222 24.5c162.667 0 283.667 -37.667 363 -113c55.333 -51.333 83 -116.333 83 -195c0 -21.333 -2 -41 -6 -59zM723 530c-210.667 0 -352 -36 -424 -108c-36.667 -38.667 -55 -82.334 -55 -131c0 -90 54 -135 162 -135
c112 0 254.667 46.333 428 139l45 235h-156zM877 1185l-90 133l-142 -133h-174l228 242h211l133 -242h-166z" />
    <glyph glyph-name="atilde" unicode="&#xe3;" horiz-adv-x="1221" 
d="M1124 727c1.33301 1.33301 -9.66699 -58.667 -33 -180s-58 -303.666 -104 -546.999h-209l17 94c-132 -79.333 -267.333 -119 -406 -119c-99.333 0 -181.333 22.667 -246 68c-70.667 50.667 -106 124.334 -106 221.001c0 54.667 8.5 104 25.5 148s42.5 84 76.5 120
c27.333 28 59.666 51.833 96.999 71.5s80.333 36.167 129 49.5c105.333 27.333 235 41 389 41h155c3.33301 17.333 6 32.166 8 44.499s3 22.166 3 29.499c0 34.667 -13.667 64.667 -41 90c-44 40 -114.333 60 -211 60c-149.333 0 -297.666 -40.333 -444.999 -121l41 200
c62.667 32 128.667 56.167 198 72.5s143.333 24.5 222 24.5c162.667 0 283.667 -37.667 363 -113c55.333 -51.333 83 -116.333 83 -195c0 -21.333 -2 -41 -6 -59zM723 530c-210.667 0 -352 -36 -424 -108c-36.667 -38.667 -55 -82.334 -55 -131c0 -90 54 -135 162 -135
c112 0 254.667 46.333 428 139l45 235h-156zM1075 1262c-58.667 -38 -115.998 -57 -171.998 -57c-45.333 0 -97.333 15.667 -156 47c-57.333 31.333 -102.333 47 -135 47c-54.667 0 -117.334 -29.333 -188.001 -88l32 162c62.667 43.333 120.667 65 174 65
c44 0 95.333 -16.333 154 -49c59.333 -31.333 105.666 -47 138.999 -47c48.668 0 109.668 27.333 183 82z" />
    <glyph glyph-name="adieresis" unicode="&#xe4;" horiz-adv-x="1221" 
d="M1124 727c1.33301 1.33301 -9.66699 -58.667 -33 -180s-58 -303.666 -104 -546.999h-209l17 94c-132 -79.333 -267.333 -119 -406 -119c-99.333 0 -181.333 22.667 -246 68c-70.667 50.667 -106 124.334 -106 221.001c0 54.667 8.5 104 25.5 148s42.5 84 76.5 120
c27.333 28 59.666 51.833 96.999 71.5s80.333 36.167 129 49.5c105.333 27.333 235 41 389 41h155c3.33301 17.333 6 32.166 8 44.499s3 22.166 3 29.499c0 34.667 -13.667 64.667 -41 90c-44 40 -114.333 60 -211 60c-149.333 0 -297.666 -40.333 -444.999 -121l41 200
c62.667 32 128.667 56.167 198 72.5s143.333 24.5 222 24.5c162.667 0 283.667 -37.667 363 -113c55.333 -51.333 83 -116.333 83 -195c0 -21.333 -2 -41 -6 -59zM723 530c-210.667 0 -352 -36 -424 -108c-36.667 -38.667 -55 -82.334 -55 -131c0 -90 54 -135 162 -135
c112 0 254.667 46.333 428 139l45 235h-156zM1077 1193h-206l38 201h209zM670 1193h-209l41 201h207z" />
    <glyph glyph-name="aring" unicode="&#xe5;" horiz-adv-x="1221" 
d="M1124 727c1.33301 1.33301 -9.66699 -58.667 -33 -180s-58 -303.666 -104 -546.999h-209l17 94c-132 -79.333 -267.333 -119 -406 -119c-99.333 0 -181.333 22.667 -246 68c-70.667 50.667 -106 124.334 -106 221.001c0 54.667 8.5 104 25.5 148s42.5 84 76.5 120
c27.333 28 59.666 51.833 96.999 71.5s80.333 36.167 129 49.5c105.333 27.333 235 41 389 41h155c3.33301 17.333 6 32.166 8 44.499s3 22.166 3 29.499c0 34.667 -13.667 64.667 -41 90c-44 40 -114.333 60 -211 60c-149.333 0 -297.666 -40.333 -444.999 -121l41 200
c62.667 32 128.667 56.167 198 72.5s143.333 24.5 222 24.5c162.667 0 283.667 -37.667 363 -113c55.333 -51.333 83 -116.333 83 -195c0 -21.333 -2 -41 -6 -59zM723 530c-210.667 0 -352 -36 -424 -108c-36.667 -38.667 -55 -82.334 -55 -131c0 -90 54 -135 162 -135
c112 0 254.667 46.333 428 139l45 235h-156zM754 1177c-22.667 0 -43.3311 3.83301 -61.998 11.5s-34.834 18.5 -48.501 32.5s-24.334 30.333 -32.001 49s-11.5 39 -11.5 61c0 54 22 103 66 147s93.667 66 149 66c22.668 0 43.335 -3.83301 62 -11.5
c18.6699 -7.66699 34.8369 -18.5 48.5 -32.5c13.6689 -14 24.3359 -30.333 32.001 -49c7.66699 -18.667 11.5 -39 11.5 -61c0 -55.333 -22 -105 -66 -149c-42.667 -42.667 -92.334 -64 -149.001 -64zM875.003 1362c2 12 1.5 23.332 -1.5 33.999s-7.83301 20 -14.5 28
s-15 14.333 -25 19s-21 7 -33 7s-24 -2.33301 -36 -7s-22.833 -11 -32.5 -19s-18 -17.333 -25 -28s-11.5 -22 -13.5 -34c-4 -25.333 1.16699 -46.666 15.5 -63.999s33.833 -26 58.5 -26c12 0 24 2.33301 36 7s22.833 11 32.5 19s18 17.5 25 28.5s11.5 22.833 13.5 35.5z" />
    <glyph glyph-name="ae" unicode="&#xe6;" horiz-adv-x="2011" 
d="M1073 494c-1.33301 -6.66699 -2.50098 -14.501 -3.50098 -23.501s-2.5 -19.167 -4.5 -30.5c-6 -92 21.333 -163.667 82 -215c52 -46 125.667 -69 221 -69c72 0 144.167 10 216.5 30s144.833 50 217.5 90l-39 -204c-128.667 -66 -268.667 -99 -420 -99
c-217.333 0 -355.666 77.333 -414.999 232c-120.667 -153.333 -295.667 -230 -525 -230c-106.667 0 -192.667 23.333 -258 70c-72 52 -108 126.333 -108 223c0 50.667 8 96 24 136s40 76 72 108c96.667 92.667 266 139 508 139h268c6 23.333 11 56.333 15 99
c4 112 -85.667 168 -269 168c-160.667 0 -306 -41.667 -436 -125l39 204c127.333 63.333 263.333 95 408 95c218 0 350.333 -62.333 397 -187c94 124.667 230.667 187 410 187c163.333 0 284 -44.667 362 -134c57.333 -65.334 86 -150.667 86 -255.999
c0 -12 -0.333008 -24.167 -1 -36.5c-0.666992 -12.3359 -1.66699 -25.1689 -3 -38.5c-2 -27.334 -10.333 -71.667 -25 -133h-819zM1722 679.999c3.33301 40 -0.500977 75 -11.501 105s-28.833 55.667 -53.5 77c-46.667 38.667 -111.667 58 -195 58
c-81.333 0 -155.666 -25.333 -222.999 -76c-66.667 -50 -111 -114.333 -133 -193h614v8c0 2.66699 0.166992 5.66699 0.5 9s0.833008 7.33301 1.5 12zM640.998 493.999c-174 0 -292.666 -32.333 -355.999 -97c-28 -26.667 -43 -57.334 -45 -92
c-8.66699 -99.333 50.666 -149 177.999 -149c55.333 0 107 6 155 18s92 30.333 132 55c89.333 56.667 145 136 167 238l7 27h-238z" />
    <glyph glyph-name="ccedilla" unicode="&#xe7;" horiz-adv-x="1137" 
d="M1104 778c-122 80.667 -241.667 121.001 -359 121.001c-60.667 0 -116.167 -9.66699 -166.5 -29s-94.166 -46.5 -131.499 -81.5s-67.5 -77.333 -90.5 -127s-37.5 -104.834 -43.5 -165.501c-1.33301 -8.66895 -2 -16.8359 -2 -24.501v-22.5c0 -91.333 26 -161 78 -209
s125.667 -72 221 -72c76 0 145 10.333 207 31c23.333 8 51 19.667 83 35s68.667 34.333 110 57l-43 -223c-114.667 -62 -245.334 -93 -392.001 -93c-74 0 -140.833 10.333 -200.5 31s-110.667 50.334 -153 89.001s-74.833 86 -97.5 142s-34 119 -34 189
c0 190 63 349 189 477c127.333 127.333 286.333 191 477 191c147.333 0 276.333 -39 387 -117zM422 -366.999h-252l319 265h164z" />
    <glyph glyph-name="egrave" unicode="&#xe8;" horiz-adv-x="1255" 
d="M1161 623c-2 -19.333 -5.66699 -42.333 -11 -69s-12.666 -56.334 -21.999 -89.001h-821c-1.33301 -11.333 -2.33301 -22.166 -3 -32.499s-1 -20.166 -1 -29.499c0 -66.667 20.667 -121.667 62 -165c52 -54.667 132.333 -82 241 -82c138 0 285 41 441 123l-41 -203
c-69.333 -34 -138.833 -59.667 -208.5 -77s-140.834 -26 -213.501 -26c-151.333 0 -271 37 -359 111c-91.333 77.333 -137 186.666 -137 327.999c0 12 0.333008 24.5 1 37.5s1.66699 26.167 3 39.5c18.667 173.333 85 317 199 431c116 114.667 259.333 172 430 172
c162.667 0 284 -48.667 364 -146c53.333 -62 80 -143.333 80 -244c0 -12 -0.333008 -24.667 -1 -38s-1.66699 -27 -3 -41zM963 692c0 62.667 -18.666 112.668 -55.999 150.001c-44.667 44.667 -111.334 67 -200.001 67c-42 0 -82.333 -6.5 -121 -19.5
s-75 -33.167 -109 -60.5c-66.667 -50.667 -111.667 -117.334 -135 -200.001h614c4.66699 20.667 7 41.667 7 63zM330.001 1450h260l231 -264h-166z" />
    <glyph glyph-name="eacute" unicode="&#xe9;" horiz-adv-x="1255" 
d="M1161 623c-2 -19.333 -5.66699 -42.333 -11 -69s-12.666 -56.334 -21.999 -89.001h-821c-1.33301 -11.333 -2.33301 -22.166 -3 -32.499s-1 -20.166 -1 -29.499c0 -66.667 20.667 -121.667 62 -165c52 -54.667 132.333 -82 241 -82c138 0 285 41 441 123l-41 -203
c-69.333 -34 -138.833 -59.667 -208.5 -77s-140.834 -26 -213.501 -26c-151.333 0 -271 37 -359 111c-91.333 77.333 -137 186.666 -137 327.999c0 12 0.333008 24.5 1 37.5s1.66699 26.167 3 39.5c18.667 173.333 85 317 199 431c116 114.667 259.333 172 430 172
c162.667 0 284 -48.667 364 -146c53.333 -62 80 -143.333 80 -244c0 -12 -0.333008 -24.667 -1 -38s-1.66699 -27 -3 -41zM963 692c0 62.667 -18.666 112.668 -55.999 150.001c-44.667 44.667 -111.334 67 -200.001 67c-42 0 -82.333 -6.5 -121 -19.5
s-75 -33.167 -109 -60.5c-66.667 -50.667 -111.667 -117.334 -135 -200.001h614c4.66699 20.667 7 41.667 7 63zM839.001 1184h-165l231 265h260z" />
    <glyph glyph-name="ecircumflex" unicode="&#xea;" horiz-adv-x="1255" 
d="M1161 623c-2 -19.333 -5.66699 -42.333 -11 -69s-12.666 -56.334 -21.999 -89.001h-821c-1.33301 -11.333 -2.33301 -22.166 -3 -32.499s-1 -20.166 -1 -29.499c0 -66.667 20.667 -121.667 62 -165c52 -54.667 132.333 -82 241 -82c138 0 285 41 441 123l-41 -203
c-69.333 -34 -138.833 -59.667 -208.5 -77s-140.834 -26 -213.501 -26c-151.333 0 -271 37 -359 111c-91.333 77.333 -137 186.666 -137 327.999c0 12 0.333008 24.5 1 37.5s1.66699 26.167 3 39.5c18.667 173.333 85 317 199 431c116 114.667 259.333 172 430 172
c162.667 0 284 -48.667 364 -146c53.333 -62 80 -143.333 80 -244c0 -12 -0.333008 -24.667 -1 -38s-1.66699 -27 -3 -41zM963 692c0 62.667 -18.666 112.668 -55.999 150.001c-44.667 44.667 -111.334 67 -200.001 67c-42 0 -82.333 -6.5 -121 -19.5
s-75 -33.167 -109 -60.5c-66.667 -50.667 -111.667 -117.334 -135 -200.001h614c4.66699 20.667 7 41.667 7 63zM877.001 1185l-90 133l-142 -133h-174l228 242h211l133 -242h-166z" />
    <glyph glyph-name="edieresis" unicode="&#xeb;" horiz-adv-x="1255" 
d="M1161 623c-2 -19.333 -5.66699 -42.333 -11 -69s-12.666 -56.334 -21.999 -89.001h-821c-1.33301 -11.333 -2.33301 -22.166 -3 -32.499s-1 -20.166 -1 -29.499c0 -66.667 20.667 -121.667 62 -165c52 -54.667 132.333 -82 241 -82c138 0 285 41 441 123l-41 -203
c-69.333 -34 -138.833 -59.667 -208.5 -77s-140.834 -26 -213.501 -26c-151.333 0 -271 37 -359 111c-91.333 77.333 -137 186.666 -137 327.999c0 12 0.333008 24.5 1 37.5s1.66699 26.167 3 39.5c18.667 173.333 85 317 199 431c116 114.667 259.333 172 430 172
c162.667 0 284 -48.667 364 -146c53.333 -62 80 -143.333 80 -244c0 -12 -0.333008 -24.667 -1 -38s-1.66699 -27 -3 -41zM963 692c0 62.667 -18.666 112.668 -55.999 150.001c-44.667 44.667 -111.334 67 -200.001 67c-42 0 -82.333 -6.5 -121 -19.5
s-75 -33.167 -109 -60.5c-66.667 -50.667 -111.667 -117.334 -135 -200.001h614c4.66699 20.667 7 41.667 7 63zM1083 1193h-206l38 201h209zM676.001 1193h-209l41 201h207z" />
    <glyph glyph-name="igrave" unicode="&#xec;" horiz-adv-x="514" 
d="M260 0h-217l209 1067h217zM-32 1450h260l231 -264h-166z" />
    <glyph glyph-name="iacute" unicode="&#xed;" horiz-adv-x="514" 
d="M260 0h-217l209 1067h217zM452 1184h-165l231 265h260z" />
    <glyph glyph-name="icircumflex" unicode="&#xee;" horiz-adv-x="514" 
d="M260 0h-217l209 1067h217zM502 1185l-90 133l-142 -133h-174l228 242h211l133 -242h-166z" />
    <glyph glyph-name="idieresis" unicode="&#xef;" horiz-adv-x="514" 
d="M260 0h-217l209 1067h217zM689 1193h-206l38 201h209zM282 1193h-209l41 201h207z" />
    <glyph glyph-name="eth" unicode="&#xf0;" horiz-adv-x="1401" 
d="M1044 1339c164 -144.667 246.002 -329.667 246.002 -555c0 -235.333 -58.667 -425.666 -176 -570.999c-128.667 -157.333 -307.334 -236 -536.001 -236c-142.667 0 -263 39 -361 117c-105.333 85.333 -158 196.666 -158 333.999c0 180 70.333 328 211 444
c133.333 109.333 291.666 164 474.999 164c72.667 0 135.5 -10.667 188.5 -32s97.5 -53 133.5 -95h4c-8 64.001 -37.333 129.668 -88 197c-22.667 32 -46.667 60.833 -72 86.5c-25.3369 25.667 -52.6699 48.167 -82 67.5l-297 -111l-81 86l251 96
c-65.333 31.333 -142.333 58 -231 80l195 121c51.333 -13.333 99.833 -29.5 145.5 -48.5s88.5 -41.167 128.5 -66.5l309 115l105 -78zM1024 547c10 92.667 -14.668 168.333 -74.001 226.999c-56.667 54.667 -131 82 -223 82c-109.334 0 -205.667 -35.333 -289 -106
c-42 -36 -75 -76.5 -99 -121.5s-38.667 -94.833 -44 -149.5c-4 -45.333 0.166992 -86.666 12.5 -123.999s33.5 -71 63.5 -101c58.667 -58.667 134.334 -88 227.001 -88c105.333 0 200.333 36.667 285 110c84 76 131 166.333 141 271z" />
    <glyph glyph-name="ntilde" unicode="&#xf1;" 
d="M1022 0l-216.999 0.000976562l113 590c5.33301 23.333 9 44.833 11 64.5s3 37.167 3 52.5c0 62.667 -17.333 110.667 -52 144s-90.334 50 -167.001 50c-44.667 0 -86 -7.83301 -124 -23.5s-72 -37.167 -102 -64.5s-55 -60 -75 -98s-34.333 -79.667 -43 -125l-113 -590
h-217l205 1067h217l-21 -106c79.333 87.333 185.333 131 318 131c130.667 0 231 -35 301 -105c62.667 -60.667 94 -145.334 94 -254.001c0 -36.667 -4 -75.667 -12 -117zM1071 1273c-58.667 -38 -115.998 -57 -171.998 -57c-45.333 0 -97.333 15.667 -156 47
c-57.333 31.333 -102.333 47 -135 47c-54.667 0 -117.334 -29.333 -188.001 -88l32 162c62.667 43.333 120.667 65 174 65c44 0 95.333 -16.333 154 -49c59.333 -31.333 105.666 -47 138.999 -47c48.668 0 109.668 27.333 183 82z" />
    <glyph glyph-name="ograve" unicode="&#xf2;" horiz-adv-x="1333" 
d="M1235 514c-16.6709 -85.333 -43.8359 -161.5 -81.498 -228.5c-37.667 -67 -84.5 -123.5 -140.5 -169.5s-120.667 -81 -194 -105c-73.334 -24 -153.667 -36 -241 -36c-76 0 -144.333 10.667 -205 32s-112.334 51.5 -155.001 90.5s-75.334 86.167 -98.001 141.5
s-34 117 -34 185c0 42 4 84.333 12 127c16.667 84.667 44 160.5 82 227.5s85 123.667 141 170s120.333 81.833 193 106.5s152 37 238 37c152.667 0 272.667 -41.667 360 -125c90 -84 135 -194 135 -330c0 -38.667 -4 -79.667 -12 -123zM1018 532
c3.33301 17.333 5.83398 34.666 7.50098 51.999s2.5 33.666 2.5 48.999c0 177.333 -98.333 266 -295 266c-56.667 0 -108.334 -8.5 -155.001 -25.5s-87.667 -41.167 -123 -72.5c-35.333 -31.335 -64.833 -69.668 -88.5 -115c-23.667 -45.334 -40.834 -96.667 -51.5 -154
c-3.33301 -17.333 -5.83301 -34.166 -7.5 -50.499s-2.5 -32.166 -2.5 -47.499c0 -178.667 97.667 -268 293 -268c232.667 0 372.667 122 420 366zM373.003 1450h260l231 -264h-166z" />
    <glyph glyph-name="oacute" unicode="&#xf3;" horiz-adv-x="1333" 
d="M1235 514c-16.6709 -85.333 -43.8359 -161.5 -81.498 -228.5c-37.667 -67 -84.5 -123.5 -140.5 -169.5s-120.667 -81 -194 -105c-73.334 -24 -153.667 -36 -241 -36c-76 0 -144.333 10.667 -205 32s-112.334 51.5 -155.001 90.5s-75.334 86.167 -98.001 141.5
s-34 117 -34 185c0 42 4 84.333 12 127c16.667 84.667 44 160.5 82 227.5s85 123.667 141 170s120.333 81.833 193 106.5s152 37 238 37c152.667 0 272.667 -41.667 360 -125c90 -84 135 -194 135 -330c0 -38.667 -4 -79.667 -12 -123zM1018 532
c3.33301 17.333 5.83398 34.666 7.50098 51.999s2.5 33.666 2.5 48.999c0 177.333 -98.333 266 -295 266c-56.667 0 -108.334 -8.5 -155.001 -25.5s-87.667 -41.167 -123 -72.5c-35.333 -31.335 -64.833 -69.668 -88.5 -115c-23.667 -45.334 -40.834 -96.667 -51.5 -154
c-3.33301 -17.333 -5.83301 -34.166 -7.5 -50.499s-2.5 -32.166 -2.5 -47.499c0 -178.667 97.667 -268 293 -268c232.667 0 372.667 122 420 366zM880.003 1184h-165l231 265h260z" />
    <glyph glyph-name="ocircumflex" unicode="&#xf4;" horiz-adv-x="1333" 
d="M1235 514c-16.6709 -85.333 -43.8359 -161.5 -81.498 -228.5c-37.667 -67 -84.5 -123.5 -140.5 -169.5s-120.667 -81 -194 -105c-73.334 -24 -153.667 -36 -241 -36c-76 0 -144.333 10.667 -205 32s-112.334 51.5 -155.001 90.5s-75.334 86.167 -98.001 141.5
s-34 117 -34 185c0 42 4 84.333 12 127c16.667 84.667 44 160.5 82 227.5s85 123.667 141 170s120.333 81.833 193 106.5s152 37 238 37c152.667 0 272.667 -41.667 360 -125c90 -84 135 -194 135 -330c0 -38.667 -4 -79.667 -12 -123zM1018 532
c3.33301 17.333 5.83398 34.666 7.50098 51.999s2.5 33.666 2.5 48.999c0 177.333 -98.333 266 -295 266c-56.667 0 -108.334 -8.5 -155.001 -25.5s-87.667 -41.167 -123 -72.5c-35.333 -31.335 -64.833 -69.668 -88.5 -115c-23.667 -45.334 -40.834 -96.667 -51.5 -154
c-3.33301 -17.333 -5.83301 -34.166 -7.5 -50.499s-2.5 -32.166 -2.5 -47.499c0 -178.667 97.667 -268 293 -268c232.667 0 372.667 122 420 366zM920.003 1185l-90 133l-142 -133h-174l228 242h211l133 -242h-166z" />
    <glyph glyph-name="otilde" unicode="&#xf5;" horiz-adv-x="1333" 
d="M1235 514c-16.6709 -85.333 -43.8359 -161.5 -81.498 -228.5c-37.667 -67 -84.5 -123.5 -140.5 -169.5s-120.667 -81 -194 -105c-73.334 -24 -153.667 -36 -241 -36c-76 0 -144.333 10.667 -205 32s-112.334 51.5 -155.001 90.5s-75.334 86.167 -98.001 141.5
s-34 117 -34 185c0 42 4 84.333 12 127c16.667 84.667 44 160.5 82 227.5s85 123.667 141 170s120.333 81.833 193 106.5s152 37 238 37c152.667 0 272.667 -41.667 360 -125c90 -84 135 -194 135 -330c0 -38.667 -4 -79.667 -12 -123zM1018 532
c3.33301 17.333 5.83398 34.666 7.50098 51.999s2.5 33.666 2.5 48.999c0 177.333 -98.333 266 -295 266c-56.667 0 -108.334 -8.5 -155.001 -25.5s-87.667 -41.167 -123 -72.5c-35.333 -31.335 -64.833 -69.668 -88.5 -115c-23.667 -45.334 -40.834 -96.667 -51.5 -154
c-3.33301 -17.333 -5.83301 -34.166 -7.5 -50.499s-2.5 -32.166 -2.5 -47.499c0 -178.667 97.667 -268 293 -268c232.667 0 372.667 122 420 366zM1151 1264c-58.667 -38 -115.998 -57 -171.998 -57c-45.333 0 -97.333 15.667 -156 47c-57.333 31.333 -102.333 47 -135 47
c-54.667 0 -117.334 -29.333 -188.001 -88l32 162c62.667 43.333 120.667 65 174 65c44 0 95.333 -16.333 154 -49c59.333 -31.333 105.666 -47 138.999 -47c48.667 0 109.667 27.333 183 82z" />
    <glyph glyph-name="odieresis" unicode="&#xf6;" horiz-adv-x="1333" 
d="M1235 514c-16.6709 -85.333 -43.8359 -161.5 -81.498 -228.5c-37.667 -67 -84.5 -123.5 -140.5 -169.5s-120.667 -81 -194 -105c-73.334 -24 -153.667 -36 -241 -36c-76 0 -144.333 10.667 -205 32s-112.334 51.5 -155.001 90.5s-75.334 86.167 -98.001 141.5
s-34 117 -34 185c0 42 4 84.333 12 127c16.667 84.667 44 160.5 82 227.5s85 123.667 141 170s120.333 81.833 193 106.5s152 37 238 37c152.667 0 272.667 -41.667 360 -125c90 -84 135 -194 135 -330c0 -38.667 -4 -79.667 -12 -123zM1018 532
c3.33301 17.333 5.83398 34.666 7.50098 51.999s2.5 33.666 2.5 48.999c0 177.333 -98.333 266 -295 266c-56.667 0 -108.334 -8.5 -155.001 -25.5s-87.667 -41.167 -123 -72.5c-35.333 -31.335 -64.833 -69.668 -88.5 -115c-23.667 -45.334 -40.834 -96.667 -51.5 -154
c-3.33301 -17.333 -5.83301 -34.166 -7.5 -50.499s-2.5 -32.166 -2.5 -47.499c0 -178.667 97.667 -268 293 -268c232.667 0 372.667 122 420 366zM1132 1193h-206l38 201h209zM725.003 1193h-209l41 201h207z" />
    <glyph glyph-name="divide" unicode="&#xf7;" horiz-adv-x="1167" 
d="M764 881h-219l41 219h219zM1075 494h-995l35 176h995zM604 63h-219l43 220h219z" />
    <glyph glyph-name="oslash" unicode="&#xf8;" horiz-adv-x="1333" 
d="M1176 891c47.333 -74.667 70.999 -160 70.999 -256c0 -37.334 -4 -77.667 -12 -121c-16.6709 -85.333 -43.8379 -161.5 -81.5 -228.5c-37.667 -67 -84.5 -123.5 -140.5 -169.5s-120.667 -81 -194 -105c-73.334 -24 -153.667 -36 -241 -36
c-69.333 0 -131.666 8.66699 -186.999 26s-105 43 -149 77l-90 -78h-199l201 174c-22.667 36 -39.667 74.667 -51 116s-17 86 -17 134c0 42 4 84.333 12 127c16.667 84.667 44 160.5 82 227.5s85 123.667 141 170s120.333 81.833 193 106.5s152 37 238 37
c136.667 0 249.334 -35 338 -105l90 80h196zM732.999 899c-56.667 0 -108.332 -8.5 -154.999 -25.5s-87.667 -41.167 -123 -72.5c-35.333 -31.335 -64.833 -69.668 -88.5 -115c-23.667 -45.334 -40.834 -96.667 -51.5 -154c-8 -42 -11.333 -80.333 -10 -115
c1.33594 -34.667 7.66895 -66.334 19 -95l606 528c-46.667 32.667 -112.334 49 -197.001 49zM1018 532c16 87.333 13.332 159.333 -8.00098 216l-609 -531c46.667 -34 112.334 -51 197.001 -51c232.667 0 372.667 122 420 366z" />
    <glyph glyph-name="ugrave" unicode="&#xf9;" 
d="M1022 0h-217l20 106c-79.333 -87.333 -185 -131 -317 -131c-129.333 0 -229 35 -299 105c-62.667 62 -94 146.667 -94 254c0 39.333 4 78.333 12 117l117 616h219l-115 -590c-4 -21.333 -7 -41.5 -9 -60.5s-3 -36.167 -3 -51.5c0 -64.667 16.833 -114 50.5 -148
s89.167 -51 166.5 -51c44.667 0 86 7.83301 124 23.5s71.833 37.167 101.5 64.5c29.667 27.334 54.667 60.167 75 98.5s34.833 79.833 43.5 124.5l113 590h217zM363 1450h260l231 -264h-166z" />
    <glyph glyph-name="uacute" unicode="&#xfa;" 
d="M1022 0h-217l20 106c-79.333 -87.333 -185 -131 -317 -131c-129.333 0 -229 35 -299 105c-62.667 62 -94 146.667 -94 254c0 39.333 4 78.333 12 117l117 616h219l-115 -590c-4 -21.333 -7 -41.5 -9 -60.5s-3 -36.167 -3 -51.5c0 -64.667 16.833 -114 50.5 -148
s89.167 -51 166.5 -51c44.667 0 86 7.83301 124 23.5s71.833 37.167 101.5 64.5c29.667 27.334 54.667 60.167 75 98.5s34.833 79.833 43.5 124.5l113 590h217zM817 1184h-165l231 265h260z" />
    <glyph glyph-name="ucircumflex" unicode="&#xfb;" 
d="M1022 0h-217l20 106c-79.333 -87.333 -185 -131 -317 -131c-129.333 0 -229 35 -299 105c-62.667 62 -94 146.667 -94 254c0 39.333 4 78.333 12 117l117 616h219l-115 -590c-4 -21.333 -7 -41.5 -9 -60.5s-3 -36.167 -3 -51.5c0 -64.667 16.833 -114 50.5 -148
s89.167 -51 166.5 -51c44.667 0 86 7.83301 124 23.5s71.833 37.167 101.5 64.5c29.667 27.334 54.667 60.167 75 98.5s34.833 79.833 43.5 124.5l113 590h217zM889 1185l-90 133l-142 -133h-174l228 242h211l133 -242h-166z" />
    <glyph glyph-name="udieresis" unicode="&#xfc;" 
d="M1022 0h-217l20 106c-79.333 -87.333 -185 -131 -317 -131c-129.333 0 -229 35 -299 105c-62.667 62 -94 146.667 -94 254c0 39.333 4 78.333 12 117l117 616h219l-115 -590c-4 -21.333 -7 -41.5 -9 -60.5s-3 -36.167 -3 -51.5c0 -64.667 16.833 -114 50.5 -148
s89.167 -51 166.5 -51c44.667 0 86 7.83301 124 23.5s71.833 37.167 101.5 64.5c29.667 27.334 54.667 60.167 75 98.5s34.833 79.833 43.5 124.5l113 590h217zM1077 1193h-206l38 201h209zM670 1193h-209l41 201h207z" />
    <glyph glyph-name="yacute" unicode="&#xfd;" horiz-adv-x="1210" 
d="M492 -180c-60.667 -94.667 -118.999 -161.667 -174.999 -201c-68.667 -46.667 -155.334 -70 -260.001 -70c-12 0 -24.167 0.5 -36.5 1.5s-24.5 2.16699 -36.5 3.5l36 192h74c78 0 144.333 43.667 199 131l100 160l-266 1030h227l189 -795l499 795h240zM749.001 1186h-165
l231 265h260z" />
    <glyph glyph-name="thorn" unicode="&#xfe;" horiz-adv-x="1352" 
d="M1253 535c-32 -167.333 -105 -301.333 -219 -402c-60 -52 -125.5 -91.333 -196.5 -118s-148.167 -40 -231.5 -40c-154 0 -261.667 53.333 -323 160l-109 -563h-217l373 1923h217l-109 -565c105.333 108 233.666 162 384.999 162c156 0 273.667 -46 353 -138
c61.333 -71.333 92 -164 92 -278c0 -22.667 -1.16699 -45.667 -3.5 -69s-6.16602 -47.333 -11.499 -72zM1036 535c3.33301 19.333 5.99902 37.667 7.99902 55s3 34.333 3 51c0 172 -93 258 -279 258c-104.667 0 -194.667 -34.667 -270 -104
c-70 -68 -115.333 -154.667 -136 -260c-3.33301 -17.335 -5.83301 -34.002 -7.5 -50c-1.66699 -16 -2.5 -31.667 -2.5 -47c0 -42.667 6.33301 -80.834 19 -114.5c12.667 -33.667 30.834 -62.167 54.501 -85.5c23.667 -23.334 52.5 -41.167 86.5 -53.5
s72.333 -18.5 115 -18.5c226 0 362.333 123 409 369z" />
    <glyph glyph-name="ydieresis" unicode="&#xff;" horiz-adv-x="1210" 
d="M492 -180c-60.667 -94.667 -118.999 -161.667 -174.999 -201c-68.667 -46.667 -155.334 -70 -260.001 -70c-12 0 -24.167 0.5 -36.5 1.5s-24.5 2.16699 -36.5 3.5l36 192h74c78 0 144.333 43.667 199 131l100 160l-266 1030h227l189 -795l499 795h240zM1022 1193h-206
l38 201h209zM615.001 1193h-209l41 201h207z" />
    <glyph glyph-name=".null" horiz-adv-x="0" 
 />
    <glyph glyph-name="nonmarkingreturn" horiz-adv-x="532" 
 />
    <glyph glyph-name="currency" unicode="&#xa4;" horiz-adv-x="1509" 
d="M1217 1040c33.333 -47.333 58.499 -97.833 75.499 -151.5s25.833 -108 26.5 -163s-7.16602 -109.167 -23.499 -162.5s-41.166 -103.666 -74.499 -150.999l139 -140l-141 -141l-142 139c-46.667 -32 -96.834 -55.667 -150.501 -71
c-53.667 -15.334 -107.834 -22.667 -162.501 -22s-108.667 9.33398 -162 26c-53.333 16.667 -103.666 41 -150.999 73l-150 -149l-141 141l149 152c-32.667 47.333 -57.5 97.5 -74.5 150.5s-25.667 106.833 -26 161.5s7.33398 108.667 23 162
c15.667 53.333 39.5 103.333 71.5 150l-151 152l143 143l149 -151c47.334 33.3379 97.834 58.1709 151.5 74.5c53.667 16.3525 108 24.1855 163 23.499c55 -0.666992 109.333 -9.5 163 -26.5c53.668 -17 104.168 -42.167 151.5 -75.5l152 151l143 -143zM1012 481
c34.667 34 60.667 72.6689 78 116.002s26 87.666 26 132.999s-8.66699 89.666 -26 132.999s-43.333 82 -78 116c-34.667 34.0039 -73.667 59.6709 -117 77c-43.333 17.333 -87.5 26 -132.5 26s-89.167 -8.66699 -132.5 -26s-82 -43 -116 -77s-59.667 -72.667 -77 -116
c-17.333 -43.334 -26 -87.667 -26 -133c0 -45.335 8.66699 -89.668 26 -133c17.333 -43.333 43 -82 77 -116s72.667 -59.667 116 -77s87.5 -26 132.5 -26s89.167 8.66699 132.5 26s82.333 43 117 77z" />
    <glyph glyph-name="brokenbar" unicode="&#xa6;" horiz-adv-x="455" 
d="M328 616h-201l149 766h201zM137 -358h-200l149 766h201z" />
    <glyph glyph-name="dieresis" unicode="&#xa8;" horiz-adv-x="549" 
d="M741 1407h-206l38 201h209zM334 1407h-209l41 201h207z" />
    <glyph glyph-name="uni00AD" horiz-adv-x="915" 
d="M838 494h-775l35 176h774z" />
    <glyph glyph-name="acute" unicode="&#xb4;" horiz-adv-x="334" 
d="M401 1425h-165l231 265h260z" />
    <glyph glyph-name="cedilla" unicode="&#xb8;" horiz-adv-x="369" 
d="M-12 -367h-252l319 265h164z" />
    <glyph glyph-name="onequarter" unicode="&#xbc;" horiz-adv-x="1821" 
d="M494 610h-146l141 729l-118 -63l26 143l150 76h119zM293 -25h-162l1266 1545h162zM1530 173h-137l-33 -172h-139l33 172h-469l18 103l604 610h125l-113 -586h136zM985 300h293l72 365z" />
    <glyph glyph-name="onehalf" unicode="&#xbd;" horiz-adv-x="1901" 
d="M494 610h-146l141 729l-118 -63l26 143l150 76h119zM293 -25h-162l1266 1545h162zM1716 696c0 -78 -38.334 -149.666 -115.001 -214.999c-5.33301 -4.66797 -27.666 -20.335 -66.999 -47.001c-39.333 -26.667 -96 -65 -170 -115
c-98 -67.333 -162.333 -131.666 -193 -192.999h432l-24 -125h-588c16.667 83.333 48.834 159.666 96.501 228.999s111.167 131 190.5 185c21.3359 13.333 43.1689 27 65.5 41c22.3359 14 44.1689 27.667 65.5 41c28 18.667 52.167 35.667 72.5 51s37 30 50 44
s22.667 27.833 29 41.5s9.5 27.5 9.5 41.5c0 65.333 -46.333 98 -139 98c-42 0 -88.333 -9.5 -139 -28.5c-50.668 -19 -105.335 -48.167 -164.001 -87.5l29 145c100 64 201 96 303 96c67.333 0 125.333 -16.333 174 -49c54.667 -38.667 82 -89.667 82 -153z" />
    <glyph glyph-name="threequarters" unicode="&#xbe;" horiz-adv-x="1821" 
d="M965 1266c-14.667 -79.333 -57.665 -137.998 -128.998 -175.998c62.667 -32.667 94 -85.334 94 -158.001c0 -17.333 -2 -35 -6 -53c-9.33691 -48.667 -27.1699 -90.834 -53.5 -126.501c-26.333 -35.667 -60.5 -65.834 -102.5 -90.501c-36 -22 -74 -38.167 -114 -48.5
s-82.667 -15.5 -128 -15.5c-100.667 0 -184.667 26 -252 78l31 149c72.667 -65.333 154.667 -98 246 -98c62 0 114.667 13.667 158 41c50 32.667 75 77.667 75 135c0 82 -58 123 -174 123h-129l25 125h127c24 0 46.667 2.83301 68 8.5s40.5 13.834 57.5 24.501
s31.167 23.167 42.5 37.5s18.666 29.833 21.999 46.5c7.33301 36 -2.33398 64 -29.001 84s-64.667 30 -114 30c-41.333 0 -83.833 -6.66699 -127.5 -20s-89.167 -34 -136.5 -62l28 142c83.333 44.667 170.333 67 261 67c64 0 121.333 -13.667 172 -41
c61.333 -34 92 -85 92 -153c0 -8.66699 -0.333008 -17 -1 -25s-1.66699 -16 -3 -24zM614.002 -24.998h-162l1266 1545h162zM1855 173.002h-137l-33 -172h-139l33 172h-469l18 103l604 610h125l-113 -586h136zM1310 300.002h293l72 365z" />
    <glyph glyph-name="dotlessi" unicode="&#x131;" horiz-adv-x="514" 
d="M260 0h-217l209 1067h217z" />
    <glyph glyph-name="Lslash" unicode="&#x141;" horiz-adv-x="1212" 
d="M1059 0h-1008l111 567l-185 -133l39 199l183 135l143 727h221l-106 -547l258 193l-39 -201l-258 -190l-109 -551h787z" />
    <glyph glyph-name="lslash" unicode="&#x142;" horiz-adv-x="496" 
d="M559 903l-151 -100l-156 -803h-219l127 647l-150 -100l33 168l150 98l131 682h219l-103 -526l152 102z" />
    <glyph glyph-name="florin" unicode="&#x192;" horiz-adv-x="764" 
d="M1047 1350c-38.667 24 -79.6689 36 -123.002 36c-30 0 -58.333 -5 -85 -15s-50.667 -24 -72 -42s-40.333 -39.5 -57 -64.5s-30 -52.5 -40 -82.5l-88 -260h233l-63 -185h-232l-278 -813c-36.667 -107.333 -94.667 -192 -174 -254c-85.333 -64 -182.333 -96 -291 -96
c-52 0 -110 14.333 -174 43l65 186c19.333 -11.333 39 -19.833 59 -25.5s40.667 -8.5 62 -8.5c122.667 0 207.334 68 254.001 204l262 764h-215l62 185h217l110 319c18.001 51.333 41.334 97.833 70 139.5c28.668 41.667 61.835 77.167 99.501 106.5
c37.667 29.333 79.5 52 125.5 68s95.333 24 148 24c62.667 0 126 -14.333 190 -43z" />
    <glyph glyph-name="circumflex" unicode="&#x2c6;" horiz-adv-x="410" 
d="M463 1237l-90 133l-142 -133h-174l228 242h211l133 -242h-166z" />
    <glyph glyph-name="caron" unicode="&#x2c7;" horiz-adv-x="410" 
d="M453 1235h-213l-134 242h168l91 -134l143 134h174z" />
    <glyph glyph-name="breve" unicode="&#x2d8;" horiz-adv-x="410" 
d="M635.5 1352c-23 -32.667 -50.501 -60.667 -82.501 -84c-59.333 -41.333 -125.666 -62 -198.999 -62c-76.667 0 -140.667 20.667 -192 62c-30 23.3438 -51.5 51.6768 -64.5 85c-13 33.333 -19.5 71 -19.5 113h102c17.333 -88.667 78 -133 182 -133
c102 0 176.667 44.333 224 133h104c-13.333 -43.333 -31.5 -81.333 -54.5 -114z" />
    <glyph glyph-name="dotaccent" unicode="&#x2d9;" horiz-adv-x="410" 
d="M436 1225h-196l41 213h196z" />
    <glyph glyph-name="ring" unicode="&#x2da;" horiz-adv-x="410" 
d="M334 1165c-22.667 0 -43.335 3.83301 -62.001 11.5c-18.667 7.66699 -34.834 18.5 -48.501 32.5s-24.334 30.333 -32.001 49s-11.5 39 -11.5 61c0 54 22 103 66 147s93.667 66 149 66c22.667 0 43.334 -3.83301 62.001 -11.5s34.834 -18.5 48.501 -32.5
c13.6709 -14 24.3379 -30.333 32.001 -49c7.66699 -18.667 11.5 -39 11.5 -61c0 -55.333 -22 -105 -66 -149c-42.667 -42.667 -92.334 -64 -149 -64zM454.999 1350c2 12 1.5 23.332 -1.5 33.999s-7.83301 20 -14.5 28s-15 14.333 -25 19s-21 7 -33 7s-24 -2.33301 -36 -7
s-22.833 -11 -32.5 -19s-18 -17.333 -25 -28s-11.5 -22 -13.5 -34c-4 -25.333 1.16699 -46.666 15.5 -63.999s33.833 -26 58.5 -26c12 0 24 2.33301 36 7s22.833 11 32.5 19s18 17.5 25 28.5s11.5 22.833 13.5 35.5z" />
    <glyph glyph-name="ogonek" unicode="&#x2db;" horiz-adv-x="410" 
d="M41 -238c0 -35.333 15.667 -53 47 -53c9.33301 0 19.5 0.5 30.5 1.5s22.167 3.16699 33.5 6.5l-21 -98c-26.667 -11.333 -51.667 -20 -75 -26s-44.666 -9 -63.999 -9c-36 0 -65.833 11.167 -89.5 33.5s-35.5 51.5 -35.5 87.5c0 49.333 18.333 96.333 55 141l55.5 55.5
c18.333 18.333 36.166 36.833 53.499 55.5h131c-80.667 -94.667 -121 -159.667 -121 -195z" />
    <glyph glyph-name="tilde" unicode="&#x2dc;" horiz-adv-x="410" 
d="M676 1288c-58.667 -38 -115.999 -57 -171.999 -57c-45.333 0 -97.333 15.667 -156 47c-57.333 31.333 -102.333 47 -135 47c-54.667 0 -117.334 -29.333 -188.001 -88l32 162c62.667 43.333 120.667 65 174 65c44 0 95.333 -16.333 154 -49
c59.334 -31.333 105.667 -47 139 -47c48.667 0 109.667 27.333 183 82z" />
    <glyph glyph-name="hungarumlaut" unicode="&#x2dd;" horiz-adv-x="410" 
d="M512 1235h-156l199 244h197zM193 1235h-156l199 244h196z" />
    <glyph glyph-name="uni03A9" unicode="&#x2126;" horiz-adv-x="1565" 
d="M1487 178l-0.000976562 -178h-600v178c118.667 64 210.834 151.333 276.501 262s98.5 233.667 98.5 369c0 160 -44.167 288.333 -132.5 385s-204.166 145 -347.499 145c-144.667 0 -261 -48.333 -349 -145s-132 -225 -132 -385c0 -135.333 33.167 -258.333 99.5 -369
c66.334 -110.667 158.834 -198 277.5 -262v-178h-600v178h319c-104.667 92.667 -181.334 188.5 -230.001 287.5s-73 210.167 -73 333.5c0 211.333 63.833 382.833 191.5 514.5s293.167 197.5 496.5 197.5c202 0 367.167 -65.5 495.5 -196.5s192.5 -299.5 192.5 -505.5
c0 -130 -23.833 -244.167 -71.5 -342.5c-47.6689 -98.333 -124.836 -194.5 -231.5 -288.5h320z" />
    <glyph glyph-name="pi" unicode="&#x3c0;" horiz-adv-x="1206" 
d="M1159 913l-181.998 -0.000976562l-105 -487c-10.667 -49.333 -18.334 -89.333 -23.001 -120s-7 -53.334 -7 -68.001c0 -38.667 7.83301 -66.167 23.5 -82.5s41.834 -24.5 78.5 -24.5c11.333 0 24.833 0.666992 40.5 2s35.5 4 59.5 8l-30 -141
c-20.667 -5.33301 -39.834 -9.33301 -57.501 -12s-35.5 -4 -53.5 -4c-79.333 0 -139 17 -179 51s-60 84.333 -60 151c0 30 3.33301 69.333 10 118s21.667 126.334 45 233.001l80 376h-326l-194 -913h-181l195 913h-41c-35.333 0 -63.333 -10.5 -84 -31.5
s-33.667 -54.833 -39 -101.5h-160c19.333 110.668 52.5 186.835 99.5 228.501c47 41.667 125.833 62.5 236.5 62.5h889z" />
    <glyph glyph-name="endash" unicode="&#x2013;" horiz-adv-x="1024" 
d="M1016 494h-1024l35 176h1024z" />
    <glyph glyph-name="emdash" unicode="&#x2014;" horiz-adv-x="2048" 
d="M2042 494h-2048l33 176h2048z" />
    <glyph glyph-name="quoteleft" unicode="&#x2018;" horiz-adv-x="514" 
d="M389 1020h-237l301 500h202z" />
    <glyph glyph-name="quoteright" unicode="&#x2019;" horiz-adv-x="528" 
d="M369 1020h-217l278 500h227z" />
    <glyph glyph-name="quotesinglbase" unicode="&#x201a;" horiz-adv-x="532" 
d="M90 -276h-203l265 499h239z" />
    <glyph glyph-name="quotedblleft" unicode="&#x201c;" horiz-adv-x="983" 
d="M809 1020h-238l301 500h205zM379 1020h-238l301 500h203z" />
    <glyph glyph-name="quotedblright" unicode="&#x201d;" horiz-adv-x="983" 
d="M776 1020h-205l267 500h239zM344 1020h-205l267 500h239z" />
    <glyph glyph-name="quotedblbase" unicode="&#x201e;" horiz-adv-x="975" 
d="M526 -279h-202l266 500h237zM96 -279h-202l264 500h239z" />
    <glyph glyph-name="dagger" unicode="&#x2020;" horiz-adv-x="1065" 
d="M1055 881h-363l-219 -1125h-217l219 1125h-360l37 188h360l80 424h217l-80 -424h363z" />
    <glyph glyph-name="daggerdbl" unicode="&#x2021;" horiz-adv-x="1167" 
d="M1196 893h-444l-97 -496h445l-37 -182h-445l-86 -444h-196l86 444h-445l37 182h445l96 496h-444l36 182h445l84 445h196l-84 -445h445z" />
    <glyph glyph-name="bullet" unicode="&#x2022;" horiz-adv-x="860" 
d="M676 784c0 -68 -24.668 -126.667 -74.001 -176c-47.333 -47.333 -105.333 -71 -174 -71c-68 0 -126.667 23.667 -176 71c-48 50 -72 108.667 -72 176c0 68.667 24 127.667 72 177c48.667 48.667 107.334 73 176.001 73c69.333 0 127.333 -24.333 174 -73
c49.333 -48 74 -107 74 -177z" />
    <glyph glyph-name="ellipsis" unicode="&#x2026;" horiz-adv-x="1970" 
d="M1726 0h-227l45 223h228zM995 0h-227l45 223h227zM264 0h-229l45 223h227z" />
    <glyph glyph-name="perthousand" unicode="&#x2030;" horiz-adv-x="2730" 
d="M2486 352c-16 -99.333 -50 -182.667 -102 -250c-67.333 -87.333 -160.333 -131 -279 -131c-176 0 -264 95 -264 285c0 16.667 0.5 33.167 1.5 49.5c1 16.334 3.16699 33.167 6.5 50.5c8.66699 50.667 21.167 96.5 37.5 137.5s37.5 77.833 63.5 110.5
c67.333 90 160 135 278 135c177.333 0 266 -96 266 -288c0 -16.667 -0.5 -33.167 -1.5 -49.5s-3.16699 -32.833 -6.5 -49.5zM2298 353.999c8 41.334 12 75.667 12 103c0 80.667 -33.333 121 -100 121c-88 0 -146 -74.667 -174 -224c-4 -20.667 -7.16699 -39.5 -9.5 -56.5
s-3.5 -32.167 -3.5 -45.5c0 -80.667 33.667 -121 101 -121c87.333 0 145.333 74.333 174 223zM1726 351.999c-16 -99.333 -50 -182.667 -102 -250c-34 -44 -74.167 -76.833 -120.5 -98.5s-98.833 -32.5 -157.5 -32.5c-176.667 0 -265 95 -265 285
c0 16.667 0.666992 33.167 2 49.5c1.36621 16.334 3.69922 33.167 6.99902 50.5c16 100.667 49.333 183.334 100 248.001c34 45.333 74.167 79.166 120.5 101.499s98.833 33.5 157.5 33.5c178 0 267 -96 267 -288c0 -16.667 -0.666992 -33.167 -2 -49.5
s-3.66602 -32.833 -6.99902 -49.5zM1538 353.998c8 41.334 12 75.667 12 103c0 80.667 -33.333 121 -100 121c-87.333 0 -145.333 -74.667 -174 -224c-8 -40.667 -12 -74.667 -12 -102c0 -80.667 33.333 -121 100 -121c87.333 0 145.333 74.333 174 223zM520 -25.002h-211
l1176 1545h211zM924 1133c-16.667 -99.333 -51.665 -182.667 -104.998 -250c-34.667 -44 -75.334 -76.833 -122.001 -98.5s-99.334 -32.5 -158.001 -32.5c-173.333 0 -260 93.333 -260 280c0 17.333 0.5 34.833 1.5 52.5s3.16699 35.167 6.5 52.5
c16 100 49.333 182.333 100 247c68 90.667 161 136 279 136c177.333 0 266 -96.333 266 -289c0 -16.667 -0.5 -33.167 -1.5 -49.5s-3.16699 -32.5 -6.5 -48.5zM735.002 1135c4 20.667 7.16699 39.5 9.5 56.5s3.5 32.167 3.5 45.5c0 80.667 -33.667 121 -101 121
c-87.333 0 -145.333 -74.333 -174 -223c-8 -40.667 -12 -75 -12 -103c0 -80.667 33.333 -121 100 -121c88 0 146 74.667 174 224z" />
    <glyph glyph-name="guilsinglleft" unicode="&#x2039;" horiz-adv-x="647" 
d="M319 571l162 -387h-213l-168 400l310 387h229z" />
    <glyph glyph-name="guilsinglright" unicode="&#x203a;" horiz-adv-x="647" 
d="M254 184h-227l319 400l-164 387h213l170 -400z" />
    <glyph glyph-name="fraction" unicode="&#x2044;" horiz-adv-x="180" 
d="M-365 -25h-217l1209 1545h217z" />
    <glyph glyph-name="foursuperior" unicode="&#x2074;" horiz-adv-x="1083" 
d="M942 782h-137l-33 -172h-139l33 172h-469l18 103l604 610h125l-113 -586h136zM397 909h293l72 365z" />
    <glyph glyph-name="trademark" unicode="&#x2122;" horiz-adv-x="1886" 
d="M1767 713h-141l113 575l-371 -575h-98l-148 575l-110 -575h-140l164 843h156l160 -643l415 643h164zM915 1434h-264l-139 -721h-141l139 721h-260l22 122h666z" />
    <glyph glyph-name="partialdiff" unicode="&#x2202;" horiz-adv-x="1059" 
d="M756 621c9.33301 58.667 16.666 114.834 21.999 168.5c5.33301 53.668 8 105.835 8 156.501c0 86 -12.167 150.833 -36.5 194.5s-60.5 65.5 -108.5 65.5c-36.667 0 -79 -19.333 -127 -58s-84 -58 -108 -58c-23.333 0 -43.166 7.5 -59.499 22.5s-24.5 32.5 -24.5 52.5
c0 41.333 24.167 78.333 72.5 111s105.833 49 172.5 49c120.667 0 216.5 -51.5 287.5 -154.5s106.5 -242.5 106.5 -418.5c0 -222.667 -48.167 -407.834 -144.5 -555.501s-215.5 -221.5 -357.5 -221.5c-101.333 0 -185.833 35.833 -253.5 107.5s-101.5 162.167 -101.5 271.5
c0 132.667 37 241.667 111 327s164.667 128 272 128c67.333 0 122.833 -15 166.5 -45c43.668 -30 77.835 -77.667 102.5 -143zM707 494c0 77.333 -14.333 136.833 -43 178.5s-69.667 62.5 -123 62.5c-72.667 0 -132.5 -43 -179.5 -129s-70.5 -198 -70.5 -336
c0 -77.333 14.333 -136.5 43 -177.5s69.667 -61.5 123 -61.5c72 0 131.667 43.333 179 130s71 197.667 71 333z" />
    <glyph glyph-name="Delta" unicode="&#x2206;" horiz-adv-x="1370" 
d="M684 1262l-418 -1084h836zM573 1473h224l579 -1473h-1382z" />
    <glyph glyph-name="product" unicode="&#x220f;" horiz-adv-x="1550" 
d="M156 1473h1237v-1866h-240v1661h-758v-1661h-239v1866z" />
    <glyph glyph-name="summation" unicode="&#x2211;" horiz-adv-x="1380" 
d="M55 1473h1258v-193h-959l672 -717l-694 -764h1007v-192h-1314v149l725 801l-695 739v177z" />
    <glyph glyph-name="radical" unicode="&#x221a;" horiz-adv-x="1305" 
d="M1116 1661h189v-96h-115l-594 -1606h-66l-319 883l-125 -45l-25 80l283 98l256 -709z" />
    <glyph glyph-name="infinity" unicode="&#x221e;" horiz-adv-x="1425" 
d="M1376 739c0 -53.333 -10.5 -103.332 -31.5 -149.999s-48.833 -87.5 -83.5 -122.5s-74.167 -62.5 -118.5 -82.5s-89.833 -30 -136.5 -30c-26 0 -52 2.66699 -78 8s-51.333 14.833 -76 28.5s-48.5 32.667 -71.5 57s-44.833 55.5 -65.5 93.5
c-32.667 -36.667 -64.667 -67.167 -96 -91.5c-31.334 -24.333 -61.667 -43.5 -90.999 -57.5c-29.333 -14 -57.5 -23.833 -84.5 -29.5s-53.167 -8.5 -78.5 -8.5c-38.667 0 -75 6.83301 -109 20.5s-63.667 32.667 -89 57c-25.333 24.334 -45.5 53.667 -60.5 88
s-22.5 72.166 -22.5 113.499c0 54 11.333 104.167 34 150.5s52.167 86.833 88.5 121.5c36.333 34.6699 77.166 61.8369 122.499 81.5c45.334 19.667 90.667 29.5 136 29.5c23.333 0 47.5 -3.83301 72.5 -11.5s50.167 -19.167 75.5 -34.5s49.833 -34.5 73.5 -57.5
s45.5 -50.167 65.5 -81.5c32 37.333 63.167 67.833 93.5 91.5s60.333 42.5 90 56.5s58.5 23.667 86.5 29s55.333 8 82 8c38 0 73.5 -6.66699 106.5 -20c33 -13.3369 61.667 -32.1699 86 -56.5c24.3438 -24.333 43.6768 -53.5 58 -87.5c14.333 -34 21.5 -71.667 21.5 -113z
M1200 713.001c0 20.6699 -3.83203 38.8379 -11.499 54.502c-7.66699 15.6699 -18 28.8369 -31 39.501c-13 10.6729 -28 18.8398 -45 24.5c-17 5.66699 -34.833 8.5 -53.5 8.5s-38.667 -4.33301 -60 -13s-42.5 -20.334 -63.5 -35.001s-41 -31.334 -60 -50.001
s-35.833 -38 -50.5 -58c14 -28.667 28.833 -53 44.5 -73s31.667 -36.167 48 -48.5c16.333 -12.3379 32.666 -21.1709 48.999 -26.5c16.333 -5.33301 32.166 -8 47.499 -8c22.667 0 44.834 3.66699 66.501 11s41.167 18.666 58.5 33.999c17.3516 15.333 31.6846 34.5 43 57.5
c11.333 23 17.333 50.5 18 82.5zM403.001 528.002c19.333 0 39.499 4.33398 60.499 13.001s41.667 20 62 34s40 30.333 59 49s36.5 38 52.5 58c-12.667 28.667 -26.667 53 -42 73c-15.3359 20 -31.1689 36.333 -47.5 49c-16.333 12.6729 -32.833 21.8398 -49.5 27.5
c-16.667 5.66699 -33 8.5 -49 8.5c-27.333 0 -52.5 -4.66699 -75.5 -14s-42.667 -22.333 -59 -39s-29.166 -36.334 -38.499 -59.001s-14 -47 -14 -73c0 -38 11.667 -68.667 35 -92c23.334 -23.333 58.667 -35 106 -35z" />
    <glyph glyph-name="integral" unicode="&#x222b;" horiz-adv-x="1067" 
d="M311 -262c71.333 0 111 229.332 119 687.999c1.33398 72.667 2.66699 128 4 166c8 342.667 43.833 588 107.5 736s162.5 222 296.5 222c53.333 0 96.666 -14 129.999 -42s50 -63.667 50 -107c0 -35.333 -10.667 -63.666 -32 -84.999s-50.333 -32 -87 -32
c-28.667 0 -52.167 6.5 -70.5 19.5s-31.833 31.167 -40.5 54.5c-4 9.33301 -7.33301 26 -10 50s-9.33398 36 -20.001 36c-71.335 0 -111.668 -206.333 -121 -619c-2.66699 -128 -5.33398 -229 -8.00098 -303c-11.333 -319.333 -48.333 -548 -111 -686
s-159.667 -207 -291 -207c-53.333 0 -96.666 13.667 -129.999 41s-50 63 -50 107c0 36.667 11.333 65.667 34 87s54.334 32 95.001 32c22 0 40.833 -4.83301 56.5 -14.5s28.834 -24.167 39.501 -43.5c7.33594 -10.667 12.6689 -30 16 -58c3.33301 -28 11 -42 23 -42z" />
    <glyph glyph-name="approxequal" unicode="&#x2248;" horiz-adv-x="1716" 
d="M1499 623l-0.00488281 -179c-69.333 -51.333 -134.166 -88.666 -194.499 -111.999s-122.5 -35 -186.5 -35c-73.333 0 -158.666 19.667 -255.999 59c-6.66699 2.66699 -12 4.66699 -16 6c-4 2 -11.667 5 -23 9c-102 40.667 -184.667 61 -248 61
c-58.667 0 -116.667 -12.667 -174 -38s-118.666 -66 -183.999 -122v179c70 51.333 135 88.666 195 111.999s122 35 186 35c74 0 159.333 -19.667 256 -59c8 -2.66699 13.333 -5 16 -7c4.67383 -1.33301 12.3408 -4 23.001 -8c102.667 -40.667 185.334 -61 248.001 -61
c57.333 0 114.333 12.667 171 38s119 66 187 122zM1499 1012l-0.00390625 -177.999c-69.333 -52 -134.166 -89.667 -194.499 -113s-122.5 -35 -186.5 -35c-73.333 0 -158.666 19.667 -255.999 59c-6.66699 3.33301 -12 5.66602 -16 6.99902s-11.667 4 -23 8
c-102 40.667 -184.667 61 -248 61c-58.667 0 -116.667 -12.667 -174 -38c-57.333 -25.334 -118.666 -65.667 -183.999 -121v178c70 52 135 89.5 195 112.5s122 34.5 186 34.5c74 0 159.333 -19.667 256 -59c6.66699 -2.66699 12 -4.66699 16 -6
c4.67285 -1.33301 12.3398 -4.33301 23 -9c102.667 -40.667 185.334 -61 248.001 -61c57.333 0 114.333 12.667 171 38s119 66 187 122z" />
    <glyph glyph-name="notequal" unicode="&#x2260;" horiz-adv-x="1716" 
d="M217 930h772l256 315l125 -102l-174 -213h303v-168h-440l-195 -240h635v-170h-774l-258 -313l-125 102l174 211h-299v170h438l195 240h-633v168z" />
    <glyph glyph-name="lessequal" unicode="&#x2264;" horiz-adv-x="1716" 
d="M1499 1016l-960 -277l960 -274v-178l-1282 368v170l1282 367v-176zM217 170h1282v-170h-1282v170z" />
    <glyph glyph-name="greaterequal" unicode="&#x2265;" horiz-adv-x="1716" 
d="M217 1016v176l1282 -367v-170l-1282 -368v178l961 274zM1499 170v-170h-1282v170h1282z" />
    <glyph glyph-name="lozenge" unicode="&#x25ca;" horiz-adv-x="1012" 
d="M506 1409l-385 -817l385 -825l385 825zM506 1653l500 -1061l-500 -1069l-500 1069z" />
    <glyph glyph-name="fi" unicode="&#xfb01;" horiz-adv-x="1282" 
d="M1278 1255h-234l48 240h233zM1026 0h-217.001l172 893h-483v-4l-172 -889h-215l172 893h-189l35 174h188l27 139c10 55.333 27.667 106 53 152s56.833 85.5 94.5 118.5c37.668 33 80.335 58.667 128.001 77c47.667 18.333 99.167 27.5 154.5 27.5
c56.667 0 114 -11.667 172 -35l-39 -188c-41.335 17.333 -85.668 26 -133 26c-30 0 -57.333 -5 -82 -15s-46.167 -23.833 -64.5 -41.5s-33.5 -38.5 -45.5 -62.5s-21 -50.333 -27 -79l-23 -119h701z" />
    <glyph glyph-name="fl" unicode="&#xfb02;" horiz-adv-x="1221" 
d="M987 0h-216.999l260 1337c-68.667 34.667 -155.334 52 -260.001 52c-115.333 0 -186.333 -68.333 -213 -205l-22 -117h251l-32 -174h-254l-172 -893h-217l172 893h-189l35 174h188l25 129c49.334 256.667 203.667 385 463 385c160 0 314.333 -45.667 463 -137z" />
    <glyph glyph-name="filledbox" unicode="&#x25a0;" horiz-adv-x="860" 
d="M662 557h-451l88 451h451z" />
    <glyph glyph-name="uniF8FF" horiz-adv-x="2974" 
d="M909 135c-0.666992 0 -7.66602 -3.16992 -20.999 -9.50293s-31 -14.166 -53 -23.499s-47.667 -19.333 -77 -30c-29.335 -10.667 -60.668 -20.667 -94 -30c-33.333 -9.33301 -68 -17 -104 -23s-71.667 -9 -107 -9c-50.667 0 -95.167 6.83301 -133.5 20.5
s-70.166 32.5 -95.499 56.5s-44.5 52.667 -57.5 86s-19.5 69.333 -19.5 108c0 40.667 7.33301 83 22 127s33.667 87.833 57 131.5s49.166 85.834 77.499 126.5c28.334 40.667 56.167 78 83.5 112s52.833 63.333 76.5 88s41.834 42.667 54.501 54
c-34 -66.667 -58.167 -124.167 -72.5 -172.5s-21.5 -90.5 -21.5 -126.5c0 -41.333 7.5 -76.5 22.5 -105.5s35 -52.5 60 -70.5s53.333 -31.167 85 -39.5s64.5 -12.5 98.5 -12.5c14 0 28.667 0.833008 44 2.5s30.666 3.83398 45.999 6.50098s30 5.66699 44 9
s26.667 6.33301 38 9c24.667 6.66699 104.667 28.334 240 65.001c58 16.001 130.667 35.834 218 59.5c87.333 23.6689 194 52.8359 320 87.5c126 34.667 273.667 75 443 121s364.666 99.333 585.999 160z" />
    <glyph glyph-name="fracbar" horiz-adv-x="1468" 
d="M182 -25h-162l1266 1545h162z" />
    </font>
</defs>
</svg>
