<?xml version="1.0" standalone="no"?>
<!DOCTYPE svg PUBLIC "-//W3C//DTD SVG 1.1//EN" "http://www.w3.org/Graphics/SVG/1.1/DTD/svg11.dtd" >
<svg xmlns="http://www.w3.org/2000/svg" width="100%" height="100%">
<metadata>
Created by FontXChange 20110222 at Thu Sep  1 01:44:12 2011
 By Michael Pellegrini
Copyright (c) 1992 Adobe Systems Incorporated.  All Rights Reserved.Bellevue is a trademark of H. Berthold AG.
</metadata>
<defs>
<font id="Bellevue" horiz-adv-x="542" >
  <font-face 
    font-family="Bellevue"
    font-weight="500"
    font-style="italic"
    font-stretch="normal"
    units-per-em="1000"
    panose-1="0 0 0 0 0 0 0 0 0 0"
    ascent="800"
    descent="-200"
    x-height="469"
    cap-height="706"
    bbox="-233 -296 1275 891"
    underline-thickness="50"
    underline-position="-75"
    slope="-21"
    stemh="18"
    stemv="74"
    unicode-range="U+0020-FB02"
  />
<missing-glyph horiz-adv-x="250" 
 />
    <glyph glyph-name=".notdef" horiz-adv-x="250" 
 />
    <glyph glyph-name="space" unicode=" " horiz-adv-x="250" 
 />
    <glyph glyph-name="exclam" unicode="!" horiz-adv-x="250" 
d="M268 206h-16c24 110 41 183 45 338c2 102 3 114 9 134c16 43 50 43 55 43c27 0 52 -21 52 -60c0 -32 -25 -95 -52 -161c-53 -133 -66 -184 -93 -294zM183 6c-10 11 -17 26 -17 41c0 33 26 59 59 59c32 0 59 -26 59 -59c0 -32 -27 -59 -59 -59c-15 0 -31 7 -42 18z" />
    <glyph glyph-name="quotedbl" unicode="&#x22;" horiz-adv-x="396" 
d="M292 712c24 0 28 -19 20 -41c-7 -21 -58 -126 -86 -187c-9 -20 -16 -25 -25 -25s-12 5 -7 25c16 61 41 166 48 187c8 22 26 41 50 41zM437 712c24 0 28 -19 20 -41c-7 -21 -58 -126 -86 -187c-9 -20 -16 -25 -25 -25s-12 5 -7 25c16 61 41 166 48 187c8 22 26 41 50 41z
" />
    <glyph glyph-name="dollar" unicode="$" horiz-adv-x="479" 
d="M427 654l17 76h18l-17 -77c19 -4 38 -8 56 -15c49 -22 78 -70 78 -113c0 -48 -31 -69 -56 -69c-27 0 -51 22 -51 52c0 29 22 51 51 51c15 0 24 -5 36 -12c-6 18 -11 32 -28 50c-28 29 -58 34 -89 40l-56 -260c63 -47 137 -102 137 -202c0 -43 -17 -92 -57 -130
c-59 -58 -125 -61 -165 -62l-16 -77h-19l16 76c-19 2 -46 4 -76 16c-71 27 -96 85 -96 121c0 46 31 70 58 70c28 0 53 -24 53 -52c0 -27 -21 -52 -52 -52c-20 0 -30 9 -40 18c6 -20 11 -36 34 -59c45 -46 100 -45 123 -45l64 296c-56 44 -61 48 -74 61
c-23 21 -61 63 -61 128c0 42 18 84 49 115c54 54 126 54 163 55zM370 388l53 248c-28 -2 -58 -3 -91 -36c-23 -23 -36 -54 -36 -86c0 -64 42 -99 74 -126zM366 283l-61 -283c16 2 34 5 56 16c40 20 79 65 79 134s-39 103 -74 133z" />
    <glyph glyph-name="percent" unicode="%" horiz-adv-x="833" 
d="M355 647c79 0 115 -65 115 -143c0 -49 -26 -273 -181 -273c-64 0 -115 47 -115 142c0 91 47 274 181 274zM358 628c-42 0 -61 -38 -69 -54c-28 -56 -57 -178 -57 -236c0 -57 21 -89 58 -89c29 0 56 16 84 98c3 10 39 125 39 199c0 51 -21 82 -55 82zM336 0l359 636h36
l-359 -636h-36zM784 406c79 0 115 -65 115 -144c0 -48 -26 -272 -181 -272c-64 0 -115 47 -115 141c0 91 47 275 181 275zM787 387c-42 0 -61 -38 -69 -54c-28 -57 -57 -179 -57 -237c0 -57 21 -88 58 -88c29 0 56 16 84 98c3 9 39 124 39 198c0 52 -21 83 -55 83z" />
    <glyph glyph-name="ampersand" unicode="&#x26;" horiz-adv-x="688" 
d="M181 -103l15 6c8 -15 16 -32 32 -49c32 -35 84 -56 132 -56c22 0 44 4 64 12c114 42 119 174 124 218c-40 -21 -91 -46 -170 -46c-143 0 -249 76 -249 191c0 47 19 100 61 137c60 60 151 91 224 116c-9 30 -18 61 -18 106c0 125 83 157 130 157c62 0 110 -45 110 -108
c0 -33 -13 -65 -39 -89c-36 -38 -95 -58 -155 -78c12 -30 15 -37 30 -68c41 3 49 3 86 2h73c88 -2 97 -1 133 17c-12 1 -33 2 -46 15c-11 7 -17 24 -17 39c0 29 22 54 53 54c26 0 55 -19 55 -56c0 -19 -10 -39 -25 -53c-31 -31 -71 -32 -109 -32c-19 0 -38 1 -57 1h-60
c15 -8 29 -16 45 -31c19 -19 43 -54 43 -109c0 -49 -17 -77 -35 -107c6 -31 6 -50 6 -74c0 -119 -92 -235 -244 -235c-67 0 -117 26 -150 58c-21 21 -30 38 -42 62zM435 433c77 29 118 50 144 74c19 19 33 46 33 74c0 43 -32 84 -89 84c-45 0 -103 -34 -103 -135
c0 -37 6 -62 15 -97zM420 407c-47 -17 -95 -33 -140 -79c-23 -23 -59 -68 -59 -140c0 -114 86 -182 191 -182c63 0 107 24 135 41c-14 109 -26 120 -63 214c-9 23 -19 45 -29 67c-27 -7 -51 -13 -74 -35c-23 -23 -31 -50 -31 -72c0 -8 1 -16 2 -24c8 17 20 44 55 44
c30 0 54 -24 54 -54s-27 -55 -57 -55c-35 0 -71 32 -71 85c0 29 11 62 36 87s50 32 78 40c-13 28 -16 35 -27 63zM481 332l39 -65c52 -81 61 -98 84 -159c14 22 25 40 25 82c0 40 -12 76 -40 103c-33 32 -70 36 -108 39z" />
    <glyph glyph-name="quoteright" unicode="&#x2019;" horiz-adv-x="208" 
d="M252 476l-15 18c61 48 73 68 93 113c-9 -3 -18 -5 -27 -5c-33 0 -59 28 -59 58c0 32 26 59 59 59c29 0 60 -22 60 -71c0 -72 -53 -129 -111 -172z" />
    <glyph glyph-name="parenleft" unicode="(" horiz-adv-x="250" 
d="M277 0h-20c-25 57 -61 135 -61 263c0 73 10 271 207 443h25c-61 -64 -199 -211 -199 -467c0 -107 28 -184 48 -239z" />
    <glyph glyph-name="parenright" unicode=")" horiz-adv-x="250" 
d="M230 706h20c25 -56 61 -135 61 -263c0 -72 -10 -271 -207 -443h-25c61 64 199 212 199 468c0 107 -28 183 -48 238z" />
    <glyph glyph-name="asterisk" unicode="*" horiz-adv-x="292" 
d="M313 599l23 111l29 -5l-23 -110l101 34l9 -27l-103 -35l82 -72l-17 -22l-83 72l-22 -108l-29 5l23 109l-105 -36l-8 27l103 36l-85 74l19 22z" />
    <glyph glyph-name="comma" unicode="," horiz-adv-x="208" 
d="M104 -154l-10 21c73 45 91 67 117 128c-8 -3 -15 -7 -27 -7c-30 0 -59 23 -59 59c0 32 25 59 59 59c33 0 60 -24 60 -70c0 -27 -12 -59 -27 -86c-33 -57 -76 -82 -113 -104z" />
    <glyph glyph-name="hyphen" unicode="-" horiz-adv-x="313" 
d="M130 222l12 53h249l-12 -53h-249z" />
    <glyph glyph-name="period" unicode="." horiz-adv-x="208" 
d="M142 6c-11 11 -17 26 -17 41c0 33 26 59 59 59c32 0 59 -26 59 -59c0 -32 -27 -59 -59 -59c-15 0 -31 7 -42 18z" />
    <glyph glyph-name="slash" unicode="/" horiz-adv-x="437" 
d="M72 6l520 720l27 -19l-521 -721z" />
    <glyph glyph-name="zero" unicode="0" 
d="M441 651c46 0 91 -18 124 -51c51 -51 59 -123 59 -176c0 -76 -40 -441 -289 -441c-96 0 -183 66 -183 226c0 109 39 226 69 286c78 153 203 156 220 156zM447 633c-72 0 -106 -67 -118 -92c-48 -94 -95 -296 -95 -390c0 -152 88 -152 101 -152c56 0 101 35 144 164
c2 6 65 201 65 328c0 95 -39 142 -97 142z" />
    <glyph glyph-name="one" unicode="1" 
d="M245 508l244 138h16l-134 -628h91l-4 -18h-265l4 18h91l119 561l-153 -86z" />
    <glyph glyph-name="two" unicode="2" 
d="M114 -16l-14 2c42 179 142 238 226 283c26 14 53 28 78 43c29 18 118 73 118 183c0 82 -62 136 -139 136c-30 0 -55 -7 -75 -16c-58 -28 -71 -77 -76 -98c11 9 24 19 43 19c28 0 54 -24 54 -54c0 -29 -23 -55 -54 -55c-27 0 -60 20 -60 73c0 79 76 152 198 152
c105 0 200 -61 200 -167c0 -26 -6 -50 -15 -72c-41 -99 -147 -133 -187 -147c-29 -9 -58 -17 -87 -28c-60 -22 -122 -57 -167 -143c-6 -11 -12 -22 -17 -34c9 5 17 11 26 15c23 11 42 13 62 13c36 0 48 -3 119 -19c38 -9 66 -13 106 -13c109 0 122 54 134 120h14
c-12 -100 -41 -193 -151 -193c-54 0 -106 25 -133 39c-74 38 -85 44 -115 44c-63 0 -80 -55 -88 -83z" />
    <glyph glyph-name="three" unicode="3" 
d="M328 337l1 15c48 4 107 8 148 48c24 24 41 62 41 102c0 59 -34 128 -130 128c-55 0 -92 -23 -114 -46c-21 -21 -26 -38 -33 -61c11 8 20 15 37 15c29 0 51 -20 51 -48s-23 -50 -50 -50c-30 0 -57 24 -57 66c0 58 60 144 197 144c127 0 190 -74 190 -149
c0 -79 -67 -135 -160 -151c-24 -4 -48 -6 -72 -7c16 -3 32 -5 48 -8c89 -18 145 -73 145 -158c0 -98 -79 -195 -239 -195c-125 0 -195 69 -195 151c0 64 39 101 77 101c32 0 57 -26 57 -56c0 -31 -27 -57 -55 -57c-5 0 -41 0 -56 46c-2 -11 -4 -19 -4 -32
c0 -57 41 -131 152 -131c154 0 171 153 171 184c0 43 -15 81 -38 106c-32 35 -75 39 -112 43z" />
    <glyph glyph-name="four" unicode="4" 
d="M569 647h16l-85 -403c77 1 93 8 121 25c-34 -84 -78 -86 -133 -84l-36 -167h96l-4 -18h-268l4 18h90l34 166h-297c37 54 71 103 146 184c102 110 239 228 316 279zM417 243l67 319c-105 -87 -214 -185 -316 -319h249z" />
    <glyph glyph-name="five" unicode="5" 
d="M204 343l85 282c24 5 44 10 73 10c12 0 68 -7 95 -10c17 -2 40 -4 65 -4c51 0 72 8 103 20c-25 -60 -53 -87 -109 -87c-23 0 -135 13 -161 13c-25 0 -42 -3 -69 -8l-61 -198c31 20 75 48 152 48c110 0 213 -72 213 -195c0 -118 -99 -230 -251 -230
c-114 0 -191 68 -191 153c0 66 42 102 77 102c30 0 57 -24 57 -56c0 -30 -25 -56 -56 -56c-27 0 -45 16 -56 42c-3 -12 -6 -22 -6 -37c0 -64 62 -129 155 -129c138 0 182 161 182 231c0 98 -65 155 -148 155c-68 0 -112 -34 -134 -51z" />
    <glyph glyph-name="six" unicode="6" 
d="M602 567c-27 66 -94 66 -109 66c-145 0 -197 -171 -233 -312c24 32 68 94 165 94c102 0 177 -77 177 -187c0 -123 -85 -242 -234 -242c-125 0 -212 86 -212 241c0 136 75 425 317 425c101 0 150 -56 150 -113c0 -46 -31 -69 -58 -69c-30 0 -55 26 -55 56
c0 32 27 55 52 55c14 0 28 -8 40 -14zM412 396c-24 1 -169 -14 -169 -222c0 -108 51 -172 121 -172c100 0 150 150 150 253c0 71 -29 137 -102 141z" />
    <glyph glyph-name="seven" unicode="7" 
d="M220 645l-19 -92c24 34 68 96 161 96c41 0 70 -12 116 -31c33 -14 74 -30 115 -30c59 0 71 29 83 57h28c-40 -76 -75 -139 -236 -289c-108 -100 -172 -159 -215 -259c10 3 19 6 29 6c29 0 59 -23 59 -60c0 -34 -27 -62 -62 -62c-28 0 -64 18 -64 73c0 29 12 57 25 82
c54 100 129 168 208 240c84 76 116 109 170 179c-22 -13 -44 -26 -95 -26c-43 0 -75 11 -104 23c-63 27 -77 33 -115 33c-88 0 -106 -64 -117 -102l-7 -37h-19l41 199h18z" />
    <glyph glyph-name="eight" unicode="8" 
d="M464 357c45 -29 125 -81 125 -184c0 -74 -57 -190 -236 -190c-167 0 -215 104 -215 176c0 48 20 92 50 122c43 41 96 53 138 63c-29 23 -90 70 -90 149c0 97 92 160 202 160c116 0 178 -70 178 -142c0 -31 -12 -66 -36 -92c-37 -41 -83 -53 -116 -62zM445 369
c35 9 70 18 101 50c26 28 39 63 39 95c0 63 -48 123 -135 123c-79 0 -132 -55 -132 -117c0 -72 65 -113 127 -151zM344 332c-159 -28 -172 -144 -172 -173c0 -67 46 -159 162 -159c97 0 166 67 166 154c0 84 -54 116 -156 178z" />
    <glyph glyph-name="nine" unicode="9" 
d="M169 69c27 -67 94 -67 109 -67c145 0 197 172 233 313c-23 -32 -68 -94 -165 -94c-102 0 -177 77 -177 186c0 124 85 243 234 243c125 0 212 -86 212 -241c0 -136 -75 -425 -317 -425c-101 0 -150 56 -150 113c0 46 31 69 58 69c30 0 54 -26 54 -56
c0 -32 -26 -55 -51 -55c-15 0 -28 7 -40 14zM359 240c24 -1 169 14 169 222c0 107 -51 172 -121 172c-100 0 -150 -150 -150 -253c0 -72 28 -138 102 -141z" />
    <glyph glyph-name="colon" unicode=":" horiz-adv-x="250" 
d="M183 6c-10 11 -17 26 -17 41c0 33 26 59 59 59c32 0 59 -26 59 -59c0 -32 -27 -59 -59 -59c-15 0 -31 7 -42 18zM261 363c-10 11 -17 26 -17 42c0 32 26 58 59 58c32 0 59 -26 59 -58s-27 -59 -59 -59c-15 0 -31 6 -42 17z" />
    <glyph glyph-name="semicolon" unicode=";" horiz-adv-x="250" 
d="M261 363c-10 11 -17 26 -17 42c0 32 26 58 59 58c32 0 59 -26 59 -58s-27 -59 -59 -59c-15 0 -31 6 -42 17zM145 -154l-10 21c73 45 91 67 117 128c-8 -3 -15 -7 -27 -7c-30 0 -59 23 -59 59c0 32 25 59 59 59c33 0 60 -24 60 -70c0 -27 -12 -59 -27 -86
c-33 -57 -76 -82 -113 -104z" />
    <glyph glyph-name="question" unicode="?" horiz-adv-x="458" 
d="M299 206h-17c6 35 11 68 30 104c22 40 32 47 110 101c33 23 82 64 82 148c0 96 -68 148 -135 148c-14 0 -119 -3 -151 -119c12 9 22 17 40 17c27 0 54 -22 54 -53c0 -30 -25 -55 -54 -55c-22 0 -57 16 -57 70c0 61 56 159 195 159c105 0 202 -59 202 -174
c0 -47 -18 -93 -54 -132c-38 -42 -82 -58 -128 -74c-68 -23 -101 -44 -117 -140zM214 6c-11 11 -17 26 -17 41c0 33 26 59 59 59c32 0 59 -26 59 -59c0 -32 -27 -59 -59 -59c-15 0 -31 7 -42 18z" />
    <glyph glyph-name="A" unicode="A" horiz-adv-x="771" 
d="M432 -106l-4 -16c-57 12 -90 22 -156 57c-77 -108 -168 -195 -284 -195c-84 0 -156 60 -156 140c0 70 59 98 91 98c39 0 63 -28 63 -57c0 -28 -23 -53 -54 -53c-32 0 -53 25 -53 54c0 12 4 19 9 29c-14 -9 -39 -25 -39 -72c0 -66 59 -123 138 -123c135 0 223 137 261 195
c-41 37 -112 102 -112 211c0 141 116 228 236 228c37 0 66 -9 100 -19c116 204 231 337 430 337c14 0 28 -1 41 -1l-3 -18c-12 0 -24 1 -36 1c-16 0 -30 -1 -49 -3l-144 -669h105l-3 -18h-300l4 18h103c4 28 8 56 8 84c0 126 -61 201 -141 245l-104 -212
c-44 -92 -66 -127 -102 -186l29 -16c53 -25 71 -30 122 -39zM644 111l121 553c-129 -60 -192 -155 -270 -301c74 -45 141 -101 149 -252zM257 -35c31 56 39 71 105 203c40 82 78 147 103 189c-30 9 -57 17 -92 17c-111 0 -220 -80 -220 -212c0 -105 68 -165 104 -197z" />
    <glyph glyph-name="B" unicode="B" horiz-adv-x="729" 
d="M303 18l36 170c-36 14 -68 26 -101 58c-42 41 -69 104 -69 169s26 143 91 206c96 95 209 104 273 110c54 52 62 60 129 103l8 -10c-41 -35 -51 -44 -88 -94c50 -7 120 -16 169 -66c39 -41 41 -87 41 -103s-2 -32 -7 -47c-19 -64 -71 -92 -94 -104
c-40 -16 -65 -20 -100 -21c30 -4 56 -7 88 -22c53 -27 98 -79 98 -155c0 -35 -9 -87 -56 -133c-79 -78 -194 -79 -284 -79h-239l3 18h102zM479 442l-10 -46c65 -3 141 6 183 50c31 31 46 79 46 118c0 91 -72 138 -130 143c-41 -72 -57 -118 -89 -265zM423 175l-34 -159
c33 -1 114 -4 177 26c84 40 111 120 111 179c0 25 -4 47 -10 65c-40 92 -143 93 -201 94l-39 -187c56 -2 94 6 157 35l7 -14c-64 -31 -97 -37 -168 -39zM343 206l38 178c26 130 50 224 135 329c-50 -5 -153 -15 -241 -100c-59 -58 -88 -133 -88 -201c0 -65 26 -119 65 -156
c30 -29 57 -38 91 -50z" />
    <glyph glyph-name="C" unicode="C" horiz-adv-x="667" 
d="M743 177l14 -8c-28 -48 -108 -187 -297 -187c-167 0 -289 123 -289 303c0 214 153 440 390 440c140 0 227 -80 227 -185c0 -64 -40 -87 -66 -87c-29 0 -56 26 -56 57c0 29 23 55 55 55c30 0 43 -19 50 -30c8 85 -68 169 -186 169c-196 0 -312 -237 -312 -426
c0 -163 88 -273 215 -273c20 0 102 0 189 84c32 32 48 58 66 88z" />
    <glyph glyph-name="D" unicode="D" horiz-adv-x="854" 
d="M302 18l36 172c-33 12 -64 24 -100 60c-22 22 -66 73 -66 167c0 72 26 139 83 196c92 89 202 97 274 103c42 46 63 67 135 119l10 -13c-40 -32 -53 -45 -94 -106c35 -3 73 -7 122 -24c129 -44 231 -150 231 -304c0 -73 -26 -245 -208 -338c-91 -48 -168 -49 -255 -50
h-274l5 18h101zM423 175l-34 -158c49 0 93 1 135 8c75 15 155 56 204 106c57 58 102 159 102 271c0 90 -29 169 -79 220c-65 67 -143 74 -181 77c-33 -61 -62 -115 -107 -334l-37 -174c79 -1 120 8 185 56l11 -13c-73 -53 -121 -61 -199 -59zM342 206l33 150
c42 191 67 248 136 341c-47 -3 -103 -6 -174 -46c-111 -62 -147 -159 -147 -237c0 -83 36 -128 64 -155c35 -35 61 -44 88 -53z" />
    <glyph glyph-name="E" unicode="E" horiz-adv-x="521" 
d="M592 580l-1 -8c-1 -4 -2 -8 -4 -12l5 8c4 7 7 18 7 33c0 76 -72 102 -119 102c-76 0 -138 -63 -138 -152c0 -144 148 -144 214 -144l-3 -16c-69 1 -143 1 -210 -30c-88 -41 -119 -118 -119 -181c0 -96 68 -171 166 -171c57 0 156 27 206 154l15 -6
c-22 -48 -79 -174 -252 -174c-129 0 -231 77 -231 192c0 126 115 236 280 228c-90 11 -155 81 -155 157c0 77 69 163 205 163c110 0 157 -66 157 -120c0 -48 -31 -76 -69 -76c-33 0 -55 23 -55 53c0 26 21 51 51 51c31 0 50 -26 50 -51z" />
    <glyph glyph-name="F" unicode="F" horiz-adv-x="729" 
d="M637 187l-4 -18c-35 8 -42 10 -73 21c-68 -132 -163 -211 -304 -211c-115 0 -168 63 -168 129c0 54 36 106 89 106c32 0 59 -24 59 -55c0 -26 -22 -52 -55 -52c-37 0 -52 27 -56 62c-9 -15 -20 -31 -20 -61c0 -77 76 -113 138 -113c30 0 91 8 152 69c49 50 73 108 93 157
c-37 26 -138 98 -138 220c0 100 80 253 303 266c60 74 83 93 150 129l8 -11c-46 -33 -60 -47 -105 -118h260l-35 -167h-20l14 63c1 9 3 17 3 26c0 45 -34 60 -77 60h-153c-37 -87 -45 -109 -79 -292h87c63 2 81 23 95 78l9 42h19l-60 -273h-17l12 63c2 8 3 15 3 24
c0 45 -37 46 -59 47h-93c-15 -79 -22 -109 -47 -172c28 -9 37 -12 69 -19zM642 689c-187 -16 -272 -141 -272 -247c0 -118 90 -177 125 -201c8 28 15 56 21 83c8 35 14 70 21 105c31 140 71 205 105 260z" />
    <glyph glyph-name="G" unicode="G" horiz-adv-x="771" 
d="M785 249l-50 -237c-15 16 -25 27 -47 27c-18 0 -30 -6 -72 -24c-42 -19 -86 -32 -141 -32c-146 0 -300 89 -300 312c0 241 180 430 403 430c133 0 237 -73 237 -175c0 -46 -23 -96 -69 -96c-30 0 -57 24 -57 57c0 29 23 55 55 55c33 0 44 -19 52 -32c1 7 2 15 2 22
c0 63 -64 144 -189 144c-271 0 -338 -311 -338 -439c0 -150 76 -259 218 -259c41 0 84 10 116 27c53 27 63 66 73 116l22 104h-174l3 18h343l-4 -18h-83z" />
    <glyph glyph-name="H" unicode="H" horiz-adv-x="792" 
d="M207 688l3 18h298l-4 -18h-104l-65 -301h391l63 301h-106l4 18h299l-4 -18h-106l-141 -670h105l-4 -18h-298l4 18h105l75 351h-390l-62 -284c-12 -57 -28 -132 -74 -210c-72 -121 -182 -162 -265 -162c-115 0 -164 71 -164 134c0 55 33 107 86 107c31 0 57 -21 57 -54
c0 -32 -25 -56 -54 -56c-52 0 -54 49 -54 60c-9 -13 -17 -26 -17 -58c0 -45 33 -116 136 -116c184 0 233 219 258 331l133 627h-105z" />
    <glyph glyph-name="I" unicode="I" horiz-adv-x="313" 
d="M207 688l4 18h295l-4 -18h-105l-141 -670h105l-5 -18h-294l3 18h105l141 670h-104z" />
    <glyph glyph-name="J" unicode="J" horiz-adv-x="292" 
d="M190 707h317l-4 -18h-117l-142 -677c-13 -63 -35 -162 -105 -231c-16 -14 -74 -68 -168 -68c-100 0 -166 61 -166 136c0 61 41 108 88 108c31 0 57 -23 57 -56c0 -30 -26 -55 -54 -55c-43 0 -53 37 -59 56c-8 -16 -14 -30 -14 -52c0 -61 51 -118 134 -118
c145 0 179 168 205 304l139 653h-114z" />
    <glyph glyph-name="K" unicode="K" horiz-adv-x="1000" 
d="M469 689l4 18h305l-3 -18h-98l-64 -301l295 272c17 16 54 48 106 48c59 0 89 -45 89 -86s-30 -70 -61 -70c-29 0 -51 25 -51 52s20 49 50 49c20 0 31 -10 42 -19c-4 18 -13 55 -68 55c-49 0 -84 -32 -118 -64l-214 -198l167 -301c34 -61 62 -113 128 -113
c81 0 102 83 111 121l14 -2c-8 -34 -17 -72 -51 -107c-31 -32 -72 -47 -113 -47c-102 0 -143 71 -179 134l-150 265c-17 -88 -53 -189 -88 -246c-71 -118 -179 -154 -253 -154c-96 0 -180 59 -180 154c0 81 62 144 136 144c66 0 112 -48 112 -103c0 -48 -32 -77 -66 -77
c-31 0 -56 25 -56 56s26 56 55 56c23 0 43 -17 52 -39c-4 81 -71 92 -97 92c-66 0 -120 -55 -120 -129c0 -77 64 -134 147 -134c54 0 103 27 142 65c75 75 113 231 130 310l68 317h-123z" />
    <glyph glyph-name="L" unicode="L" horiz-adv-x="583" 
d="M1006 -37l13 -5c-14 -33 -23 -54 -49 -80c-25 -24 -61 -50 -126 -50c-46 0 -91 13 -134 30c-52 20 -101 45 -149 72c-53 30 -106 63 -160 92c-32 17 -46 23 -74 34c-39 -33 -87 -74 -161 -74c-41 0 -81 19 -81 59c0 14 7 28 17 38c14 14 40 26 85 26c44 0 76 -10 114 -22
c20 56 23 68 33 137c17 126 42 273 88 359c53 102 138 146 207 146c62 0 118 -35 118 -100c0 -56 -42 -102 -89 -102c-37 0 -60 26 -60 55c0 30 25 52 52 52s50 -22 50 -49c0 -6 -1 -13 -5 -20c-3 -7 -9 -13 -15 -19c6 3 11 5 16 9c19 13 37 42 37 73c0 52 -46 87 -100 87
c-46 0 -73 -23 -86 -36c-44 -45 -54 -92 -84 -236c-17 -81 -35 -163 -61 -242c-23 -73 -41 -99 -62 -126c51 -21 60 -26 146 -67c177 -87 292 -120 373 -120c68 0 106 25 125 44c12 13 17 24 22 35zM293 68c-35 12 -63 21 -108 21c-13 0 -27 -1 -40 -5
c-33 -9 -43 -30 -43 -42c0 -13 11 -44 66 -44c72 0 109 49 125 70z" />
    <glyph glyph-name="M" unicode="M" horiz-adv-x="938" 
d="M208 688l4 18h197l172 -372l354 372h197l-4 -18h-104l-143 -670h104l-4 -18h-297l4 18l107 -1l141 663l-349 -368c15 -45 28 -84 28 -143c0 -127 -65 -189 -123 -189c-35 0 -79 25 -79 91c0 55 36 110 60 140l45 56l-185 403l-138 -652h103l-4 -18h-233l4 18l106 -1
l142 671h-105zM528 248c-30 -34 -95 -108 -95 -176c0 -50 31 -73 59 -73c18 0 74 15 74 102c0 64 -24 117 -38 147z" />
    <glyph glyph-name="N" unicode="N" horiz-adv-x="917" 
d="M1256 810l2 -9l1 9c0 29 -37 61 -81 61c-26 0 -57 -12 -88 -43c-60 -59 -80 -143 -107 -256l-129 -598l-250 672l-65 -290c-23 -102 -42 -185 -88 -257c-20 -32 -83 -124 -208 -124c-100 0 -154 66 -154 132c0 65 52 107 92 107c35 0 62 -27 62 -58
c0 -30 -24 -53 -55 -53c-24 0 -54 18 -54 56c0 6 1 11 2 16c-13 -18 -28 -38 -28 -69c0 -36 29 -110 128 -110c200 0 250 224 280 358l72 335h-107l4 18h188l199 -540l91 418c25 105 71 304 214 304c65 0 98 -40 98 -84c0 -41 -30 -70 -63 -70c-28 0 -54 23 -54 54
c0 29 25 53 53 53c20 0 39 -12 45 -32z" />
    <glyph glyph-name="O" unicode="O" horiz-adv-x="833" 
d="M581 725c186 2 336 -111 336 -320c0 -177 -131 -423 -416 -423c-156 0 -330 95 -330 310c0 185 129 431 410 433zM269 262c0 -193 122 -266 225 -266c214 0 325 272 325 443c0 193 -119 271 -229 269c-218 -3 -321 -277 -321 -446z" />
    <glyph glyph-name="P" unicode="P" horiz-adv-x="667" 
d="M304 18l36 170c-34 11 -68 23 -105 61c-43 44 -63 103 -63 165c0 60 19 139 87 207c94 94 214 104 270 109c63 58 81 71 133 105l9 -12c-44 -36 -60 -56 -85 -91c32 -3 94 -8 146 -34c58 -29 90 -81 90 -146c0 -108 -93 -218 -280 -218c-35 0 -57 3 -85 7l-31 -148
c69 2 103 14 153 37l7 -16c-59 -28 -91 -37 -163 -39l-34 -157h135l-4 -18h-325l4 18h105zM477 430l-16 -74c18 -2 35 -4 53 -4c138 0 214 105 214 208c0 38 -12 77 -39 104c-32 32 -71 44 -117 48c-57 -90 -80 -206 -95 -282zM343 205l50 232c24 112 37 166 118 273
c-47 -6 -90 -11 -147 -39c-117 -56 -173 -156 -173 -258c0 -36 7 -70 21 -98c35 -74 93 -96 131 -110z" />
    <glyph glyph-name="Q" unicode="Q" horiz-adv-x="833" 
d="M253 -170l-16 3c8 37 14 66 49 101c38 39 75 49 109 58c-36 12 -91 32 -141 82c-74 74 -82 164 -82 214c0 190 131 436 415 436c219 0 332 -147 332 -313c0 -72 -23 -155 -51 -211c-42 -83 -132 -184 -268 -212c-20 -4 -40 -7 -60 -9l29 -8c24 -7 49 -15 72 -24
c55 -21 107 -45 161 -68c123 -52 223 -87 300 -87c82 0 109 52 124 80l14 -5c-16 -43 -52 -135 -165 -135c-86 0 -170 47 -306 125c-66 38 -212 122 -327 122c-26 0 -54 -5 -81 -16c-84 -33 -99 -95 -108 -133zM584 706c-208 -6 -314 -277 -314 -447
c0 -187 116 -265 220 -265c246 0 332 313 332 444c0 144 -80 273 -238 268z" />
    <glyph glyph-name="R" unicode="R" horiz-adv-x="708" 
d="M266 18l42 200c-22 13 -42 26 -64 48c-49 49 -73 113 -73 172c0 106 70 201 164 246c47 22 99 32 152 35c56 63 98 91 137 116l10 -11c-56 -43 -78 -77 -95 -105c59 -5 110 -10 158 -44c55 -39 65 -89 65 -120c0 -46 -20 -87 -50 -117c-48 -47 -108 -61 -138 -67
c31 -25 41 -37 68 -104l86 -251c20 -50 34 -81 61 -108c39 -39 75 -39 84 -39c42 0 75 25 92 38l11 -12c-30 -24 -72 -58 -141 -58c-30 0 -63 8 -90 22c-64 34 -88 92 -107 139l-79 231c-32 98 -42 127 -98 127c-13 0 -25 0 -37 -1l-33 -156c31 -9 39 -11 65 -17l-3 -16
c-31 5 -38 7 -66 14l-34 -162h109l-5 -18h-302l4 18h107zM453 492l-25 -120c79 5 139 10 191 62c44 44 49 91 49 123c0 49 -16 80 -37 101c-32 33 -67 39 -101 44c-45 -78 -64 -155 -77 -210zM312 237l34 155c21 87 35 142 71 218c19 40 26 50 56 92c-45 -5 -77 -8 -127 -32
c-142 -68 -157 -192 -157 -233c0 -38 11 -104 67 -159c21 -21 37 -30 56 -41z" />
    <glyph glyph-name="S" unicode="S" 
d="M596 513l8 40c2 14 5 28 5 42c0 57 -44 113 -128 113c-108 0 -130 -83 -130 -122c0 -67 42 -108 142 -206c33 -32 95 -93 95 -183c0 -101 -93 -216 -257 -216c-141 0 -210 94 -210 175c0 69 50 136 119 136c47 0 80 -33 80 -73c0 -36 -26 -60 -55 -60
c-30 0 -54 25 -54 55c0 28 24 51 49 51c7 0 12 -2 19 -3c-10 7 -18 12 -38 12c-63 0 -101 -60 -101 -117c0 -70 56 -157 184 -157c131 0 179 99 179 168c0 76 -36 111 -130 203c-46 45 -98 102 -98 179c0 93 81 174 195 174c76 0 126 -30 160 -50l8 34h17l-41 -195h-18z" />
    <glyph glyph-name="T" unicode="T" horiz-adv-x="667" 
d="M378 18l137 649c-23 1 -45 2 -68 2c-59 0 -153 -4 -217 -67c-37 -35 -52 -80 -52 -117c0 -55 27 -81 47 -100c-2 7 -3 14 -3 21c0 29 22 52 53 52s53 -23 53 -52c0 -32 -23 -53 -58 -53c-55 0 -108 58 -108 132c0 42 17 89 56 129c83 85 219 96 314 96c26 0 52 -1 78 -1
c26 -1 52 -2 77 -2c117 0 156 21 180 87l16 -3c-4 -16 -8 -31 -13 -43c-37 -89 -111 -93 -158 -93c-16 0 -94 5 -111 5l-137 -642h128l-4 -18h-319l4 18h105z" />
    <glyph glyph-name="U" unicode="U" horiz-adv-x="938" 
d="M495 706h189l-4 -18h-90l-94 -445c131 15 217 96 217 202c0 8 0 13 -1 26l18 2c1 -9 2 -21 2 -32c0 -79 -57 -193 -239 -218c-1 -15 -2 -30 -2 -45c0 -108 77 -172 177 -172c43 0 87 12 119 31c85 50 103 134 133 271l81 380h-98l4 18h223l-4 -18h-100l-84 -393
c-26 -125 -37 -178 -92 -238c-18 -19 -72 -75 -198 -75c-70 0 -140 15 -190 63c-60 57 -60 131 -60 142s1 21 3 35c-41 8 -86 16 -131 43c-67 38 -112 106 -112 188c0 72 37 152 126 205c78 46 150 47 207 48zM502 688h-18c-46 0 -108 -1 -179 -39
c-99 -54 -125 -146 -125 -200c0 -69 36 -112 58 -134c56 -56 117 -66 170 -74c1 8 1 12 4 24z" />
    <glyph glyph-name="V" unicode="V" horiz-adv-x="688" 
d="M717 361l-330 -386l-3 1l-91 713h-94l4 18h260l-3 -18h-81l78 -598l249 291c45 55 93 113 93 187c0 85 -66 155 -165 155c-69 0 -132 -31 -157 -98c9 8 20 18 42 18c32 0 60 -27 60 -60s-27 -60 -59 -60s-66 27 -66 75c0 54 57 143 181 143s186 -88 186 -176
c0 -10 -1 -19 -2 -29c-9 -64 -50 -114 -102 -176z" />
    <glyph glyph-name="W" unicode="W" horiz-adv-x="1042" 
d="M426 113l231 323c-38 138 -45 162 -45 201c0 98 69 150 128 150c52 0 84 -39 84 -91c0 -61 -31 -103 -96 -194l108 -386l285 574h-117l4 18h236l-4 -18h-97l-357 -718l-122 439l-315 -436l-52 715h-97l3 18h290l-3 -18h-107zM723 524c58 83 82 117 82 168
c0 40 -20 73 -60 73c-30 0 -59 -24 -59 -80c0 -35 10 -73 37 -161z" />
    <glyph glyph-name="X" unicode="X" horiz-adv-x="875" 
d="M390 688l5 18h279l-3 -18h-94l115 -268l234 268h-91l4 18h208l-4 -18h-88l-254 -292l162 -378h85l-4 -18h-277l4 18h97l-130 307l-188 -217c-68 -76 -134 -127 -210 -127c-85 0 -150 62 -150 145c0 80 63 149 144 149c66 0 112 -43 112 -102c0 -49 -34 -79 -69 -79
c-36 0 -57 28 -57 57c0 31 26 57 57 57c33 0 46 -21 54 -34c-3 57 -50 86 -96 86c-67 0 -126 -54 -126 -133s58 -127 129 -127c61 0 115 35 188 114l203 233l-147 341h-92z" />
    <glyph glyph-name="Y" unicode="Y" horiz-adv-x="688" 
d="M529 522l-20 -8c-8 22 -16 41 -16 73c0 96 83 148 158 148c89 0 162 -63 162 -179c0 -70 -33 -134 -61 -183c-34 -58 -112 -181 -238 -322c-177 -197 -276 -256 -370 -256c-91 0 -114 63 -114 99c0 46 32 75 65 75c31 0 58 -25 58 -57c0 -30 -24 -58 -58 -58
c-11 0 -23 4 -32 10c-5 4 -10 9 -14 14c0 -16 17 -64 91 -64c118 0 229 116 298 189l-156 686h-83l3 18h274l-4 -18h-102l139 -612c104 122 170 214 223 308c31 54 59 113 59 175c0 98 -62 154 -139 154c-67 0 -138 -48 -138 -124c0 -25 8 -48 15 -68z" />
    <glyph glyph-name="Z" unicode="Z" horiz-adv-x="833" 
d="M306 538l34 168h541l-439 -558c44 -23 52 -29 121 -74c58 -38 127 -77 193 -77c95 0 141 75 141 136c0 71 -52 109 -83 132l8 16c26 -17 93 -62 93 -145c0 -100 -77 -157 -163 -157c-60 0 -126 30 -202 81c-63 43 -70 47 -120 72c-51 -57 -131 -149 -239 -149
c-83 0 -95 54 -95 81c0 62 64 126 170 126c34 0 66 -7 99 -14l400 512h-305c-88 1 -111 -35 -126 -102l-10 -48h-18zM351 160c-27 6 -50 11 -82 11c-120 0 -154 -72 -154 -107c0 -37 26 -58 60 -58c59 0 104 59 176 154z" />
    <glyph glyph-name="bracketleft" unicode="[" horiz-adv-x="250" 
d="M155 0l152 708h134l-3 -18h-102l-144 -672h103l-3 -18h-137z" />
    <glyph glyph-name="bracketright" unicode="]" horiz-adv-x="250" 
d="M210 689l3 18h136l-150 -707h-134l4 17h100l144 672h-103z" />
    <glyph glyph-name="underscore" unicode="_" horiz-adv-x="500" 
d="M557 -75v-50h-520v50h520z" />
    <glyph glyph-name="quoteleft" unicode="&#x2018;" horiz-adv-x="208" 
d="M336 719l15 -19c-61 -48 -72 -67 -92 -113c9 3 17 5 27 5c33 0 58 -27 58 -57c0 -33 -26 -60 -59 -60c-28 0 -60 22 -60 71c0 72 53 129 111 173z" />
    <glyph glyph-name="a" unicode="a" 
d="M449 109l21 101c-47 -107 -102 -224 -211 -224c-78 0 -128 71 -128 162c0 80 38 163 94 220c84 83 196 101 262 101c49 0 78 -8 114 -19l-75 -340c-6 -31 -9 -44 -9 -59c0 -6 0 -43 33 -43c39 0 60 65 71 107l15 -4c-19 -74 -44 -129 -108 -129c-36 0 -84 23 -84 86
c0 14 2 27 5 41zM521 452c-10 0 -21 1 -31 1c-30 0 -67 -7 -105 -25c-134 -66 -172 -223 -172 -296c0 -76 34 -119 77 -119c64 0 131 106 180 239c30 81 38 127 51 200z" />
    <glyph glyph-name="b" unicode="b" 
d="M181 710l175 25l-100 -475c41 87 98 205 211 205c64 0 143 -37 143 -162c0 -138 -104 -315 -298 -315c-85 0 -140 26 -182 47l142 672l-90 -12zM202 25c28 -10 54 -20 93 -20c177 0 231 239 231 315c0 74 -36 119 -88 119c-24 0 -64 -5 -115 -83
c-73 -111 -99 -232 -121 -331z" />
    <glyph glyph-name="c" unicode="c" horiz-adv-x="396" 
d="M465 112l14 -8c-73 -113 -158 -122 -192 -122c-70 0 -160 44 -160 170c0 135 103 317 266 317c80 0 121 -49 121 -100c0 -44 -29 -68 -59 -68s-52 23 -52 50c0 26 23 49 50 49c15 0 31 -9 39 -21c2 -4 4 -9 6 -14v10c0 27 -23 77 -87 77c-113 0 -203 -193 -203 -312
c0 -58 23 -137 99 -137c66 0 117 47 158 109z" />
    <glyph glyph-name="d" unicode="d" horiz-adv-x="562" 
d="M501 711l175 24l-136 -626c-7 -33 -8 -45 -8 -56s0 -43 34 -43c36 0 56 52 71 106l15 -4c-24 -74 -41 -128 -109 -128c-29 0 -83 17 -83 84c0 20 4 40 9 63l16 82c-43 -101 -98 -227 -221 -227c-59 0 -138 38 -138 159c0 177 153 325 357 325c18 0 35 -1 57 -3l51 240
l-89 -11zM537 453c-14 1 -27 2 -41 2c-194 0 -288 -195 -288 -325c0 -81 39 -118 87 -118c51 0 91 44 122 95c68 110 85 188 120 346z" />
    <glyph glyph-name="e" unicode="e" horiz-adv-x="417" 
d="M469 109l13 -7c-28 -40 -81 -119 -192 -119c-90 0 -159 58 -159 169c0 66 26 136 52 179c47 81 128 137 210 137c70 0 122 -45 122 -111c0 -41 -17 -80 -48 -111c-65 -66 -153 -66 -189 -66c-20 0 -41 1 -62 2c-2 -16 -3 -31 -3 -47c0 -67 28 -134 98 -134
c85 0 137 78 158 108zM218 197c15 -1 29 -2 43 -2c139 0 226 83 226 171c0 54 -34 83 -77 83s-73 -28 -86 -42c-72 -70 -95 -165 -106 -210z" />
    <glyph glyph-name="f" unicode="f" horiz-adv-x="271" 
d="M231 428l20 96c14 63 27 118 75 164c33 32 76 50 122 50c62 0 92 -35 92 -68c0 -29 -24 -51 -49 -51c-26 0 -50 23 -50 49c0 29 22 41 36 49c-10 2 -19 4 -28 4c-20 0 -43 -9 -60 -26c-25 -25 -34 -63 -50 -131l-29 -136h94l-4 -18h-93l-80 -377
c-24 -102 -49 -207 -120 -275c-16 -16 -55 -50 -115 -50c-59 0 -85 35 -85 66c0 30 24 51 50 51c27 0 50 -21 50 -50c0 -22 -10 -40 -38 -50c8 0 16 -1 23 -1c88 0 113 107 134 200l101 486h-75l3 18h76z" />
    <glyph glyph-name="g" unicode="g" 
d="M541 367c3 16 7 32 15 47c21 44 61 44 69 44c36 0 61 -23 61 -53c0 -27 -23 -50 -49 -50c-27 0 -45 20 -45 47c0 22 11 33 19 41c-19 -6 -44 -15 -55 -77c-4 -25 -4 -50 -7 -75c-18 -128 -120 -178 -212 -178c-11 0 -67 5 -80 5c-39 0 -76 -14 -76 -49
c0 -36 37 -39 53 -41c34 -3 202 -7 237 -17c48 -14 91 -52 91 -118c0 -41 -17 -83 -48 -114c-54 -54 -143 -66 -204 -66c-143 0 -257 58 -257 150c0 18 5 46 31 71c29 28 65 35 97 41c-18 13 -38 28 -38 62c0 26 11 48 26 64c26 25 54 28 86 31c-35 21 -90 54 -90 146
c0 98 81 192 210 192c86 0 133 -42 152 -73c5 -10 9 -20 14 -30zM386 455c-100 0 -146 -151 -146 -216c0 -63 35 -110 90 -110c96 0 142 144 142 220c0 51 -18 106 -86 106zM223 -40c-69 -1 -127 -28 -127 -91c0 -87 123 -129 244 -129c32 0 111 2 162 51c22 21 36 49 36 77
c0 75 -70 79 -115 82c-70 5 -194 10 -200 10z" />
    <glyph glyph-name="h" unicode="h" horiz-adv-x="583" 
d="M198 710l173 24l-113 -535c39 93 113 270 239 270c16 0 116 -7 116 -110c0 -25 -5 -45 -47 -201c-10 -37 -20 -78 -20 -102c0 -43 29 -43 32 -43c39 0 57 60 72 107l15 -3c-21 -65 -42 -129 -110 -129c-25 0 -83 14 -83 87c0 19 1 39 33 155c21 75 33 120 33 144
c0 47 -30 73 -65 73c-23 0 -65 -13 -116 -85c-75 -108 -112 -252 -140 -362h-78l149 707l-90 -12v15z" />
    <glyph glyph-name="i" unicode="i" horiz-adv-x="271" 
d="M152 442l175 26c-17 -81 -32 -151 -59 -250c-15 -54 -37 -133 -37 -163c0 -23 10 -44 32 -44c40 0 64 84 71 108l15 -4c-20 -64 -43 -129 -110 -129c-32 0 -82 18 -82 87c0 28 7 57 25 127c33 122 54 201 63 242l-90 -15zM281 604c-9 10 -15 23 -15 36c0 29 23 52 52 52
c27 0 51 -23 51 -52c0 -28 -24 -51 -51 -51c-14 0 -27 5 -37 15z" />
    <glyph glyph-name="j" unicode="j" horiz-adv-x="271" 
d="M159 443l177 25l-136 -634c-9 -41 -26 -117 -111 -117c-30 0 -85 14 -85 79c0 19 4 39 13 80l16 -3c-7 -25 -13 -47 -13 -73c0 -29 13 -57 42 -57c39 0 49 42 60 88l113 527c8 35 12 53 16 82l-90 -12zM289 604c-10 9 -15 23 -15 36c0 29 23 52 51 52c29 0 52 -23 52 -52
c0 -28 -23 -51 -52 -51c-13 0 -27 5 -36 15z" />
    <glyph glyph-name="k" unicode="k" horiz-adv-x="521" 
d="M199 710l174 24l-99 -463l230 183c13 10 26 19 45 19c30 0 53 -22 53 -51c0 -31 -24 -52 -51 -52c-49 0 -50 47 -50 63l-162 -131l158 -254c11 -16 21 -32 38 -32c36 0 56 62 68 100l15 -5c-22 -73 -47 -128 -115 -128c-53 0 -78 38 -93 63l-138 222l-56 -268h-77
l150 707l-90 -12v15z" />
    <glyph glyph-name="l" unicode="l" horiz-adv-x="250" 
d="M195 711l173 23c-57 -273 -72 -343 -138 -619c-9 -35 -11 -47 -11 -59c0 -32 20 -43 33 -43c35 0 52 49 72 107l15 -3c-22 -67 -43 -129 -112 -129c-39 0 -82 27 -82 87c0 19 5 38 9 57c63 265 75 317 130 575l-88 -12z" />
    <glyph glyph-name="m" unicode="m" horiz-adv-x="896" 
d="M146 444l176 26l-56 -269c40 98 113 269 241 269c74 0 107 -50 107 -102c0 -15 -3 -29 -6 -44l-27 -120c42 102 111 265 237 265c96 0 113 -67 113 -103c0 -22 -6 -45 -14 -74l-48 -174c-6 -24 -10 -42 -10 -60c0 -11 0 -45 33 -45c36 0 53 50 71 107l15 -3
c-19 -61 -40 -130 -111 -130c-37 0 -82 22 -82 91c0 23 6 44 11 65l52 188c7 31 9 43 9 55c0 15 -4 62 -59 62c-70 0 -178 -99 -262 -447h-76l70 334c4 16 7 31 7 47c0 46 -26 65 -57 65c-10 0 -59 0 -120 -92c-77 -115 -117 -271 -138 -354h-75l92 441l-89 -14z" />
    <glyph glyph-name="n" unicode="n" horiz-adv-x="604" 
d="M143 443l176 27l-55 -267c29 72 63 153 123 212c39 39 75 54 122 54c69 0 124 -39 124 -109c0 -18 -4 -34 -7 -52l-51 -190c-5 -20 -10 -40 -10 -66c0 -22 11 -39 33 -39c29 0 50 36 71 107l14 -3c-19 -69 -43 -130 -109 -130c-30 0 -83 17 -83 87c0 22 5 43 9 63l46 174
c5 21 10 40 10 62c0 75 -61 75 -71 75c-68 0 -116 -76 -134 -103c-66 -103 -101 -226 -130 -345h-78l92 442l-89 -14z" />
    <glyph glyph-name="o" unicode="o" horiz-adv-x="521" 
d="M385 469c113 3 204 -70 204 -199c0 -107 -73 -288 -259 -288c-93 0 -198 51 -198 197c0 133 92 286 253 290zM492 395c-22 49 -65 59 -93 59c-78 0 -112 -63 -125 -86c-50 -95 -61 -212 -61 -236c0 -79 40 -135 111 -135s102 49 121 87c42 80 61 177 61 233
c0 22 -3 53 -14 78z" />
    <glyph glyph-name="p" unicode="p" horiz-adv-x="562" 
d="M141 444l175 25l-43 -210c51 110 107 205 214 205c87 0 144 -59 144 -160c0 -120 -86 -317 -302 -317c-51 0 -82 9 -112 17l-54 -254h-79l115 532c17 73 19 85 32 159l-88 -12zM223 27c25 -12 46 -22 87 -22c92 0 143 49 179 113c25 42 59 125 59 199
c0 82 -43 121 -90 121c-32 0 -60 -17 -81 -38c-95 -93 -135 -281 -154 -373z" />
    <glyph glyph-name="q" unicode="q" 
d="M385 -250l99 464c-47 -115 -107 -227 -219 -227c-90 0 -139 75 -139 163c0 126 105 321 361 321c54 0 91 -8 126 -16l-150 -705h-78zM535 454c-12 1 -25 2 -38 2c-196 0 -288 -189 -288 -322c0 -18 0 -120 86 -120c52 0 90 46 115 85c77 117 105 258 125 355z" />
    <glyph glyph-name="r" unicode="r" horiz-adv-x="396" 
d="M322 469l-58 -271c46 111 127 275 214 275c35 0 61 -27 61 -57c0 -28 -22 -55 -56 -55c-31 0 -55 23 -55 58c0 7 1 14 2 20c-137 -125 -187 -343 -209 -439h-77l92 440l-88 -12l-1 15z" />
    <glyph glyph-name="s" unicode="s" horiz-adv-x="417" 
d="M470 391c0 3 -10 21 -17 29c-17 18 -50 33 -87 33c-68 0 -111 -44 -111 -92c0 -22 9 -43 24 -58c13 -14 25 -20 78 -47c39 -21 104 -54 104 -129c0 -69 -60 -143 -189 -143c-116 0 -147 73 -147 115c0 45 28 70 56 70c27 0 52 -23 52 -53s-23 -52 -50 -52
c-17 0 -30 10 -41 19c5 -18 10 -33 26 -50c17 -17 47 -33 90 -33c78 0 126 51 126 103c0 48 -37 71 -63 87c-21 12 -43 23 -64 36c-22 14 -75 46 -75 110c0 61 49 134 164 134c106 0 145 -65 145 -105c0 -37 -23 -60 -53 -60c-26 0 -47 18 -47 49c0 29 21 50 47 50
c7 0 14 -2 20 -5c4 -2 8 -5 12 -8z" />
    <glyph glyph-name="t" unicode="t" horiz-adv-x="271" 
d="M227 428l28 134h77l-27 -134h90l-4 -18h-90l-66 -315c-2 -12 -4 -24 -4 -36c0 -41 24 -46 34 -46c37 0 52 52 68 106l15 -3c-21 -71 -39 -130 -108 -130c-33 0 -84 22 -84 88c0 14 3 29 5 43l62 293h-70l3 18h71z" />
    <glyph glyph-name="u" unicode="u" horiz-adv-x="583" 
d="M144 445l162 26c-23 -121 -31 -163 -53 -256c-9 -38 -21 -90 -21 -116c0 -21 5 -82 71 -82c63 0 104 65 130 110c74 126 94 235 112 327h80l-73 -350c-3 -15 -6 -30 -6 -45c0 -45 29 -46 34 -46c34 0 49 46 67 106l15 -4c-18 -69 -40 -130 -106 -130c-30 0 -84 16 -84 84
c0 12 2 23 3 34l23 123c-70 -163 -130 -238 -223 -238c-43 0 -120 22 -120 111c0 32 8 66 30 161c19 83 25 120 35 180l-80 -12z" />
    <glyph glyph-name="v" unicode="v" horiz-adv-x="458" 
d="M117 450l149 21c-6 -68 -12 -135 -12 -255c0 -77 3 -113 9 -171c87 60 277 193 277 312c0 59 -38 101 -99 101c-43 0 -58 -22 -65 -33c7 4 10 5 17 5c26 0 49 -22 49 -50c0 -29 -22 -50 -50 -50c-29 0 -50 22 -50 55c0 39 37 90 101 90c69 0 116 -49 116 -116
c0 -80 -68 -160 -166 -241c-72 -61 -155 -114 -194 -138c-12 69 -21 123 -21 252c0 98 4 153 9 213l-68 -10z" />
    <glyph glyph-name="w" unicode="w" horiz-adv-x="750" 
d="M118 452l154 17c-8 -85 -14 -156 -14 -251c0 -65 3 -104 8 -160c50 46 87 82 134 150c82 120 83 190 85 237l-75 -8l-1 15l157 18c-9 -90 -16 -164 -16 -271c0 -63 3 -96 9 -153c258 182 274 259 274 308c0 62 -42 99 -93 99c-30 0 -45 -12 -56 -22c41 4 61 -29 61 -53
c0 -28 -25 -53 -52 -53c-29 0 -54 24 -54 58c0 41 44 87 104 87c62 0 109 -50 109 -117c0 -44 -16 -116 -182 -250c-28 -22 -96 -74 -179 -124c-7 44 -17 109 -17 217l1 114c-32 -72 -85 -189 -278 -330c-9 66 -17 127 -17 233c0 75 5 150 9 231l-69 -8z" />
    <glyph glyph-name="x" unicode="x" horiz-adv-x="583" 
d="M431 276l81 115c25 35 57 79 111 79c49 0 72 -40 72 -75c0 -43 -30 -70 -59 -70c-27 0 -52 24 -52 53c0 27 22 51 50 51c14 0 27 -6 36 -16c4 -4 6 -8 9 -12c0 19 -13 54 -55 54s-71 -39 -96 -71l-92 -133l33 -156c8 -35 19 -79 60 -79c51 0 70 70 81 110l14 -4
c-8 -36 -33 -139 -126 -139c-81 0 -101 75 -110 111l-19 89l-81 -115c-23 -33 -60 -85 -121 -85c-49 0 -86 36 -86 81c0 39 27 64 56 64s52 -23 52 -52s-21 -52 -56 -52c-13 0 -19 4 -27 10c7 -13 20 -35 58 -35c54 0 89 49 111 82l88 127l-32 154c-8 28 -19 73 -58 73
c-52 0 -70 -67 -81 -108l-15 3c13 46 39 136 127 136c85 0 104 -85 115 -134z" />
    <glyph glyph-name="y" unicode="y" horiz-adv-x="583" 
d="M141 440l176 30c-26 -136 -34 -172 -62 -293c-8 -35 -13 -56 -13 -79c0 -54 26 -82 77 -82c56 0 93 47 121 92c81 126 105 249 124 343h80c-9 -35 -10 -41 -17 -74l-61 -289c-20 -102 -76 -381 -310 -381c-95 0 -158 59 -158 128c0 54 34 88 71 88c30 0 51 -23 51 -50
c0 -28 -22 -51 -51 -51c-33 0 -43 23 -51 40c-1 -9 -3 -19 -3 -28c0 -63 64 -109 130 -109c80 0 137 61 172 135c35 76 76 236 100 367c-76 -175 -132 -240 -227 -240c-63 0 -125 32 -125 114c0 13 1 32 19 114c28 119 31 133 47 224l-88 -14z" />
    <glyph glyph-name="z" unicode="z" horiz-adv-x="500" 
d="M152 297l-14 4c21 67 52 169 133 169c26 0 45 -9 63 -18c51 -24 84 -40 121 -40c56 0 87 35 108 59l13 -10l-405 -421c19 9 45 20 83 20c21 0 43 -4 63 -10c34 -11 65 -30 98 -44c15 -6 31 -11 46 -11c54 0 86 51 86 105c0 34 -12 58 -24 82l12 8c13 -28 26 -53 26 -93
c0 -91 -75 -155 -152 -155c-45 0 -82 20 -112 41c-45 29 -66 42 -101 42c-42 0 -65 -24 -80 -41l-12 12l379 393c-22 -11 -45 -24 -91 -24c-39 0 -68 11 -97 25c-24 11 -38 18 -58 18c-51 0 -69 -54 -85 -111z" />
    <glyph glyph-name="braceleft" unicode="{" horiz-adv-x="354" 
d="M319 476v93c0 43 8 78 39 105c29 24 63 28 93 32v-7c-91 -16 -92 -52 -92 -114v-79c-1 -101 5 -132 -58 -153c57 -18 65 -47 58 -162l-1 -70c6 -63 6 -93 93 -115v-6c-33 4 -60 6 -93 32c-37 29 -40 71 -39 114l2 90c1 55 -11 85 -28 100c-8 8 -17 12 -25 14v8
c58 11 51 53 51 118z" />
    <glyph glyph-name="braceright" unicode="}" horiz-adv-x="354" 
d="M219 506v79c0 62 -1 98 -92 114v7c30 -4 64 -8 93 -32c31 -27 39 -62 39 -105v-93c0 -65 -7 -107 51 -118v-8c-8 -2 -17 -6 -25 -14c-17 -15 -29 -45 -28 -100l2 -90c1 -43 -2 -85 -39 -114c-33 -26 -60 -28 -93 -32v6c87 22 87 52 93 115l-1 70c-7 115 1 144 58 162
c-63 21 -57 52 -58 153z" />
    <glyph glyph-name="exclamdown" unicode="&#xa1;" horiz-adv-x="250" 
d="M236 503h16c-24 -111 -41 -184 -45 -339c-2 -102 -2 -114 -9 -133c-16 -44 -50 -44 -55 -44c-27 0 -52 21 -52 60c0 32 25 95 52 161c54 133 67 184 93 295zM321 703c11 -11 17 -27 17 -42c0 -33 -26 -59 -59 -59c-32 0 -59 26 -59 59c0 32 27 59 59 59
c15 0 31 -7 42 -17z" />
    <glyph glyph-name="cent" unicode="&#xa2;" horiz-adv-x="417" 
d="M384 468l14 71h19l-15 -71c62 -7 109 -35 109 -100c0 -41 -25 -68 -59 -68c-26 0 -50 20 -50 49c0 28 21 49 49 49c30 0 39 -20 44 -32c2 36 -22 87 -96 85l-95 -449c28 1 60 3 109 47c32 30 43 47 52 62l12 -8c-71 -106 -137 -114 -177 -119l-16 -76h-18l15 75
c-42 5 -155 18 -155 171c0 114 81 302 258 314zM285 3l94 445c-106 -35 -171 -212 -171 -307c0 -111 56 -130 77 -138z" />
    <glyph glyph-name="sterling" unicode="&#xa3;" horiz-adv-x="667" 
d="M160 334h180c13 76 32 184 107 256c43 40 103 65 160 65c89 0 137 -54 137 -117c0 -52 -34 -74 -59 -74c-29 0 -52 24 -52 52s24 50 51 50c21 0 33 -12 45 -23c-4 24 -7 42 -27 62c-17 18 -44 32 -81 32c-40 0 -77 -18 -103 -44c-53 -52 -70 -141 -93 -259h187l-4 -18
h-187c-22 -123 -46 -173 -84 -232c83 -24 135 -37 224 -37c124 0 150 53 175 115l16 -5c-19 -66 -54 -175 -184 -175c-40 0 -79 10 -115 25c-33 12 -64 28 -96 41l-37 16c-41 -45 -93 -79 -153 -79c-59 0 -79 35 -79 60c0 18 10 36 23 48c20 16 48 20 74 20
c35 0 68 -6 101 -13c25 68 34 107 50 216h-180zM277 79c-31 10 -59 18 -97 18c-37 0 -76 -15 -76 -52c0 -23 19 -45 59 -45c66 0 97 52 114 79z" />
    <glyph glyph-name="yen" unicode="&#xa5;" horiz-adv-x="667" 
d="M507 277l-8 -38h160l-4 -19h-160l-42 -202h105l-4 -18h-295l4 18h105l41 202h-168l4 19h168l7 33l-23 60h-132l3 19h121l-104 267h-92l4 18h278l-4 -18h-92l121 -309l226 309h-90l3 18h206l-4 -18h-86l-195 -267h123l-4 -19h-133z" />
    <glyph glyph-name="florin" unicode="&#x192;" horiz-adv-x="354" 
d="M257 417l7 33c13 56 26 112 73 157c41 40 88 49 122 49c63 0 92 -35 92 -68c0 -29 -25 -51 -49 -51c-27 0 -50 24 -50 49c0 29 22 41 36 49c-10 2 -19 4 -28 4c-21 0 -44 -10 -60 -26c-26 -26 -36 -69 -50 -130l-14 -66h94l-4 -18h-93l-65 -307
c-24 -100 -49 -206 -120 -275c-16 -15 -55 -50 -115 -50c-59 0 -85 36 -85 66c0 29 23 51 50 51c26 0 50 -21 50 -50c0 -31 -21 -43 -38 -49c9 -2 15 -2 22 -2c89 0 113 106 135 200l86 416h-75l3 18h76z" />
    <glyph glyph-name="quotesingle" unicode="'" horiz-adv-x="208" 
d="M338 712c24 0 24 -19 12 -41c-12 -21 -85 -126 -126 -187c-14 -20 -22 -25 -31 -25s-11 5 -1 25c29 61 76 166 88 187c12 22 34 41 58 41z" />
    <glyph glyph-name="quotedblleft" unicode="&#x201c;" horiz-adv-x="396" 
d="M523 719l15 -19c-61 -48 -72 -67 -92 -113c8 3 17 5 26 5c34 0 59 -27 59 -57c0 -33 -26 -60 -59 -60c-28 0 -60 22 -60 71c0 72 53 129 111 173zM336 719l15 -19c-61 -48 -72 -67 -92 -113c9 3 17 5 27 5c33 0 58 -27 58 -57c0 -33 -26 -60 -59 -60c-28 0 -60 22 -60 71
c0 72 53 129 111 173z" />
    <glyph glyph-name="guillemotleft" unicode="&#xab;" horiz-adv-x="271" 
d="M245 238l77 -138h-31l-79 142l137 144h36zM156 252l85 -152h-32l-87 152l126 134h35z" />
    <glyph glyph-name="guilsinglleft" unicode="&#x2039;" horiz-adv-x="187" 
d="M158 238l77 -138h-31l-79 142l137 144h37z" />
    <glyph glyph-name="guilsinglright" unicode="&#x203a;" horiz-adv-x="187" 
d="M238 247l-77 139h30l80 -143l-137 -143h-37z" />
    <glyph glyph-name="fi" unicode="&#xfb01;" 
d="M230 428l20 93c17 72 52 219 232 219c103 0 140 -52 140 -87c0 -29 -24 -52 -51 -52c-30 0 -52 23 -52 51c0 26 16 37 21 41c-22 17 -48 28 -75 28c-28 0 -53 -14 -70 -31c-34 -34 -47 -86 -56 -125l-29 -137h93c40 0 115 3 191 22c-28 -138 -54 -220 -65 -272
c-24 -84 -28 -101 -28 -122c0 -44 29 -45 33 -45c40 0 64 84 71 108l15 -4c-20 -65 -43 -129 -111 -129c-30 0 -82 17 -82 88c0 32 10 69 22 109c17 59 49 176 61 235c-40 -7 -51 -7 -111 -8h-92l-80 -377c-25 -101 -56 -214 -127 -283c-9 -7 -48 -42 -108 -42
c-59 0 -85 36 -85 66c0 29 23 51 50 51s50 -21 50 -50c0 -27 -16 -42 -38 -50c8 0 16 -1 24 -1c88 1 111 108 132 200l102 486h-75l3 18h75z" />
    <glyph glyph-name="fl" unicode="&#xfb02;" horiz-adv-x="521" 
d="M231 428l21 96c11 54 26 120 74 165c33 30 83 50 143 50c50 0 77 -14 88 -20l82 16c-60 -290 -73 -344 -138 -620c-9 -36 -11 -47 -11 -59c0 -33 20 -43 33 -43c35 0 54 56 72 107l15 -3c-22 -66 -43 -129 -111 -129c-41 0 -83 28 -83 86c0 20 5 39 9 58
c47 193 53 223 111 487c7 34 9 43 9 51c0 44 -42 52 -70 52c-25 0 -54 -6 -79 -26c-31 -25 -36 -47 -56 -131l-29 -137h93l-4 -18h-93l-80 -377c-24 -101 -49 -206 -120 -275c-16 -15 -55 -50 -115 -50c-59 0 -85 36 -85 66c0 29 23 51 50 51s50 -21 50 -50
c0 -27 -16 -42 -38 -50c8 0 16 -1 24 -1c87 0 112 108 133 200l101 486h-75l4 18h75z" />
    <glyph glyph-name="endash" unicode="&#x2013;" 
d="M132 222l11 53h476l-12 -53h-475z" />
    <glyph glyph-name="periodcentered" unicode="&#xb7;" horiz-adv-x="208" 
d="M173 207c-11 11 -17 26 -17 41c0 33 26 59 59 59c32 0 59 -26 59 -59c0 -32 -27 -58 -59 -58c-15 0 -31 6 -42 17z" />
    <glyph glyph-name="bullet" unicode="&#x2022;" horiz-adv-x="333" 
d="M376 353c0 -59 -43 -112 -111 -112c-64 0 -114 50 -114 111c0 59 47 113 113 113s112 -51 112 -112z" />
    <glyph glyph-name="quotesinglbase" unicode="&#x201a;" horiz-adv-x="208" 
d="M104 -154l-10 21c72 45 91 67 117 128c-7 -3 -15 -7 -27 -7c-30 0 -59 24 -59 59c0 32 25 59 59 59c33 0 60 -25 60 -70c0 -26 -11 -58 -27 -86c-34 -57 -76 -82 -113 -104z" />
    <glyph glyph-name="quotedblbase" unicode="&#x201e;" horiz-adv-x="396" 
d="M311 -137l-16 18c62 48 73 68 93 113c-9 -3 -18 -5 -27 -5c-33 0 -58 28 -58 58c0 32 25 59 59 59c28 0 59 -22 59 -71c0 -72 -52 -129 -110 -172zM122 -137l-15 18c61 48 73 68 93 113c-9 -3 -18 -5 -27 -5c-34 0 -59 28 -59 58c0 32 26 59 59 59c29 0 60 -22 60 -71
c0 -72 -53 -129 -111 -172z" />
    <glyph glyph-name="quotedblright" unicode="&#x201d;" horiz-adv-x="396" 
d="M441 476l-16 18c62 48 73 68 93 113c-9 -3 -18 -5 -27 -5c-33 0 -58 28 -58 58c0 32 25 59 59 59c28 0 60 -22 60 -71c0 -72 -53 -129 -111 -172zM252 476l-15 18c61 48 73 68 93 113c-9 -3 -18 -5 -27 -5c-33 0 -59 28 -59 58c0 32 26 59 59 59c29 0 60 -22 60 -71
c0 -72 -53 -129 -111 -172z" />
    <glyph glyph-name="guillemotright" unicode="&#xbb;" horiz-adv-x="271" 
d="M234 247l-77 139h31l79 -143l-137 -143h-36zM323 233l-85 153h32l88 -153l-126 -133h-35z" />
    <glyph glyph-name="ellipsis" unicode="&#x2026;" horiz-adv-x="1000" 
d="M196 12c-11 11 -17 26 -17 41c0 33 26 59 59 59c32 0 59 -26 59 -59c0 -32 -27 -59 -59 -59c-15 0 -31 7 -42 18zM530 12c-11 11 -17 26 -17 41c0 33 26 59 59 59c32 0 59 -26 59 -59c0 -32 -27 -59 -59 -59c-15 0 -31 7 -42 18zM864 12c-11 11 -17 26 -17 41
c0 33 26 59 59 59c32 0 59 -26 59 -59c0 -32 -27 -59 -59 -59c-15 0 -31 7 -42 18z" />
    <glyph glyph-name="questiondown" unicode="&#xbf;" horiz-adv-x="458" 
d="M415 502h17c-6 -35 -11 -68 -30 -104c-22 -40 -32 -47 -110 -101c-33 -23 -82 -64 -82 -148c0 -96 68 -148 135 -148c14 0 119 3 151 119c-12 -9 -22 -17 -40 -17c-27 0 -54 22 -54 53c0 30 25 55 54 55c22 0 57 -16 57 -70c0 -61 -56 -159 -195 -159
c-105 0 -202 59 -202 174c0 47 18 93 54 132c38 42 82 58 128 74c68 23 101 44 117 140zM500 702c11 -11 17 -26 17 -41c0 -33 -26 -59 -59 -59c-32 0 -59 26 -59 59c0 32 27 59 59 59c16 0 31 -7 42 -18z" />
    <glyph glyph-name="grave" unicode="`" horiz-adv-x="250" 
d="M42 636l17 22l149 -127l-17 -22z" />
    <glyph glyph-name="acute" unicode="&#xb4;" horiz-adv-x="250" 
d="M17 531l202 127l14 -23l-203 -127z" />
    <glyph glyph-name="circumflex" unicode="&#x2c6;" horiz-adv-x="250" 
d="M-9 529l160 129l108 -133l-21 -18l-91 113l-141 -113z" />
    <glyph glyph-name="tilde" unicode="&#x2dc;" horiz-adv-x="250" 
d="M10 556l-25 9c18 29 39 61 80 61c18 0 37 -7 53 -16c12 -6 23 -13 35 -20c12 -6 24 -10 37 -10c25 0 42 18 55 32l21 -13c-15 -20 -34 -47 -76 -47c-5 0 -20 0 -42 10c-15 7 -28 16 -43 24c-12 6 -25 11 -38 11c-30 0 -45 -23 -57 -41z" />
    <glyph glyph-name="macron" unicode="&#xaf;" horiz-adv-x="250" 
d="M241 568h-239l6 24h239z" />
    <glyph glyph-name="breve" unicode="&#x2d8;" horiz-adv-x="250" 
d="M227 649h21c-3 -56 -47 -133 -138 -133c-76 0 -109 61 -109 115c0 7 1 11 1 18h20c0 -19 8 -92 98 -92c68 0 101 51 107 92z" />
    <glyph glyph-name="dotaccent" unicode="&#x2d9;" horiz-adv-x="250" 
d="M89 546c-9 10 -14 23 -14 36c0 27 22 49 49 49c28 0 50 -22 50 -49c0 -28 -22 -50 -50 -50c-12 0 -25 5 -35 14z" />
    <glyph glyph-name="dieresis" unicode="&#xa8;" horiz-adv-x="250" 
d="M-1 547c-9 9 -15 22 -15 35c0 28 23 49 49 49c28 0 50 -22 50 -49c0 -26 -22 -49 -50 -49c-12 0 -25 5 -34 14zM181 547c-9 9 -14 22 -14 35c0 27 22 49 49 49c28 0 50 -22 50 -49s-22 -49 -50 -49c-13 0 -25 5 -35 14z" />
    <glyph glyph-name="ring" unicode="&#x2da;" horiz-adv-x="250" 
d="M123 648c38 1 66 -29 66 -64c0 -34 -27 -64 -63 -64c-37 0 -65 30 -65 64c0 32 25 63 62 64zM126 626c-20 1 -42 -15 -42 -42c0 -30 27 -42 42 -42c21 0 41 18 41 42s-20 41 -41 42z" />
    <glyph glyph-name="cedilla" unicode="&#xb8;" horiz-adv-x="250" 
d="M110 -7l33 6c45 -14 100 -31 100 -105c0 -63 -53 -120 -126 -120c-67 0 -111 47 -111 98c0 37 25 60 56 60c30 0 50 -21 50 -49s-22 -51 -52 -51c-14 0 -22 5 -32 10c11 -20 28 -53 90 -53c68 0 108 52 108 104c0 62 -49 80 -69 87c-15 5 -31 9 -47 13z" />
    <glyph glyph-name="hungarumlaut" unicode="&#x2dd;" horiz-adv-x="250" 
d="M-54 531l202 127l15 -23l-203 -127zM87 531l202 127l15 -23l-203 -127z" />
    <glyph glyph-name="ogonek" unicode="&#x2db;" horiz-adv-x="250" 
d="M162 8l9 -9c-76 -12 -105 -71 -105 -115c0 -48 33 -77 74 -77c48 0 76 35 84 45l10 -10c-13 -17 -44 -56 -111 -56c-48 0 -108 25 -108 92c0 39 20 112 147 130z" />
    <glyph glyph-name="caron" unicode="&#x2c7;" horiz-adv-x="250" 
d="M-10 640l21 18l92 -113l140 112l17 -19l-160 -131z" />
    <glyph glyph-name="emdash" unicode="&#x2014;" horiz-adv-x="667" 
d="M132 222l11 53h601l-12 -53h-600z" />
    <glyph glyph-name="AE" unicode="&#xc6;" horiz-adv-x="1125" 
d="M1193 577l-1 -14c3 6 7 11 9 17c1 5 2 11 2 17c0 48 -40 103 -119 103c-88 0 -142 -71 -142 -150c0 -149 160 -146 217 -145l-4 -16c-44 1 -115 2 -172 -15c-114 -34 -156 -124 -156 -196c0 -98 67 -171 167 -171c25 0 48 5 67 12c92 33 122 103 138 142l14 -6
c-18 -43 -76 -174 -253 -174c-115 0 -229 66 -229 191c0 49 16 81 34 116h-193c-88 -172 -167 -309 -311 -309c-91 0 -163 65 -163 159c0 90 71 156 153 156c67 0 103 -45 103 -84c0 -32 -22 -57 -53 -57s-54 25 -54 53c0 30 26 53 51 53c8 0 14 -2 22 -5
c-11 12 -26 26 -68 26c-73 0 -138 -58 -138 -143c0 -83 65 -142 146 -142c74 0 121 44 139 63c43 45 67 93 146 249c97 192 241 418 484 418c140 0 188 -68 188 -125c0 -36 -22 -76 -68 -76c-35 0 -57 25 -57 53s22 51 50 51c18 0 51 -12 51 -51zM583 306h196
c70 83 152 91 215 95c-34 11 -62 20 -92 49c-29 29 -47 66 -47 107c0 68 46 113 90 137l24 12c-12 -3 -24 -5 -36 -9c-143 -43 -252 -195 -350 -391z" />
    <glyph glyph-name="ordfeminine" unicode="&#xaa;" horiz-adv-x="354" 
d="M379 489l5 24c-22 -44 -53 -104 -117 -104c-49 0 -82 44 -82 103c0 97 84 200 221 200c29 0 43 -4 75 -13l-46 -211c-5 -18 -6 -27 -6 -35c0 -14 6 -22 15 -22c23 0 34 41 41 66l17 -4c-11 -41 -23 -86 -71 -86c-27 0 -55 18 -55 57c0 8 1 16 3 25zM422 693
c-123 8 -178 -116 -178 -191c0 -41 17 -69 42 -69c42 0 107 95 136 260z" />
    <glyph glyph-name="Lslash" unicode="&#x141;" horiz-adv-x="583" 
d="M212 273l138 53c24 121 37 188 72 253c52 101 137 146 207 146c61 0 118 -34 118 -100c0 -56 -41 -102 -90 -102c-36 0 -59 26 -59 55s24 52 52 52c27 0 50 -22 50 -49c0 -19 -10 -29 -20 -39c6 3 11 5 16 9c19 13 37 42 37 73c0 52 -46 87 -100 87
c-110 0 -139 -129 -151 -181c-5 -23 -30 -141 -36 -167l185 71l-3 -22l-187 -72c-16 -65 -22 -92 -39 -143c-23 -73 -41 -99 -62 -126c51 -21 60 -26 146 -67c174 -85 289 -120 373 -120c20 0 112 0 147 79l13 -5c-14 -33 -23 -54 -49 -80c-24 -23 -60 -50 -126 -50
c-46 0 -91 13 -134 30c-52 20 -101 45 -149 72c-53 30 -106 63 -160 92c-33 17 -45 22 -74 34c-39 -33 -87 -74 -161 -74c-41 0 -81 19 -81 59c0 15 8 29 17 38c14 14 40 26 85 26c44 0 76 -10 114 -22c22 61 36 145 45 220l-137 -52zM293 68c-34 12 -62 21 -108 21
c-13 0 -27 -1 -40 -5c-33 -9 -43 -30 -43 -42s11 -44 66 -44c72 0 109 49 125 70z" />
    <glyph glyph-name="Oslash" unicode="&#xd8;" horiz-adv-x="833" 
d="M99 -4l130 108c-25 37 -59 89 -59 190c0 178 124 432 415 432c158 0 229 -75 260 -107l129 105l11 -14l-127 -107c24 -39 58 -95 58 -193c0 -199 -149 -428 -407 -428c-108 0 -194 32 -268 107l-130 -108zM284 150l510 425c-42 84 -108 134 -203 134
c-209 0 -323 -260 -323 -452c0 -52 6 -74 16 -107zM801 557l-508 -425c38 -86 109 -134 197 -134c242 0 329 315 329 443c0 52 -9 84 -18 116z" />
    <glyph glyph-name="OE" unicode="&#x152;" horiz-adv-x="1021" 
d="M1095 166l13 -6c-16 -38 -41 -92 -105 -134c-53 -34 -109 -41 -152 -41c-77 0 -119 24 -151 47c-34 -18 -91 -47 -194 -47c-169 0 -334 98 -334 312c0 164 115 432 416 432c108 0 168 -36 209 -60c20 17 68 56 152 56c107 0 160 -61 160 -122c0 -50 -34 -73 -67 -73
c-36 0 -54 25 -54 52c0 28 22 51 50 51c22 0 49 -18 49 -48c0 -6 -1 -11 -2 -17c8 12 10 17 10 32c0 62 -52 105 -119 105c-89 0 -137 -75 -137 -153c0 -27 5 -64 35 -95c47 -48 117 -48 178 -48l-3 -16c-62 1 -128 2 -194 -24c-82 -34 -128 -103 -128 -191
s56 -168 160 -168c60 0 113 26 150 63c30 30 45 63 58 93zM666 65c-17 21 -39 50 -39 108s23 114 64 155c69 69 149 73 198 76c-20 6 -39 11 -61 24c-39 23 -80 68 -80 134c0 33 9 51 18 69c-25 27 -75 81 -168 81s-149 -41 -183 -74c-80 -78 -146 -231 -146 -370
c0 -189 115 -268 226 -268c88 0 143 43 171 65z" />
    <glyph glyph-name="ordmasculine" unicode="&#xba;" horiz-adv-x="333" 
d="M352 712c73 2 129 -47 129 -125c0 -69 -47 -180 -162 -180c-59 0 -125 34 -125 125c0 84 59 177 158 180zM361 694c-16 0 -35 -5 -52 -22c-37 -36 -57 -131 -57 -170c0 -43 21 -77 63 -77c41 0 59 28 71 50c25 49 36 108 36 140c0 12 0 79 -61 79z" />
    <glyph glyph-name="ae" unicode="&#xe6;" horiz-adv-x="750" 
d="M806 113l13 -7c-9 -15 -21 -34 -41 -55c-54 -56 -116 -67 -153 -67c-65 0 -162 35 -157 190c-34 -78 -89 -190 -200 -190c-69 0 -138 49 -138 162c0 148 124 322 358 322c41 0 70 -5 104 -10l-12 -56c19 17 73 67 152 67c70 0 118 -45 118 -110c0 -93 -94 -178 -249 -178
c-16 0 -32 1 -48 2c-1 -15 -2 -28 -2 -42c0 -52 14 -137 98 -137c78 0 135 79 157 109zM515 452c-40 1 -81 1 -137 -27c-132 -68 -166 -222 -166 -295c0 -105 61 -119 85 -119c10 0 20 2 30 6c57 21 95 95 106 118c55 108 73 222 82 317zM555 198c14 -1 28 -2 41 -2
c130 0 226 78 226 173c0 61 -44 82 -78 82c-24 0 -54 -10 -88 -44c-66 -67 -91 -167 -101 -209z" />
    <glyph glyph-name="dotlessi" unicode="&#x131;" horiz-adv-x="271" 
d="M152 442l175 26c-17 -81 -32 -151 -59 -250c-15 -54 -37 -133 -37 -163c0 -23 10 -44 33 -44c40 0 63 84 70 108l16 -4c-20 -64 -44 -129 -111 -129c-32 0 -82 18 -82 87c0 28 7 57 25 127c33 122 54 201 63 242l-90 -15z" />
    <glyph glyph-name="lslash" unicode="&#x142;" horiz-adv-x="250" 
d="M368 734l-75 -347l89 34l-2 -21l-92 -36c-1 -5 -42 -179 -58 -249c-9 -35 -11 -47 -11 -59c0 -33 20 -43 33 -43c35 0 52 49 72 107l15 -3c-22 -66 -43 -129 -111 -129c-41 0 -83 28 -83 87c0 19 5 38 9 57l46 199l-83 -32l2 21l87 34l78 353l-88 -12l-1 16z" />
    <glyph glyph-name="oslash" unicode="&#xf8;" horiz-adv-x="521" 
d="M76 -9l84 74c-12 23 -29 57 -29 115c0 119 84 289 261 289c88 0 131 -44 154 -68l77 68l12 -14l-78 -69c14 -28 31 -63 31 -116c0 -91 -63 -287 -261 -287c-90 0 -133 42 -156 66l-84 -72zM212 110l289 253c-8 29 -24 90 -103 90c-65 0 -102 -42 -130 -96
c-30 -60 -58 -160 -56 -247zM504 341l-288 -252c6 -21 11 -41 34 -63c25 -24 51 -28 72 -28s56 4 90 40c50 53 93 195 93 274c0 9 0 15 -1 29z" />
    <glyph glyph-name="oe" unicode="&#x153;" horiz-adv-x="771" 
d="M827 112l12 -7c-24 -37 -80 -122 -192 -122c-48 0 -86 18 -109 42c-17 16 -24 32 -31 46c-16 -21 -30 -38 -60 -56s-71 -32 -119 -32c-109 0 -195 71 -195 197c0 121 84 290 258 290c17 0 33 -2 48 -5c79 -16 103 -57 127 -97c27 34 81 101 178 101
c93 0 128 -58 128 -112c0 -58 -55 -176 -250 -176c-17 0 -34 1 -50 1c-2 -15 -3 -29 -3 -44c0 -28 6 -134 98 -134c82 0 133 71 160 108zM399 455c-38 1 -70 -17 -91 -38c-56 -59 -94 -202 -94 -282c0 -54 17 -89 36 -108c19 -18 46 -29 74 -29c80 0 117 75 127 95
c14 30 55 132 55 224c0 91 -41 137 -107 138zM575 198c14 -1 26 -2 40 -2c144 0 228 90 228 171c0 36 -18 85 -78 85c-49 0 -87 -37 -117 -77c-49 -67 -64 -137 -73 -177z" />
    <glyph glyph-name="germandbls" unicode="&#xdf;" 
d="M230 435l21 99c12 51 24 104 66 148c36 38 92 63 146 63c81 0 136 -50 136 -112c0 -64 -48 -100 -78 -122c-24 -17 -48 -35 -48 -69c0 -31 21 -58 38 -78c39 -48 82 -101 82 -185c0 -127 -95 -192 -185 -192c-66 0 -120 41 -120 116c0 27 6 43 14 62l15 -6
c-7 -19 -12 -32 -12 -55c0 -79 59 -96 90 -96c79 0 120 93 120 159c0 27 -6 50 -12 66c-12 31 -32 57 -46 87c-16 34 -19 61 -19 77c0 43 19 71 40 97c14 16 30 32 43 49c13 16 39 48 39 95c0 46 -28 92 -97 92c-98 0 -116 -96 -136 -202l-94 -502
c-16 -82 -27 -138 -56 -194c-64 -128 -155 -128 -172 -128c-59 0 -82 40 -82 68c0 31 24 52 51 52c26 0 47 -18 47 -49c0 -43 -32 -46 -51 -48c11 -6 18 -9 33 -9c92 0 111 101 142 261l82 441l-76 -2l2 15z" />
    <glyph glyph-name="Igrave" unicode="&#xcc;" horiz-adv-x="313" 
d="M207 688l4 18h295l-4 -18h-105l-141 -670h105l-5 -18h-294l3 18h105l141 670h-104zM259 868l17 21l148 -126l-16 -22z" />
    <glyph glyph-name="threesuperior" unicode="&#xb3;" horiz-adv-x="354" 
d="M282 447l1 16c15 1 36 3 52 8c39 11 62 40 62 80c0 32 -18 75 -74 75c-39 0 -70 -21 -82 -52c1 0 10 3 16 3c16 0 34 -12 34 -33c0 -18 -14 -35 -36 -35s-38 20 -38 44c0 37 37 93 125 93c78 0 119 -47 119 -95c0 -43 -31 -88 -112 -98c8 -2 15 -4 23 -7
c44 -17 65 -54 65 -93c0 -61 -49 -123 -149 -123c-81 0 -124 45 -124 97c0 38 23 65 52 65c22 0 39 -18 39 -38s-18 -39 -38 -39c-11 0 -23 4 -33 18c-2 -43 28 -81 89 -81c91 0 100 92 100 108c0 26 -10 48 -22 61c-17 19 -39 23 -69 26z" />
    <glyph glyph-name="Oacute" unicode="&#xd3;" horiz-adv-x="833" 
d="M581 725c186 2 336 -111 336 -320c0 -177 -131 -423 -416 -423c-156 0 -330 95 -330 310c0 185 129 431 410 433zM269 262c0 -193 122 -266 225 -266c214 0 325 272 325 443c0 193 -119 271 -229 269c-218 -3 -321 -277 -321 -446zM578 764l202 125l14 -22l-203 -127z
" />
    <glyph glyph-name="Idieresis" unicode="&#xcf;" horiz-adv-x="313" 
d="M207 688l4 18h295l-4 -18h-105l-141 -670h105l-5 -18h-294l3 18h105l141 670h-104zM254 778c-9 9 -15 22 -15 35c0 27 23 49 49 49c28 0 50 -22 50 -49s-22 -50 -50 -50c-12 0 -25 6 -34 15zM436 777c-9 10 -14 23 -14 36c0 27 22 49 49 49c28 0 50 -22 50 -49
c0 -28 -22 -50 -50 -50c-12 0 -25 5 -35 14z" />
    <glyph glyph-name="Ccedilla" unicode="&#xc7;" horiz-adv-x="667" 
d="M465 -18h-6l12 -7c17 -11 41 -40 41 -82c0 -64 -53 -119 -126 -119c-67 0 -111 46 -111 97c0 37 25 60 56 60c30 0 50 -21 50 -49s-22 -51 -52 -51c-14 0 -22 5 -32 10c11 -20 28 -52 90 -52c68 0 108 51 108 103c0 12 -1 39 -23 62c-21 20 -42 26 -85 36
c-144 36 -216 158 -216 295c0 214 153 440 389 440c141 0 228 -80 228 -185c0 -64 -41 -87 -66 -87c-29 0 -57 26 -57 57c0 29 24 55 56 55c23 0 38 -11 50 -30c8 85 -68 169 -187 169c-196 0 -311 -237 -311 -426c0 -163 88 -273 215 -273c71 0 137 34 188 84
c33 32 49 58 67 88l14 -8c-28 -48 -107 -184 -292 -187z" />
    <glyph glyph-name="Ugrave" unicode="&#xd9;" horiz-adv-x="938" 
d="M495 706h189l-4 -18h-90l-94 -445c131 15 217 96 217 202c0 8 0 13 -1 26l18 2c1 -9 2 -21 2 -32c0 -79 -57 -193 -239 -218c-1 -15 -2 -30 -2 -45c0 -108 77 -172 177 -172c43 0 87 12 119 31c85 50 103 134 133 271l81 380h-98l4 18h223l-4 -18h-100l-84 -393
c-26 -125 -37 -178 -92 -238c-18 -19 -72 -75 -198 -75c-70 0 -140 15 -190 63c-60 57 -60 131 -60 142s1 21 3 35c-41 8 -86 16 -131 43c-67 38 -112 106 -112 188c0 72 37 152 126 205c78 46 150 47 207 48zM502 688h-18c-46 0 -108 -1 -179 -39
c-99 -54 -125 -146 -125 -200c0 -69 36 -112 58 -134c56 -56 117 -66 170 -74c1 8 1 12 4 24zM681 868l17 21l148 -126l-16 -22z" />
    <glyph glyph-name="thorn" unicode="&#xfe;" horiz-adv-x="562" 
d="M223 27c25 -12 46 -22 87 -22c91 0 143 48 179 113c24 41 59 124 59 199c0 82 -43 121 -90 121c-62 0 -102 -60 -116 -82c-72 -106 -97 -223 -119 -329zM217 4l-54 -254h-79l204 958l-91 -12v14l175 25l-99 -476c51 110 107 205 214 205c87 0 144 -59 144 -160
c0 -120 -86 -317 -302 -317c-51 0 -83 9 -112 17z" />
    <glyph glyph-name="Udieresis" unicode="&#xdc;" horiz-adv-x="938" 
d="M495 706h189l-4 -18h-90l-94 -445c131 15 217 96 217 202c0 8 0 13 -1 26l18 2c1 -9 2 -21 2 -32c0 -79 -57 -193 -239 -218c-1 -15 -2 -30 -2 -45c0 -108 77 -172 177 -172c43 0 87 12 119 31c85 50 103 134 133 271l81 380h-98l4 18h223l-4 -18h-100l-84 -393
c-26 -125 -37 -178 -92 -238c-18 -19 -72 -75 -198 -75c-70 0 -140 15 -190 63c-60 57 -60 131 -60 142s1 21 3 35c-41 8 -86 16 -131 43c-67 38 -112 106 -112 188c0 72 37 152 126 205c78 46 150 47 207 48zM502 688h-18c-46 0 -108 -1 -179 -39
c-99 -54 -125 -146 -125 -200c0 -69 36 -112 58 -134c56 -56 117 -66 170 -74c1 8 1 12 4 24zM657 778c-9 9 -15 22 -15 35c0 27 23 49 49 49c28 0 50 -22 50 -49s-22 -50 -50 -50c-12 0 -25 6 -34 15zM839 777c-9 10 -14 23 -14 36c0 27 22 49 49 49c28 0 50 -22 50 -49
c0 -28 -22 -50 -50 -50c-12 0 -25 5 -35 14z" />
    <glyph glyph-name="Odieresis" unicode="&#xd6;" horiz-adv-x="833" 
d="M581 725c186 2 336 -111 336 -320c0 -177 -131 -423 -416 -423c-156 0 -330 95 -330 310c0 185 129 431 410 433zM269 262c0 -193 122 -266 225 -266c214 0 325 272 325 443c0 193 -119 271 -229 269c-218 -3 -321 -277 -321 -446zM510 778c-9 9 -15 22 -15 35
c0 27 23 49 49 49c28 0 50 -22 50 -49s-22 -50 -50 -50c-12 0 -25 6 -34 15zM692 777c-9 10 -14 23 -14 36c0 27 22 49 49 49c28 0 50 -22 50 -49c0 -28 -22 -50 -50 -50c-12 0 -25 5 -35 14z" />
    <glyph glyph-name="Egrave" unicode="&#xc8;" horiz-adv-x="521" 
d="M592 580l-1 -8c-1 -4 -2 -8 -4 -12l5 8c4 7 7 18 7 33c0 76 -72 102 -119 102c-76 0 -138 -63 -138 -152c0 -144 148 -144 214 -144l-3 -16c-69 1 -143 1 -210 -30c-88 -41 -119 -118 -119 -181c0 -96 68 -171 166 -171c57 0 156 27 206 154l15 -6
c-22 -48 -79 -174 -252 -174c-129 0 -231 77 -231 192c0 126 115 236 280 228c-90 11 -155 81 -155 157c0 77 69 163 205 163c110 0 157 -66 157 -120c0 -48 -31 -76 -69 -76c-33 0 -55 23 -55 53c0 26 21 51 51 51c31 0 50 -26 50 -51zM363 868l17 21l148 -126l-16 -22z
" />
    <glyph glyph-name="Acircumflex" unicode="&#xc2;" horiz-adv-x="771" 
d="M432 -106l-4 -16c-57 12 -90 22 -156 57c-77 -108 -168 -195 -284 -195c-84 0 -156 60 -156 140c0 70 59 98 91 98c39 0 63 -28 63 -57c0 -28 -23 -53 -54 -53c-32 0 -53 25 -53 54c0 12 4 19 9 29c-14 -9 -39 -25 -39 -72c0 -66 59 -123 138 -123c135 0 223 137 261 195
c-41 37 -112 102 -112 211c0 141 116 228 236 228c37 0 66 -9 100 -19c116 204 231 337 430 337c14 0 28 -1 41 -1l-3 -18c-12 0 -24 1 -36 1c-16 0 -30 -1 -49 -3l-144 -669h105l-3 -18h-300l4 18h103c4 28 8 56 8 84c0 126 -61 201 -141 245l-104 -212
c-44 -92 -66 -127 -102 -186l29 -16c53 -25 71 -30 122 -39zM644 111l121 553c-129 -60 -192 -155 -270 -301c74 -45 141 -101 149 -252zM257 -35c31 56 39 71 105 203c40 82 78 147 103 189c-30 9 -57 17 -92 17c-111 0 -220 -80 -220 -212c0 -105 68 -165 104 -197z
M693 761l159 130l109 -133l-20 -17l-92 112l-139 -112z" />
    <glyph glyph-name="twosuperior" unicode="&#xb2;" horiz-adv-x="354" 
d="M233 571l3 2c6 2 11 4 17 4c17 0 37 -15 37 -37c0 -19 -15 -38 -38 -38c-24 0 -40 21 -40 49c0 53 52 97 123 97s128 -42 128 -107c0 -96 -101 -129 -126 -137c-81 -26 -109 -35 -141 -83c-3 -4 -16 -28 -16 -28l5 2c13 7 26 9 39 9c21 0 23 -1 73 -12c21 -4 39 -7 62 -7
c57 0 72 19 80 73h17c-6 -53 -20 -126 -97 -126c-32 0 -62 13 -83 24c-46 23 -51 26 -68 26c-36 0 -45 -33 -50 -51l-17 2c25 108 76 146 141 181c61 33 117 62 117 134c0 48 -36 79 -81 79c-56 0 -73 -33 -84 -53z" />
    <glyph glyph-name="Ntilde" unicode="&#xd1;" horiz-adv-x="917" 
d="M1256 810l2 -9l1 9c0 29 -37 61 -81 61c-26 0 -57 -12 -88 -43c-60 -59 -80 -143 -107 -256l-129 -598l-250 672l-65 -290c-23 -102 -42 -185 -88 -257c-20 -32 -83 -124 -208 -124c-100 0 -154 66 -154 132c0 65 52 107 92 107c35 0 62 -27 62 -58
c0 -30 -24 -53 -55 -53c-24 0 -54 18 -54 56c0 6 1 11 2 16c-13 -18 -28 -38 -28 -69c0 -36 29 -110 128 -110c200 0 250 224 280 358l72 335h-107l4 18h188l199 -540l91 418c25 105 71 304 214 304c65 0 98 -40 98 -84c0 -41 -30 -70 -63 -70c-28 0 -54 23 -54 54
c0 29 25 53 53 53c20 0 39 -12 45 -32zM712 785l-26 9c19 31 39 62 80 62c19 0 37 -7 54 -15c12 -6 23 -14 35 -21c11 -6 24 -11 36 -11c25 0 43 18 55 32l21 -13c-14 -20 -33 -47 -75 -47c-5 0 -20 0 -42 10c-15 7 -29 17 -43 25c-12 6 -25 11 -39 11
c-29 0 -44 -24 -56 -42z" />
    <glyph glyph-name="ccedilla" unicode="&#xe7;" horiz-adv-x="396" 
d="M466 112l13 -8c-14 -21 -54 -84 -131 -111c-4 -2 -34 -9 -34 -9c5 -2 11 -5 16 -8c14 -10 41 -38 41 -82c0 -64 -53 -120 -126 -120c-67 0 -111 47 -111 98c0 37 25 60 56 60c30 0 50 -21 50 -49s-22 -51 -52 -51c-14 0 -22 5 -32 10c11 -20 28 -53 90 -53
c67 0 108 52 108 104c0 71 -61 85 -81 88c-39 8 -146 30 -146 172c0 132 101 316 267 316c77 0 120 -47 120 -100c0 -44 -29 -68 -59 -68c-29 0 -51 23 -51 50c0 26 22 49 49 49c31 0 41 -26 45 -35c3 47 -31 87 -87 87c-113 0 -203 -193 -203 -312c0 -58 23 -137 99 -137
c66 0 117 47 159 109z" />
    <glyph glyph-name="Ograve" unicode="&#xd2;" horiz-adv-x="833" 
d="M581 725c186 2 336 -111 336 -320c0 -177 -131 -423 -416 -423c-156 0 -330 95 -330 310c0 185 129 431 410 433zM269 262c0 -193 122 -266 225 -266c214 0 325 272 325 443c0 193 -119 271 -229 269c-218 -3 -321 -277 -321 -446zM541 868l17 21l148 -126l-16 -22z" />
    <glyph glyph-name="onesuperior" unicode="&#xb9;" horiz-adv-x="354" 
d="M229 556l154 87h15l-81 -383h55l-4 -19h-170l4 19h55l71 330l-89 -50z" />
    <glyph glyph-name="Adieresis" unicode="&#xc4;" horiz-adv-x="771" 
d="M432 -106l-4 -16c-57 12 -90 22 -156 57c-77 -108 -168 -195 -284 -195c-84 0 -156 60 -156 140c0 70 59 98 91 98c39 0 63 -28 63 -57c0 -28 -23 -53 -54 -53c-32 0 -53 25 -53 54c0 12 4 19 9 29c-14 -9 -39 -25 -39 -72c0 -66 59 -123 138 -123c135 0 223 137 261 195
c-41 37 -112 102 -112 211c0 141 116 228 236 228c37 0 66 -9 100 -19c116 204 231 337 430 337c14 0 28 -1 41 -1l-3 -18c-12 0 -24 1 -36 1c-16 0 -30 -1 -49 -3l-144 -669h105l-3 -18h-300l4 18h103c4 28 8 56 8 84c0 126 -61 201 -141 245l-104 -212
c-44 -92 -66 -127 -102 -186l29 -16c53 -25 71 -30 122 -39zM644 111l121 553c-129 -60 -192 -155 -270 -301c74 -45 141 -101 149 -252zM257 -35c31 56 39 71 105 203c40 82 78 147 103 189c-30 9 -57 17 -92 17c-111 0 -220 -80 -220 -212c0 -105 68 -165 104 -197z
M667 778c-9 9 -15 22 -15 35c0 27 23 49 49 49c28 0 50 -22 50 -49s-22 -50 -50 -50c-12 0 -25 6 -34 15zM849 777c-9 10 -14 23 -14 36c0 27 22 49 49 49c28 0 50 -22 50 -49c0 -28 -22 -50 -50 -50c-12 0 -25 5 -35 14z" />
    <glyph glyph-name="Agrave" unicode="&#xc0;" horiz-adv-x="771" 
d="M432 -106l-4 -16c-57 12 -90 22 -156 57c-77 -108 -168 -195 -284 -195c-84 0 -156 60 -156 140c0 70 59 98 91 98c39 0 63 -28 63 -57c0 -28 -23 -53 -54 -53c-32 0 -53 25 -53 54c0 12 4 19 9 29c-14 -9 -39 -25 -39 -72c0 -66 59 -123 138 -123c135 0 223 137 261 195
c-41 37 -112 102 -112 211c0 141 116 228 236 228c37 0 66 -9 100 -19c116 204 231 337 430 337c14 0 28 -1 41 -1l-3 -18c-12 0 -24 1 -36 1c-16 0 -30 -1 -49 -3l-144 -669h105l-3 -18h-300l4 18h103c4 28 8 56 8 84c0 126 -61 201 -141 245l-104 -212
c-44 -92 -66 -127 -102 -186l29 -16c53 -25 71 -30 122 -39zM644 111l121 553c-129 -60 -192 -155 -270 -301c74 -45 141 -101 149 -252zM257 -35c31 56 39 71 105 203c40 82 78 147 103 189c-30 9 -57 17 -92 17c-111 0 -220 -80 -220 -212c0 -105 68 -165 104 -197z
M718 868l17 21l148 -126l-16 -22z" />
    <glyph glyph-name="trademark" unicode="&#x2122;" horiz-adv-x="771" 
d="M648 374l-106 251v-171c0 -43 5 -48 33 -52l8 -1v-27c-49 1 -61 1 -113 0v27l6 1c30 5 30 14 31 52v212l-3 4c-11 7 -14 8 -29 9v28c15 -1 30 -2 45 -2c14 0 29 1 44 1l104 -255l109 255c37 0 45 -1 89 0v-27h-7c-33 -4 -33 -17 -32 -57v-168c0 -46 1 -49 27 -52l6 -1
v-27c-19 1 -39 2 -59 2c-21 0 -42 -1 -63 -2v27l6 1c27 3 27 7 28 52v169l-106 -249h-18zM171 624h-24c2 39 3 48 4 82c46 0 93 -1 139 -1s93 1 140 1c0 -34 1 -47 4 -82h-25c-15 44 -23 53 -58 54h-32v-228c1 -37 1 -42 27 -47l19 -1v-28c-57 2 -68 2 -75 2
c-8 0 -18 0 -75 -2v28l18 1c28 5 28 10 28 47v228h-32c-35 -1 -43 -10 -58 -54z" />
    <glyph glyph-name="Icircumflex" unicode="&#xce;" horiz-adv-x="313" 
d="M207 688l4 18h295l-4 -18h-105l-141 -670h105l-5 -18h-294l3 18h105l141 670h-104zM234 761l159 130l109 -133l-20 -17l-92 112l-139 -112z" />
    <glyph glyph-name="Eacute" unicode="&#xc9;" horiz-adv-x="521" 
d="M592 580l-1 -8c-1 -4 -2 -8 -4 -12l5 8c4 7 7 18 7 33c0 76 -72 102 -119 102c-76 0 -138 -63 -138 -152c0 -144 148 -144 214 -144l-3 -16c-69 1 -143 1 -210 -30c-88 -41 -119 -118 -119 -181c0 -96 68 -171 166 -171c57 0 156 27 206 154l15 -6
c-22 -48 -79 -174 -252 -174c-129 0 -231 77 -231 192c0 126 115 236 280 228c-90 11 -155 81 -155 157c0 77 69 163 205 163c110 0 157 -66 157 -120c0 -48 -31 -76 -69 -76c-33 0 -55 23 -55 53c0 26 21 51 51 51c31 0 50 -26 50 -51zM421 764l202 125l14 -22l-203 -127z
" />
    <glyph glyph-name="registered" unicode="&#xae;" horiz-adv-x="833" 
d="M718 239l25 -4c-6 -28 -22 -106 -77 -106c-54 0 -65 43 -83 118c-18 80 -24 105 -89 109h-43v-128c0 -50 1 -62 52 -70v-25c-31 2 -54 2 -70 2c-29 0 -55 -1 -90 -2v25c45 7 45 11 46 71v262c0 40 0 54 -46 58v25c49 -2 62 -2 81 -2c16 0 92 2 110 2c37 0 152 0 152 -103
c0 -44 -26 -92 -112 -105c47 -13 58 -56 66 -87l9 -38c9 -38 14 -57 33 -57c23 0 32 33 36 55zM451 472v-82h42c38 1 126 2 126 78s-80 76 -95 76c-71 0 -73 -13 -73 -72zM870 351c-1 -196 -156 -354 -357 -354c-186 0 -355 145 -355 356c0 205 163 356 355 356
c206 0 358 -163 357 -358zM838 351c1 178 -138 326 -323 326c-183 0 -325 -146 -325 -324c0 -182 145 -324 323 -324c183 0 324 144 325 322z" />
    <glyph glyph-name="Otilde" unicode="&#xd5;" horiz-adv-x="833" 
d="M581 725c186 2 336 -111 336 -320c0 -177 -131 -423 -416 -423c-156 0 -330 95 -330 310c0 185 129 431 410 433zM269 262c0 -193 122 -266 225 -266c214 0 325 272 325 443c0 193 -119 271 -229 269c-218 -3 -321 -277 -321 -446zM535 785l-26 9c19 31 39 62 80 62
c19 0 37 -7 54 -15c12 -6 23 -14 35 -21c11 -6 24 -11 36 -11c25 0 43 18 55 32l21 -13c-14 -20 -33 -47 -75 -47c-5 0 -20 0 -42 10c-15 7 -29 17 -43 25c-12 6 -25 11 -39 11c-29 0 -44 -24 -56 -42z" />
    <glyph glyph-name="eth" unicode="&#xf0;" horiz-adv-x="521" 
d="M596 655l6 -17l-79 -27c23 -38 74 -123 74 -264c0 -219 -100 -365 -267 -365c-92 0 -197 52 -197 197c0 151 111 290 253 290c47 0 92 -17 128 -47c-4 68 -16 128 -36 174l-171 -58l-7 18l170 57c-28 54 -56 89 -112 121l7 12c61 -23 110 -67 147 -119zM492 395
c-21 47 -62 59 -92 59c-78 0 -112 -63 -125 -86c-50 -95 -61 -213 -61 -237c0 -77 39 -134 111 -134c58 0 93 33 121 87c36 67 60 163 60 234c0 18 -1 49 -14 77z" />
    <glyph glyph-name="Ucircumflex" unicode="&#xdb;" horiz-adv-x="938" 
d="M495 706h189l-4 -18h-90l-94 -445c131 15 217 96 217 202c0 8 0 13 -1 26l18 2c1 -9 2 -21 2 -32c0 -79 -57 -193 -239 -218c-1 -15 -2 -30 -2 -45c0 -108 77 -172 177 -172c43 0 87 12 119 31c85 50 103 134 133 271l81 380h-98l4 18h223l-4 -18h-100l-84 -393
c-26 -125 -37 -178 -92 -238c-18 -19 -72 -75 -198 -75c-70 0 -140 15 -190 63c-60 57 -60 131 -60 142s1 21 3 35c-41 8 -86 16 -131 43c-67 38 -112 106 -112 188c0 72 37 152 126 205c78 46 150 47 207 48zM502 688h-18c-46 0 -108 -1 -179 -39
c-99 -54 -125 -146 -125 -200c0 -69 36 -112 58 -134c56 -56 117 -66 170 -74c1 8 1 12 4 24zM635 761l159 130l109 -133l-20 -17l-92 112l-139 -112z" />
    <glyph glyph-name="Atilde" unicode="&#xc3;" horiz-adv-x="771" 
d="M432 -106l-4 -16c-57 12 -90 22 -156 57c-77 -108 -168 -195 -284 -195c-84 0 -156 60 -156 140c0 70 59 98 91 98c39 0 63 -28 63 -57c0 -28 -23 -53 -54 -53c-32 0 -53 25 -53 54c0 12 4 19 9 29c-14 -9 -39 -25 -39 -72c0 -66 59 -123 138 -123c135 0 223 137 261 195
c-41 37 -112 102 -112 211c0 141 116 228 236 228c37 0 66 -9 100 -19c116 204 231 337 430 337c14 0 28 -1 41 -1l-3 -18c-12 0 -24 1 -36 1c-16 0 -30 -1 -49 -3l-144 -669h105l-3 -18h-300l4 18h103c4 28 8 56 8 84c0 126 -61 201 -141 245l-104 -212
c-44 -92 -66 -127 -102 -186l29 -16c53 -25 71 -30 122 -39zM644 111l121 553c-129 -60 -192 -155 -270 -301c74 -45 141 -101 149 -252zM257 -35c31 56 39 71 105 203c40 82 78 147 103 189c-30 9 -57 17 -92 17c-111 0 -220 -80 -220 -212c0 -105 68 -165 104 -197z
M733 785l-26 9c19 31 39 62 80 62c19 0 37 -7 54 -15c12 -6 23 -14 35 -21c11 -6 24 -11 36 -11c25 0 43 18 55 32l21 -13c-14 -20 -33 -47 -75 -47c-5 0 -20 0 -42 10c-15 7 -29 17 -43 25c-12 6 -25 11 -39 11c-29 0 -44 -24 -56 -42z" />
    <glyph glyph-name="Ecircumflex" unicode="&#xca;" horiz-adv-x="521" 
d="M592 580l-1 -8c-1 -4 -2 -8 -4 -12l5 8c4 7 7 18 7 33c0 76 -72 102 -119 102c-76 0 -138 -63 -138 -152c0 -144 148 -144 214 -144l-3 -16c-69 1 -143 1 -210 -30c-88 -41 -119 -118 -119 -181c0 -96 68 -171 166 -171c57 0 156 27 206 154l15 -6
c-22 -48 -79 -174 -252 -174c-129 0 -231 77 -231 192c0 126 115 236 280 228c-90 11 -155 81 -155 157c0 77 69 163 205 163c110 0 157 -66 157 -120c0 -48 -31 -76 -69 -76c-33 0 -55 23 -55 53c0 26 21 51 51 51c31 0 50 -26 50 -51zM338 761l159 130l109 -133l-20 -17
l-92 112l-139 -112z" />
    <glyph glyph-name="Ocircumflex" unicode="&#xd4;" horiz-adv-x="833" 
d="M581 725c186 2 336 -111 336 -320c0 -177 -131 -423 -416 -423c-156 0 -330 95 -330 310c0 185 129 431 410 433zM269 262c0 -193 122 -266 225 -266c214 0 325 272 325 443c0 193 -119 271 -229 269c-218 -3 -321 -277 -321 -446zM495 761l159 130l109 -133l-20 -17
l-92 112l-139 -112z" />
    <glyph glyph-name="copyright" unicode="&#xa9;" horiz-adv-x="833" 
d="M870 351c-1 -197 -156 -354 -357 -354c-185 0 -355 145 -355 356c0 205 164 356 355 356c207 0 358 -163 357 -358zM838 351c1 178 -138 326 -323 326c-183 0 -325 -146 -325 -324c0 -182 146 -324 324 -324c183 0 323 144 324 322zM666 260h20c0 -57 0 -65 1 -125
c-33 -2 -46 -4 -77 -8l-18 -2c-44 -4 -59 -6 -82 -6c-163 0 -210 114 -210 241c0 43 5 77 17 106c27 69 87 112 188 112c21 0 42 -2 75 -6l21 -2c19 -3 35 -5 68 -5c5 -59 7 -78 13 -125h-20c-12 48 -29 117 -125 117c-150 0 -150 -154 -150 -192c0 -46 5 -103 25 -146
c27 -59 69 -80 129 -80c109 0 120 84 125 121z" />
    <glyph glyph-name="Iacute" unicode="&#xcd;" horiz-adv-x="313" 
d="M207 688l4 18h295l-4 -18h-105l-141 -670h105l-5 -18h-294l3 18h105l141 670h-104zM317 764l202 125l14 -22l-203 -127z" />
    <glyph glyph-name="Aacute" unicode="&#xc1;" horiz-adv-x="771" 
d="M432 -106l-4 -16c-57 12 -90 22 -156 57c-77 -108 -168 -195 -284 -195c-84 0 -156 60 -156 140c0 70 59 98 91 98c39 0 63 -28 63 -57c0 -28 -23 -53 -54 -53c-32 0 -53 25 -53 54c0 12 4 19 9 29c-14 -9 -39 -25 -39 -72c0 -66 59 -123 138 -123c135 0 223 137 261 195
c-41 37 -112 102 -112 211c0 141 116 228 236 228c37 0 66 -9 100 -19c116 204 231 337 430 337c14 0 28 -1 41 -1l-3 -18c-12 0 -24 1 -36 1c-16 0 -30 -1 -49 -3l-144 -669h105l-3 -18h-300l4 18h103c4 28 8 56 8 84c0 126 -61 201 -141 245l-104 -212
c-44 -92 -66 -127 -102 -186l29 -16c53 -25 71 -30 122 -39zM644 111l121 553c-129 -60 -192 -155 -270 -301c74 -45 141 -101 149 -252zM257 -35c31 56 39 71 105 203c40 82 78 147 103 189c-30 9 -57 17 -92 17c-111 0 -220 -80 -220 -212c0 -105 68 -165 104 -197z
M776 764l202 125l14 -22l-203 -127z" />
    <glyph glyph-name="Thorn" unicode="&#xde;" 
d="M397 688l-28 -136c18 2 43 6 75 6c147 0 208 -82 208 -170c0 -56 -35 -218 -293 -218c-36 0 -56 3 -69 5l-34 -157h106l-5 -18h-295l4 18h105l141 670h-104l4 18h294l-3 -18h-106zM363 522l-70 -330c24 -3 36 -4 51 -4c141 0 214 108 214 206c0 34 -10 137 -126 137
c-23 0 -46 -4 -69 -9z" />
    <glyph glyph-name="Uacute" unicode="&#xda;" horiz-adv-x="938" 
d="M495 706h189l-4 -18h-90l-94 -445c131 15 217 96 217 202c0 8 0 13 -1 26l18 2c1 -9 2 -21 2 -32c0 -79 -57 -193 -239 -218c-1 -15 -2 -30 -2 -45c0 -108 77 -172 177 -172c43 0 87 12 119 31c85 50 103 134 133 271l81 380h-98l4 18h223l-4 -18h-100l-84 -393
c-26 -125 -37 -178 -92 -238c-18 -19 -72 -75 -198 -75c-70 0 -140 15 -190 63c-60 57 -60 131 -60 142s1 21 3 35c-41 8 -86 16 -131 43c-67 38 -112 106 -112 188c0 72 37 152 126 205c78 46 150 47 207 48zM502 688h-18c-46 0 -108 -1 -179 -39
c-99 -54 -125 -146 -125 -200c0 -69 36 -112 58 -134c56 -56 117 -66 170 -74c1 8 1 12 4 24zM718 764l202 125l14 -22l-203 -127z" />
    <glyph glyph-name="Aring" unicode="&#xc5;" horiz-adv-x="771" 
d="M432 -106l-4 -16c-57 12 -90 22 -156 57c-77 -108 -168 -195 -284 -195c-84 0 -156 60 -156 140c0 70 59 98 91 98c39 0 63 -28 63 -57c0 -28 -23 -53 -54 -53c-32 0 -53 25 -53 54c0 12 4 19 9 29c-14 -9 -39 -25 -39 -72c0 -66 59 -123 138 -123c135 0 223 137 261 195
c-41 37 -112 102 -112 211c0 141 116 228 236 228c37 0 66 -9 100 -19c116 204 231 337 430 337c14 0 28 -1 41 -1l-3 -18c-12 0 -24 1 -36 1c-16 0 -30 -1 -49 -3l-144 -669h105l-3 -18h-300l4 18h103c4 28 8 56 8 84c0 126 -61 201 -141 245l-104 -212
c-44 -92 -66 -127 -102 -186l29 -16c53 -25 71 -30 122 -39zM644 111l121 553c-129 -60 -192 -155 -270 -301c74 -45 141 -101 149 -252zM257 -35c31 56 39 71 105 203c40 82 78 147 103 189c-30 9 -57 17 -92 17c-111 0 -220 -80 -220 -212c0 -105 68 -165 104 -197z
M811 883c34 1 65 -26 65 -64c0 -37 -30 -64 -64 -64c-37 0 -64 32 -64 64c0 29 22 63 63 64zM813 860c-23 0 -42 -19 -42 -41c0 -18 14 -41 41 -41c25 0 42 20 42 41c0 26 -22 41 -41 41z" />
    <glyph glyph-name="Zcaron" unicode="&#x17d;" horiz-adv-x="833" 
d="M306 538l34 168h541l-439 -558c44 -23 52 -29 121 -74c58 -38 127 -77 193 -77c95 0 141 75 141 136c0 71 -52 109 -83 132l8 16c26 -17 93 -62 93 -145c0 -100 -77 -157 -163 -157c-60 0 -126 30 -202 81c-63 43 -70 47 -120 72c-51 -57 -131 -149 -239 -149
c-83 0 -95 54 -95 81c0 62 64 126 170 126c34 0 66 -7 99 -14l400 512h-305c-88 1 -111 -35 -126 -102l-10 -48h-18zM351 160c-27 6 -50 11 -82 11c-120 0 -154 -72 -154 -107c0 -37 26 -58 60 -58c59 0 104 59 176 154zM497 871l21 18l92 -112l140 111l16 -20l-160 -129z
" />
    <glyph glyph-name="Eth" unicode="&#xd0;" horiz-adv-x="854" 
d="M302 18l36 172c-33 13 -64 24 -100 60c-22 23 -66 74 -66 168c0 61 19 132 83 195c92 89 202 97 274 103c42 46 63 67 135 119l10 -13c-41 -33 -53 -45 -94 -106c36 -3 73 -7 122 -24c117 -40 231 -139 231 -305c0 -56 -17 -239 -208 -337c-91 -48 -169 -49 -255 -50
h-274l5 18h101zM423 175l-34 -158c50 0 93 1 135 8c75 15 155 56 204 106c57 59 102 160 102 272c0 89 -29 168 -79 219c-65 67 -143 74 -181 77c-27 -50 -38 -71 -58 -137c-18 -54 -20 -67 -45 -176h225l-8 -18h-221l-37 -177c82 -1 122 10 185 56l11 -13
c-73 -52 -121 -61 -199 -59zM342 206l35 162h-116l5 18h115c41 178 72 233 130 311c-47 -3 -103 -6 -174 -46c-107 -59 -147 -154 -147 -237s37 -128 64 -155c35 -35 60 -44 88 -53z" />
    <glyph glyph-name="Yacute" unicode="&#xdd;" horiz-adv-x="688" 
d="M529 522l-20 -8c-8 22 -16 41 -16 73c0 96 83 148 158 148c89 0 162 -63 162 -179c0 -70 -33 -134 -61 -183c-34 -58 -112 -181 -238 -322c-177 -197 -276 -256 -370 -256c-91 0 -114 63 -114 99c0 46 32 75 65 75c31 0 58 -25 58 -57c0 -30 -24 -58 -58 -58
c-11 0 -23 4 -32 10c-5 4 -10 9 -14 14c0 -16 17 -64 91 -64c118 0 229 116 298 189l-156 686h-83l3 18h274l-4 -18h-102l139 -612c104 122 170 214 223 308c31 54 59 113 59 175c0 98 -62 154 -139 154c-67 0 -138 -48 -138 -124c0 -25 8 -48 15 -68zM505 764l202 125
l14 -22l-203 -127z" />
    <glyph glyph-name="Ydieresis" unicode="&#x178;" horiz-adv-x="688" 
d="M529 522l-20 -8c-8 22 -16 41 -16 73c0 96 83 148 158 148c89 0 162 -63 162 -179c0 -70 -33 -134 -61 -183c-34 -58 -112 -181 -238 -322c-177 -197 -276 -256 -370 -256c-91 0 -114 63 -114 99c0 46 32 75 65 75c31 0 58 -25 58 -57c0 -30 -24 -58 -58 -58
c-11 0 -23 4 -32 10c-5 4 -10 9 -14 14c0 -16 17 -64 91 -64c118 0 229 116 298 189l-156 686h-83l3 18h274l-4 -18h-102l139 -612c104 122 170 214 223 308c31 54 59 113 59 175c0 98 -62 154 -139 154c-67 0 -138 -48 -138 -124c0 -25 8 -48 15 -68zM442 778
c-9 9 -15 22 -15 35c0 27 23 49 49 49c28 0 50 -22 50 -49s-22 -50 -50 -50c-12 0 -25 6 -34 15zM624 777c-9 10 -14 23 -14 36c0 27 22 49 49 49c28 0 50 -22 50 -49c0 -28 -22 -50 -50 -50c-12 0 -25 5 -35 14z" />
    <glyph glyph-name="Edieresis" unicode="&#xcb;" horiz-adv-x="521" 
d="M592 580l-1 -8c-1 -4 -2 -8 -4 -12l5 8c4 7 7 18 7 33c0 76 -72 102 -119 102c-76 0 -138 -63 -138 -152c0 -144 148 -144 214 -144l-3 -16c-69 1 -143 1 -210 -30c-88 -41 -119 -118 -119 -181c0 -96 68 -171 166 -171c57 0 156 27 206 154l15 -6
c-22 -48 -79 -174 -252 -174c-129 0 -231 77 -231 192c0 126 115 236 280 228c-90 11 -155 81 -155 157c0 77 69 163 205 163c110 0 157 -66 157 -120c0 -48 -31 -76 -69 -76c-33 0 -55 23 -55 53c0 26 21 51 51 51c31 0 50 -26 50 -51zM358 778c-9 9 -15 22 -15 35
c0 27 23 49 49 49c28 0 50 -22 50 -49s-22 -50 -50 -50c-12 0 -25 6 -34 15zM540 777c-9 10 -14 23 -14 36c0 27 22 49 49 49c28 0 50 -22 50 -49c0 -28 -22 -50 -50 -50c-12 0 -25 5 -35 14z" />
    <glyph glyph-name="mu" unicode="&#xb5;" horiz-adv-x="583" 
d="M218 31l-60 -281h-77l147 691l-88 -12l4 16l168 26l-21 -98c-13 -57 -45 -201 -45 -249c0 -54 24 -96 72 -96c60 0 95 63 115 98c73 129 92 224 112 328h80l-73 -350c-3 -15 -6 -30 -6 -45c0 -21 8 -46 34 -46c34 0 49 46 67 106l15 -4c-18 -69 -40 -130 -106 -130
c-30 0 -84 16 -84 84c0 12 2 23 3 35l23 122c-87 -203 -148 -233 -206 -233c-50 0 -65 24 -74 38z" />
    <glyph glyph-name="Scaron" unicode="&#x160;" 
d="M596 513l8 40c2 14 5 28 5 42c0 57 -44 113 -128 113c-108 0 -130 -83 -130 -122c0 -67 42 -108 142 -206c33 -32 95 -93 95 -183c0 -101 -93 -216 -257 -216c-141 0 -210 94 -210 175c0 69 50 136 119 136c47 0 80 -33 80 -73c0 -36 -26 -60 -55 -60
c-30 0 -54 25 -54 55c0 28 24 51 49 51c7 0 12 -2 19 -3c-10 7 -18 12 -38 12c-63 0 -101 -60 -101 -117c0 -70 56 -157 184 -157c131 0 179 99 179 168c0 76 -36 111 -130 203c-46 45 -98 102 -98 179c0 93 81 174 195 174c76 0 126 -30 160 -50l8 34h17l-41 -195h-18z
M387 871l21 18l92 -112l140 111l16 -20l-160 -129z" />
    <glyph glyph-name="aacute" unicode="&#xe1;" 
d="M449 109l21 101c-47 -107 -102 -224 -211 -224c-78 0 -128 71 -128 162c0 80 38 163 94 220c84 83 196 101 262 101c49 0 78 -8 114 -19l-75 -340c-6 -31 -9 -44 -9 -59c0 -6 0 -43 33 -43c39 0 60 65 71 107l15 -4c-19 -74 -44 -129 -108 -129c-36 0 -84 23 -84 86
c0 14 2 27 5 41zM521 452c-10 0 -21 1 -31 1c-30 0 -67 -7 -105 -25c-134 -66 -172 -223 -172 -296c0 -76 34 -119 77 -119c64 0 131 106 180 239c30 81 38 127 51 200zM384 531l202 127l14 -23l-203 -127z" />
    <glyph glyph-name="acircumflex" unicode="&#xe2;" 
d="M449 109l21 101c-47 -107 -102 -224 -211 -224c-78 0 -128 71 -128 162c0 80 38 163 94 220c84 83 196 101 262 101c49 0 78 -8 114 -19l-75 -340c-6 -31 -9 -44 -9 -59c0 -6 0 -43 33 -43c39 0 60 65 71 107l15 -4c-19 -74 -44 -129 -108 -129c-36 0 -84 23 -84 86
c0 14 2 27 5 41zM521 452c-10 0 -21 1 -31 1c-30 0 -67 -7 -105 -25c-134 -66 -172 -223 -172 -296c0 -76 34 -119 77 -119c64 0 131 106 180 239c30 81 38 127 51 200zM299 529l160 129l108 -133l-21 -18l-91 113l-141 -113z" />
    <glyph glyph-name="adieresis" unicode="&#xe4;" 
d="M449 109l21 101c-47 -107 -102 -224 -211 -224c-78 0 -128 71 -128 162c0 80 38 163 94 220c84 83 196 101 262 101c49 0 78 -8 114 -19l-75 -340c-6 -31 -9 -44 -9 -59c0 -6 0 -43 33 -43c39 0 60 65 71 107l15 -4c-19 -74 -44 -129 -108 -129c-36 0 -84 23 -84 86
c0 14 2 27 5 41zM521 452c-10 0 -21 1 -31 1c-30 0 -67 -7 -105 -25c-134 -66 -172 -223 -172 -296c0 -76 34 -119 77 -119c64 0 131 106 180 239c30 81 38 127 51 200zM333 546c-9 9 -15 22 -15 35c0 28 23 49 49 49c28 0 50 -22 50 -49c0 -26 -22 -49 -50 -49
c-12 0 -25 5 -34 14zM515 546c-9 9 -14 22 -14 35c0 27 22 49 49 49c28 0 50 -22 50 -49s-22 -49 -50 -49c-13 0 -25 5 -35 14z" />
    <glyph glyph-name="agrave" unicode="&#xe0;" 
d="M449 109l21 101c-47 -107 -102 -224 -211 -224c-78 0 -128 71 -128 162c0 80 38 163 94 220c84 83 196 101 262 101c49 0 78 -8 114 -19l-75 -340c-6 -31 -9 -44 -9 -59c0 -6 0 -43 33 -43c39 0 60 65 71 107l15 -4c-19 -74 -44 -129 -108 -129c-36 0 -84 23 -84 86
c0 14 2 27 5 41zM521 452c-10 0 -21 1 -31 1c-30 0 -67 -7 -105 -25c-134 -66 -172 -223 -172 -296c0 -76 34 -119 77 -119c64 0 131 106 180 239c30 81 38 127 51 200zM325 636l17 22l149 -127l-17 -22z" />
    <glyph glyph-name="aring" unicode="&#xe5;" 
d="M449 109l21 101c-47 -107 -102 -224 -211 -224c-78 0 -128 71 -128 162c0 80 38 163 94 220c84 83 196 101 262 101c49 0 78 -8 114 -19l-75 -340c-6 -31 -9 -44 -9 -59c0 -6 0 -43 33 -43c39 0 60 65 71 107l15 -4c-19 -74 -44 -129 -108 -129c-36 0 -84 23 -84 86
c0 14 2 27 5 41zM521 452c-10 0 -21 1 -31 1c-30 0 -67 -7 -105 -25c-134 -66 -172 -223 -172 -296c0 -76 34 -119 77 -119c64 0 131 106 180 239c30 81 38 127 51 200zM457 646c38 1 66 -29 66 -64c0 -34 -27 -64 -63 -64c-37 0 -65 30 -65 64c0 32 25 63 62 64zM460 624
c-20 1 -42 -15 -42 -42c0 -30 27 -42 42 -42c21 0 41 18 41 42s-20 41 -41 42z" />
    <glyph glyph-name="atilde" unicode="&#xe3;" 
d="M449 109l21 101c-47 -107 -102 -224 -211 -224c-78 0 -128 71 -128 162c0 80 38 163 94 220c84 83 196 101 262 101c49 0 78 -8 114 -19l-75 -340c-6 -31 -9 -44 -9 -59c0 -6 0 -43 33 -43c39 0 60 65 71 107l15 -4c-19 -74 -44 -129 -108 -129c-36 0 -84 23 -84 86
c0 14 2 27 5 41zM521 452c-10 0 -21 1 -31 1c-30 0 -67 -7 -105 -25c-134 -66 -172 -223 -172 -296c0 -76 34 -119 77 -119c64 0 131 106 180 239c30 81 38 127 51 200zM330 556l-25 9c18 29 39 61 80 61c18 0 37 -7 53 -16c12 -6 23 -13 35 -20c12 -6 24 -10 37 -10
c25 0 42 18 55 32l21 -13c-15 -20 -34 -47 -76 -47c-5 0 -20 0 -42 10c-15 7 -28 16 -43 24c-12 6 -25 11 -38 11c-30 0 -45 -23 -57 -41z" />
    <glyph glyph-name="eacute" unicode="&#xe9;" horiz-adv-x="417" 
d="M469 109l13 -7c-28 -40 -81 -119 -192 -119c-90 0 -159 58 -159 169c0 66 26 136 52 179c47 81 128 137 210 137c70 0 122 -45 122 -111c0 -41 -17 -80 -48 -111c-65 -66 -153 -66 -189 -66c-20 0 -41 1 -62 2c-2 -16 -3 -31 -3 -47c0 -67 28 -134 98 -134
c85 0 137 78 158 108zM218 197c15 -1 29 -2 43 -2c139 0 226 83 226 171c0 54 -34 83 -77 83s-73 -28 -86 -42c-72 -70 -95 -165 -106 -210zM343 531l202 127l14 -23l-203 -127z" />
    <glyph glyph-name="ecircumflex" unicode="&#xea;" horiz-adv-x="417" 
d="M469 109l13 -7c-28 -40 -81 -119 -192 -119c-90 0 -159 58 -159 169c0 66 26 136 52 179c47 81 128 137 210 137c70 0 122 -45 122 -111c0 -41 -17 -80 -48 -111c-65 -66 -153 -66 -189 -66c-20 0 -41 1 -62 2c-2 -16 -3 -31 -3 -47c0 -67 28 -134 98 -134
c85 0 137 78 158 108zM218 197c15 -1 29 -2 43 -2c139 0 226 83 226 171c0 54 -34 83 -77 83s-73 -28 -86 -42c-72 -70 -95 -165 -106 -210zM258 529l160 129l108 -133l-21 -18l-91 113l-141 -113z" />
    <glyph glyph-name="edieresis" unicode="&#xeb;" horiz-adv-x="417" 
d="M469 109l13 -7c-28 -40 -81 -119 -192 -119c-90 0 -159 58 -159 169c0 66 26 136 52 179c47 81 128 137 210 137c70 0 122 -45 122 -111c0 -41 -17 -80 -48 -111c-65 -66 -153 -66 -189 -66c-20 0 -41 1 -62 2c-2 -16 -3 -31 -3 -47c0 -67 28 -134 98 -134
c85 0 137 78 158 108zM218 197c15 -1 29 -2 43 -2c139 0 226 83 226 171c0 54 -34 83 -77 83s-73 -28 -86 -42c-72 -70 -95 -165 -106 -210zM277 547c-9 9 -15 22 -15 35c0 28 23 49 49 49c28 0 50 -22 50 -49c0 -26 -22 -49 -50 -49c-12 0 -25 5 -34 14zM459 547
c-9 9 -14 22 -14 35c0 27 22 49 49 49c28 0 50 -22 50 -49s-22 -49 -50 -49c-13 0 -25 5 -35 14z" />
    <glyph glyph-name="egrave" unicode="&#xe8;" horiz-adv-x="417" 
d="M469 109l13 -7c-28 -40 -81 -119 -192 -119c-90 0 -159 58 -159 169c0 66 26 136 52 179c47 81 128 137 210 137c70 0 122 -45 122 -111c0 -41 -17 -80 -48 -111c-65 -66 -153 -66 -189 -66c-20 0 -41 1 -62 2c-2 -16 -3 -31 -3 -47c0 -67 28 -134 98 -134
c85 0 137 78 158 108zM218 197c15 -1 29 -2 43 -2c139 0 226 83 226 171c0 54 -34 83 -77 83s-73 -28 -86 -42c-72 -70 -95 -165 -106 -210zM284 636l17 22l149 -127l-17 -22z" />
    <glyph glyph-name="iacute" unicode="&#xed;" horiz-adv-x="271" 
d="M152 442l175 26c-17 -81 -32 -151 -59 -250c-15 -54 -37 -133 -37 -163c0 -23 10 -44 33 -44c40 0 63 84 70 108l16 -4c-20 -64 -44 -129 -111 -129c-32 0 -82 18 -82 87c0 28 7 57 25 127c33 122 54 201 63 242l-90 -15zM249 531l202 127l14 -23l-203 -127z" />
    <glyph glyph-name="icircumflex" unicode="&#xee;" horiz-adv-x="271" 
d="M152 442l175 26c-17 -81 -32 -151 -59 -250c-15 -54 -37 -133 -37 -163c0 -23 10 -44 33 -44c40 0 63 84 70 108l16 -4c-20 -64 -44 -129 -111 -129c-32 0 -82 18 -82 87c0 28 7 57 25 127c33 122 54 201 63 242l-90 -15zM164 529l160 129l108 -133l-21 -18l-91 113
l-141 -113z" />
    <glyph glyph-name="idieresis" unicode="&#xef;" horiz-adv-x="271" 
d="M152 442l175 26c-17 -81 -32 -151 -59 -250c-15 -54 -37 -133 -37 -163c0 -23 10 -44 33 -44c40 0 63 84 70 108l16 -4c-20 -64 -44 -129 -111 -129c-32 0 -82 18 -82 87c0 28 7 57 25 127c33 122 54 201 63 242l-90 -15zM183 547c-9 9 -15 22 -15 35c0 28 23 49 49 49
c28 0 50 -22 50 -49c0 -26 -22 -49 -50 -49c-12 0 -25 5 -34 14zM365 547c-9 9 -14 22 -14 35c0 27 22 49 49 49c28 0 50 -22 50 -49s-22 -49 -50 -49c-13 0 -25 5 -35 14z" />
    <glyph glyph-name="igrave" unicode="&#xec;" horiz-adv-x="271" 
d="M152 442l175 26c-17 -81 -32 -151 -59 -250c-15 -54 -37 -133 -37 -163c0 -23 10 -44 33 -44c40 0 63 84 70 108l16 -4c-20 -64 -44 -129 -111 -129c-32 0 -82 18 -82 87c0 28 7 57 25 127c33 122 54 201 63 242l-90 -15zM190 636l17 22l149 -127l-17 -22z" />
    <glyph glyph-name="ntilde" unicode="&#xf1;" horiz-adv-x="604" 
d="M143 443l176 27l-55 -267c29 72 63 153 123 212c39 39 75 54 122 54c69 0 124 -39 124 -109c0 -18 -4 -34 -7 -52l-51 -190c-5 -20 -10 -40 -10 -66c0 -22 11 -39 33 -39c29 0 50 36 71 107l14 -3c-19 -69 -43 -130 -109 -130c-30 0 -83 17 -83 87c0 22 5 43 9 63l46 174
c5 21 10 40 10 62c0 75 -61 75 -71 75c-68 0 -116 -76 -134 -103c-66 -103 -101 -226 -130 -345h-78l92 442l-89 -14zM361 556l-25 9c18 29 39 61 80 61c18 0 37 -7 53 -16c12 -6 23 -13 35 -20c12 -6 24 -10 37 -10c25 0 42 18 55 32l21 -13c-15 -20 -34 -47 -76 -47
c-5 0 -20 0 -42 10c-15 7 -28 16 -43 24c-12 6 -25 11 -38 11c-30 0 -45 -23 -57 -41z" />
    <glyph glyph-name="oacute" unicode="&#xf3;" horiz-adv-x="521" 
d="M385 469c113 3 204 -70 204 -199c0 -107 -73 -288 -259 -288c-93 0 -198 51 -198 197c0 133 92 286 253 290zM492 395c-22 49 -65 59 -93 59c-78 0 -112 -63 -125 -86c-50 -95 -61 -212 -61 -236c0 -79 40 -135 111 -135s102 49 121 87c42 80 61 177 61 233
c0 22 -3 53 -14 78zM374 531l202 127l14 -23l-203 -127z" />
    <glyph glyph-name="ocircumflex" unicode="&#xf4;" horiz-adv-x="521" 
d="M385 469c113 3 204 -70 204 -199c0 -107 -73 -288 -259 -288c-93 0 -198 51 -198 197c0 133 92 286 253 290zM492 395c-22 49 -65 59 -93 59c-78 0 -112 -63 -125 -86c-50 -95 -61 -212 -61 -236c0 -79 40 -135 111 -135s102 49 121 87c42 80 61 177 61 233
c0 22 -3 53 -14 78zM289 529l160 129l108 -133l-21 -18l-91 113l-141 -113z" />
    <glyph glyph-name="odieresis" unicode="&#xf6;" horiz-adv-x="521" 
d="M385 469c113 3 204 -70 204 -199c0 -107 -73 -288 -259 -288c-93 0 -198 51 -198 197c0 133 92 286 253 290zM492 395c-22 49 -65 59 -93 59c-78 0 -112 -63 -125 -86c-50 -95 -61 -212 -61 -236c0 -79 40 -135 111 -135s102 49 121 87c42 80 61 177 61 233
c0 22 -3 53 -14 78zM310 546c-9 9 -15 22 -15 35c0 28 23 49 49 49c28 0 50 -22 50 -49c0 -26 -22 -49 -50 -49c-12 0 -25 5 -34 14zM492 546c-9 9 -14 22 -14 35c0 27 22 49 49 49c28 0 50 -22 50 -49s-22 -49 -50 -49c-13 0 -25 5 -35 14z" />
    <glyph glyph-name="ograve" unicode="&#xf2;" horiz-adv-x="521" 
d="M385 469c113 3 204 -70 204 -199c0 -107 -73 -288 -259 -288c-93 0 -198 51 -198 197c0 133 92 286 253 290zM492 395c-22 49 -65 59 -93 59c-78 0 -112 -63 -125 -86c-50 -95 -61 -212 -61 -236c0 -79 40 -135 111 -135s102 49 121 87c42 80 61 177 61 233
c0 22 -3 53 -14 78zM315 636l17 22l149 -127l-17 -22z" />
    <glyph glyph-name="otilde" unicode="&#xf5;" horiz-adv-x="521" 
d="M385 469c113 3 204 -70 204 -199c0 -107 -73 -288 -259 -288c-93 0 -198 51 -198 197c0 133 92 286 253 290zM492 395c-22 49 -65 59 -93 59c-78 0 -112 -63 -125 -86c-50 -95 -61 -212 -61 -236c0 -79 40 -135 111 -135s102 49 121 87c42 80 61 177 61 233
c0 22 -3 53 -14 78zM320 556l-25 9c18 29 39 61 80 61c18 0 37 -7 53 -16c12 -6 23 -13 35 -20c12 -6 24 -10 37 -10c25 0 42 18 55 32l21 -13c-15 -20 -34 -47 -76 -47c-5 0 -20 0 -42 10c-15 7 -28 16 -43 24c-12 6 -25 11 -38 11c-30 0 -45 -23 -57 -41z" />
    <glyph glyph-name="scaron" unicode="&#x161;" horiz-adv-x="417" 
d="M470 391c0 3 -10 21 -17 29c-17 18 -50 33 -87 33c-68 0 -111 -44 -111 -92c0 -22 9 -43 24 -58c13 -14 25 -20 78 -47c39 -21 104 -54 104 -129c0 -69 -60 -143 -189 -143c-116 0 -147 73 -147 115c0 45 28 70 56 70c27 0 52 -23 52 -53s-23 -52 -50 -52
c-17 0 -30 10 -41 19c5 -18 10 -33 26 -50c17 -17 47 -33 90 -33c78 0 126 51 126 103c0 48 -37 71 -63 87c-21 12 -43 23 -64 36c-22 14 -75 46 -75 110c0 61 49 134 164 134c106 0 145 -65 145 -105c0 -37 -23 -60 -53 -60c-26 0 -47 18 -47 49c0 29 21 50 47 50
c7 0 14 -2 20 -5c4 -2 8 -5 12 -8zM259 640l21 18l92 -113l140 112l17 -19l-160 -131z" />
    <glyph glyph-name="uacute" unicode="&#xfa;" horiz-adv-x="583" 
d="M144 445l162 26c-23 -121 -31 -163 -53 -256c-9 -38 -21 -90 -21 -116c0 -21 5 -82 71 -82c63 0 104 65 130 110c74 126 94 235 112 327h80l-73 -350c-3 -15 -6 -30 -6 -45c0 -45 29 -46 34 -46c34 0 49 46 67 106l15 -4c-18 -69 -40 -130 -106 -130c-30 0 -84 16 -84 84
c0 12 2 23 3 34l23 123c-70 -163 -130 -238 -223 -238c-43 0 -120 22 -120 111c0 32 8 66 30 161c19 83 25 120 35 180l-80 -12zM406 531l202 127l14 -23l-203 -127z" />
    <glyph glyph-name="ucircumflex" unicode="&#xfb;" horiz-adv-x="583" 
d="M144 445l162 26c-23 -121 -31 -163 -53 -256c-9 -38 -21 -90 -21 -116c0 -21 5 -82 71 -82c63 0 104 65 130 110c74 126 94 235 112 327h80l-73 -350c-3 -15 -6 -30 -6 -45c0 -45 29 -46 34 -46c34 0 49 46 67 106l15 -4c-18 -69 -40 -130 -106 -130c-30 0 -84 16 -84 84
c0 12 2 23 3 34l23 123c-70 -163 -130 -238 -223 -238c-43 0 -120 22 -120 111c0 32 8 66 30 161c19 83 25 120 35 180l-80 -12zM321 529l160 129l108 -133l-21 -18l-91 113l-141 -113z" />
    <glyph glyph-name="udieresis" unicode="&#xfc;" horiz-adv-x="583" 
d="M144 445l162 26c-23 -121 -31 -163 -53 -256c-9 -38 -21 -90 -21 -116c0 -21 5 -82 71 -82c63 0 104 65 130 110c74 126 94 235 112 327h80l-73 -350c-3 -15 -6 -30 -6 -45c0 -45 29 -46 34 -46c34 0 49 46 67 106l15 -4c-18 -69 -40 -130 -106 -130c-30 0 -84 16 -84 84
c0 12 2 23 3 34l23 123c-70 -163 -130 -238 -223 -238c-43 0 -120 22 -120 111c0 32 8 66 30 161c19 83 25 120 35 180l-80 -12zM314 546c-9 9 -15 22 -15 35c0 28 23 49 49 49c28 0 50 -22 50 -49c0 -26 -22 -49 -50 -49c-12 0 -25 5 -34 14zM496 546c-9 9 -14 22 -14 35
c0 27 22 49 49 49c28 0 50 -22 50 -49s-22 -49 -50 -49c-13 0 -25 5 -35 14z" />
    <glyph glyph-name="ugrave" unicode="&#xf9;" horiz-adv-x="583" 
d="M144 445l162 26c-23 -121 -31 -163 -53 -256c-9 -38 -21 -90 -21 -116c0 -21 5 -82 71 -82c63 0 104 65 130 110c74 126 94 235 112 327h80l-73 -350c-3 -15 -6 -30 -6 -45c0 -45 29 -46 34 -46c34 0 49 46 67 106l15 -4c-18 -69 -40 -130 -106 -130c-30 0 -84 16 -84 84
c0 12 2 23 3 34l23 123c-70 -163 -130 -238 -223 -238c-43 0 -120 22 -120 111c0 32 8 66 30 161c19 83 25 120 35 180l-80 -12zM347 636l17 22l149 -127l-17 -22z" />
    <glyph glyph-name="yacute" unicode="&#xfd;" horiz-adv-x="583" 
d="M141 440l176 30c-26 -136 -34 -172 -62 -293c-8 -35 -13 -56 -13 -79c0 -54 26 -82 77 -82c56 0 93 47 121 92c81 126 105 249 124 343h80c-9 -35 -10 -41 -17 -74l-61 -289c-20 -102 -76 -381 -310 -381c-95 0 -158 59 -158 128c0 54 34 88 71 88c30 0 51 -23 51 -50
c0 -28 -22 -51 -51 -51c-33 0 -43 23 -51 40c-1 -9 -3 -19 -3 -28c0 -63 64 -109 130 -109c80 0 137 61 172 135c35 76 76 236 100 367c-76 -175 -132 -240 -227 -240c-63 0 -125 32 -125 114c0 13 1 32 19 114c28 119 31 133 47 224l-88 -14zM406 531l202 127l14 -23
l-203 -127z" />
    <glyph glyph-name="ydieresis" unicode="&#xff;" horiz-adv-x="583" 
d="M141 440l176 30c-26 -136 -34 -172 -62 -293c-8 -35 -13 -56 -13 -79c0 -54 26 -82 77 -82c56 0 93 47 121 92c81 126 105 249 124 343h80c-9 -35 -10 -41 -17 -74l-61 -289c-20 -102 -76 -381 -310 -381c-95 0 -158 59 -158 128c0 54 34 88 71 88c30 0 51 -23 51 -50
c0 -28 -22 -51 -51 -51c-33 0 -43 23 -51 40c-1 -9 -3 -19 -3 -28c0 -63 64 -109 130 -109c80 0 137 61 172 135c35 76 76 236 100 367c-76 -175 -132 -240 -227 -240c-63 0 -125 32 -125 114c0 13 1 32 19 114c28 119 31 133 47 224l-88 -14zM340 547c-9 9 -15 22 -15 35
c0 28 23 49 49 49c28 0 50 -22 50 -49c0 -26 -22 -49 -50 -49c-12 0 -25 5 -34 14zM522 547c-9 9 -14 22 -14 35c0 27 22 49 49 49c28 0 50 -22 50 -49s-22 -49 -50 -49c-13 0 -25 5 -35 14z" />
    <glyph glyph-name="zcaron" unicode="&#x17e;" horiz-adv-x="500" 
d="M152 297l-14 4c21 67 52 169 133 169c26 0 45 -9 63 -18c51 -24 84 -40 121 -40c56 0 87 35 108 59l13 -10l-405 -421c19 9 45 20 83 20c21 0 43 -4 63 -10c34 -11 65 -30 98 -44c15 -6 31 -11 46 -11c54 0 86 51 86 105c0 34 -12 58 -24 82l12 8c13 -28 26 -53 26 -93
c0 -91 -75 -155 -152 -155c-45 0 -82 20 -112 41c-45 29 -66 42 -101 42c-42 0 -65 -24 -80 -41l-12 12l379 393c-22 -11 -45 -24 -91 -24c-39 0 -68 11 -97 25c-24 11 -38 18 -58 18c-51 0 -69 -54 -85 -111zM300 640l21 18l92 -113l140 112l17 -19l-160 -131z" />
    </font>
</defs>
</svg>
